<svg width="44" height="44" viewBox="0 0 44 44" fill="none" xmlns="http://www.w3.org/2000/svg">
<circle cx="22" cy="22" r="22" fill="#1A460D"/>
<circle cx="22" cy="22" r="15" fill="#0D968F"/>
<path d="M29.5329 16.3661H25.8662V15.6327C25.8662 14.8238 25.2085 14.166 24.3995 14.166H19.9995C19.1906 14.166 18.5328 14.8238 18.5328 15.6327V16.366H14.8661C14.0572 16.3661 13.3994 17.0238 13.3994 17.8327V20.0328C13.3994 20.8417 14.0572 21.4995 14.8661 21.4995H20.7329V21.1328C20.7329 20.9301 20.8969 20.7661 21.0995 20.7661H23.2996C23.5022 20.7661 23.6662 20.9301 23.6662 21.1328V21.4995H29.533C30.3418 21.4995 30.9996 20.8417 30.9996 20.0328V17.8327C30.9996 17.0238 30.3418 16.3661 29.5329 16.3661ZM24.3995 16.3661H19.9995V15.6327H24.3995V16.3661Z" fill="white"/>
<path d="M30.7962 21.8952C30.6713 21.8332 30.5219 21.8476 30.4116 21.9313C30.151 22.1286 29.8473 22.2328 29.5329 22.2328H23.6662V23.3329C23.6662 23.5355 23.5022 23.6995 23.2995 23.6995H21.0995C20.8968 23.6995 20.7328 23.5355 20.7328 23.3329V22.2328H14.8661C14.5517 22.2328 14.2481 22.1286 13.9874 21.9313C13.8767 21.8468 13.7278 21.8325 13.6028 21.8952C13.4782 21.9571 13.3994 22.0842 13.3994 22.2236V27.3663C13.3994 28.1751 14.0572 28.833 14.8661 28.833H29.533C30.3418 28.833 30.9997 28.1752 30.9997 27.3663V22.2236C30.9996 22.0842 30.9208 21.9571 30.7962 21.8952Z" fill="white"/>
</svg>
