<svg width="34" height="34" viewBox="0 0 34 34" fill="none" xmlns="http://www.w3.org/2000/svg">
<circle cx="17" cy="17" r="17" fill="#FEC077"/>
<circle cx="17.0004" cy="16.9999" r="12.641" fill="white"/>
<path d="M23.6998 12.9496H20.4497V12.2996C20.4497 11.5826 19.8667 10.9995 19.1497 10.9995H15.2496C14.5326 10.9995 13.9495 11.5825 13.9495 12.2996V12.9496H10.6995C9.98245 12.9496 9.39941 13.5326 9.39941 14.2496V16.1996C9.39941 16.9167 9.98245 17.4997 10.6995 17.4997H15.8996V17.1747C15.8996 16.995 16.045 16.8497 16.2246 16.8497H18.1747C18.3543 16.8497 18.4997 16.995 18.4997 17.1747V17.4997H23.6998C24.4168 17.4997 24.9998 16.9167 24.9998 16.1996V14.2496C24.9998 13.5326 24.4168 12.9496 23.6998 12.9496ZM19.1497 12.9496H15.2496V12.2996H19.1497V12.9496Z" fill="#FF9E2C"/>
<path d="M24.8195 17.8507C24.7087 17.7958 24.5764 17.8085 24.4786 17.8828C24.2476 18.0577 23.9784 18.15 23.6997 18.15H18.4996V19.1251C18.4996 19.3047 18.3543 19.4501 18.1746 19.4501H16.2246C16.0449 19.4501 15.8996 19.3047 15.8996 19.1251V18.15H10.6995C10.4208 18.15 10.1516 18.0577 9.92056 17.8828C9.82248 17.8079 9.69046 17.7952 9.57967 17.8507C9.46925 17.9057 9.39941 18.0183 9.39941 18.1418V22.7002C9.39941 23.4171 9.98245 24.0002 10.6995 24.0002H23.6998C24.4168 24.0002 24.9998 23.4172 24.9998 22.7002V18.1418C24.9998 18.0183 24.93 17.9057 24.8195 17.8507Z" fill="#FF9E2C"/>
</svg>
