<svg width="18" height="15" viewBox="0 0 18 15" fill="none" xmlns="http://www.w3.org/2000/svg">
<path d="M16.5329 2.36608H12.8662V1.63271C12.8662 0.823823 12.2085 0.166016 11.3995 0.166016H6.99949C6.1906 0.166016 5.53279 0.823789 5.53279 1.63271V2.36604H1.86611C1.05719 2.36608 0.399414 3.02385 0.399414 3.83274V6.03276C0.399414 6.84168 1.05719 7.49946 1.86611 7.49946H7.73285V7.13277C7.73285 6.9301 7.89686 6.76609 8.09954 6.76609H10.2996C10.5022 6.76609 10.6662 6.9301 10.6662 7.13277V7.49946H16.533C17.3418 7.49946 17.9996 6.84168 17.9996 6.03276V3.83274C17.9996 3.02385 17.3418 2.36608 16.5329 2.36608ZM11.3995 2.36608H6.99949V1.63271H11.3995V2.36608Z" fill="white"/>
<path d="M17.7962 7.89517C17.6713 7.83322 17.5219 7.84756 17.4116 7.93133C17.151 8.12865 16.8473 8.23284 16.5329 8.23284H10.6662V9.33285C10.6662 9.53553 10.5022 9.69953 10.2995 9.69953H8.0995C7.89683 9.69953 7.73282 9.53553 7.73282 9.33285V8.23284H1.86611C1.55171 8.23284 1.24807 8.12865 0.987371 7.93133C0.876716 7.84684 0.727768 7.8325 0.602779 7.89517C0.478202 7.95715 0.399414 8.08423 0.399414 8.22356V13.3663C0.399414 14.1751 1.05719 14.833 1.86611 14.833H16.533C17.3418 14.833 17.9997 14.1752 17.9997 13.3663V8.22356C17.9996 8.08423 17.9208 7.95715 17.7962 7.89517Z" fill="white"/>
</svg>
