<svg width="44" height="44" viewBox="0 0 44 44" fill="none" xmlns="http://www.w3.org/2000/svg">
<circle cx="22" cy="22" r="22" fill="#D7FFCB"/>
<circle cx="22" cy="22" r="15" fill="#0D968F"/>
<path fill-rule="evenodd" clip-rule="evenodd" d="M30.6039 25.2508L24.3107 14.3505C23.2828 12.5498 20.6834 12.5498 19.6592 14.3505L13.3623 25.2508C12.3344 27.0515 13.6138 29.2885 15.6881 29.2885H28.2559C30.3302 29.2885 31.6318 27.0293 30.6039 25.2508ZM19.0806 20.5983C19.0806 20.2516 19.3616 19.9706 19.7083 19.9706C20.055 19.9706 20.336 20.2516 20.336 20.5983C20.336 20.945 20.055 21.2261 19.7083 21.2261C19.3616 21.2261 19.0806 20.945 19.0806 20.5983ZM19.7083 18.9706C18.8093 18.9706 18.0806 19.6994 18.0806 20.5983C18.0806 21.4973 18.8093 22.2261 19.7083 22.2261C20.6073 22.2261 21.336 21.4973 21.336 20.5983C21.336 19.6994 20.6073 18.9706 19.7083 18.9706ZM25.3247 20.2C25.52 20.0048 25.52 19.6882 25.3247 19.4929C25.1295 19.2977 24.8129 19.2977 24.6176 19.4929L18.603 25.5076C18.4077 25.7028 18.4077 26.0194 18.603 26.2147C18.7983 26.4099 19.1149 26.4099 19.3101 26.2147L25.3247 20.2ZM23.5915 25.1093C23.5915 24.7626 23.8726 24.4816 24.2193 24.4816C24.566 24.4816 24.847 24.7626 24.847 25.1093C24.847 25.456 24.566 25.7371 24.2193 25.7371C23.8726 25.7371 23.5915 25.456 23.5915 25.1093ZM24.2193 23.4816C23.3203 23.4816 22.5915 24.2103 22.5915 25.1093C22.5915 26.0083 23.3203 26.7371 24.2193 26.7371C25.1183 26.7371 25.847 26.0083 25.847 25.1093C25.847 24.2103 25.1183 23.4816 24.2193 23.4816Z" fill="white"/>
</svg>
