<svg width="890" height="900" viewBox="0 0 890 900" fill="none" xmlns="http://www.w3.org/2000/svg">
<path d="M179.557 309.823C178.042 312.45 176.528 315.077 175.316 317.047C159.865 340.362 141.99 361.377 121.388 384.035C118.661 386.99 115.935 390.274 112.905 393.229C95.9389 411.618 78.6699 430.663 68.0661 453.321C64.1275 462.187 62.9157 468.754 64.4305 473.023C65.3394 474.993 66.5513 476.307 68.369 476.635C69.2779 476.964 69.8839 476.964 70.7928 476.964C74.4283 476.964 79.5788 474.993 85.0321 471.381C96.2418 464.157 106.846 454.963 117.146 446.097C125.629 438.873 134.415 431.32 143.201 425.081C179.557 399.14 203.491 381.736 214.701 333.137C217.125 322.958 218.337 299.972 211.066 290.121C208.642 286.837 205.309 285.195 201.371 285.195C192.888 286.181 185.011 299.972 179.557 309.823ZM202.886 286.509C206.218 286.509 208.945 288.151 211.066 291.106C218.034 300.957 216.822 323.286 214.398 333.137C203.189 381.408 179.557 398.483 143.201 424.424C134.112 430.992 125.326 438.216 117.146 445.44C106.846 454.306 96.2418 463.172 85.0321 470.725C78.3669 475.322 72.3076 476.964 68.975 475.978C67.4601 475.322 66.2483 474.337 65.6424 472.695C64.1275 468.754 65.3394 462.187 69.2779 453.649C79.5788 431.32 97.1507 412.275 113.814 393.886C116.54 390.602 119.57 387.647 122.297 384.692C142.596 362.034 160.773 341.018 176.225 317.704C177.436 315.734 178.951 313.107 180.466 310.48C185.92 300.629 193.494 287.166 202.28 286.837C202.28 286.509 202.583 286.509 202.886 286.509Z" fill="#5D5D5D" fill-opacity="0.15"/>
<path d="M197.736 255.314C184.406 258.926 172.893 278.956 163.501 294.718C160.168 300.3 157.139 305.554 154.412 309.495C139.264 330.511 122.298 349.556 105.938 367.945C101.696 372.87 96.2428 378.124 90.4865 383.707C73.5204 400.782 52.6158 421.797 46.2536 441.171C40.8002 457.59 44.1328 473.023 47.1625 487.8C49.5862 499.95 52.3129 512.756 50.1921 526.219C48.9802 534.428 44.4358 542.638 39.5883 551.175C33.832 561.355 27.7727 571.863 27.4697 583.356C27.4697 587.296 27.7727 590.908 28.9846 594.849C32.9231 606.998 37.1646 612.581 42.012 612.581C46.8595 612.581 52.3129 606.998 60.19 593.535C67.7641 580.729 70.7937 565.624 73.5204 551.175C76.5501 536.727 79.2768 521.622 87.1538 508.487C101.696 483.531 127.448 465.471 149.868 449.052C151.685 447.739 153.806 446.425 155.624 445.112C193.192 418.185 222.882 396.841 235.91 339.377C239.545 324.272 238.636 285.524 224.094 265.822C217.732 255.97 208.643 252.358 197.736 255.314ZM223.488 266.478C236.213 284.21 238.939 321.645 235.001 338.72C221.973 395.528 192.586 416.544 155.321 443.47C153.503 444.783 151.685 446.097 149.565 447.41C126.842 463.5 101.09 481.889 86.245 507.174C78.3679 520.309 75.3382 535.742 72.6115 550.519C69.8848 564.967 66.8552 579.743 59.2811 592.55C54.1307 601.744 47.7684 610.939 42.315 610.939C38.0735 610.939 34.4379 605.356 30.4994 594.192C29.2875 590.58 28.6816 587.296 28.9846 583.356C29.2875 572.519 35.3468 562.012 40.8002 551.832C45.6476 543.294 50.4951 535.085 51.7069 526.548C53.8277 513.084 51.101 500.278 48.6773 487.8C45.6476 472.366 42.618 457.918 47.7684 441.828C54.1307 422.783 75.0352 401.767 91.6983 385.02C97.4547 379.438 102.908 373.855 107.15 368.93C123.51 350.541 140.476 331.496 155.624 310.48C158.351 306.54 161.38 301.286 164.713 295.703C173.802 279.942 185.315 260.239 198.039 256.956C200.463 256.299 202.584 255.97 204.704 255.97C211.975 255.97 218.338 259.583 223.488 266.478Z" fill="#5D5D5D" fill-opacity="0.15"/>
<path d="M211.672 184.057C204.401 172.893 198.039 171.251 191.677 169.938C187.132 168.952 182.285 167.639 176.831 163.37L176.528 162.713C161.077 143.996 109.27 82.9194 91.6981 82.9194C89.5773 82.9194 88.0625 83.5762 86.8506 85.218C84.4269 88.5017 84.7299 95.0691 87.1536 105.577C88.6684 111.816 103.514 120.354 118.965 129.22C131.992 136.772 145.323 144.653 149.867 150.235C153.806 155.489 159.259 162.713 158.956 165.34C158.956 165.997 158.047 166.325 156.836 166.982C154.109 168.296 150.17 170.594 152.291 181.102C153.806 188.326 157.744 195.222 161.986 202.118C165.622 208.685 169.257 214.596 170.469 220.507C174.408 236.597 149.867 266.15 133.81 285.852C128.357 292.42 123.812 298.002 121.086 302.271C109.27 319.346 94.7277 334.779 80.4884 349.884C52.9185 379.438 24.4398 409.976 14.442 452.007C-0.403332 514.726 -3.43298 570.549 5.65597 617.178C10.5034 642.134 27.1665 676.613 43.5266 676.613C53.5245 676.613 61.0986 663.478 65.3401 637.537C81.7002 537.712 128.054 504.547 172.59 472.366C212.278 443.798 249.846 416.872 265.903 347.257C271.962 320.988 262.57 280.27 250.452 257.941C244.998 248.09 238.333 242.179 231.668 236.925C225.912 231.999 220.458 227.731 216.217 220.507C213.187 215.253 213.793 209.342 214.399 203.103C214.702 196.536 215.308 189.64 211.672 184.057ZM214.399 221.492C218.943 229.044 224.397 233.641 230.456 238.567C236.818 243.821 243.484 249.403 248.634 258.926C260.45 280.927 269.842 320.659 263.782 346.601C247.725 415.558 210.763 442.156 171.378 470.396C126.236 502.905 79.5795 536.399 62.6134 637.208C58.3719 661.508 51.7067 674.314 42.9207 674.314C29.2872 674.314 12.3212 643.119 7.1708 616.521C-1.91816 570.221 1.11149 515.055 15.9568 452.664C25.9546 411.29 54.1304 381.08 81.3972 351.526C95.6366 336.421 110.482 320.659 122.298 303.584C125.024 299.315 129.872 293.733 135.022 287.494C152.594 266.15 176.225 237.253 172.287 219.85C170.772 213.611 167.136 207.372 163.501 200.804C159.562 194.237 155.624 187.013 154.109 180.445C152.291 171.908 155.018 170.266 157.744 168.952C159.259 168.296 160.471 167.311 160.774 165.669C161.38 163.37 159.865 159.43 151.382 148.593C146.535 142.354 132.901 134.474 119.874 126.921C106.24 119.04 90.4862 109.846 89.2743 104.592C86.2447 92.7705 87.1536 88.1734 88.6684 86.2031C89.2743 85.218 90.4862 84.8896 91.6981 84.8896C105.029 84.8896 143.505 125.608 175.013 164.027C175.316 164.355 175.619 164.684 175.619 164.684C181.679 169.609 186.829 170.594 191.374 171.908C197.736 173.55 203.492 174.863 210.157 185.371C213.49 190.296 212.884 196.536 212.278 202.775C211.672 209.014 211.066 215.581 214.399 221.492Z" fill="#5D5D5D" fill-opacity="0.15"/>
<path d="M186.828 340.69C182.284 340.69 178.042 346.601 174.71 350.869C174.104 351.855 173.498 352.511 172.892 353.168C169.862 356.78 167.136 360.721 164.106 364.661C162.288 366.96 160.47 369.587 158.653 371.885L158.35 372.214C152.29 380.094 149.867 385.02 150.775 387.647C151.078 388.304 151.684 389.289 153.199 389.617C153.502 389.617 153.805 389.617 153.805 389.617C165.924 389.289 175.619 377.467 180.466 370.243C185.011 363.348 188.343 356.123 189.252 350.213C189.555 348.899 190.161 343.974 188.646 341.675C188.949 341.347 188.04 340.69 186.828 340.69ZM188.646 350.213C187.434 355.795 184.405 363.019 179.86 369.587C175.316 376.482 165.924 387.975 154.411 388.304V389.289V388.632C154.108 388.632 154.108 388.632 153.805 388.632C152.593 388.632 152.593 387.975 152.593 387.975C152.29 386.99 152.29 384.035 159.864 374.184L160.167 373.855C161.985 371.557 163.803 368.93 165.621 366.631C168.347 363.019 171.377 359.079 174.407 355.138C175.013 354.481 175.619 353.496 176.225 352.511C178.951 348.571 183.193 342.989 187.131 342.989C187.737 342.989 188.343 343.317 188.646 343.645C189.252 344.63 189.252 347.914 188.646 350.213Z" fill="#5D5D5D" fill-opacity="0.15"/>
<path d="M506.457 673.329C546.752 668.403 589.773 617.834 590.379 575.146C591.287 509.472 556.446 457.261 522.817 406.692C517.061 398.155 511.305 389.289 505.548 380.423L502.216 375.169C486.462 350.541 468.587 322.301 462.527 292.091C457.68 266.478 450.106 206.715 458.286 186.028C464.345 170.923 481.311 162.385 497.974 153.847C509.487 147.937 520.394 142.683 527.968 135.13L528.271 134.802C554.326 109.189 554.326 109.189 571.898 108.532C577.351 108.204 584.016 108.204 593.408 107.219C606.133 105.905 613.404 103.935 618.857 102.622C622.19 101.637 624.917 100.98 627.037 100.98C632.491 100.98 637.035 105.249 652.183 119.04C697.022 160.086 696.113 231.343 695.204 300.3C694.296 386.99 693.084 476.964 783.67 505.203C796.698 509.144 809.422 511.442 821.541 511.442C855.473 511.442 884.558 495.024 905.462 463.829C936.062 418.185 944.242 346.601 925.761 285.852C883.043 145.967 781.247 66.1725 671.573 -10.0093C571.898 -79.2954 477.07 -98.3409 396.178 -110.819C390.422 -111.804 384.665 -112.132 379.515 -112.132C346.492 -112.132 331.04 -94.0721 311.348 -71.0862C303.774 -62.2202 295.896 -53.3542 286.202 -43.8315C274.992 -33.3236 260.753 -26.0995 247.119 -18.8753C224.7 -7.38238 203.795 3.45383 195.009 27.4249C176.528 78.6506 221.973 118.383 262.267 153.519C280.748 169.609 298.32 185.043 308.621 200.476C349.521 261.224 337.1 364.004 300.138 421.469C288.625 439.529 266.509 461.859 243.181 485.173C204.401 524.249 160.471 568.25 152.594 605.685C148.958 623.088 149.867 635.238 155.624 643.119C160.168 649.358 168.348 652.642 179.861 652.642C198.948 652.642 226.214 644.104 254.996 635.238C290.443 624.073 330.434 611.595 364.367 611.595C380.727 611.595 394.057 614.222 405.57 620.133C418.597 626.7 429.807 635.895 440.714 645.089C458.589 660.194 475.252 674.314 498.883 674.314C501.307 673.986 504.033 673.657 506.457 673.329ZM406.176 618.163C394.663 612.58 380.727 609.625 364.367 609.625C330.132 609.625 289.837 622.103 254.39 633.268C225.609 642.134 198.342 650.671 179.558 650.671C168.348 650.671 161.077 647.716 156.533 641.805C151.079 634.581 150.473 622.76 153.806 606.013C161.38 569.236 205.31 525.234 243.786 486.486C267.115 462.844 289.534 440.515 301.047 422.454C338.312 364.333 350.43 260.896 309.53 199.491C299.229 184.057 281.657 168.624 262.873 152.206C223.185 117.398 178.043 77.9939 196.221 28.0816C204.704 4.76731 225.609 -6.0689 247.725 -17.2335C261.661 -24.4576 275.901 -31.6818 287.111 -42.518C296.805 -51.7124 304.682 -60.9067 312.257 -69.7727C331.646 -92.4303 347.098 -110.162 379.515 -110.162C384.665 -110.162 390.119 -109.834 395.875 -108.849C476.767 -96.3707 571.595 -77.3252 670.664 -8.36749C780.035 67.486 881.528 147.28 923.943 286.837C942.121 346.929 934.244 417.857 903.947 463.172C883.346 494.039 854.867 510.129 821.238 510.129C809.422 510.129 796.698 508.159 783.973 503.89C743.679 491.412 718.533 465.471 706.414 424.753C695.507 388.304 696.113 343.645 696.719 300.3C697.628 231.014 698.234 159.101 653.092 117.727C631.582 98.0244 630.976 97.6961 618.554 100.98C613.101 102.293 605.83 104.263 593.105 105.577C583.713 106.562 577.048 106.89 571.898 106.89C553.72 107.547 553.72 107.547 527.059 133.488L526.756 133.817C519.182 141.041 508.578 146.623 497.368 152.206C480.402 160.743 463.133 169.609 456.771 185.043C448.288 206.058 455.862 266.15 461.012 292.091C466.769 322.63 484.947 350.869 500.701 375.497L504.033 380.751C509.487 389.617 515.546 398.483 521.303 407.021C554.932 457.59 589.47 509.472 588.561 574.49C587.955 616.521 545.54 666.105 506.154 671.03C503.731 671.359 501.004 671.359 498.58 671.359C475.252 671.359 458.892 657.239 441.32 642.462C430.716 634.253 419.506 624.73 406.176 618.163Z" fill="#5D5D5D" fill-opacity="0.15"/>
<path d="M482.826 853.604C475.251 866.082 465.557 881.844 468.889 892.352C470.101 896.621 473.737 899.904 478.887 902.203C479.796 902.531 481.008 902.86 482.22 902.86C494.035 902.86 512.516 883.158 528.876 866.082C539.177 855.246 549.175 844.738 554.931 841.783C583.107 827.991 622.189 821.424 656.425 815.513C670.058 813.215 682.782 810.916 694.598 808.618C721.562 803.035 747.617 800.08 771.854 800.08C851.534 800.08 918.792 831.275 970.902 892.68C976.659 899.576 985.445 903.188 996.351 903.188C1030.59 903.188 1089.06 867.067 1130.56 800.408C1155.41 760.347 1191.16 678.583 1153.89 580.4C1139.05 540.996 1116.63 522.607 1083.91 522.607C1059.07 522.607 1030.59 532.458 997.563 543.951C956.966 558.071 911.218 574.161 861.835 574.161C823.358 574.161 788.214 564.639 753.979 544.936C648.547 483.86 645.518 372.87 654.607 282.897C658.242 247.761 652.486 220.178 637.944 202.775C627.643 190.625 614.009 184.058 597.952 184.058C567.656 184.058 529.482 209.67 515.849 258.598C502.821 304.569 533.421 346.601 568.868 394.871C608.859 449.052 654.304 510.786 645.518 593.535C641.276 634.581 627.34 673.986 608.556 698.614C594.317 717.331 581.592 719.301 568.565 720.943C558.264 722.256 547.963 723.57 535.541 732.107C526.15 738.675 523.12 749.511 520.09 761.332C517.969 769.213 515.849 777.751 511.304 784.647C508.881 788.259 504.639 789.244 499.792 789.9C493.732 790.886 487.067 792.199 483.431 800.737C481.008 806.647 484.34 813.543 487.37 820.111C490.097 825.693 492.823 831.603 491.914 836.201C491.006 840.469 487.37 846.38 482.826 853.604ZM488.582 819.454C485.552 812.886 482.523 806.647 484.643 801.722C487.976 794.169 494.035 793.184 499.792 791.871C504.639 790.886 509.486 790.229 512.213 785.632C517.061 778.408 519.181 770.198 521.302 761.989C524.332 750.824 527.058 739.988 536.147 733.749C548.266 725.54 558.567 724.226 568.565 722.913C582.198 720.943 595.226 719.301 609.768 699.927C628.855 674.643 642.791 635.238 647.033 593.864C655.819 510.458 610.374 448.067 570.382 393.229C535.238 345.287 504.942 303.584 517.666 258.598C530.997 210.656 568.262 185.371 597.952 185.371C613.403 185.371 627.037 191.61 636.732 203.431C650.668 220.507 656.425 247.761 652.789 282.24C643.7 372.87 646.73 484.845 753.07 546.25C787.608 566.28 823.055 575.803 861.835 575.803C911.521 575.803 957.572 559.713 998.169 545.593C1030.89 534.1 1059.37 524.249 1083.91 524.249C1116.33 524.249 1137.23 541.653 1152.08 580.729C1189.04 677.926 1153.59 759.034 1129.05 798.766C1089.66 862.799 1030.59 900.89 996.351 900.89C985.748 900.89 977.87 897.606 972.114 891.039C919.398 829.305 852.14 797.781 771.551 797.781C747.011 797.781 720.956 800.737 693.689 806.319C681.874 808.946 669.149 810.916 655.516 813.215C620.978 819.125 581.895 825.693 553.416 839.813C547.357 842.768 537.662 852.948 526.755 864.44C510.698 881.516 492.52 900.89 481.311 900.89C480.402 900.89 479.493 900.89 478.584 900.561C473.737 898.591 470.707 895.964 469.495 892.024C466.465 882.172 475.857 867.067 483.128 854.918C487.673 847.694 491.309 841.455 492.217 837.186C494.338 831.275 491.309 825.364 488.582 819.454Z" fill="#5D5D5D" fill-opacity="0.15"/>
<path d="M721.562 703.211C722.774 703.868 724.288 704.196 725.5 704.196C730.954 704.196 736.104 698.614 740.952 693.36C743.678 690.405 746.102 687.778 748.223 686.464C750.949 685.151 753.373 684.494 756.1 684.494C760.947 684.494 764.886 687.121 769.733 689.748C771.551 690.733 773.066 691.718 775.187 692.703C779.731 695.002 784.275 696.315 788.82 696.315C793.364 696.315 797.606 695.33 802.15 694.017C806.695 692.703 811.542 691.39 817.299 691.39H817.905C829.417 691.39 840.021 697.957 850.019 704.196C860.017 710.435 870.621 717.003 882.133 717.003C887.587 717.003 892.737 715.689 898.19 712.734C902.432 710.435 905.765 707.48 908.491 704.853C913.339 700.584 917.277 696.972 924.245 696.972C926.366 696.972 928.487 697.3 930.911 697.957C950.3 702.883 958.783 722.257 967.266 740.974C971.205 749.84 975.144 758.706 980.294 765.93C990.292 780.378 1003.62 788.587 1017.26 788.587H1017.86C1031.5 788.259 1044.52 780.05 1054.82 765.601C1068.46 745.899 1093.6 681.539 1083.3 649.687C1080.27 640.164 1074.21 634.253 1065.73 631.955C1062.7 630.97 1059.97 630.641 1057.25 630.641C1048.46 630.641 1041.8 634.91 1034.22 639.836C1032.4 640.821 1030.59 642.134 1028.77 643.119C1013.32 652.642 997.866 654.612 981.506 656.583C975.144 657.239 968.478 658.224 961.813 659.538C954.239 661.18 947.574 663.807 941.211 666.434C932.728 670.046 924.548 673.329 915.762 673.329C909.703 673.329 903.947 671.688 897.887 668.404C885.466 661.837 871.832 655.597 856.684 655.597C851.837 655.597 846.686 656.254 841.839 657.568C839.415 658.224 837.294 658.881 835.174 659.538C826.388 661.837 818.208 664.135 810.028 664.135C803.362 664.135 797 662.493 790.638 659.538L787.911 658.224C776.398 652.642 764.583 646.403 752.464 646.403C745.799 646.403 739.74 648.045 733.68 651.657C726.106 656.254 715.805 675.3 716.108 688.763C714.896 695.987 717.32 700.584 721.562 703.211ZM733.377 653.956C739.134 650.344 745.193 648.702 751.555 648.702C763.371 648.702 774.884 654.612 786.396 660.195L789.123 661.508C795.485 664.792 802.15 666.434 809.119 666.434C817.602 666.434 826.085 664.135 834.871 661.837C836.991 661.18 839.415 660.523 841.536 659.866C846.383 658.553 851.231 657.896 856.078 657.896C870.924 657.896 884.254 664.135 896.676 670.374C903.038 673.658 909.097 675.3 915.156 675.3C924.245 675.3 932.426 672.016 941.211 668.076C947.574 665.449 954.239 662.493 961.51 661.18C968.175 659.866 974.841 658.881 981.203 658.224C997.563 656.254 1013.32 654.284 1029.07 644.433C1030.89 643.119 1032.71 642.134 1034.52 641.149C1042.1 636.224 1048.46 632.283 1056.94 632.283C1059.67 632.283 1062.09 632.612 1065.12 633.597C1073.3 635.895 1078.76 641.478 1081.48 650.344C1091.79 681.867 1066.94 745.243 1053.31 764.945C1043.31 779.065 1030.59 786.946 1017.56 787.274H1016.95C1003.93 787.274 991.201 779.393 981.203 765.273C976.355 758.049 972.417 749.511 968.478 740.317C959.995 721.272 951.209 701.569 931.214 696.315C928.79 695.659 926.366 695.33 924.245 695.33C916.974 695.33 912.733 699.271 907.582 703.54C904.553 706.166 901.523 708.793 897.584 711.092C892.434 714.047 887.284 715.361 882.133 715.361C871.227 715.361 861.229 709.45 850.928 702.883C840.627 696.644 829.72 690.076 817.905 690.076H817.299C811.542 690.076 806.392 691.39 801.848 692.703C797.303 694.017 793.364 695.002 788.82 695.002C784.275 695.002 780.337 694.017 776.095 691.718C774.278 690.733 772.46 689.748 770.945 688.763C766.098 685.808 761.856 683.181 756.706 683.181C753.979 683.181 751.252 683.837 748.223 685.479C745.799 686.793 743.375 689.42 740.346 692.703C735.801 697.629 730.954 702.883 726.106 702.883C724.894 702.883 723.985 702.554 722.774 701.898C719.138 699.599 717.017 695.659 717.017 689.748C716.411 675.956 727.015 657.896 733.377 653.956Z" fill="#5D5D5D" fill-opacity="0.15"/>
<path d="M525.847 819.125C527.664 819.782 531.3 820.11 535.542 820.11C544.631 820.11 578.866 818.468 632.187 799.423C676.723 783.333 728.833 774.795 779.126 774.795C861.532 774.795 916.369 788.258 986.96 861.485C992.11 866.739 998.775 869.366 1006.96 869.366C1037.55 869.366 1083.91 833.245 1112.69 786.945C1135.11 750.824 1167.53 677.269 1133.9 588.938C1119.36 551.175 1101.48 545.921 1083.91 545.921C1062.4 545.921 1035.43 555.444 1004.23 566.28C962.116 581.057 914.551 597.475 861.835 597.475C819.723 597.475 781.246 586.967 743.679 565.295C625.522 496.994 624.007 369.586 633.096 279.941C635.823 252.03 631.884 230.029 621.887 217.879C615.827 210.655 607.647 206.715 597.952 206.715C575.533 206.715 547.357 226.745 536.45 264.508C526.756 298.987 554.022 336.093 585.834 379.437C626.128 434.604 676.42 503.561 666.725 595.833C663.999 622.103 657.333 647.387 647.336 670.373C631.279 707.151 610.374 738.346 584.622 763.302C567.656 779.721 550.69 791.214 538.268 799.423C527.059 806.975 520.09 811.573 520.696 815.185C520.999 817.155 522.817 818.14 525.847 819.125ZM538.874 800.736C551.296 792.527 568.262 781.034 585.228 764.616C610.98 739.66 632.187 708.464 648.245 671.359C658.242 648.044 664.908 622.76 667.634 596.49C677.329 503.89 627.037 434.932 586.44 379.437C554.931 336.421 527.967 299.315 537.359 265.493C547.963 228.059 575.836 208.357 597.952 208.357C607.647 208.357 615.524 211.969 621.281 219.193C631.279 231.014 634.914 252.687 632.187 280.27C623.098 370.243 624.613 497.979 743.376 566.608C780.943 588.281 819.723 598.789 861.835 598.789C914.854 598.789 962.419 582.042 1004.53 567.265C1035.74 556.429 1062.4 546.906 1083.91 546.906C1100.87 546.906 1118.75 552.16 1132.99 589.594C1166.31 677.269 1133.9 750.496 1111.78 786.616C1083.91 831.931 1036.95 868.709 1006.96 868.709C999.078 868.709 992.413 866.082 987.565 861.156C953.33 825.693 921.519 803.035 887.284 790.229C857.896 779.064 825.479 774.467 779.126 774.467C728.833 774.467 676.723 783.333 631.884 799.423C578.563 818.468 544.631 820.11 535.542 820.11C531.3 820.11 527.664 819.782 525.847 819.453C523.12 818.797 521.605 817.812 521.302 816.498C521.302 812.558 528.876 807.632 538.874 800.736Z" fill="#5D5D5D" fill-opacity="0.15"/>
<path d="M598.255 229.372C581.895 229.372 564.02 247.104 558.264 263.195C554.325 273.702 557.355 291.763 566.141 311.793C574.321 330.51 585.531 344.63 593.711 347.257C594.923 347.586 596.135 347.914 597.346 347.914C598.861 347.914 600.073 347.586 601.285 347.257C611.889 343.317 611.586 336.421 610.98 320.988C610.677 311.465 610.071 298.659 611.889 280.927C614.312 256.956 610.98 238.895 606.132 233.313C604.921 231.014 603.103 229.372 598.255 229.372ZM610.677 280.598C608.859 298.659 609.162 311.465 609.768 320.988C610.374 336.421 610.374 342.003 600.982 345.615C598.861 346.601 596.438 346.601 594.014 345.615C586.137 342.989 575.533 329.197 567.353 310.808C558.567 291.434 555.84 273.702 559.476 263.523C565.232 248.09 582.501 230.686 597.952 230.686C602.194 230.686 604.012 231.999 605.224 233.641C609.768 239.552 613.101 256.956 610.677 280.598Z" fill="#5D5D5D" fill-opacity="0.15"/>
<path d="M686.721 739.988C689.448 739.988 693.083 739.66 697.325 739.332C699.142 739.003 743.072 733.749 790.335 733.749C808.816 733.749 825.176 734.734 839.112 736.048C908.794 744.257 969.084 780.049 997.866 812.23C1003.32 818.14 1009.38 821.096 1016.65 821.096C1032.71 821.096 1052.7 805.991 1071.18 779.393C1103.6 732.764 1113.6 643.776 1097.24 608.969C1093 599.774 1086.94 594.849 1079.97 594.849C1079.36 594.849 1078.76 594.849 1078.15 594.849C1065.43 596.162 1047.86 601.744 1025.44 608.969C983.627 622.432 926.063 640.492 863.956 641.477C810.937 642.462 750.041 619.476 729.439 608.64C722.774 605.028 718.229 603.386 715.2 603.386C709.14 603.386 708.837 609.625 708.231 620.133C707.928 628.342 707.323 639.835 703.687 652.97C696.719 676.613 689.145 694.673 683.388 707.808C677.026 722.256 673.39 731.122 676.117 735.719C677.329 738.675 680.662 739.988 686.721 739.988ZM684.297 708.793C690.054 695.658 697.628 677.598 704.596 653.627C708.534 640.492 708.837 628.999 709.14 620.462C709.443 610.282 709.746 604.371 715.2 604.371C717.926 604.371 722.471 606.013 728.833 609.297C749.132 620.133 808.21 642.134 860.623 642.134C861.532 642.134 862.744 642.134 863.653 642.134C926.063 641.149 983.324 622.76 1025.44 609.297C1047.86 602.073 1065.43 596.491 1078.15 595.177C1085.73 594.192 1091.79 598.789 1096.33 608.64C1112.39 643.447 1102.39 731.779 1070.27 778.079C1051.79 804.349 1032.4 819.454 1016.35 819.454C1009.38 819.454 1003.32 816.499 998.169 810.916C969.084 778.736 908.794 742.615 838.809 734.406C824.873 732.764 808.513 732.107 790.032 732.107C742.769 732.107 698.84 737.361 697.022 737.69C692.78 738.346 689.448 738.346 686.721 738.346C681.268 738.346 678.238 737.361 676.723 735.063C674.299 731.779 677.935 722.913 684.297 708.793Z" fill="#5D5D5D" fill-opacity="0.15"/>
<path d="M618.857 777.422C621.584 777.422 625.219 776.765 629.158 775.123C671.573 759.033 720.653 751.481 779.428 751.481C852.746 751.481 925.155 758.705 1007.56 846.708C1009.98 849.335 1013.01 850.649 1016.95 850.649C1039.98 850.649 1082.7 802.707 1095.12 773.81C1096.33 771.183 1097.54 768.556 1098.75 765.601C1114.81 729.808 1141.77 670.045 1114.2 597.804C1103.3 568.907 1093 568.907 1083.91 568.907C1065.73 568.907 1040.28 577.773 1010.89 587.953C967.267 603.058 918.186 620.461 862.138 620.461C814.269 620.461 775.187 610.938 736.104 589.594C730.045 586.311 724.289 582.699 719.138 579.415C708.837 572.847 700.657 567.922 695.507 567.922C691.568 567.922 689.448 570.877 689.448 577.445C689.448 578.43 689.448 580.072 689.751 582.37C695.204 644.761 673.088 702.882 623.704 755.421C614.918 764.616 611.283 771.183 612.798 775.123C613.403 776.437 615.524 777.422 618.857 777.422ZM624.007 755.75C655.819 721.928 676.723 685.478 686.115 647.059C693.689 616.192 691.568 592.221 690.66 582.042C690.357 579.743 690.357 578.101 690.357 577.116C690.357 569.564 693.386 568.579 695.507 568.579C700.354 568.579 708.837 573.833 718.835 580.072C723.986 583.355 729.742 586.967 735.801 590.251C775.187 611.924 813.966 621.446 862.138 621.446C918.489 621.446 967.873 604.043 1011.2 588.938C1040.58 578.758 1066.03 569.892 1083.91 569.892C1092.69 569.892 1102.69 569.892 1113.3 598.132C1140.56 670.045 1113.9 729.808 1097.84 765.272C1096.63 768.228 1095.12 770.855 1094.21 773.482C1081.79 802.05 1039.37 849.664 1016.65 849.664C1013.01 849.664 1010.29 848.35 1008.17 846.051C969.993 805.334 930.305 778.407 886.981 764.287C848.504 751.809 812.754 750.496 779.428 750.496C720.653 750.496 671.27 758.377 628.855 774.138C625.219 775.452 621.584 776.437 618.857 776.437C616.736 776.437 614.312 776.109 613.403 773.81C612.798 772.168 613.1 767.243 624.007 755.75Z" fill="#5D5D5D" fill-opacity="0.15"/>
<path d="M428.898 441.171C426.777 439.201 424.959 438.216 423.444 438.216C419.203 438.216 416.173 444.126 411.629 452.992C407.084 462.187 400.722 474.665 389.512 487.471L386.18 491.083C373.455 505.532 367.699 512.099 369.214 515.711C369.82 517.353 371.94 518.01 375.576 518.01C378.606 518.01 383.453 517.353 391.33 516.368C394.663 516.04 397.692 515.711 401.025 515.711C427.383 515.711 449.196 531.801 465.254 543.294C474.645 550.19 481.917 555.444 487.37 555.444C489.491 555.444 491.309 554.459 492.823 552.489C509.486 529.174 450.711 462.844 428.898 441.171ZM491.309 551.504C490.097 553.145 488.885 553.802 487.067 553.802C482.22 553.802 474.948 548.548 465.859 541.981C449.802 530.159 427.686 514.069 400.722 514.069C397.389 514.069 394.057 514.398 390.724 514.726C383.15 516.04 378.303 516.368 375.273 516.368C372.243 516.368 370.728 516.04 370.425 515.054C369.517 512.428 376.485 504.547 387.089 492.069L390.421 488.456C401.631 475.65 407.993 462.844 412.841 453.649C417.082 445.44 419.809 439.858 423.141 439.858C424.353 439.858 425.868 440.843 427.686 442.485C454.953 469.083 506.154 530.816 491.309 551.504Z" fill="#5D5D5D" fill-opacity="0.15"/>
<path d="M429.201 468.426C418.597 468.426 404.963 486.486 404.963 495.024C404.963 498.636 407.084 500.606 410.417 500.606C426.171 500.935 442.531 511.771 454.65 519.323C461.921 523.921 467.071 527.204 470.101 527.204C471.01 527.204 471.919 526.876 472.525 526.219C473.131 525.563 473.434 524.249 473.434 522.279C472.222 506.517 444.652 474.994 433.442 468.754C431.927 468.754 430.715 468.426 429.201 468.426ZM471.01 523.264C471.01 524.577 471.01 525.234 470.707 525.234C470.707 525.234 470.404 525.563 470.101 525.563C467.677 525.563 462.224 521.95 455.862 518.01C443.743 510.129 426.777 498.965 410.72 498.965C408.296 498.965 407.387 497.979 407.387 495.681C407.387 488.128 420.112 471.381 429.504 471.381C430.715 471.381 431.624 471.71 432.533 472.038C444.349 478.277 470.101 508.816 471.01 523.264Z" fill="#5D5D5D" fill-opacity="0.15"/>
<path d="M391.633 170.594C394.36 170.594 396.177 166.654 398.298 157.788C405.872 124.294 431.018 79.964 470.101 56.3214C509.486 32.3504 535.844 26.1113 550.084 22.8276C557.052 21.1858 560.687 20.2007 561.596 18.2305C561.899 17.5737 561.899 16.5886 561.293 15.6035C558.567 10.3496 509.789 -19.5321 439.198 -25.4428L436.169 -25.7711C429.806 -26.4279 424.353 -26.7563 419.203 -26.7563C400.722 -26.7563 386.179 -21.174 351.641 10.3496C346.188 15.2751 340.735 19.8723 335.281 24.4695C318.618 38.261 304.076 50.4107 304.985 63.8739C305.591 74.3817 315.286 84.5612 334.978 96.3825C356.792 109.517 370.122 135.459 378.908 152.534C384.665 163.698 388.3 170.594 391.633 170.594ZM335.281 95.7258C316.194 84.2329 306.5 73.725 305.591 63.8739C304.682 50.7391 318.921 38.9178 335.281 25.1262C340.735 20.5291 346.188 15.9319 351.641 11.0063C385.876 -20.5172 400.722 -26.0995 418.597 -26.0995C423.747 -26.0995 429.2 -25.7711 435.563 -25.1144L438.592 -24.786C507.365 -18.8754 557.355 10.6779 559.778 15.9319C560.384 16.917 560.081 17.5737 560.081 17.9021C559.475 19.5439 555.537 20.2007 549.478 21.8425C535.238 25.1262 508.88 31.3653 469.192 55.3363C429.806 78.9789 404.66 123.637 397.086 157.459C395.268 165.669 393.451 169.609 391.33 169.609C388.3 169.609 384.362 161.728 379.211 152.205C371.031 134.802 357.398 108.861 335.281 95.7258Z" fill="#5D5D5D" fill-opacity="0.15"/>
<path d="M397.389 227.074C400.115 227.074 401.933 223.79 403.145 216.238C411.022 170.923 427.988 106.891 484.946 72.74C502.518 62.2322 522.513 53.6945 545.842 47.1271C550.386 45.8136 555.536 42.2016 560.384 38.5895C566.746 33.9923 573.108 29.3951 579.168 29.3951C579.774 29.3951 580.683 29.3951 581.288 29.7235C584.621 30.3803 587.045 32.3505 589.469 34.6491C592.195 36.9477 594.922 39.2463 598.255 39.2463C599.466 39.2463 600.981 38.9179 602.496 38.2611C604.92 37.276 606.435 34.9774 607.646 33.0072C609.464 30.0519 611.282 27.4249 616.432 27.7533C621.583 28.0817 624.31 32.3505 627.339 36.9477C629.46 40.2314 631.581 43.1867 634.61 45.1569C636.731 46.4704 640.67 47.7839 644.305 47.7839C646.729 47.7839 648.547 47.1271 649.456 45.8136C650.365 44.5002 650.668 42.53 650.062 40.2314C647.941 32.3505 632.793 25.1263 622.492 20.5292C619.462 19.2157 617.038 17.9022 615.221 16.9171C600.072 8.37946 585.227 0.826946 572.2 -5.08372C518.575 -30.6966 469.494 -46.13 422.535 -52.6974C417.384 -53.3541 412.537 -53.6825 408.598 -53.6825C385.573 -53.6825 367.395 -42.8463 331.948 -6.72557C323.162 2.14043 314.073 9.69294 305.59 16.9171C286.2 33.3356 270.749 46.4704 271.052 62.5605C271.355 75.367 281.656 89.1585 303.469 105.905C338.613 132.503 361.942 173.221 377.393 200.148C386.482 216.238 392.844 227.074 397.389 227.074ZM303.469 104.592C281.959 88.1734 271.658 74.7102 271.355 62.2321C271.052 46.4704 286.2 33.664 305.59 17.2455C314.376 10.0213 323.465 2.14042 332.251 -6.3972C367.698 -42.1895 385.573 -53.0258 408.295 -53.0258C412.537 -53.0258 417.081 -52.6974 422.232 -52.0406C469.191 -45.4732 517.969 -30.0399 571.594 -4.75535C584.318 1.15531 599.466 8.70783 614.312 17.2455C616.129 18.2306 618.553 19.544 621.583 20.8575C631.581 25.4547 646.729 32.6788 648.547 39.903C649.153 41.8732 648.85 43.5151 648.244 44.5002C647.335 45.8137 645.214 46.142 644.002 46.142C640.973 46.142 637.034 44.8285 634.913 43.5151C632.187 41.8732 630.066 38.5895 627.945 35.6342C624.915 31.037 621.886 26.4398 616.432 26.1115C610.676 25.4547 608.858 28.7384 607.041 31.6937C605.829 33.664 604.617 35.6342 602.193 36.6193C600.678 37.276 599.466 37.6044 598.255 37.6044C594.922 37.6044 592.498 35.6342 590.074 33.3356C587.651 31.3654 584.924 29.0668 581.288 28.41C580.683 28.41 579.774 28.0817 579.168 28.0817C572.805 28.0817 566.14 33.0072 559.778 37.6044C554.628 41.2165 550.083 44.8286 545.539 46.142C522.21 52.7094 502.215 61.247 484.643 71.7549C427.382 106.234 410.113 170.594 402.236 215.909C401.024 222.477 399.509 225.76 397.389 225.76C393.45 225.76 386.785 214.596 377.696 198.834C362.245 172.236 338.916 131.518 303.469 104.592Z" fill="#5D5D5D" fill-opacity="0.15"/>
<path d="M509.486 639.178C530.088 636.551 549.781 621.118 559.173 599.774C567.959 580.4 572.503 547.235 545.539 500.606C534.027 480.576 521.302 460.217 509.183 440.514C474.342 384.363 441.319 331.496 427.989 278.3C412.538 218.208 424.959 168.624 466.768 122.324C503.124 82.2627 550.993 59.2768 598.255 59.2768C633.702 59.2768 665.513 72.74 687.63 97.3678C711.867 124.294 723.986 164.027 722.471 211.641C722.168 222.805 721.562 234.298 721.259 246.448C719.441 289.464 717.32 338.391 723.683 379.109C730.954 425.738 748.526 454.634 777.308 467.441C792.759 474.337 807.301 477.62 820.632 477.62C844.869 477.62 865.47 466.127 880.316 444.455C905.462 407.677 911.521 344.302 895.464 287.166C860.623 164.355 777.308 91.1287 653.698 12.6482C559.779 -46.7868 480.402 -65.1755 408.902 -76.3401C403.449 -76.9968 398.601 -77.6535 393.754 -77.6535C363.76 -77.6535 349.521 -61.235 331.646 -40.2193C324.678 -32.3385 317.709 -23.8008 308.621 -15.2632C298.32 -5.41212 289.534 0.49855 281.657 5.75247C268.932 14.2901 258.025 21.5142 246.21 40.8881C222.275 79.6357 254.39 103.278 288.019 128.235C305.894 141.369 324.375 155.161 334.07 171.251C396.177 273.046 371.031 381.736 327.101 449.709C314.377 469.083 296.199 487.471 276.506 506.845C252.572 530.488 228.032 555.116 213.792 582.37C207.733 594.192 205.915 602.073 208.642 606.67C210.46 609.953 214.701 611.595 221.064 611.595C232.576 611.595 251.057 606.341 272.568 600.431C302.561 591.893 339.826 581.385 372.849 581.385C390.421 581.385 405.266 584.341 417.385 590.251C429.504 596.162 439.501 604.7 449.499 612.909C465.556 626.7 481.008 639.507 502.518 639.507C504.639 639.507 507.063 639.507 509.486 639.178ZM417.688 589.266C405.266 583.027 390.724 580.072 372.849 580.072C339.826 580.072 302.258 590.58 272.265 599.117C251.057 605.028 232.576 610.282 221.064 610.282C215.004 610.282 211.066 608.64 209.248 605.685C206.824 601.416 208.642 593.535 214.398 582.37C228.335 555.116 253.178 530.816 276.809 507.174C296.199 487.8 314.68 469.411 327.404 450.037C353.156 410.304 368.608 364.989 371.637 319.018C374.97 266.478 362.548 216.566 334.676 170.594C324.678 154.176 306.197 140.384 288.322 127.249C254.996 102.622 223.487 78.979 246.816 41.2164C258.631 21.8426 269.538 14.6185 281.96 6.40922C289.837 1.1553 298.926 -4.75537 309.226 -14.6065C318.012 -23.1441 325.284 -31.3533 332.252 -39.5626C350.127 -60.2499 364.366 -76.6684 393.754 -76.6684C398.298 -76.6684 403.449 -76.3401 408.599 -75.3549C480.099 -64.5187 559.173 -46.13 653.092 13.6334C776.399 92.1138 859.714 165.012 894.555 287.494C910.612 344.302 904.553 407.349 879.71 444.127C865.167 465.471 844.566 476.964 820.632 476.964C807.301 476.964 793.062 473.68 777.611 466.784C749.132 454.306 731.863 425.738 724.592 379.109C718.229 338.391 720.35 289.793 722.168 246.448C722.774 234.298 723.077 222.805 723.38 211.641C724.592 163.699 712.473 123.637 688.236 96.3826C666.119 71.4265 634.005 57.9633 598.255 57.9633C550.69 57.9633 502.518 80.9492 466.162 121.339C444.046 145.967 430.11 171.251 424.05 198.834C418.597 223.462 419.506 249.403 427.08 277.971C440.713 331.167 473.737 384.363 508.578 440.514C520.696 460.217 533.421 480.247 544.933 500.606C571.594 546.906 567.05 579.743 558.567 598.789C549.175 619.805 530.088 634.91 509.486 637.537C507.063 637.865 504.942 637.865 502.518 637.865C481.311 637.865 466.162 625.059 450.105 611.595C440.107 604.043 429.807 595.177 417.688 589.266Z" fill="#5D5D5D" fill-opacity="0.15"/>
<path d="M529.179 598.46C537.056 592.221 541.904 583.355 543.116 572.519C546.751 540.339 520.393 493.054 496.459 462.515C466.768 424.424 437.381 383.706 423.141 344.302C422.536 342.332 421.324 336.749 420.112 329.854C415.567 306.539 407.69 267.463 396.481 267.463C395.572 267.463 394.36 267.792 393.451 268.448C388.906 271.404 387.392 277.314 389.209 286.509C390.724 294.061 394.057 302.599 397.087 310.151C400.419 318.032 403.146 325.256 403.146 329.197C403.146 339.376 398.601 343.645 394.36 348.242C391.027 351.526 387.695 355.138 386.483 361.049C384.968 368.93 387.998 374.84 390.724 380.423C393.451 385.677 396.178 390.931 395.269 398.155C393.754 410.961 356.186 457.261 323.163 497.979C295.896 531.801 272.265 561.026 272.568 566.609C272.568 566.937 272.871 567.265 272.871 567.594C274.992 569.564 279.233 570.549 285.595 570.549C295.29 570.549 308.924 568.25 324.678 565.295C343.765 562.011 365.578 558.071 384.362 558.071C398.904 558.071 410.114 560.37 417.991 564.967C422.233 567.594 427.08 570.549 432.23 573.833C454.953 587.953 482.826 605.685 506.76 605.685C515.243 606.013 523.12 603.386 529.179 598.46ZM418.294 564.31C410.114 559.713 399.207 557.414 384.362 557.414C365.578 557.414 343.765 561.026 324.678 564.638C308.924 567.265 295.29 569.892 285.595 569.892C279.536 569.892 275.597 568.907 273.477 566.937C273.477 566.937 273.477 566.937 273.477 566.609C273.174 561.355 297.714 531.145 323.769 498.636C356.792 457.59 394.663 411.289 396.178 398.155C397.087 390.931 394.36 385.348 391.633 379.766C388.603 373.855 385.877 368.601 387.392 361.049C388.603 355.138 391.633 352.183 394.966 348.571C399.207 343.974 403.752 339.376 404.055 328.869C404.055 324.6 401.328 317.704 397.995 309.495C394.966 301.942 391.633 293.405 390.118 286.18C388.301 277.643 389.512 272.061 393.754 269.105C394.663 268.448 395.572 268.12 396.481 268.12C407.084 268.12 414.961 308.181 419.203 329.854C420.718 337.078 421.627 342.332 422.536 344.302C437.078 383.706 466.466 424.424 496.156 462.515C519.787 492.725 546.145 539.682 542.51 571.534C541.298 582.37 536.753 590.908 529.179 596.819C523.12 601.744 515.546 604.043 506.76 604.043C483.129 604.043 455.256 586.311 432.836 572.191C427.383 569.892 422.536 566.937 418.294 564.31Z" fill="#5D5D5D" fill-opacity="0.15"/>
<path d="M518.879 557.086C521.606 530.159 494.945 487.471 481.614 471.381C458.589 443.141 442.532 419.17 431.928 403.409C421.324 387.647 415.568 379.109 411.932 379.109C409.206 379.109 407.994 382.721 407.085 391.587C400.42 458.575 360.428 494.695 336.797 516.368C326.496 525.891 319.528 532.13 319.225 537.384C319.225 539.025 319.528 540.339 320.74 541.324C322.861 543.951 326.496 544.936 331.647 544.936C337.403 544.936 344.977 543.294 353.46 541.652C364.67 539.354 377.394 537.055 390.119 537.055C407.691 537.055 421.93 541.981 433.746 551.503C450.106 565.295 474.343 580.072 493.43 580.072C500.398 580.072 506.155 578.101 511.002 574.489C515.244 570.221 518.273 564.638 518.879 557.086ZM492.824 579.087C474.04 579.087 450.106 564.31 433.746 550.847C421.93 540.996 407.388 536.07 389.816 536.07C376.788 536.07 364.064 538.697 352.854 540.667C344.371 542.309 336.797 543.951 331.041 543.951C326.193 543.951 322.861 542.966 320.74 540.667C319.831 539.682 319.528 538.697 319.528 537.384C319.831 532.786 326.799 526.219 336.797 517.025C360.731 495.352 400.723 458.903 407.388 391.587C408.297 383.706 409.509 380.094 411.326 380.094C414.659 380.094 420.718 389.289 430.716 404.065C441.32 419.827 457.377 444.126 480.403 472.038C493.733 488.128 520.394 530.488 517.667 557.086C517.061 564.31 514.032 569.892 509.487 573.504C505.246 577.116 499.489 579.087 492.824 579.087Z" fill="#5D5D5D" fill-opacity="0.15"/>
<path d="M777.913 286.838C774.883 338.063 788.516 373.527 802.15 389.617C808.512 396.841 815.48 400.782 821.54 400.782C830.326 400.782 836.991 393.229 840.324 379.766C860.925 291.763 790.637 199.163 781.851 191.282C779.428 188.983 777.61 188.655 776.398 189.968C774.277 192.267 774.883 200.148 776.095 214.596C777.61 231.671 779.73 256.956 777.913 286.838ZM777.61 191.282C777.913 190.953 777.913 190.953 778.216 190.953C778.519 190.953 779.428 191.282 780.942 192.595C789.425 200.148 859.41 292.091 838.809 379.109C835.779 391.916 829.72 399.14 821.54 399.14C815.783 399.14 809.118 395.2 803.059 388.304C789.425 372.542 776.095 337.735 779.125 286.838C780.942 256.627 778.822 231.343 777.61 214.268C776.701 202.118 776.095 193.252 777.61 191.282Z" fill="#5D5D5D" fill-opacity="0.15"/>
<path d="M754.282 283.882C750.646 333.794 759.735 374.184 779.731 397.498C790.335 409.648 803.059 416.544 815.784 416.544C834.265 416.544 848.807 402.752 853.049 381.408C865.773 319.018 846.08 262.538 827.297 226.417C805.18 184.058 777.004 153.848 763.371 143.996C758.523 140.384 754.888 138.086 752.767 138.086C751.858 138.086 751.252 138.414 750.949 139.071C749.131 141.369 750.04 147.28 751.252 159.43C753.979 180.774 758.826 220.835 754.282 283.882ZM751.858 139.728C752.161 139.399 752.464 139.071 753.07 139.071C754.888 139.071 758.523 141.369 763.068 144.653C793.667 166.982 875.468 268.12 852.443 381.08C848.201 402.095 833.962 415.559 815.784 415.559C803.059 415.559 790.638 408.991 780.337 396.842C760.644 373.527 751.555 333.466 754.888 284.211C759.432 220.835 754.585 180.774 752.161 159.43C751.252 148.265 750.343 141.369 751.858 139.728Z" fill="#5D5D5D" fill-opacity="0.15"/>
<path d="M737.013 287.166C733.378 349.228 744.587 398.155 767.916 425.081C780.034 438.873 794.577 446.425 810.331 446.425C840.324 446.425 865.773 420.156 873.65 381.08C885.163 323.287 875.165 266.479 844.263 212.297C812.755 157.131 769.128 121.667 745.799 105.249C733.984 97.0395 728.833 93.4275 727.015 96.0544C725.501 98.0246 726.409 104.264 728.53 116.085C732.772 141.698 742.164 195.222 737.013 287.166ZM727.318 96.3828C727.621 96.0544 727.924 96.0544 728.53 96.0544C730.954 96.0544 736.407 99.6665 745.193 105.906C822.449 160.415 896.676 261.225 872.742 380.751C864.865 419.499 840.021 445.44 810.331 445.44C794.88 445.44 780.337 438.216 768.522 424.425C745.193 397.827 734.59 348.899 737.922 287.166C743.073 194.894 733.681 141.37 729.136 115.428C727.318 104.92 726.107 98.353 727.318 96.3828Z" fill="#5D5D5D" fill-opacity="0.15"/>
<path d="M388.301 81.2778C396.784 81.2778 403.146 72.4118 409.509 58.9486C421.021 35.3059 444.955 24.1414 457.983 17.9023C464.648 14.947 467.072 13.6335 466.769 11.6633C466.466 10.0214 464.951 9.36471 455.862 8.70797C428.898 6.73775 368.911 34.3208 361.943 55.3365C360.428 60.2621 361.64 64.5309 365.276 68.143C375.576 77.3373 382.545 81.2778 388.301 81.2778ZM363.761 55.9933C370.123 36.9478 426.172 10.6782 452.833 10.6782C453.741 10.6782 454.65 10.6782 455.559 10.6782C460.71 11.0066 463.133 11.3349 464.042 11.6633C462.83 12.6484 459.801 13.9619 457.074 15.2754C444.047 21.5144 419.506 33.0073 407.691 57.3067C400.117 72.4118 394.663 78.6508 388.301 78.6508C382.848 78.6508 376.485 74.7104 366.487 65.8444C363.155 63.2174 362.246 59.9337 363.761 55.9933Z" fill="#5D5D5D" fill-opacity="0.15"/>
<path d="M414.659 79.964C435.261 39.2461 473.131 25.1262 503.428 17.2453C506.457 16.5886 506.76 14.9467 506.457 13.9616C505.851 7.39422 477.07 -5.41222 434.352 -5.41222C429.504 -5.41222 424.657 -5.41221 419.809 -5.08384C400.42 -3.77036 354.369 25.7829 337.706 47.4554C333.464 53.0377 331.344 57.9632 331.949 61.5753C333.161 70.7697 340.433 74.7101 349.219 79.3073C358.307 84.2328 368.608 89.8151 373.759 102.95C376.788 110.502 380.424 114.443 385.271 114.443C393.148 114.443 403.146 102.95 414.659 79.964ZM375.274 102.293C370.123 88.83 359.519 82.9194 350.127 77.9938C341.947 73.3966 334.676 69.7846 333.767 61.5753C333.464 58.62 335.282 54.0228 339.221 48.7689C355.581 27.0964 401.026 -1.80014 420.112 -3.11362C424.96 -3.44199 429.807 -3.44199 434.655 -3.44199C476.464 -3.44199 504.64 9.03607 505.246 14.29C505.246 15.2751 504.034 15.6035 503.428 15.9318C472.525 23.8127 434.352 38.261 413.447 79.6357C395.875 113.458 382.848 121.995 375.274 102.293Z" fill="#5D5D5D" fill-opacity="0.15"/>
<path d="M813.36 361.706C814.875 361.706 816.39 360.392 817.602 358.094C823.358 345.944 823.358 304.569 807.604 279.285C805.483 276.001 802.757 276.33 800.333 280.598C794.576 291.435 791.85 326.57 807.907 356.78C809.725 360.064 811.542 361.706 813.36 361.706ZM802.151 281.912C803.059 280.598 803.665 279.613 804.271 279.613C804.877 279.613 805.483 280.27 805.483 280.927C820.328 305.226 820.934 345.944 815.178 357.437C814.572 359.079 813.663 359.736 812.754 359.736C811.845 359.736 810.634 358.422 809.422 356.124C794.576 326.57 796.697 292.091 802.151 281.912Z" fill="#5D5D5D" fill-opacity="0.15"/>
<path d="M503.731 716.674C548.873 711.092 602.497 652.97 617.04 608.64C642.186 531.473 597.65 469.411 554.629 409.319C513.123 351.526 474.04 296.689 493.127 230.029C509.79 171.908 563.415 140.713 605.527 140.713C628.249 140.713 647.639 149.579 660.667 165.34C676.118 184.058 682.177 212.626 678.239 247.761C664.605 368.602 660.667 500.935 785.185 540.011C799.425 544.608 813.664 546.907 826.995 546.907C879.407 546.907 912.734 514.398 931.517 487.143C967.57 434.932 979.992 356.452 962.723 292.42C947.878 237.91 918.793 185.371 873.651 131.19C806.696 50.7392 715.503 -18.5469 594.62 -80.2805L589.47 -82.9074C538.269 -109.177 485.856 -136.103 430.413 -150.88C427.081 -151.865 423.445 -152.85 419.506 -153.835C402.54 -158.761 381.333 -165 363.155 -165C355.884 -165 349.521 -164.015 344.371 -162.045C336.494 -159.089 331.949 -153.179 327.708 -147.596C324.375 -143.328 321.346 -139.059 316.498 -135.775C313.469 -133.805 307.409 -131.178 301.047 -128.551C290.746 -124.282 280.142 -119.685 276.81 -115.744C270.448 -107.535 272.265 -102.61 273.78 -97.6841C274.992 -94.4004 276.204 -91.1167 274.689 -86.1911L273.477 -82.2507C264.388 -53.0258 264.388 -53.0258 243.181 -46.4584C239.242 -45.1449 234.092 -43.503 228.032 -41.5328C210.46 -35.6221 203.492 -26.0994 196.524 -17.2334C191.071 -10.3376 186.223 -3.77022 176.831 1.4837C176.528 1.4837 176.225 1.4837 175.922 1.4837C165.016 1.4837 82.3062 7.39436 75.9439 29.3952C74.1262 35.3058 78.0647 41.8732 86.8507 48.4406C98.0604 56.9783 106.846 57.9634 112.3 57.9634C115.026 57.9634 117.45 57.635 119.571 57.3066C121.692 56.9783 123.509 56.9783 125.327 56.9783C131.992 56.9783 138.658 58.9485 148.05 83.5762C150.17 89.4869 151.988 94.7408 153.503 98.6813C160.774 119.04 160.774 119.369 178.952 127.578C183.497 129.548 188.95 132.175 196.221 135.787C219.549 147.608 224.397 160.743 230.456 177.49C233.789 186.356 237.424 196.536 244.09 207.7C251.361 219.85 260.147 229.701 268.327 238.895C283.172 255.642 297.109 271.404 301.653 297.674C309.227 343.317 286.505 386.99 260.753 427.38C248.331 447.082 222.579 469.74 195.009 493.711C148.656 534.757 96.2426 581.057 95.9396 624.074C95.9396 648.701 101.696 667.418 113.209 679.897C125.933 693.688 145.02 700.255 171.681 700.255C210.46 700.255 258.329 686.136 300.441 673.658C333.767 663.806 362.246 655.269 380.727 655.269C384.968 655.269 388.301 655.597 391.028 656.582C408.6 662.165 422.839 674.314 436.169 686.136C454.044 701.569 471.01 716.346 495.551 716.346C498.58 717.002 501.004 717.002 503.731 716.674ZM392.24 654.94C389.21 653.955 385.574 653.627 381.333 653.627C362.852 653.627 334.07 662.165 300.744 672.016C258.632 684.494 211.066 698.614 172.59 698.614C146.232 698.614 127.751 692.046 115.632 678.911C104.423 666.762 98.9693 648.373 98.9693 624.73C99.2723 582.699 151.382 536.727 197.13 496.338C224.397 472.038 250.452 449.381 263.176 429.35C289.231 388.632 312.257 344.631 304.683 298.002C300.138 271.076 285.899 254.986 270.751 237.91C262.57 228.716 253.784 218.865 246.513 207.043C239.848 195.879 236.213 186.028 232.88 177.162C226.518 159.758 221.67 146.295 197.433 134.145C190.162 130.533 184.708 127.906 180.164 125.936C162.592 117.727 162.592 117.727 155.624 98.3529C154.109 94.0841 152.291 89.1585 150.17 83.2479C141.384 59.6052 134.416 55.008 125.63 55.008C123.812 55.008 121.692 55.3364 119.874 55.3364C117.45 55.6648 115.329 55.6648 112.603 55.6648C106.846 55.6648 99.2723 54.6797 88.3655 46.4704C80.1855 40.2314 76.8528 34.6491 78.0647 29.7235C83.5181 10.6781 160.774 3.45392 175.922 3.45392C176.225 3.45392 176.528 3.45392 176.528 3.45392L176.831 2.46881L177.437 3.45392C187.435 -2.12837 192.888 -9.02414 198.342 -15.9199C205.31 -25.1143 211.975 -33.6519 228.941 -39.5626C235.001 -41.5328 240.151 -43.1746 244.09 -44.4881C266.206 -51.3839 266.509 -51.7123 275.901 -81.9223L277.113 -85.8628C278.931 -91.4451 277.416 -95.3855 276.204 -98.9976C274.689 -103.595 273.174 -107.535 278.931 -114.431C281.96 -118.371 292.867 -122.64 302.259 -126.581C308.621 -129.208 314.68 -131.835 318.013 -133.805C323.164 -137.089 326.496 -141.686 329.829 -145.955C334.07 -151.537 338.312 -156.791 345.583 -159.746C350.43 -161.716 356.49 -162.701 363.761 -162.701C381.636 -162.701 402.843 -156.462 419.809 -151.865C423.748 -150.88 427.384 -149.567 430.716 -148.91C485.856 -134.133 538.269 -107.207 588.864 -81.2656L594.014 -78.6386C714.594 -16.905 805.484 52.0527 872.136 132.175C916.975 186.028 946.06 238.567 960.602 292.42C977.871 355.795 965.45 433.291 929.7 485.173C911.219 512.099 878.196 543.951 826.692 543.951C813.361 543.951 799.425 541.653 785.488 537.384C662.787 498.965 666.726 367.616 680.056 247.761C683.995 211.969 677.936 182.744 662.182 163.37C648.851 146.952 628.552 138.086 605.527 138.086C562.809 138.086 508.275 169.938 491.309 229.044C471.919 296.689 513.426 354.482 553.417 410.305C596.135 469.74 640.065 531.473 615.525 607.327C601.285 651 548.57 708.465 504.034 713.719C501.61 714.047 499.186 714.047 496.763 714.047C473.131 714.047 456.468 699.599 438.896 684.165C424.354 673.001 410.417 660.851 392.24 654.94Z" fill="#5D5D5D" fill-opacity="0.15"/>
</svg>
