<svg width="1023" height="900" viewBox="0 0 1023 900" fill="none" xmlns="http://www.w3.org/2000/svg">
<path d="M137.281 383.149C135.928 385.495 134.575 387.842 133.493 389.602C119.69 410.428 103.723 429.201 85.32 449.44C82.8844 452.08 80.4487 455.013 77.7424 457.653C62.587 474.08 47.161 491.092 37.6888 511.332C34.1706 519.252 33.0881 525.118 34.4413 528.931C35.2532 530.691 36.3357 531.865 37.9595 532.158C38.7714 532.451 39.3126 532.451 40.1245 532.451C43.3721 532.451 47.9729 530.691 52.8442 527.465C62.8576 521.012 72.3297 512.799 81.5312 504.879C89.1089 498.426 96.9572 491.679 104.806 486.106C137.281 462.933 158.661 447.387 168.675 403.975C170.84 394.882 171.922 374.349 165.427 365.549C163.262 362.616 160.285 361.149 156.767 361.149C149.189 362.029 142.153 374.349 137.281 383.149ZM158.12 362.323C161.097 362.323 163.533 363.789 165.427 366.429C171.652 375.229 170.569 395.175 168.404 403.975C158.391 447.094 137.281 462.347 104.806 485.519C96.6866 491.386 88.8383 497.839 81.5312 504.292C72.3297 512.212 62.8576 520.132 52.8442 526.878C46.8903 530.985 41.4777 532.451 38.5007 531.571C37.1476 530.985 36.0651 530.105 35.5238 528.638C34.1706 525.118 35.2532 519.252 38.7714 511.625C47.9729 491.679 63.6695 474.666 78.5542 458.24C80.9899 455.307 83.6963 452.667 86.1319 450.027C104.264 429.787 120.502 411.015 134.304 390.189C135.387 388.429 136.74 386.082 138.093 383.735C142.965 374.936 149.73 362.909 157.579 362.616C157.579 362.323 157.849 362.323 158.12 362.323Z" fill="#5D5D5D" fill-opacity="0.15"/>
<path d="M153.52 334.457C141.613 337.683 131.329 355.576 122.939 369.656C119.962 374.642 117.256 379.336 114.82 382.855C101.288 401.628 86.1331 418.641 71.5189 435.067C67.7301 439.467 62.8587 444.16 57.7167 449.147C42.5613 464.4 23.8877 483.173 18.2045 500.479C13.3331 515.145 16.31 528.932 19.0164 542.131C21.1814 552.984 23.6171 564.424 21.7227 576.45C20.6402 583.783 16.5807 591.117 12.2506 598.743C7.10856 607.836 1.69592 617.223 1.42529 627.489C1.42529 631.009 1.69592 634.235 2.77845 637.755C6.29667 648.608 10.0855 653.595 14.4156 653.595C18.7457 653.595 23.6171 648.608 30.6535 636.582C37.4193 625.142 40.1256 611.649 42.5613 598.743C45.2676 585.837 47.7033 572.344 54.7398 560.611C67.7301 538.318 90.7338 522.185 110.761 507.519C112.384 506.346 114.279 505.172 115.903 503.999C149.461 479.946 175.983 460.88 187.62 409.548C190.868 396.055 190.056 361.443 177.065 343.843C171.382 335.043 163.263 331.817 153.52 334.457ZM176.524 344.43C187.891 360.269 190.326 393.708 186.808 408.961C175.171 459.707 148.92 478.48 115.632 502.532C114.008 503.706 112.384 504.879 110.49 506.052C90.1925 520.425 67.1888 536.851 53.9279 559.437C46.8914 571.17 44.1851 584.957 41.7494 598.156C39.3137 611.063 36.6074 624.262 29.8416 635.702C25.2409 643.915 19.5576 652.128 14.6863 652.128C10.8974 652.128 7.64983 647.142 4.13161 637.169C3.04908 633.942 2.50782 631.009 2.77845 627.489C3.04908 617.809 8.46172 608.423 13.3331 599.33C17.6632 591.703 21.9933 584.37 23.0758 576.744C24.9703 564.717 22.5346 553.278 20.3695 542.131C17.6632 528.345 14.9569 515.439 19.5576 501.066C25.2409 484.053 43.9145 465.28 58.7992 450.32C63.9412 445.334 68.8126 440.347 72.6015 435.947C87.2156 419.521 102.371 402.508 115.903 383.735C118.338 380.215 121.045 375.522 124.022 370.536C132.14 356.456 142.424 338.857 153.791 335.923C155.956 335.337 157.85 335.043 159.745 335.043C166.24 335.043 171.923 338.27 176.524 344.43Z" fill="#5D5D5D" fill-opacity="0.15"/>
<path d="M165.969 270.805C159.474 260.832 153.791 259.365 148.107 258.192C144.048 257.312 139.718 256.139 134.846 252.326L134.576 251.739C120.774 235.019 74.4955 180.461 58.7989 180.461C56.9045 180.461 55.5513 181.047 54.4688 182.514C52.3037 185.447 52.5744 191.314 54.7394 200.7C56.0926 206.273 69.3535 213.9 83.1558 221.82C94.7929 228.566 106.701 235.606 110.76 240.593C114.278 245.286 119.15 251.739 118.879 254.086C118.879 254.672 118.067 254.965 116.985 255.552C114.549 256.725 111.031 258.779 112.925 268.165C114.278 274.618 117.797 280.778 121.585 286.938C124.833 292.804 128.081 298.084 129.163 303.364C132.681 317.737 110.76 344.136 96.4167 361.736C91.5453 367.603 87.4859 372.589 85.0502 376.402C74.4955 391.655 61.5052 405.442 48.7855 418.934C24.158 445.334 -1.28138 472.613 -10.2122 510.159C-23.4732 566.184 -26.1795 616.049 -18.0606 657.702C-13.7305 679.994 1.1543 710.793 15.7684 710.793C24.6993 710.793 31.4651 699.06 35.2539 675.888C49.868 586.717 91.2747 557.091 131.058 528.345C166.51 502.826 200.069 478.773 214.412 416.588C219.825 393.122 211.435 356.749 200.61 336.803C195.739 328.004 189.785 322.724 183.831 318.03C178.689 313.631 173.817 309.817 170.029 303.364C167.322 298.671 167.864 293.391 168.405 287.818C168.675 281.951 169.217 275.792 165.969 270.805ZM168.405 304.244C172.464 310.991 177.336 315.097 182.748 319.497C188.432 324.19 194.385 329.177 198.986 337.683C209.541 357.336 217.93 392.829 212.518 416.001C198.174 477.6 165.157 501.359 129.975 526.585C89.6509 555.624 47.9736 585.543 32.8182 675.594C29.0294 697.301 23.0755 708.74 15.2272 708.74C3.04872 708.74 -12.1067 680.874 -16.7074 657.115C-24.8264 615.756 -22.12 566.477 -8.85908 510.745C0.0717754 473.786 25.2405 446.8 49.5974 420.401C62.3171 406.908 75.5781 392.829 86.1327 377.576C88.5684 373.762 92.8985 368.776 97.4992 363.203C113.196 344.136 134.305 318.324 130.787 302.778C129.434 297.204 126.186 291.631 122.939 285.765C119.42 279.898 115.902 273.445 114.549 267.578C112.925 259.952 115.361 258.485 117.797 257.312C119.15 256.725 120.232 255.845 120.503 254.379C121.044 252.326 119.691 248.806 112.113 239.126C107.783 233.553 95.6048 226.513 83.9677 219.766C71.7892 212.727 57.7164 204.513 56.6338 199.82C53.9275 189.261 54.7394 185.154 56.0926 183.394C56.6338 182.514 57.7164 182.221 58.7989 182.221C70.7067 182.221 105.077 218.593 133.223 252.912C133.493 253.206 133.764 253.499 133.764 253.499C139.177 257.899 143.777 258.779 147.837 259.952C153.52 261.419 158.662 262.592 164.616 271.978C167.593 276.378 167.052 281.951 166.51 287.525C165.969 293.098 165.428 298.964 168.405 304.244Z" fill="#5D5D5D" fill-opacity="0.15"/>
<path d="M143.777 410.721C139.717 410.721 135.928 416.001 132.951 419.814C132.41 420.694 131.869 421.281 131.328 421.868C128.621 425.094 126.186 428.614 123.479 432.134C121.855 434.187 120.232 436.534 118.608 438.587L118.337 438.881C112.925 445.92 110.759 450.32 111.571 452.667C111.842 453.254 112.383 454.134 113.736 454.427C114.007 454.427 114.278 454.427 114.278 454.427C125.103 454.134 133.763 443.574 138.093 437.121C142.153 430.961 145.13 424.508 145.942 419.228C146.212 418.054 146.754 413.655 145.4 411.601C145.671 411.308 144.859 410.721 143.777 410.721ZM145.4 419.228C144.318 424.214 141.612 430.667 137.552 436.534C133.493 442.694 125.103 452.96 114.819 453.254V454.134V453.547C114.548 453.547 114.548 453.547 114.278 453.547C113.195 453.547 113.195 452.96 113.195 452.96C112.925 452.08 112.925 449.44 119.69 440.641L119.961 440.347C121.585 438.294 123.209 435.947 124.832 433.894C127.268 430.667 129.974 427.148 132.681 423.628C133.222 423.041 133.763 422.161 134.304 421.281C136.74 417.761 140.529 412.775 144.047 412.775C144.588 412.775 145.13 413.068 145.4 413.361C145.942 414.241 145.942 417.174 145.4 419.228Z" fill="#5D5D5D" fill-opacity="0.15"/>
<path d="M429.294 707.86C465.288 703.46 503.717 658.288 504.259 620.156C505.071 561.491 473.948 514.852 443.908 469.68C438.766 462.053 433.624 454.134 428.482 446.214L425.505 441.521C411.432 419.521 395.465 394.295 390.052 367.309C385.722 344.43 378.956 291.045 386.263 272.565C391.676 259.072 406.831 251.446 421.716 243.819C432 238.539 441.743 233.846 448.509 227.1L448.779 226.806C472.054 203.927 472.054 203.927 487.75 203.34C492.622 203.047 498.575 203.047 506.965 202.167C518.332 200.994 524.827 199.234 529.698 198.06C532.675 197.18 535.111 196.594 537.005 196.594C541.877 196.594 545.936 200.407 559.468 212.727C599.521 249.392 598.709 313.044 597.897 374.642C597.085 452.08 596.003 532.452 676.922 557.677C688.559 561.197 699.926 563.251 710.751 563.251C741.062 563.251 767.042 548.584 785.716 520.718C813.05 479.946 820.357 416.001 803.848 361.736C765.689 236.779 674.757 165.501 576.788 97.4496C487.75 35.5579 403.042 18.545 330.784 7.39867C325.642 6.5187 320.5 6.22537 315.899 6.22537C286.4 6.22537 272.598 22.3583 255.007 42.8911C248.241 50.8109 241.205 58.7307 232.544 67.2371C222.531 76.6235 209.811 83.0767 197.633 89.5298C177.606 99.7962 158.933 109.476 151.084 130.889C134.576 176.648 175.17 212.14 211.164 243.526C227.673 257.899 243.37 271.685 252.571 285.471C289.106 339.737 278.011 431.547 244.993 482.879C234.709 499.012 214.953 518.958 194.115 539.785C159.474 574.69 120.232 613.996 113.196 647.435C109.948 662.981 110.76 673.834 115.902 680.874C119.962 686.447 127.269 689.381 137.553 689.381C154.602 689.381 178.959 681.754 204.669 673.834C236.333 663.861 272.057 652.715 302.367 652.715C316.981 652.715 328.889 655.062 339.173 660.341C350.81 666.208 360.824 674.421 370.567 682.634C386.534 696.127 401.419 708.74 422.528 708.74C424.693 708.447 427.129 708.153 429.294 707.86ZM339.715 658.581C329.431 653.595 316.981 650.955 302.367 650.955C271.786 650.955 235.792 662.101 204.128 672.074C178.418 679.994 154.061 687.621 137.282 687.621C127.269 687.621 120.773 684.981 116.714 679.701C111.843 673.248 111.301 662.688 114.278 647.728C121.044 614.876 160.286 575.57 194.656 540.958C215.495 519.838 235.521 499.892 245.805 483.759C279.093 431.841 289.918 339.443 253.383 284.591C244.182 270.805 228.485 257.019 211.706 242.352C176.253 211.26 135.929 176.061 152.167 131.475C159.744 110.649 178.418 100.97 198.174 90.9965C210.623 84.5433 223.343 78.0901 233.356 68.4104C242.016 60.1973 249.053 51.9842 255.819 44.0644C273.139 23.8249 286.941 7.98533 315.899 7.98533C320.5 7.98533 325.371 8.27865 330.513 9.15863C402.772 20.305 487.48 37.3179 575.976 98.9163C673.674 166.674 764.336 237.953 802.224 362.616C818.462 416.295 811.426 479.653 784.363 520.132C765.96 547.704 740.52 562.077 710.48 562.077C699.926 562.077 688.559 560.317 677.192 556.504C641.198 545.358 618.736 522.185 607.911 485.813C598.168 453.254 598.709 413.361 599.25 374.642C600.062 312.751 600.604 248.512 560.28 211.553C541.065 193.954 540.523 193.66 529.427 196.594C524.556 197.767 518.061 199.527 506.694 200.7C498.305 201.58 492.351 201.874 487.75 201.874C471.512 202.46 471.512 202.46 447.697 225.633L447.426 225.926C440.66 232.379 431.188 237.366 421.175 242.352C406.019 249.979 390.593 257.899 384.91 271.685C377.332 290.458 384.098 344.136 388.699 367.309C393.841 394.588 410.079 419.814 424.152 441.814L427.129 446.507C432 454.427 437.413 462.347 442.555 469.973C472.595 515.145 503.447 561.491 502.635 619.569C502.094 657.115 464.205 701.407 429.023 705.807C426.858 706.1 424.422 706.1 422.257 706.1C401.419 706.1 386.805 693.487 371.108 680.288C361.636 672.954 351.622 664.448 339.715 658.581Z" fill="#5D5D5D" fill-opacity="0.15"/>
<path d="M408.184 868.896C401.418 880.042 392.758 894.122 395.735 903.508C396.818 907.322 400.065 910.255 404.666 912.308C405.478 912.602 406.56 912.895 407.643 912.895C418.197 912.895 434.706 895.295 449.32 880.042C458.522 870.363 467.452 860.976 472.594 858.336C497.763 846.017 532.675 840.15 563.256 834.87C575.435 832.817 586.801 830.764 597.356 828.71C621.442 823.724 644.716 821.084 666.367 821.084C737.543 821.084 797.623 848.95 844.172 903.802C849.314 909.962 857.162 913.188 866.905 913.188C897.486 913.188 949.718 880.922 986.795 821.377C1008.99 785.592 1040.92 712.553 1007.63 624.849C994.373 589.65 974.346 573.224 945.118 573.224C922.926 573.224 897.486 582.024 867.988 592.29C831.723 604.903 790.858 619.276 746.745 619.276C712.374 619.276 680.981 610.77 650.4 593.17C556.22 538.611 553.513 439.467 561.632 359.096C564.88 327.71 559.738 303.071 546.748 287.525C537.546 276.672 525.368 270.805 511.024 270.805C483.961 270.805 449.861 293.685 437.683 337.39C426.046 378.456 453.38 416.001 485.044 459.12C520.767 507.519 561.362 562.664 553.513 636.582C549.725 673.248 537.275 708.447 520.496 730.446C507.777 747.166 496.41 748.926 484.773 750.392C475.571 751.566 466.37 752.739 455.274 760.366C446.884 766.232 444.178 775.912 441.472 786.472C439.577 793.511 437.683 801.138 433.624 807.298C431.458 810.524 427.67 811.404 423.339 811.991C417.927 812.871 411.973 814.044 408.725 821.671C406.56 826.95 409.537 833.11 412.244 838.977C414.679 843.963 417.115 849.243 416.303 853.35C415.491 857.163 412.244 862.443 408.184 868.896ZM413.326 838.39C410.62 832.524 407.913 826.95 409.808 822.551C412.785 815.804 418.197 814.924 423.339 813.751C427.67 812.871 432 812.284 434.435 808.178C438.766 801.724 440.66 794.391 442.554 787.058C445.261 777.085 447.696 767.405 455.815 761.832C466.641 754.499 475.842 753.326 484.773 752.152C496.951 750.392 508.589 748.926 521.579 731.62C538.629 709.034 551.078 673.835 554.867 636.876C562.715 562.371 522.12 506.639 486.397 457.654C455.003 414.828 427.94 377.576 439.307 337.39C451.215 294.565 484.502 271.978 511.024 271.978C524.826 271.978 537.005 277.552 545.665 288.111C558.114 303.364 563.256 327.71 560.009 358.51C551.89 439.467 554.596 539.491 649.588 594.343C680.44 612.236 712.104 620.743 746.745 620.743C791.128 620.743 832.264 606.37 868.529 593.757C897.757 583.49 923.196 574.69 945.118 574.69C974.075 574.69 992.749 590.237 1006.01 625.142C1039.03 711.967 1007.36 784.418 985.442 819.911C950.26 877.109 897.486 911.135 866.905 911.135C857.433 911.135 850.396 908.202 845.254 902.335C798.165 847.19 738.084 819.031 666.096 819.031C644.175 819.031 620.901 821.671 596.544 826.657C585.989 829.004 574.623 830.764 562.444 832.817C531.592 838.097 496.681 843.963 471.241 856.576C465.829 859.216 457.168 868.309 447.426 878.576C433.082 893.829 416.844 911.135 406.831 911.135C406.019 911.135 405.207 911.135 404.395 910.842C400.065 909.082 397.359 906.735 396.276 903.215C393.57 894.415 401.96 880.922 408.455 870.069C412.514 863.616 415.762 858.043 416.574 854.23C418.468 848.95 415.762 843.67 413.326 838.39Z" fill="#5D5D5D" fill-opacity="0.15"/>
<path d="M621.442 734.553C622.524 735.14 623.877 735.433 624.96 735.433C629.831 735.433 634.432 730.447 638.762 725.753C641.198 723.113 643.363 720.767 645.257 719.594C647.693 718.42 649.858 717.834 652.294 717.834C656.624 717.834 660.142 720.18 664.472 722.527C666.096 723.407 667.449 724.287 669.343 725.167C673.403 727.22 677.462 728.393 681.522 728.393C685.581 728.393 689.37 727.513 693.43 726.34C697.489 725.167 701.819 723.993 706.961 723.993H707.502C717.786 723.993 727.259 729.86 736.189 735.433C745.12 741.006 754.592 746.873 764.876 746.873C769.748 746.873 774.349 745.7 779.22 743.06C783.009 741.006 785.986 738.366 788.421 736.02C792.752 732.207 796.27 728.98 802.494 728.98C804.389 728.98 806.283 729.273 808.448 729.86C825.769 734.26 833.346 751.566 840.924 768.286C844.442 776.205 847.96 784.125 852.561 790.578C861.492 803.485 873.4 810.818 885.578 810.818H886.12C898.298 810.525 909.935 803.191 919.137 790.285C931.315 772.686 953.777 715.194 944.576 686.741C941.87 678.235 936.457 672.955 928.879 670.902C926.173 670.022 923.737 669.728 921.302 669.728C913.453 669.728 907.499 673.542 900.734 677.941C899.11 678.821 897.486 679.995 895.862 680.875C882.06 689.381 868.258 691.141 853.644 692.901C847.96 693.488 842.007 694.368 836.053 695.541C829.287 697.008 823.333 699.354 817.65 701.701C810.072 704.927 802.765 707.861 794.917 707.861C789.504 707.861 784.362 706.394 778.949 703.461C767.853 697.594 755.675 692.021 742.143 692.021C737.813 692.021 733.212 692.608 728.882 693.781C726.717 694.368 724.823 694.954 722.929 695.541C715.08 697.594 707.773 699.647 700.466 699.647C694.512 699.647 688.829 698.181 683.146 695.541L680.71 694.368C670.426 689.381 659.871 683.808 649.046 683.808C643.092 683.808 637.679 685.275 632.267 688.501C625.501 692.608 616.3 709.621 616.57 721.647C615.488 728.1 617.653 732.207 621.442 734.553ZM631.996 690.554C637.138 687.328 642.551 685.861 648.234 685.861C658.789 685.861 669.073 691.141 679.357 696.128L681.792 697.301C687.476 700.234 693.43 701.701 699.654 701.701C707.232 701.701 714.81 699.647 722.658 697.594C724.552 697.008 726.717 696.421 728.612 695.834C732.942 694.661 737.272 694.074 741.602 694.074C754.863 694.074 766.771 699.647 777.867 705.221C783.55 708.154 788.963 709.621 794.375 709.621C802.494 709.621 809.801 706.687 817.65 703.167C823.333 700.821 829.287 698.181 835.782 697.008C841.736 695.834 847.69 694.954 853.373 694.368C867.987 692.608 882.06 690.848 896.133 682.048C897.757 680.875 899.38 679.995 901.004 679.115C907.77 674.715 913.453 671.195 921.031 671.195C923.467 671.195 925.632 671.488 928.338 672.368C935.645 674.421 940.517 679.408 942.952 687.328C952.154 715.487 929.962 772.099 917.783 789.698C908.853 802.311 897.486 809.351 885.849 809.645H885.308C873.67 809.645 862.304 802.605 853.373 789.992C849.043 783.539 845.525 775.912 842.007 767.699C834.429 750.686 826.58 733.087 808.719 728.393C806.554 727.807 804.389 727.513 802.494 727.513C795.999 727.513 792.21 731.033 787.61 734.847C784.903 737.193 782.197 739.54 778.679 741.593C774.078 744.233 769.477 745.406 764.876 745.406C755.134 745.406 746.203 740.126 737.001 734.26C727.8 728.687 718.057 722.82 707.502 722.82H706.961C701.819 722.82 697.219 723.994 693.159 725.167C689.1 726.34 685.581 727.22 681.522 727.22C677.462 727.22 673.944 726.34 670.155 724.287C668.532 723.407 666.908 722.527 665.555 721.647C661.224 719.007 657.436 716.66 652.835 716.66C650.399 716.66 647.963 717.247 645.257 718.714C643.092 719.887 640.927 722.234 638.221 725.167C634.161 729.567 629.831 734.26 625.501 734.26C624.418 734.26 623.607 733.967 622.524 733.38C619.277 731.327 617.382 727.807 617.382 722.527C616.841 710.207 626.313 694.074 631.996 690.554Z" fill="#5D5D5D" fill-opacity="0.15"/>
<path d="M446.614 838.097C448.238 838.683 451.485 838.977 455.274 838.977C463.393 838.977 493.974 837.51 541.606 820.497C581.389 806.124 627.937 798.498 672.862 798.498C746.474 798.498 795.458 810.524 858.516 875.936C863.116 880.629 869.07 882.975 876.377 882.975C903.711 882.975 945.118 850.71 970.828 809.351C990.854 777.085 1019.81 711.38 989.772 632.475C976.782 598.743 960.814 594.05 945.118 594.05C925.903 594.05 901.817 602.556 873.942 612.236C836.324 625.436 793.835 640.102 746.745 640.102C709.127 640.102 674.757 630.715 641.198 611.356C535.652 550.344 534.299 436.534 542.418 356.456C544.853 331.523 541.335 311.87 532.404 301.017C526.992 294.564 519.684 291.044 511.024 291.044C490.998 291.044 465.829 308.937 456.086 342.67C447.426 373.469 471.783 406.615 500.199 445.334C536.193 494.612 581.118 556.211 572.458 638.635C570.022 662.101 564.068 684.687 555.137 705.22C540.794 738.073 522.12 765.939 499.116 788.231C483.961 802.898 468.806 813.164 457.71 820.497C447.696 827.244 441.472 831.35 442.013 834.577C442.284 836.337 443.908 837.217 446.614 838.097ZM458.251 821.67C469.347 814.337 484.502 804.071 499.658 789.405C522.661 767.112 541.606 739.246 555.949 706.1C564.88 685.274 570.834 662.688 573.27 639.222C581.93 556.504 537.005 494.906 500.74 445.334C472.595 406.908 448.508 373.762 456.898 343.55C466.37 310.111 491.268 292.511 511.024 292.511C519.684 292.511 526.721 295.738 531.863 302.191C540.794 312.75 544.041 332.11 541.606 356.749C533.487 437.12 534.84 551.224 640.928 612.529C674.486 631.889 709.127 641.275 746.745 641.275C794.105 641.275 836.594 626.315 874.212 613.116C902.087 603.436 925.903 594.93 945.118 594.93C960.273 594.93 976.24 599.623 988.96 633.062C1018.73 711.38 989.772 776.792 970.016 809.057C945.118 849.536 903.17 882.389 876.377 882.389C869.341 882.389 863.387 880.042 859.057 875.642C828.475 843.963 800.059 823.724 769.478 812.284C743.226 802.311 714.269 798.204 672.862 798.204C627.937 798.204 581.389 806.124 541.335 820.497C493.704 837.51 463.393 838.977 455.274 838.977C451.485 838.977 448.238 838.683 446.614 838.39C444.178 837.803 442.825 836.923 442.554 835.75C442.554 832.23 449.32 827.83 458.251 821.67Z" fill="#5D5D5D" fill-opacity="0.15"/>
<path d="M511.295 311.284C496.681 311.284 480.713 327.124 475.571 341.496C472.053 350.883 474.76 367.016 482.608 384.909C489.915 401.628 499.928 414.241 507.235 416.588C508.318 416.881 509.4 417.174 510.483 417.174C511.836 417.174 512.919 416.881 514.001 416.588C523.473 413.068 523.203 406.908 522.661 393.122C522.391 384.615 521.85 373.176 523.473 357.336C525.638 335.923 522.661 319.79 518.331 314.804C517.249 312.751 515.625 311.284 511.295 311.284ZM522.391 357.043C520.767 373.176 521.038 384.615 521.579 393.122C522.12 406.908 522.12 411.895 513.731 415.121C511.836 416.001 509.671 416.001 507.506 415.121C500.47 412.775 490.998 400.455 483.69 384.029C475.842 366.722 473.406 350.883 476.654 341.79C481.796 328.003 497.222 312.457 511.024 312.457C514.813 312.457 516.437 313.631 517.519 315.097C521.579 320.377 524.556 335.923 522.391 357.043Z" fill="#5D5D5D" fill-opacity="0.15"/>
<path d="M838.76 736.606C841.737 737.779 843.361 738.953 845.526 740.126C846.338 740.713 847.42 741.299 848.503 741.886C859.598 748.339 869.071 755.086 875.566 760.952C879.355 764.472 882.332 765.939 884.767 765.939C888.556 765.939 890.721 762.419 892.345 759.192C898.84 747.166 901.276 737.779 903.982 721.353C904.253 719.3 904.253 716.66 902.9 714.607C901.005 711.967 896.946 711.674 891.262 713.433C874.213 718.713 862.575 721.06 847.961 723.993C845.526 724.58 842.819 725.166 840.113 725.753C837.407 726.34 835.242 728.393 834.971 731.033C834.7 731.913 834.971 734.846 838.76 736.606ZM840.384 727.22C843.09 726.633 845.796 726.046 848.232 725.46C862.846 722.526 874.483 720.18 891.804 714.9C893.969 714.313 895.863 714.02 897.216 714.02C899.381 714.02 900.735 714.607 901.546 715.78C902.629 717.247 902.629 719.593 902.358 721.06C899.652 737.193 897.487 746.286 890.992 758.312C889.097 761.832 887.203 764.179 884.767 764.179C882.602 764.179 879.896 762.712 876.378 759.486C869.882 753.326 860.41 746.873 849.044 740.126C847.961 739.539 847.149 738.953 846.067 738.366C843.902 736.9 842.007 736.019 839.03 734.553C836.865 733.673 835.783 732.206 836.054 730.74C836.595 729.273 838.219 727.806 840.384 727.22Z" fill="#5D5D5D" fill-opacity="0.15"/>
<path d="M590.32 767.405C592.755 767.405 596.003 767.112 599.792 766.819C601.416 766.525 640.657 761.832 682.876 761.832C699.384 761.832 713.998 762.712 726.447 763.885C788.693 771.219 842.548 803.191 868.258 831.937C873.13 837.217 878.542 839.857 885.038 839.857C899.381 839.857 917.243 826.364 933.751 802.605C962.709 760.952 971.64 681.461 957.026 650.369C953.237 642.155 947.824 637.755 941.6 637.755C941.058 637.755 940.517 637.755 939.976 637.755C928.609 638.929 912.913 643.915 892.886 650.369C855.539 662.395 804.119 678.528 748.639 679.408C701.279 680.288 646.882 659.755 628.479 650.075C622.525 646.849 618.465 645.382 615.759 645.382C610.346 645.382 610.076 650.955 609.534 660.342C609.264 667.675 608.723 677.941 605.475 689.674C599.25 710.794 592.485 726.926 587.343 738.659C581.659 751.566 578.412 759.486 580.848 763.592C581.93 766.232 584.907 767.405 590.32 767.405ZM588.155 739.54C593.297 727.806 600.062 711.674 606.287 690.261C609.805 678.528 610.076 668.261 610.346 660.635C610.617 651.542 610.888 646.262 615.759 646.262C618.195 646.262 622.254 647.729 627.937 650.662C646.07 660.342 698.843 679.994 745.662 679.994C746.474 679.994 747.557 679.994 748.369 679.994C804.119 679.114 855.268 662.688 892.886 650.662C912.913 644.209 928.609 639.222 939.976 638.049C946.742 637.169 952.154 641.275 956.214 650.075C970.557 681.168 961.626 760.072 932.939 801.431C916.431 824.897 899.111 838.39 884.767 838.39C878.542 838.39 873.13 835.75 868.529 830.764C842.548 802.018 788.693 769.752 726.177 762.419C713.728 760.952 699.114 760.366 682.605 760.366C640.386 760.366 601.145 765.059 599.521 765.352C595.732 765.939 592.755 765.939 590.32 765.939C585.448 765.939 582.742 765.059 581.389 763.006C579.224 760.072 582.471 752.153 588.155 739.54Z" fill="#5D5D5D" fill-opacity="0.15"/>
<path d="M529.698 800.844C532.134 800.844 535.381 800.257 538.899 798.791C576.788 784.418 620.63 777.671 673.133 777.671C738.626 777.671 803.307 784.125 876.919 862.736C879.084 865.082 881.79 866.256 885.308 866.256C905.876 866.256 944.035 823.43 955.131 797.618C956.214 795.271 957.296 792.924 958.379 790.284C972.722 758.312 996.808 704.927 972.181 640.395C962.438 614.582 953.237 614.582 945.118 614.582C928.88 614.582 906.147 622.502 879.896 631.595C840.925 645.088 797.082 660.635 747.015 660.635C704.255 660.635 669.344 652.128 634.432 633.062C629.02 630.129 623.878 626.902 619.277 623.969C610.076 618.102 602.769 613.702 598.168 613.702C594.65 613.702 592.755 616.342 592.755 622.209C592.755 623.089 592.755 624.556 593.026 626.609C597.897 682.341 578.141 734.259 534.028 781.191C526.18 789.404 522.932 795.271 524.285 798.791C524.827 799.964 526.721 800.844 529.698 800.844ZM534.299 781.485C562.715 751.272 581.389 718.713 589.778 684.394C596.544 656.821 594.65 635.409 593.838 626.315C593.567 624.262 593.567 622.796 593.567 621.916C593.567 615.169 596.273 614.289 598.168 614.289C602.498 614.289 610.076 618.982 619.006 624.555C623.607 627.489 628.749 630.715 634.162 633.649C669.344 653.008 703.985 661.515 747.015 661.515C797.353 661.515 841.466 645.968 880.166 632.475C906.417 623.382 929.15 615.462 945.118 615.462C952.966 615.462 961.897 615.462 971.369 640.688C995.726 704.927 971.91 758.312 957.567 789.991C956.484 792.631 955.131 794.978 954.319 797.324C943.223 822.844 905.335 865.376 885.038 865.376C881.79 865.376 879.354 864.202 877.46 862.149C843.36 825.777 807.907 801.724 769.207 789.111C734.837 777.965 702.902 776.791 673.133 776.791C620.63 776.791 576.517 783.831 538.629 797.911C535.381 799.084 532.134 799.964 529.698 799.964C527.804 799.964 525.638 799.671 524.827 797.618C524.285 796.151 524.556 791.751 534.299 781.485Z" fill="#5D5D5D" fill-opacity="0.15"/>
<path d="M360.012 500.479C358.117 498.719 356.493 497.839 355.14 497.839C351.351 497.839 348.645 503.119 344.586 511.039C340.526 519.252 334.843 530.398 324.829 541.838L321.852 545.064C310.486 557.971 305.344 563.837 306.697 567.064C307.238 568.53 309.133 569.117 312.38 569.117C315.087 569.117 319.417 568.53 326.453 567.65C329.43 567.357 332.136 567.064 335.113 567.064C358.658 567.064 378.144 581.437 392.487 591.703C400.877 597.863 407.372 602.556 412.243 602.556C414.138 602.556 415.762 601.676 417.115 599.916C432 579.09 379.497 519.838 360.012 500.479ZM415.762 599.036C414.679 600.503 413.597 601.09 411.973 601.09C407.643 601.09 401.148 596.396 393.029 590.53C378.685 579.97 358.929 565.597 334.843 565.597C331.866 565.597 328.889 565.89 325.912 566.184C319.146 567.357 314.816 567.65 312.11 567.65C309.403 567.65 308.05 567.357 307.78 566.477C306.968 564.131 313.192 557.091 322.664 545.944L325.641 542.718C335.655 531.278 341.338 519.838 345.668 511.625C349.457 504.292 351.893 499.306 354.87 499.306C355.952 499.306 357.305 500.186 358.929 501.652C383.286 525.412 429.023 580.557 415.762 599.036Z" fill="#5D5D5D" fill-opacity="0.15"/>
<path d="M360.282 524.825C350.81 524.825 338.632 540.958 338.632 548.585C338.632 551.811 340.526 553.571 343.503 553.571C357.576 553.864 372.19 563.544 383.015 570.291C389.51 574.397 394.111 577.33 396.817 577.33C397.629 577.33 398.441 577.037 398.982 576.45C399.524 575.864 399.794 574.691 399.794 572.931C398.712 558.851 374.084 530.692 364.071 525.118C362.718 525.118 361.635 524.825 360.282 524.825ZM397.629 573.811C397.629 574.984 397.629 575.57 397.359 575.57C397.359 575.57 397.088 575.864 396.817 575.864C394.652 575.864 389.781 572.637 384.098 569.117C373.272 562.078 358.117 552.104 343.774 552.104C341.609 552.104 340.797 551.224 340.797 549.171C340.797 542.425 352.163 527.465 360.553 527.465C361.635 527.465 362.447 527.758 363.259 528.052C373.814 533.625 396.817 560.904 397.629 573.811Z" fill="#5D5D5D" fill-opacity="0.15"/>
<path d="M326.724 258.779C329.16 258.779 330.783 255.259 332.678 247.339C339.444 217.42 361.906 177.821 396.818 156.701C432 135.289 455.545 129.715 468.264 126.782C474.489 125.316 477.736 124.436 478.548 122.676C478.819 122.089 478.819 121.209 478.278 120.329C475.842 115.636 432.27 88.9432 369.213 83.6633L366.507 83.37C360.824 82.7833 355.952 82.49 351.351 82.49C334.843 82.49 321.853 87.4765 291.001 115.636C286.129 120.036 281.258 124.142 276.386 128.249C261.502 140.568 248.511 151.421 249.323 163.448C249.865 172.834 258.525 181.927 276.116 192.487C295.601 204.22 307.509 227.393 315.357 242.646C320.499 252.619 323.747 258.779 326.724 258.779ZM276.386 191.9C259.337 181.634 250.676 172.248 249.865 163.448C249.053 151.715 261.772 141.155 276.386 128.835C281.258 124.729 286.129 120.622 291.001 116.222C321.582 88.0632 334.843 83.0766 350.81 83.0766C355.411 83.0766 360.282 83.37 365.966 83.9566L368.672 84.25C430.105 89.5298 474.76 115.929 476.925 120.622C477.466 121.502 477.195 122.089 477.195 122.382C476.654 123.849 473.136 124.436 467.723 125.902C455.003 128.835 431.458 134.409 396.006 155.821C360.824 176.941 338.361 216.833 331.595 247.046C329.972 254.379 328.348 257.899 326.453 257.899C323.747 257.899 320.229 250.859 315.628 242.352C308.321 226.806 296.143 203.633 276.386 191.9Z" fill="#5D5D5D" fill-opacity="0.15"/>
<path d="M331.865 309.231C334.301 309.231 335.925 306.297 337.007 299.551C344.044 259.072 359.199 201.874 410.078 171.368C425.775 161.981 443.636 154.355 464.475 148.488C468.535 147.315 473.135 144.088 477.465 140.862C483.149 136.755 488.832 132.649 494.245 132.649C494.786 132.649 495.598 132.649 496.139 132.942C499.116 133.529 501.281 135.289 503.446 137.342C505.882 139.395 508.317 141.449 511.294 141.449C512.377 141.449 513.73 141.155 515.083 140.569C517.248 139.689 518.601 137.635 519.684 135.875C521.308 133.235 522.932 130.889 527.532 131.182C532.133 131.475 534.569 135.289 537.275 139.395C539.169 142.329 541.064 144.968 543.77 146.728C545.665 147.902 549.183 149.075 552.43 149.075C554.595 149.075 556.219 148.488 557.031 147.315C557.843 146.142 558.114 144.382 557.572 142.329C555.678 135.289 542.146 128.836 532.945 124.729C530.239 123.556 528.074 122.382 526.45 121.502C512.918 113.876 499.657 107.129 488.02 101.85C440.118 78.9702 396.276 65.1839 354.328 59.3174C349.727 58.7307 345.397 58.4374 341.879 58.4374C321.311 58.4374 305.073 68.1171 273.409 100.383C265.561 108.303 257.442 115.049 249.864 121.502C232.544 136.169 218.741 147.902 219.012 162.275C219.283 173.714 228.484 186.034 247.97 200.994C279.363 224.753 300.202 261.125 314.004 285.178C322.123 299.551 327.806 309.231 331.865 309.231ZM247.97 199.82C228.755 185.154 219.553 173.128 219.283 161.981C219.012 147.902 232.544 136.462 249.864 121.796C257.712 115.343 265.831 108.303 273.68 100.676C305.344 68.7038 321.311 59.024 341.608 59.024C345.397 59.024 349.456 59.3174 354.057 59.904C396.005 65.7705 439.577 79.5568 487.479 102.143C498.845 107.423 512.377 114.169 525.638 121.796C527.262 122.676 529.427 123.849 532.133 125.022C541.064 129.129 554.595 135.582 556.219 142.035C556.76 143.795 556.49 145.262 555.949 146.142C555.137 147.315 553.242 147.608 552.16 147.608C549.453 147.608 545.935 146.435 544.041 145.262C541.605 143.795 539.711 140.862 537.816 138.222C535.11 134.115 532.404 130.009 527.532 129.716C522.39 129.129 520.766 132.062 519.143 134.702C518.06 136.462 516.978 138.222 514.813 139.102C513.459 139.689 512.377 139.982 511.294 139.982C508.317 139.982 506.152 138.222 503.987 136.169C501.822 134.409 499.387 132.355 496.139 131.769C495.598 131.769 494.786 131.475 494.245 131.475C488.561 131.475 482.607 135.875 476.924 139.982C472.323 143.208 468.264 146.435 464.204 147.608C443.366 153.475 425.504 161.101 409.807 170.488C358.658 201.287 343.232 258.779 336.196 299.258C335.113 305.124 333.76 308.057 331.865 308.057C328.347 308.057 322.393 298.084 314.274 284.005C300.472 260.245 279.633 223.873 247.97 199.82Z" fill="#5D5D5D" fill-opacity="0.15"/>
<path d="M432 677.354C450.403 675.008 467.994 661.221 476.383 642.155C484.232 624.849 488.291 595.223 464.205 553.571C453.921 535.678 442.554 517.492 431.729 499.892C400.606 449.734 371.107 402.508 359.2 354.99C345.397 301.311 356.493 257.019 393.841 215.66C426.316 179.874 469.076 159.341 511.295 159.341C542.959 159.341 571.375 171.368 591.131 193.367C612.782 217.42 623.607 252.912 622.254 295.444C621.983 305.417 621.442 315.684 621.171 326.537C619.547 364.963 617.653 408.668 623.336 445.04C629.831 486.693 645.528 512.505 671.238 523.945C685.04 530.105 698.031 533.038 709.938 533.038C731.589 533.038 749.992 522.772 763.253 503.412C785.715 470.56 791.128 413.948 776.785 362.909C745.662 253.206 671.238 187.794 560.82 117.689C476.924 64.5972 406.019 48.171 342.15 38.1979C337.278 37.6113 332.948 37.0246 328.618 37.0246C301.826 37.0246 289.106 51.6909 273.139 70.4637C266.914 77.5035 260.69 85.13 252.571 92.7565C243.369 101.556 235.521 106.836 228.484 111.529C217.118 119.156 207.375 125.609 196.821 142.915C175.441 177.528 204.128 198.647 234.168 220.94C250.135 232.673 266.644 244.992 275.304 259.365C330.783 350.296 308.321 447.387 269.079 508.105C257.713 525.412 241.475 541.838 223.884 559.144C202.504 580.263 180.583 602.263 167.863 626.609C162.45 637.169 160.826 644.208 163.262 648.315C164.886 651.248 168.675 652.715 174.358 652.715C184.642 652.715 201.151 648.022 220.365 642.742C247.158 635.115 280.446 625.729 309.945 625.729C325.641 625.729 338.902 628.369 349.728 633.649C360.553 638.929 369.484 646.555 378.414 653.888C392.758 666.208 406.56 677.648 425.775 677.648C427.669 677.648 429.835 677.648 432 677.354ZM349.998 632.769C338.902 627.196 325.912 624.556 309.945 624.556C280.446 624.556 246.887 633.942 220.095 641.569C201.151 646.848 184.642 651.542 174.358 651.542C168.945 651.542 165.427 650.075 163.803 647.435C161.638 643.622 163.262 636.582 168.404 626.609C180.853 602.263 203.045 580.557 224.154 559.437C241.475 542.131 257.983 525.705 269.35 508.399C292.354 472.906 306.156 432.427 308.862 391.362C311.839 344.43 300.743 299.844 275.845 258.779C266.914 244.112 250.406 231.793 234.438 220.06C204.669 198.06 176.523 176.941 197.362 143.208C207.916 125.902 217.659 119.449 228.755 112.116C235.791 107.423 243.91 102.143 253.112 93.3431C260.96 85.7166 267.455 78.3835 273.68 71.0504C289.647 52.5709 302.367 37.9046 328.618 37.9046C332.678 37.9046 337.278 38.1979 341.879 39.0779C405.748 48.7576 476.383 65.1839 560.279 118.569C670.426 188.674 744.85 253.792 775.973 363.203C790.316 413.948 784.903 470.266 762.712 503.119C749.721 522.185 731.318 532.451 709.938 532.451C698.031 532.451 685.311 529.518 671.509 523.358C646.069 512.212 630.643 486.693 624.148 445.04C618.465 408.668 620.359 365.256 621.983 326.537C622.524 315.684 622.795 305.417 623.066 295.444C624.148 252.619 613.323 216.833 591.672 192.487C571.916 170.194 543.229 158.168 511.295 158.168C468.806 158.168 425.775 178.701 393.299 214.78C373.543 236.779 361.094 259.365 355.681 284.005C350.81 306.004 351.622 329.177 358.388 354.696C370.566 402.215 400.065 449.734 431.188 499.892C442.013 517.492 453.379 535.385 463.664 553.571C487.479 594.93 483.42 624.262 475.842 641.275C467.452 660.048 450.403 673.541 432 675.888C429.835 676.181 427.94 676.181 425.775 676.181C406.831 676.181 393.299 664.741 378.956 652.715C370.025 645.968 360.823 638.049 349.998 632.769Z" fill="#5D5D5D" fill-opacity="0.15"/>
<path d="M449.591 640.982C456.627 635.409 460.958 627.489 462.04 617.809C465.288 589.063 441.743 546.824 420.363 519.545C393.841 485.519 367.59 449.147 354.87 413.948C354.329 412.188 353.246 407.201 352.164 401.041C348.104 380.215 341.068 345.31 331.054 345.31C330.242 345.31 329.16 345.603 328.348 346.19C324.288 348.83 322.935 354.109 324.559 362.323C325.912 369.069 328.889 376.695 331.596 383.442C334.573 390.482 337.008 396.935 337.008 400.455C337.008 409.548 332.949 413.361 329.16 417.468C326.183 420.401 323.206 423.628 322.123 428.907C320.77 435.947 323.477 441.227 325.912 446.214C328.348 450.907 330.784 455.6 329.972 462.053C328.619 473.493 295.06 514.852 265.561 551.224C241.205 581.437 220.095 607.543 220.366 612.529C220.366 612.823 220.636 613.116 220.636 613.409C222.531 615.169 226.32 616.049 232.003 616.049C240.663 616.049 252.842 613.996 266.915 611.356C283.964 608.423 303.45 604.903 320.229 604.903C333.219 604.903 343.233 606.956 350.269 611.063C354.058 613.409 358.388 616.049 362.989 618.982C383.286 631.595 408.184 647.435 429.564 647.435C437.142 647.728 444.178 645.382 449.591 640.982ZM350.54 610.476C343.233 606.369 333.49 604.316 320.229 604.316C303.45 604.316 283.964 607.543 266.915 610.769C252.842 613.116 240.663 615.463 232.003 615.463C226.59 615.463 223.072 614.583 221.178 612.823C221.178 612.823 221.178 612.823 221.178 612.529C220.907 607.836 242.828 580.85 266.103 551.811C295.602 515.145 329.43 473.786 330.784 462.053C331.596 455.6 329.16 450.614 326.724 445.627C324.018 440.347 321.582 435.654 322.935 428.907C324.018 423.628 326.724 420.988 329.701 417.761C333.49 413.654 337.549 409.548 337.82 400.162C337.82 396.348 335.384 390.188 332.407 382.855C329.701 376.109 326.724 368.482 325.371 362.029C323.747 354.403 324.83 349.416 328.619 346.776C329.43 346.19 330.242 345.896 331.054 345.896C340.526 345.896 347.563 381.682 351.352 401.041C352.705 407.495 353.517 412.188 354.329 413.948C367.319 449.147 393.57 485.519 420.092 519.545C441.201 546.531 464.746 588.477 461.499 616.929C460.416 626.609 456.357 634.235 449.591 639.515C444.178 643.915 437.413 645.968 429.564 645.968C408.455 645.968 383.557 630.129 363.53 617.516C358.659 615.463 354.329 612.823 350.54 610.476Z" fill="#5D5D5D" fill-opacity="0.15"/>
<path d="M440.39 604.023C442.826 579.97 419.01 541.838 407.102 527.465C386.534 502.239 372.191 480.826 362.719 466.746C353.246 452.667 348.104 445.04 344.857 445.04C342.421 445.04 341.339 448.267 340.527 456.187C334.573 516.025 298.849 548.291 277.74 567.65C268.539 576.157 262.314 581.73 262.043 586.423C262.043 587.89 262.314 589.063 263.397 589.943C265.291 592.29 268.539 593.17 273.139 593.17C278.281 593.17 285.047 591.703 292.625 590.236C302.638 588.183 314.005 586.13 325.371 586.13C341.068 586.13 353.788 590.53 364.342 599.036C378.956 611.356 400.607 624.556 417.657 624.556C423.881 624.556 429.023 622.796 433.353 619.569C437.142 615.756 439.849 610.769 440.39 604.023ZM417.115 623.676C400.336 623.676 378.956 610.476 364.342 598.45C353.788 589.65 340.797 585.25 325.101 585.25C313.463 585.25 302.097 587.596 292.084 589.356C284.506 590.823 277.74 592.29 272.598 592.29C268.268 592.29 265.291 591.41 263.397 589.356C262.585 588.476 262.314 587.596 262.314 586.423C262.585 582.317 268.809 576.45 277.74 568.237C299.12 548.878 334.843 516.318 340.797 456.187C341.609 449.147 342.692 445.92 344.316 445.92C347.292 445.92 352.705 454.133 361.636 467.333C371.108 481.413 385.452 503.119 406.02 528.051C417.927 542.424 441.743 580.263 439.307 604.023C438.766 610.476 436.06 615.462 432 618.689C428.211 621.916 423.069 623.676 417.115 623.676Z" fill="#5D5D5D" fill-opacity="0.15"/>
<path d="M671.778 362.616C669.072 408.375 681.251 440.054 693.429 454.427C699.112 460.88 705.337 464.4 710.75 464.4C718.598 464.4 724.552 457.654 727.529 445.627C745.932 367.016 683.145 284.298 675.297 277.258C673.132 275.205 671.508 274.912 670.425 276.085C668.531 278.138 669.072 285.178 670.155 298.085C671.508 313.337 673.402 335.924 671.778 362.616ZM671.508 277.258C671.779 276.965 671.778 276.965 672.049 276.965C672.32 276.965 673.132 277.258 674.485 278.432C682.062 285.178 744.578 367.309 726.175 445.041C723.469 456.48 718.057 462.934 710.75 462.934C705.608 462.934 699.654 459.414 694.241 453.254C682.063 439.174 670.155 408.082 672.861 362.616C674.485 335.63 672.59 313.044 671.508 297.791C670.696 286.938 670.155 279.018 671.508 277.258Z" fill="#5D5D5D" fill-opacity="0.15"/>
<path d="M650.67 359.976C647.422 404.562 655.541 440.641 673.403 461.467C682.875 472.32 694.242 478.48 705.608 478.48C722.117 478.48 735.107 466.16 738.896 447.094C750.263 391.362 732.672 340.91 715.892 308.644C696.136 270.805 670.967 243.819 658.789 235.019C654.459 231.793 651.211 229.74 649.317 229.74C648.505 229.74 647.964 230.033 647.693 230.62C646.069 232.673 646.881 237.953 647.964 248.806C650.399 267.872 654.73 303.658 650.67 359.976ZM648.505 231.206C648.776 230.913 649.046 230.62 649.588 230.62C651.211 230.62 654.459 232.673 658.518 235.606C685.852 255.552 758.923 345.897 738.355 446.801C734.566 465.573 721.846 477.6 705.608 477.6C694.242 477.6 683.146 471.733 673.944 460.88C656.353 440.054 648.234 404.268 651.211 360.27C655.271 303.658 650.941 267.872 648.776 248.806C647.964 238.833 647.152 232.673 648.505 231.206Z" fill="#5D5D5D" fill-opacity="0.15"/>
<path d="M635.244 362.909C631.996 418.348 642.01 462.054 662.848 486.106C673.674 498.426 686.664 505.172 700.737 505.172C727.529 505.172 750.262 481.706 757.299 446.801C767.583 395.175 758.652 344.43 731.048 296.031C702.902 246.753 663.931 215.073 643.092 200.407C632.538 193.074 627.937 189.847 626.313 192.194C624.96 193.954 625.772 199.527 627.666 210.087C631.455 232.966 639.845 280.778 635.244 362.909ZM626.584 192.487C626.854 192.194 627.125 192.194 627.666 192.194C629.831 192.194 634.703 195.421 642.551 200.994C711.562 249.686 777.867 339.737 756.487 446.507C749.451 481.12 727.259 504.292 700.737 504.292C686.935 504.292 673.944 497.839 663.39 485.52C642.551 461.76 633.079 418.055 636.056 362.909C640.657 280.485 632.267 232.673 628.207 209.5C626.584 200.114 625.501 194.247 626.584 192.487Z" fill="#5D5D5D" fill-opacity="0.15"/>
<path d="M323.748 178.994C331.325 178.994 337.008 171.075 342.692 159.048C352.976 137.929 374.356 127.956 385.993 122.382C391.947 119.743 394.112 118.569 393.841 116.809C393.571 115.343 392.217 114.756 384.098 114.169C360.012 112.409 306.427 137.049 300.203 155.822C298.849 160.221 299.932 164.035 303.18 167.261C312.381 175.474 318.606 178.994 323.748 178.994ZM301.826 156.408C307.51 139.395 357.577 115.929 381.392 115.929C382.204 115.929 383.016 115.929 383.828 115.929C388.429 116.223 390.594 116.516 391.405 116.809C390.323 117.689 387.617 118.863 385.181 120.036C373.544 125.609 351.623 135.875 341.068 157.582C334.302 171.075 329.431 176.648 323.748 176.648C318.876 176.648 313.193 173.128 304.262 165.208C301.285 162.861 300.473 159.928 301.826 156.408Z" fill="#5D5D5D" fill-opacity="0.15"/>
<path d="M347.292 177.821C365.695 141.448 399.524 128.835 426.587 121.796C429.294 121.209 429.564 119.742 429.294 118.862C428.752 112.996 403.042 101.556 364.883 101.556C360.553 101.556 356.223 101.556 351.893 101.849C334.573 103.023 293.437 129.422 278.552 148.782C274.763 153.768 272.869 158.168 273.41 161.395C274.492 169.608 280.988 173.128 288.836 177.234C296.955 181.634 306.156 186.621 310.757 198.354C313.463 205.1 316.711 208.62 321.041 208.62C328.077 208.62 337.008 198.354 347.292 177.821ZM312.11 197.767C307.509 185.741 298.037 180.461 289.648 176.061C282.341 171.954 275.845 168.728 275.034 161.395C274.763 158.755 276.387 154.648 279.905 149.955C294.519 130.595 335.114 104.783 352.164 103.609C356.494 103.316 360.824 103.316 365.154 103.316C402.501 103.316 427.67 114.462 428.211 119.156C428.211 120.036 427.129 120.329 426.587 120.622C398.983 127.662 364.883 140.568 346.21 177.527C330.513 207.74 318.876 215.366 312.11 197.767Z" fill="#5D5D5D" fill-opacity="0.15"/>
<path d="M703.444 429.494C704.797 429.494 706.15 428.321 707.232 426.268C712.374 415.415 712.374 378.456 698.302 355.87C696.407 352.936 693.972 353.23 691.806 357.043C686.664 366.723 684.229 398.108 698.572 425.094C700.196 428.028 701.82 429.494 703.444 429.494ZM693.43 358.216C694.242 357.043 694.783 356.163 695.325 356.163C695.866 356.163 696.407 356.75 696.407 357.336C709.668 379.042 710.209 415.415 705.067 425.681C704.526 427.148 703.714 427.734 702.902 427.734C702.09 427.734 701.008 426.561 699.925 424.508C686.664 398.108 688.559 367.309 693.43 358.216Z" fill="#5D5D5D" fill-opacity="0.15"/>
<path d="M426.858 746.579C467.183 741.593 515.084 689.674 528.075 650.075C550.537 581.144 510.754 525.705 472.325 472.027C435.248 420.401 400.336 371.416 417.386 311.871C432.271 259.952 480.173 232.086 517.791 232.086C538.088 232.086 555.409 240.006 567.046 254.086C580.848 270.805 586.261 296.324 582.742 327.71C570.564 435.654 567.046 553.864 678.275 588.77C690.995 592.877 703.715 594.93 715.623 594.93C762.442 594.93 792.211 565.891 808.991 541.545C841.196 494.906 852.292 424.801 836.866 367.603C823.605 318.911 797.624 271.978 757.3 223.58C697.49 151.715 616.03 89.8232 508.048 34.678L503.447 32.3314C457.71 8.86536 410.891 -15.1873 361.366 -28.387C358.389 -29.267 355.141 -30.147 351.623 -31.0269C336.467 -35.4268 317.523 -41 301.285 -41C294.79 -41 289.107 -40.12 284.506 -38.3601C277.47 -35.7201 273.41 -30.4403 269.621 -25.4537C266.644 -21.6405 263.938 -17.8273 259.608 -14.894C256.902 -13.1341 251.489 -10.7875 245.806 -8.44085C236.604 -4.62762 227.132 -0.521061 224.155 2.99884C218.472 10.332 220.096 14.7319 221.449 19.1318C222.531 22.065 223.614 24.9983 222.261 29.3982L221.178 32.9181C213.059 59.024 213.059 59.024 194.115 64.8905C190.597 66.0639 185.996 67.5305 180.583 69.2904C164.887 74.5703 158.662 83.0767 152.438 90.9965C147.566 97.1564 143.236 103.023 134.847 107.716C134.576 107.716 134.305 107.716 134.035 107.716C124.292 107.716 50.4095 112.996 44.7262 132.649C43.1024 137.929 46.6206 143.795 54.469 149.662C64.4823 157.288 72.3307 158.168 77.202 158.168C79.6377 158.168 81.8028 157.875 83.6972 157.581C85.5916 157.288 87.2154 157.288 88.8392 157.288C94.7931 157.288 100.747 159.048 109.137 181.048C111.031 186.327 112.655 191.021 114.008 194.54C120.503 212.727 120.503 213.02 136.741 220.353C140.801 222.113 145.672 224.46 152.167 227.686C173.006 238.246 177.336 249.979 182.748 264.939C185.725 272.858 188.973 281.952 194.927 291.925C201.422 302.778 209.27 311.577 216.577 319.791C229.838 334.75 242.287 348.83 246.347 372.296C253.113 413.068 232.815 452.08 209.812 488.159C198.716 505.759 175.712 525.998 151.085 547.411C109.678 584.077 62.8586 625.436 62.5879 663.862C62.5879 685.861 67.7299 702.58 78.0139 713.727C89.3805 726.047 106.43 731.913 130.246 731.913C164.887 731.913 207.647 719.3 245.264 708.154C275.034 699.354 300.473 691.727 316.982 691.727C320.771 691.727 323.748 692.021 326.183 692.901C341.88 697.887 354.6 708.74 366.508 719.3C382.475 733.086 397.63 746.286 419.551 746.286C422.258 746.873 424.423 746.873 426.858 746.579ZM327.266 691.434C324.56 690.554 321.312 690.261 317.523 690.261C301.015 690.261 275.305 697.887 245.535 706.687C207.917 717.833 165.428 730.446 131.058 730.446C107.513 730.446 91.0043 724.58 80.179 712.847C70.1656 701.994 65.2942 685.568 65.2942 664.448C65.5649 626.902 112.114 585.837 152.979 549.758C177.336 528.052 200.61 507.812 211.977 489.919C235.251 453.547 255.819 414.241 249.053 372.589C244.994 348.536 232.274 334.163 218.743 318.911C211.435 310.697 203.587 301.898 197.092 291.338C191.138 281.365 187.89 272.565 184.914 264.645C179.23 249.099 174.9 237.073 153.25 226.22C146.754 222.993 141.883 220.646 137.824 218.887C122.127 211.553 122.127 211.553 115.902 194.247C114.549 190.434 112.925 186.034 111.031 180.754C103.183 159.635 96.9582 155.528 89.1098 155.528C87.486 155.528 85.5916 155.822 83.9678 155.822C81.8028 156.115 79.9084 156.115 77.4727 156.115C72.3307 156.115 65.5649 155.235 55.8221 147.902C48.5151 142.329 45.5381 137.342 46.6206 132.942C51.492 115.929 120.503 109.476 134.035 109.476C134.305 109.476 134.576 109.476 134.576 109.476L134.847 108.596L135.388 109.476C144.319 104.49 149.19 98.3297 154.061 92.1698C160.286 83.9567 166.24 76.3303 181.395 71.0504C186.808 69.2904 191.409 67.8238 194.927 66.6505C214.683 60.4907 214.954 60.1973 223.343 33.2114L224.426 29.6915C226.05 24.7049 224.696 21.185 223.614 17.9585C222.261 13.8519 220.908 10.332 226.05 4.17215C228.756 0.652241 238.499 -3.16099 246.888 -6.6809C252.572 -9.02751 257.984 -11.3741 260.961 -13.1341C265.562 -16.0673 268.539 -20.1739 271.516 -23.9871C275.305 -28.9736 279.093 -33.6669 285.589 -36.3068C289.919 -38.0667 295.331 -38.9467 301.826 -38.9467C317.794 -38.9467 336.738 -33.3735 351.893 -29.267C355.412 -28.387 358.659 -27.2137 361.636 -26.627C410.891 -13.4274 457.71 10.6253 502.906 33.798L507.507 36.1446C615.218 91.2899 696.408 152.888 755.947 224.46C796 272.565 821.981 319.497 834.971 367.603C850.397 424.214 839.301 493.439 807.367 539.785C790.858 563.837 761.359 592.29 715.352 592.29C703.444 592.29 690.995 590.237 678.546 586.424C568.94 552.104 572.458 434.774 584.366 327.71C587.884 295.738 582.472 269.632 568.399 252.326C556.491 237.659 538.359 229.74 517.791 229.74C479.632 229.74 430.918 258.192 415.762 310.991C398.442 371.416 435.519 423.041 471.242 472.906C509.401 525.998 548.643 581.144 526.722 648.902C514.002 687.914 466.912 739.246 427.129 743.939C424.964 744.233 422.799 744.233 420.634 744.233C399.525 744.233 384.64 731.326 368.943 717.54C355.953 707.567 343.504 696.714 327.266 691.434Z" fill="#5D5D5D" fill-opacity="0.15"/>
</svg>
