<svg width="75" height="64" viewBox="0 0 75 64" fill="none" xmlns="http://www.w3.org/2000/svg">
<path fill-rule="evenodd" clip-rule="evenodd" d="M38.7402 19.8273H51.422V32.4647H38.7402V19.8273Z" fill="white"/>
<mask id="mask0_6839_39997" style="mask-type:luminance" maskUnits="userSpaceOnUse" x="12" y="18" width="10" height="11">
<path d="M12.3223 18.457H21.9689V28.6133H12.3223V18.457Z" fill="white"/>
</mask>
<g mask="url(#mask0_6839_39997)">
<path fill-rule="evenodd" clip-rule="evenodd" d="M12.2979 18.7546H21.9063V28.328H12.2979V18.7546Z" fill="white"/>
</g>
<mask id="mask1_6839_39997" style="mask-type:luminance" maskUnits="userSpaceOnUse" x="41" y="0" width="11" height="10">
<path d="M41.6963 0H51.4527V9.66645H41.6963V0Z" fill="white"/>
</mask>
<g mask="url(#mask1_6839_39997)">
<path fill-rule="evenodd" clip-rule="evenodd" d="M41.8398 0H51.4483V9.57337H41.8398V0Z" fill="white"/>
</g>
<path fill-rule="evenodd" clip-rule="evenodd" d="M50.2305 36.1023H55.9952V41.8474H50.2305V36.1023Z" fill="white"/>
<path fill-rule="evenodd" clip-rule="evenodd" d="M27.3408 14.3555H33.6824V20.6741H27.3408V14.3555Z" fill="white"/>
<mask id="mask2_6839_39997" style="mask-type:luminance" maskUnits="userSpaceOnUse" x="27" y="29" width="7" height="7">
<path d="M27.6338 29.2969H33.7861V35.2169H27.6338V29.2969Z" fill="white"/>
</mask>
<g mask="url(#mask2_6839_39997)">
<path fill-rule="evenodd" clip-rule="evenodd" d="M27.7969 29.3203H33.7125V35.214H27.7969V29.3203Z" fill="white"/>
</g>
<path fill-rule="evenodd" clip-rule="evenodd" d="M17.0869 33.3984H24.2051V40.4924H17.0869V33.3984Z" fill="white"/>
<path fill-rule="evenodd" clip-rule="evenodd" d="M54.1123 21.2052H60.2617V27.3331H54.1123V21.2052Z" fill="white"/>
<path fill-rule="evenodd" clip-rule="evenodd" d="M39.3525 12.5977H43.1611V16.4062H39.3525V12.5977Z" fill="white"/>
<path d="M52.4875 39.3615L44.6473 26.8402L17.0366 24.2722L17.1694 22.8119L45.5139 25.4501L53.7385 38.5863L52.4875 39.3615Z" fill="white"/>
<path d="M47.457 31.5237L47.5397 3.35163L49.0065 3.34802L48.9239 31.5202L47.457 31.5237Z" fill="white"/>
<path d="M3.98018 50.9926C4.44424 51.2176 4.74658 51.6184 4.74658 52.1598C4.74658 53.0458 4.09268 53.5661 3.02393 53.5661H0.492676V48.6442H2.89736C3.90283 48.6442 4.5708 49.1856 4.5708 49.9801C4.5708 50.4372 4.3458 50.7817 3.98018 50.9926ZM2.89736 49.6427H1.63174V50.627H2.89736C3.20674 50.627 3.43174 50.402 3.43174 50.1208C3.43174 49.8395 3.20674 49.6356 2.89736 49.6427ZM3.02393 52.5606C3.38252 52.5606 3.58643 52.3356 3.58643 52.0473C3.58643 51.745 3.38252 51.5411 3.02393 51.5411H1.63174V52.5606H3.02393ZM7.80738 49.9801H8.93238V53.5661H7.80738V53.1934C7.56831 53.4676 7.20972 53.6645 6.74566 53.6645C5.78941 53.6645 5.34644 53.0177 5.34644 52.0684V49.9801H6.47144V51.8434C6.47144 52.3145 6.66831 52.6239 7.11128 52.6239C7.54722 52.6239 7.80738 52.2794 7.80738 51.7309V49.9801ZM11.2316 53.6645C10.3105 53.6645 9.61441 53.1301 9.43863 52.5536L10.4441 52.2583C10.5636 52.5536 10.8519 52.7786 11.2738 52.7786C11.555 52.7786 11.7238 52.652 11.7238 52.5184C11.7238 52.3919 11.6043 52.3075 11.3863 52.2442L10.5285 51.9911C9.98706 51.8294 9.62144 51.5059 9.62144 50.9926C9.62144 50.3598 10.3105 49.8817 11.1121 49.8817C11.8855 49.8817 12.5043 50.2333 12.7363 50.7958L11.7519 51.077C11.6183 50.8872 11.4074 50.7395 11.105 50.7395C10.9082 50.7395 10.7253 50.8309 10.7253 50.9645C10.7253 51.0559 10.7816 51.1262 10.9293 51.1755L11.7589 51.4075C12.3285 51.5692 12.8277 51.7801 12.8277 52.4692C12.8277 53.1583 12.1738 53.6645 11.2316 53.6645ZM14.0189 49.5653C13.6603 49.5653 13.372 49.2841 13.372 48.9255C13.372 48.5809 13.6603 48.2997 14.0189 48.2997C14.3775 48.2997 14.6657 48.5809 14.6657 48.9255C14.6657 49.2841 14.3775 49.5653 14.0189 49.5653ZM13.4423 53.5661V49.9801H14.5673V53.5661H13.4423ZM17.6071 49.8817C18.5633 49.8817 19.0063 50.5286 19.0063 51.4778V53.5661H17.8813V51.7028C17.8813 51.2317 17.6844 50.9223 17.2414 50.9223C16.8055 50.9223 16.5453 51.2669 16.5453 51.8153V53.5661H15.4203V49.9801H16.5453V50.3528C16.7844 50.0786 17.143 49.8817 17.6071 49.8817ZM21.5727 53.6645C20.4055 53.6645 19.6039 52.8981 19.6039 51.7801C19.6039 50.7044 20.3563 49.8817 21.5024 49.8817C22.6907 49.8817 23.3797 50.7044 23.3797 51.738C23.3797 51.8645 23.3727 51.9911 23.3516 52.1106H20.7008C20.7711 52.4481 21.0172 52.7294 21.5938 52.7294C21.9735 52.7294 22.1914 52.5817 22.311 52.3637L23.3235 52.6591C23.1336 53.102 22.5289 53.6645 21.5727 53.6645ZM20.7008 51.4356H22.2828C22.2477 51.1122 21.9594 50.8239 21.4953 50.8239C21.0313 50.8239 20.75 51.1333 20.7008 51.4356ZM25.4657 53.6645C24.5447 53.6645 23.8486 53.1301 23.6728 52.5536L24.6782 52.2583C24.7978 52.5536 25.0861 52.7786 25.5079 52.7786C25.7892 52.7786 25.9579 52.652 25.9579 52.5184C25.9579 52.3919 25.8384 52.3075 25.6204 52.2442L24.7626 51.9911C24.2212 51.8294 23.8556 51.5059 23.8556 50.9926C23.8556 50.3598 24.5447 49.8817 25.3462 49.8817C26.1197 49.8817 26.7384 50.2333 26.9704 50.7958L25.9861 51.077C25.8525 50.8872 25.6415 50.7395 25.3392 50.7395C25.1423 50.7395 24.9595 50.8309 24.9595 50.9645C24.9595 51.0559 25.0157 51.1262 25.1634 51.1755L25.9931 51.4075C26.5626 51.5692 27.0618 51.7801 27.0618 52.4692C27.0618 53.1583 26.4079 53.6645 25.4657 53.6645ZM29.0844 53.6645C28.1633 53.6645 27.4672 53.1301 27.2914 52.5536L28.2969 52.2583C28.4164 52.5536 28.7047 52.7786 29.1266 52.7786C29.4078 52.7786 29.5765 52.652 29.5765 52.5184C29.5765 52.3919 29.457 52.3075 29.2391 52.2442L28.3813 51.9911C27.8398 51.8294 27.4742 51.5059 27.4742 50.9926C27.4742 50.3598 28.1633 49.8817 28.9648 49.8817C29.7382 49.8817 30.357 50.2333 30.589 50.7958L29.6046 51.077C29.471 50.8872 29.2602 50.7395 28.9578 50.7395C28.7609 50.7395 28.5781 50.8309 28.5781 50.9645C28.5781 51.0559 28.6344 51.1262 28.782 51.1755L29.6117 51.4075C30.1812 51.5692 30.6804 51.7801 30.6804 52.4692C30.6804 53.1583 30.0265 53.6645 29.0844 53.6645ZM33.0054 53.5661V48.6442H34.1867V53.5661H33.0054ZM37.2177 49.8817C38.174 49.8817 38.6169 50.5286 38.6169 51.4778V53.5661H37.4919V51.7028C37.4919 51.2317 37.2951 50.9223 36.8521 50.9223C36.4162 50.9223 36.156 51.2669 36.156 51.8153V53.5661H35.031V49.9801H36.156V50.3528C36.3951 50.0786 36.7537 49.8817 37.2177 49.8817ZM41.5068 52.5536L41.774 53.4466C41.4716 53.5661 41.2115 53.6223 40.8951 53.6223C40.0232 53.6223 39.6294 53.088 39.6294 52.2723V50.9645H39.074V49.9801H39.6294V48.8552H40.7544V49.9801H41.7177V50.9645H40.7544V52.2723C40.7544 52.5114 40.874 52.645 41.1271 52.645C41.2747 52.645 41.3872 52.6169 41.5068 52.5536ZM43.9575 53.6645C42.7903 53.6645 41.9887 52.8981 41.9887 51.7801C41.9887 50.7044 42.7411 49.8817 43.8872 49.8817C45.0754 49.8817 45.7645 50.7044 45.7645 51.738C45.7645 51.8645 45.7575 51.9911 45.7364 52.1106H43.0856C43.1559 52.4481 43.402 52.7294 43.9786 52.7294C44.3582 52.7294 44.5762 52.5817 44.6957 52.3637L45.7082 52.6591C45.5184 53.102 44.9137 53.6645 43.9575 53.6645ZM43.0856 51.4356H44.6676C44.6325 51.1122 44.3442 50.8239 43.8801 50.8239C43.4161 50.8239 43.1348 51.1333 43.0856 51.4356ZM46.395 53.5661V48.4333H47.52V53.5661H46.395ZM48.3655 53.5661V48.4333H49.4905V53.5661H48.3655ZM50.8917 49.5653C50.5331 49.5653 50.2449 49.2841 50.2449 48.9255C50.2449 48.5809 50.5331 48.2997 50.8917 48.2997C51.2503 48.2997 51.5386 48.5809 51.5386 48.9255C51.5386 49.2841 51.2503 49.5653 50.8917 49.5653ZM50.3152 53.5661V49.9801H51.4402V53.5661H50.3152ZM54.8246 49.9801H55.9496V53.4325C55.9496 54.438 55.2183 55.1411 54.0652 55.1411C53.1722 55.1411 52.6238 54.7403 52.3285 54.2059L53.2988 53.8544C53.4535 54.0934 53.7066 54.227 54.0933 54.227C54.5925 54.227 54.8246 53.8895 54.8246 53.4395V53.095C54.5644 53.3762 54.2269 53.5239 53.8331 53.5239C52.8136 53.5239 52.0824 52.7223 52.0824 51.7028C52.0824 50.613 52.8136 49.8817 53.8331 49.8817C54.2269 49.8817 54.5644 50.0294 54.8246 50.3106V49.9801ZM54.03 52.5184C54.5222 52.5184 54.8527 52.195 54.8527 51.7028C54.8527 51.2106 54.5222 50.8872 54.03 50.8872C53.5308 50.8872 53.1933 51.2106 53.1933 51.7028C53.1933 52.195 53.5308 52.5184 54.03 52.5184ZM58.5485 53.6645C57.3813 53.6645 56.5797 52.8981 56.5797 51.7801C56.5797 50.7044 57.3321 49.8817 58.4782 49.8817C59.6665 49.8817 60.3555 50.7044 60.3555 51.738C60.3555 51.8645 60.3485 51.9911 60.3274 52.1106H57.6766C57.7469 52.4481 57.993 52.7294 58.5696 52.7294C58.9493 52.7294 59.1672 52.5817 59.2868 52.3637L60.2993 52.6591C60.1094 53.102 59.5047 53.6645 58.5485 53.6645ZM57.6766 51.4356H59.2586C59.2235 51.1122 58.9352 50.8239 58.4711 50.8239C58.0071 50.8239 57.7258 51.1333 57.6766 51.4356ZM63.173 49.8817C64.1292 49.8817 64.5722 50.5286 64.5722 51.4778V53.5661H63.4472V51.7028C63.4472 51.2317 63.2503 50.9223 62.8074 50.9223C62.3714 50.9223 62.1113 51.2669 62.1113 51.8153V53.5661H60.9863V49.9801H62.1113V50.3528C62.3503 50.0786 62.7089 49.8817 63.173 49.8817ZM67.0894 53.6645C65.9785 53.6645 65.1699 52.8489 65.1699 51.7731C65.1699 50.6973 65.9785 49.8817 67.0753 49.8817C68.1019 49.8817 68.7347 50.5356 68.8683 51.0981L67.8277 51.3934C67.7644 51.1333 67.4831 50.8731 67.0824 50.8731C66.5832 50.8731 66.2667 51.2809 66.2667 51.7661C66.2667 52.2442 66.5832 52.6731 67.0824 52.6731C67.4831 52.6731 67.7644 52.427 67.8277 52.1669L68.8683 52.4622C68.7347 53.0247 68.1019 53.6645 67.0894 53.6645ZM71.2241 53.6645C70.0569 53.6645 69.2553 52.8981 69.2553 51.7801C69.2553 50.7044 70.0077 49.8817 71.1537 49.8817C72.342 49.8817 73.0311 50.7044 73.0311 51.738C73.0311 51.8645 73.0241 51.9911 73.003 52.1106H70.3522C70.4225 52.4481 70.6686 52.7294 71.2452 52.7294C71.6248 52.7294 71.8428 52.5817 71.9623 52.3637L72.9748 52.6591C72.785 53.102 72.1803 53.6645 71.2241 53.6645ZM70.3522 51.4356H71.9342C71.8991 51.1122 71.6108 50.8239 71.1467 50.8239C70.6827 50.8239 70.4014 51.1333 70.3522 51.4356ZM21.0045 57.1403C22.3897 57.1403 23.3318 58.1387 23.3318 59.6012C23.3318 61.0286 22.4108 62.0622 21.0045 62.0622H18.7334V57.1403H21.0045ZM20.9764 61.0145C21.6373 61.0145 22.1506 60.445 22.1506 59.5802C22.1506 58.7153 21.6373 58.188 20.9764 58.188H19.8865V61.0145H20.9764ZM25.5191 62.1606C24.5488 62.1606 23.7753 61.3591 23.7753 60.2692C23.7753 59.1794 24.5488 58.3778 25.5191 58.3778C25.962 58.3778 26.3066 58.5395 26.5527 58.8067V58.4762H27.6777V62.0622H26.5527V61.7317C26.3066 61.9919 25.962 62.1606 25.5191 62.1606ZM25.723 61.1622C26.2081 61.1622 26.5808 60.8036 26.5808 60.2622C26.5808 59.7278 26.2081 59.3762 25.723 59.3762C25.2378 59.3762 24.8863 59.7278 24.8863 60.2622C24.8863 60.8036 25.2378 61.1622 25.723 61.1622ZM29.9735 62.1606C29.0525 62.1606 28.3564 61.6262 28.1806 61.0497L29.1861 60.7544C29.3055 61.0497 29.5938 61.2747 30.0157 61.2747C30.2969 61.2747 30.4657 61.1481 30.4657 61.0145C30.4657 60.888 30.3461 60.8036 30.1282 60.7403L29.2704 60.4872C28.729 60.3255 28.3634 60.002 28.3634 59.4887C28.3634 58.8559 29.0525 58.3778 29.8539 58.3778C30.6274 58.3778 31.2461 58.7294 31.4782 59.2919L30.4938 59.5731C30.3602 59.3833 30.1493 59.2356 29.8469 59.2356C29.65 59.2356 29.4672 59.327 29.4672 59.4606C29.4672 59.552 29.5235 59.6223 29.6711 59.6716L30.5008 59.9036C31.0704 60.0653 31.5696 60.2762 31.5696 60.9653C31.5696 61.6544 30.9157 62.1606 29.9735 62.1606ZM34.392 58.3778C35.3483 58.3778 35.7913 59.0247 35.7913 59.9739V62.0622H34.6663V60.1989C34.6663 59.7278 34.4694 59.4184 34.0264 59.4184C33.5905 59.4184 33.3303 59.763 33.3303 60.3114V62.0622H32.2053V56.9294H33.3303V58.8489C33.5694 58.5747 33.928 58.3778 34.392 58.3778ZM38.7584 58.3778C39.7288 58.3778 40.5022 59.1794 40.5022 60.2692C40.5022 61.3591 39.7288 62.1606 38.7584 62.1606C38.3155 62.1606 37.9709 61.9919 37.7248 61.7317V62.0622H36.5998V56.9294H37.7248V58.8067C37.9709 58.5395 38.3155 58.3778 38.7584 58.3778ZM38.5545 61.1622C39.0397 61.1622 39.3913 60.8036 39.3913 60.2622C39.3913 59.7278 39.0397 59.3762 38.5545 59.3762C38.0694 59.3762 37.6967 59.7278 37.6967 60.2622C37.6967 60.8036 38.0694 61.1622 38.5545 61.1622ZM42.8474 62.1606C41.7294 62.1606 40.9208 61.345 40.9208 60.2692C40.9208 59.1934 41.7294 58.3778 42.8474 58.3778C43.9654 58.3778 44.774 59.1934 44.774 60.2692C44.774 61.345 43.9654 62.1606 42.8474 62.1606ZM42.8474 61.1481C43.3607 61.1481 43.6841 60.7755 43.6841 60.2692C43.6841 59.763 43.3607 59.3903 42.8474 59.3903C42.3341 59.3903 42.0107 59.763 42.0107 60.2692C42.0107 60.7755 42.3341 61.1481 42.8474 61.1481ZM46.9425 62.1606C45.9722 62.1606 45.1988 61.3591 45.1988 60.2692C45.1988 59.1794 45.9722 58.3778 46.9425 58.3778C47.3855 58.3778 47.73 58.5395 47.9761 58.8067V58.4762H49.1011V62.0622H47.9761V61.7317C47.73 61.9919 47.3855 62.1606 46.9425 62.1606ZM47.1464 61.1622C47.6316 61.1622 48.0042 60.8036 48.0042 60.2622C48.0042 59.7278 47.6316 59.3762 47.1464 59.3762C46.6613 59.3762 46.3097 59.7278 46.3097 60.2622C46.3097 60.8036 46.6613 61.1622 47.1464 61.1622ZM51.0664 58.9614C51.2773 58.5747 51.664 58.3567 52.1914 58.427V59.4817C51.432 59.3552 51.0664 59.6786 51.0664 60.5645V62.0622H49.9413V58.4762H51.0664V58.9614ZM55.1445 56.9294H56.2695V62.0622H55.1445V61.7317C54.8984 61.9919 54.5539 62.1606 54.1109 62.1606C53.1406 62.1606 52.3671 61.3591 52.3671 60.2692C52.3671 59.1794 53.1406 58.3778 54.1109 58.3778C54.5539 58.3778 54.8984 58.5395 55.1445 58.8067V56.9294ZM54.3148 61.1622C54.7999 61.1622 55.1726 60.8036 55.1726 60.2622C55.1726 59.7278 54.7999 59.3762 54.3148 59.3762C53.8296 59.3762 53.4781 59.7278 53.4781 60.2622C53.4781 60.8036 53.8296 61.1622 54.3148 61.1622Z" fill="#FFFCFC"/>
</svg>
