<svg width="256" height="51" viewBox="0 0 256 51" fill="none" xmlns="http://www.w3.org/2000/svg">
<g clip-path="url(#clip0_6823_9495)">
<path fill-rule="evenodd" clip-rule="evenodd" d="M32.0166 24.0296H47.3859V39.3455H32.0166V24.0296Z" fill="#0D968F"/>
<mask id="mask0_6823_9495" style="mask-type:luminance" maskUnits="userSpaceOnUse" x="0" y="22" width="12" height="13">
<path d="M0 22.3689H11.6912V34.6778H0V22.3689Z" fill="white"/>
</mask>
<g mask="url(#mask0_6823_9495)">
<path fill-rule="evenodd" clip-rule="evenodd" d="M-0.029541 22.7296H11.6154V34.332H-0.029541V22.7296Z" fill="#0D968F"/>
</g>
<mask id="mask1_6823_9495" style="mask-type:luminance" maskUnits="userSpaceOnUse" x="35" y="0" width="13" height="12">
<path d="M35.5986 0H47.4233V11.7152H35.5986V0Z" fill="white"/>
</mask>
<g mask="url(#mask1_6823_9495)">
<path fill-rule="evenodd" clip-rule="evenodd" d="M35.7725 0H47.4174V11.6024H35.7725V0Z" fill="#0D968F"/>
</g>
<path fill-rule="evenodd" clip-rule="evenodd" d="M45.9419 43.754H52.9285V50.7168H45.9419V43.754Z" fill="#0D968F"/>
<path fill-rule="evenodd" clip-rule="evenodd" d="M18.2007 17.3981H25.8863V25.0559H18.2007V17.3981Z" fill="#0D968F"/>
<mask id="mask2_6823_9495" style="mask-type:luminance" maskUnits="userSpaceOnUse" x="18" y="35" width="9" height="8">
<path d="M18.5557 35.5062H26.012V42.681H18.5557V35.5062Z" fill="white"/>
</mask>
<g mask="url(#mask2_6823_9495)">
<path fill-rule="evenodd" clip-rule="evenodd" d="M18.7534 35.5347H25.9229V42.6774H18.7534V35.5347Z" fill="#0D968F"/>
</g>
<path fill-rule="evenodd" clip-rule="evenodd" d="M5.77344 40.4771H14.4004V49.0746H5.77344V40.4771Z" fill="#0D968F"/>
<path fill-rule="evenodd" clip-rule="evenodd" d="M50.6465 25.6995H58.0989V33.1262H50.6465V25.6995Z" fill="#0D968F"/>
<path fill-rule="evenodd" clip-rule="evenodd" d="M32.7583 15.2677H37.3739V19.8835H32.7583V15.2677Z" fill="#0D968F"/>
<path d="M48.6769 47.7041L39.175 32.5289L5.7124 29.4166L5.87328 27.6468L40.2257 30.8442L50.1933 46.7646L48.6769 47.7041Z" fill="#0D968F"/>
<path d="M42.5801 38.2051L42.6802 4.06201L44.4584 4.05765L44.3579 38.2008L42.5801 38.2051Z" fill="#0D968F"/>
<path d="M76.578 15.31C77.7497 15.8781 78.5131 16.89 78.5131 18.257C78.5131 20.4939 76.8621 21.8077 74.1636 21.8077H67.7725V9.38048H73.844C76.3827 9.38048 78.0693 10.7475 78.0693 12.7536C78.0693 13.9075 77.5012 14.7774 76.578 15.31ZM73.844 11.9014H70.6485V14.3869H73.844C74.6252 14.3869 75.1933 13.8188 75.1933 13.1086C75.1933 12.3985 74.6252 11.8837 73.844 11.9014ZM74.1636 19.269C75.069 19.269 75.5838 18.7009 75.5838 17.973C75.5838 17.2096 75.069 16.6948 74.1636 16.6948H70.6485V19.269H74.1636ZM86.2414 12.7536H89.0819V21.8077H86.2414V20.8667C85.6378 21.5591 84.7324 22.0562 83.5607 22.0562C81.1462 22.0562 80.0278 20.4229 80.0278 18.0262V12.7536H82.8683V17.4581C82.8683 18.6476 83.3654 19.4287 84.4838 19.4287C85.5845 19.4287 86.2414 18.5588 86.2414 17.1741V12.7536ZM94.8872 22.0562C92.5615 22.0562 90.8039 20.707 90.3601 19.2512L92.8988 18.5056C93.2006 19.2512 93.9285 19.8193 94.9937 19.8193C95.7038 19.8193 96.1299 19.4998 96.1299 19.1624C96.1299 18.8429 95.8281 18.6299 95.2777 18.4701L93.1118 17.831C91.7449 17.4226 90.8217 16.606 90.8217 15.31C90.8217 13.7122 92.5615 12.505 94.5854 12.505C96.5382 12.505 98.1005 13.3927 98.6863 14.8129L96.2009 15.5231C95.8636 15.0437 95.331 14.6709 94.5676 14.6709C94.0705 14.6709 93.6089 14.9017 93.6089 15.239C93.6089 15.4698 93.751 15.6473 94.1238 15.7716L96.2186 16.3575C97.6566 16.7658 98.9171 17.2984 98.9171 19.0382C98.9171 20.778 97.2661 22.0562 94.8872 22.0562ZM101.924 11.7061C101.019 11.7061 100.291 10.996 100.291 10.0906C100.291 9.2207 101.019 8.51057 101.924 8.51057C102.83 8.51057 103.558 9.2207 103.558 10.0906C103.558 10.996 102.83 11.7061 101.924 11.7061ZM100.469 21.8077V12.7536H103.309V21.8077H100.469ZM110.984 12.505C113.399 12.505 114.517 14.1383 114.517 16.535V21.8077H111.677V17.1031C111.677 15.9136 111.18 15.1325 110.061 15.1325C108.96 15.1325 108.304 16.0024 108.304 17.3871V21.8077H105.463V12.7536H108.304V13.6945C108.907 13.0021 109.813 12.505 110.984 12.505ZM120.997 22.0562C118.05 22.0562 116.026 20.1211 116.026 17.2984C116.026 14.5821 117.926 12.505 120.819 12.505C123.82 12.505 125.56 14.5821 125.56 17.1918C125.56 17.5114 125.542 17.831 125.489 18.1328H118.796C118.973 18.9849 119.595 19.695 121.05 19.695C122.009 19.695 122.559 19.3222 122.861 18.7719L125.418 19.5175C124.938 20.636 123.411 22.0562 120.997 22.0562ZM118.796 16.4285H122.79C122.701 15.6118 121.973 14.8839 120.802 14.8839C119.63 14.8839 118.92 15.6651 118.796 16.4285ZM130.827 22.0562C128.501 22.0562 126.743 20.707 126.3 19.2512L128.838 18.5056C129.14 19.2512 129.868 19.8193 130.933 19.8193C131.643 19.8193 132.069 19.4998 132.069 19.1624C132.069 18.8429 131.767 18.6299 131.217 18.4701L129.051 17.831C127.684 17.4226 126.761 16.606 126.761 15.31C126.761 13.7122 128.501 12.505 130.525 12.505C132.478 12.505 134.04 13.3927 134.626 14.8129L132.14 15.5231C131.803 15.0437 131.27 14.6709 130.507 14.6709C130.01 14.6709 129.548 14.9017 129.548 15.239C129.548 15.4698 129.69 15.6473 130.063 15.7716L132.158 16.3575C133.596 16.7658 134.857 17.2984 134.857 19.0382C134.857 20.778 133.205 22.0562 130.827 22.0562ZM139.963 22.0562C137.638 22.0562 135.88 20.707 135.436 19.2512L137.975 18.5056C138.277 19.2512 139.005 19.8193 140.07 19.8193C140.78 19.8193 141.206 19.4998 141.206 19.1624C141.206 18.8429 140.904 18.6299 140.354 18.4701L138.188 17.831C136.821 17.4226 135.898 16.606 135.898 15.31C135.898 13.7122 137.638 12.505 139.662 12.505C141.614 12.505 143.177 13.3927 143.763 14.8129L141.277 15.5231C140.94 15.0437 140.407 14.6709 139.644 14.6709C139.147 14.6709 138.685 14.9017 138.685 15.239C138.685 15.4698 138.827 15.6473 139.2 15.7716L141.295 16.3575C142.733 16.7658 143.993 17.2984 143.993 19.0382C143.993 20.778 142.342 22.0562 139.963 22.0562ZM149.863 21.8077V9.38048H152.846V21.8077H149.863ZM160.499 12.505C162.913 12.505 164.032 14.1383 164.032 16.535V21.8077H161.191V17.1031C161.191 15.9136 160.694 15.1325 159.576 15.1325C158.475 15.1325 157.818 16.0024 157.818 17.3871V21.8077H154.978V12.7536H157.818V13.6945C158.422 13.0021 159.327 12.505 160.499 12.505ZM171.328 19.2512L172.003 21.5059C171.239 21.8077 170.583 21.9497 169.784 21.9497C167.582 21.9497 166.588 20.6004 166.588 18.5411V15.239H165.186V12.7536H166.588V9.91307H169.429V12.7536H171.861V15.239H169.429V18.5411C169.429 19.1447 169.73 19.482 170.37 19.482C170.742 19.482 171.026 19.411 171.328 19.2512ZM177.516 22.0562C174.569 22.0562 172.545 20.1211 172.545 17.2984C172.545 14.5821 174.445 12.505 177.338 12.505C180.339 12.505 182.078 14.5821 182.078 17.1918C182.078 17.5114 182.061 17.831 182.007 18.1328H175.314C175.492 18.9849 176.113 19.695 177.569 19.695C178.528 19.695 179.078 19.3222 179.38 18.7719L181.936 19.5175C181.457 20.636 179.93 22.0562 177.516 22.0562ZM175.314 16.4285H179.309C179.22 15.6118 178.492 14.8839 177.321 14.8839C176.149 14.8839 175.439 15.6651 175.314 16.4285ZM183.671 21.8077V8.84788H186.511V21.8077H183.671ZM188.646 21.8077V8.84788H191.487V21.8077H188.646ZM195.024 11.7061C194.119 11.7061 193.391 10.996 193.391 10.0906C193.391 9.2207 194.119 8.51057 195.024 8.51057C195.93 8.51057 196.658 9.2207 196.658 10.0906C196.658 10.996 195.93 11.7061 195.024 11.7061ZM193.569 21.8077V12.7536H196.409V21.8077H193.569ZM204.954 12.7536H207.795V21.4704C207.795 24.009 205.948 25.7844 203.037 25.7844C200.782 25.7844 199.397 24.7724 198.652 23.4232L201.102 22.5355C201.492 23.1391 202.131 23.4765 203.108 23.4765C204.368 23.4765 204.954 22.6243 204.954 21.4881V20.6182C204.297 21.3283 203.445 21.7011 202.451 21.7011C199.877 21.7011 198.03 19.6773 198.03 17.1031C198.03 14.3514 199.877 12.505 202.451 12.505C203.445 12.505 204.297 12.8778 204.954 13.588V12.7536ZM202.948 19.1624C204.191 19.1624 205.025 18.3458 205.025 17.1031C205.025 15.8604 204.191 15.0437 202.948 15.0437C201.687 15.0437 200.835 15.8604 200.835 17.1031C200.835 18.3458 201.687 19.1624 202.948 19.1624ZM214.357 22.0562C211.41 22.0562 209.386 20.1211 209.386 17.2984C209.386 14.5821 211.286 12.505 214.18 12.505C217.18 12.505 218.92 14.5821 218.92 17.1918C218.92 17.5114 218.902 17.831 218.849 18.1328H212.156C212.333 18.9849 212.955 19.695 214.41 19.695C215.369 19.695 215.919 19.3222 216.221 18.7719L218.778 19.5175C218.298 20.636 216.772 22.0562 214.357 22.0562ZM212.156 16.4285H216.15C216.061 15.6118 215.334 14.8839 214.162 14.8839C212.99 14.8839 212.28 15.6651 212.156 16.4285ZM226.033 12.505C228.447 12.505 229.566 14.1383 229.566 16.535V21.8077H226.725V17.1031C226.725 15.9136 226.228 15.1325 225.11 15.1325C224.009 15.1325 223.352 16.0024 223.352 17.3871V21.8077H220.512V12.7536H223.352V13.6945C223.956 13.0021 224.861 12.505 226.033 12.505ZM235.921 22.0562C233.117 22.0562 231.075 19.9968 231.075 17.2806C231.075 14.5644 233.117 12.505 235.886 12.505C238.478 12.505 240.076 14.1561 240.413 15.5763L237.786 16.3219C237.626 15.6651 236.916 15.0082 235.904 15.0082C234.643 15.0082 233.844 16.0379 233.844 17.2629C233.844 18.4701 234.643 19.553 235.904 19.553C236.916 19.553 237.626 18.9317 237.786 18.2748L240.413 19.0204C240.076 20.4407 238.478 22.0562 235.921 22.0562ZM246.361 22.0562C243.414 22.0562 241.391 20.1211 241.391 17.2984C241.391 14.5821 243.29 12.505 246.184 12.505C249.184 12.505 250.924 14.5821 250.924 17.1918C250.924 17.5114 250.906 17.831 250.853 18.1328H244.16C244.338 18.9849 244.959 19.695 246.415 19.695C247.373 19.695 247.924 19.3222 248.225 18.7719L250.782 19.5175C250.303 20.636 248.776 22.0562 246.361 22.0562ZM244.16 16.4285H248.154C248.066 15.6118 247.338 14.8839 246.166 14.8839C244.994 14.8839 244.284 15.6651 244.16 16.4285ZM73.5067 30.6842C77.0041 30.6842 79.383 33.2052 79.383 36.8977C79.383 40.5016 77.0573 43.1113 73.5067 43.1113H67.7725V30.6842H73.5067ZM73.4357 40.4661C75.1045 40.4661 76.4005 39.0281 76.4005 36.8444C76.4005 34.6609 75.1045 33.3294 73.4357 33.3294H70.684V40.4661H73.4357ZM84.9056 43.3598C82.4557 43.3598 80.5029 41.336 80.5029 38.5843C80.5029 35.8325 82.4557 33.8088 84.9056 33.8088C86.0241 33.8088 86.894 34.2171 87.5154 34.8917V34.0573H90.3559V43.1113H87.5154V42.2769C86.894 42.9338 86.0241 43.3598 84.9056 43.3598ZM85.4205 40.8389C86.6454 40.8389 87.5864 39.9335 87.5864 38.5665C87.5864 37.2173 86.6454 36.3296 85.4205 36.3296C84.1955 36.3296 83.3079 37.2173 83.3079 38.5665C83.3079 39.9335 84.1955 40.8389 85.4205 40.8389ZM96.1526 43.3598C93.8269 43.3598 92.0694 42.0106 91.6256 40.5549L94.1642 39.8092C94.466 40.5549 95.1939 41.1229 96.2591 41.1229C96.9692 41.1229 97.3953 40.8034 97.3953 40.4661C97.3953 40.1465 97.0935 39.9335 96.5432 39.7737L94.3773 39.1346C93.0103 38.7263 92.0871 37.9096 92.0871 36.6137C92.0871 35.016 93.8269 33.8088 95.8508 33.8088C97.8036 33.8088 99.3659 34.6964 99.9518 36.1166L97.4663 36.8267C97.129 36.3474 96.5964 35.9745 95.833 35.9745C95.336 35.9745 94.8744 36.2053 94.8744 36.5426C94.8744 36.7734 95.0164 36.951 95.3892 37.0752L97.4841 37.6611C98.9221 38.0694 100.183 38.602 100.183 40.3418C100.183 42.0816 98.5315 43.3598 96.1526 43.3598ZM107.309 33.8088C109.723 33.8088 110.842 35.4421 110.842 37.8386V43.1113H108.001V38.4067C108.001 37.2173 107.504 36.4361 106.386 36.4361C105.285 36.4361 104.628 37.306 104.628 38.6908V43.1113H101.788V30.1516H104.628V34.9982C105.232 34.3059 106.137 33.8088 107.309 33.8088ZM118.334 33.8088C120.784 33.8088 122.736 35.8325 122.736 38.5843C122.736 41.336 120.784 43.3598 118.334 43.3598C117.215 43.3598 116.345 42.9338 115.724 42.2769V43.1113H112.883V30.1516H115.724V34.8917C116.345 34.2171 117.215 33.8088 118.334 33.8088ZM117.819 40.8389C119.044 40.8389 119.931 39.9335 119.931 38.5665C119.931 37.2173 119.044 36.3296 117.819 36.3296C116.594 36.3296 115.653 37.2173 115.653 38.5665C115.653 39.9335 116.594 40.8389 117.819 40.8389ZM128.657 43.3598C125.835 43.3598 123.793 41.3005 123.793 38.5843C123.793 35.868 125.835 33.8088 128.657 33.8088C131.48 33.8088 133.522 35.868 133.522 38.5843C133.522 41.3005 131.48 43.3598 128.657 43.3598ZM128.657 40.8034C129.953 40.8034 130.77 39.8625 130.77 38.5843C130.77 37.306 129.953 36.3651 128.657 36.3651C127.362 36.3651 126.545 37.306 126.545 38.5843C126.545 39.8625 127.362 40.8034 128.657 40.8034ZM138.997 43.3598C136.547 43.3598 134.594 41.336 134.594 38.5843C134.594 35.8325 136.547 33.8088 138.997 33.8088C140.115 33.8088 140.985 34.2171 141.607 34.8917V34.0573H144.447V43.1113H141.607V42.2769C140.985 42.9338 140.115 43.3598 138.997 43.3598ZM139.512 40.8389C140.737 40.8389 141.678 39.9335 141.678 38.5665C141.678 37.2173 140.737 36.3296 139.512 36.3296C138.287 36.3296 137.399 37.2173 137.399 38.5665C137.399 39.9335 138.287 40.8389 139.512 40.8389ZM149.41 35.2823C149.942 34.3059 150.919 33.7555 152.25 33.933V36.5959C150.333 36.2763 149.41 37.093 149.41 39.3299V43.1113H146.569V34.0573H149.41V35.2823ZM159.707 30.1516H162.547V43.1113H159.707V42.2769C159.085 42.9338 158.215 43.3598 157.097 43.3598C154.647 43.3598 152.694 41.336 152.694 38.5843C152.694 35.8325 154.647 33.8088 157.097 33.8088C158.215 33.8088 159.085 34.2171 159.707 34.8917V30.1516ZM157.612 40.8389C158.837 40.8389 159.778 39.9335 159.778 38.5665C159.778 37.2173 158.837 36.3296 157.612 36.3296C156.387 36.3296 155.499 37.2173 155.499 38.5665C155.499 39.9335 156.387 40.8389 157.612 40.8389Z" fill="white"/>
</g>
<defs>
<clipPath id="clip0_6823_9495">
<rect width="256" height="50.7739" fill="white"/>
</clipPath>
</defs>
</svg>
