<svg width="150" height="30" viewBox="0 0 150 30" fill="none" xmlns="http://www.w3.org/2000/svg">
<path fill-rule="evenodd" clip-rule="evenodd" d="M18.7598 14.1982H27.7652V23.2477H18.7598V14.1982Z" fill="#0D968F"/>
<mask id="mask0_6854_394" style="mask-type:luminance" maskUnits="userSpaceOnUse" x="0" y="13" width="7" height="8">
<path d="M0 13.217H6.8503V20.4898H0V13.217Z" fill="white"/>
</mask>
<g mask="url(#mask0_6854_394)">
<path fill-rule="evenodd" clip-rule="evenodd" d="M-0.017334 13.4304H6.80587V20.2858H-0.017334V13.4304Z" fill="#0D968F"/>
</g>
<mask id="mask1_6854_394" style="mask-type:luminance" maskUnits="userSpaceOnUse" x="20" y="0" width="8" height="7">
<path d="M20.8584 0H27.7869V6.92199H20.8584V0Z" fill="white"/>
</mask>
<g mask="url(#mask1_6854_394)">
<path fill-rule="evenodd" clip-rule="evenodd" d="M20.9604 0H27.7837V6.85534H20.9604V0Z" fill="#0D968F"/>
</g>
<path fill-rule="evenodd" clip-rule="evenodd" d="M26.9189 25.8523H31.0126V29.9663H26.9189V25.8523Z" fill="#0D968F"/>
<path fill-rule="evenodd" clip-rule="evenodd" d="M10.6646 10.2795H15.1678V14.8042H10.6646V10.2795Z" fill="#0D968F"/>
<mask id="mask2_6854_394" style="mask-type:luminance" maskUnits="userSpaceOnUse" x="10" y="20" width="6" height="6">
<path d="M10.8726 20.9788H15.2415V25.218H10.8726V20.9788Z" fill="white"/>
</mask>
<g mask="url(#mask2_6854_394)">
<path fill-rule="evenodd" clip-rule="evenodd" d="M10.9885 20.9956H15.1894V25.216H10.9885V20.9956Z" fill="#0D968F"/>
</g>
<path fill-rule="evenodd" clip-rule="evenodd" d="M3.38281 23.9163H8.43765V28.9961H3.38281V23.9163Z" fill="#0D968F"/>
<path fill-rule="evenodd" clip-rule="evenodd" d="M29.6755 15.1851H34.0422V19.5732H29.6755V15.1851Z" fill="#0D968F"/>
<path fill-rule="evenodd" clip-rule="evenodd" d="M19.1943 9.02051H21.8988V11.7478H19.1943V9.02051Z" fill="#0D968F"/>
<path d="M28.5217 28.1859L22.9542 19.2196L3.34717 17.3806L3.44143 16.335L23.5698 18.2242L29.4102 27.6308L28.5217 28.1859Z" fill="#0D968F"/>
<path d="M24.9495 22.5741L25.0081 2.40053L26.05 2.39795L25.9911 22.5716L24.9495 22.5741Z" fill="#0D968F"/>
<path d="M44.8702 9.04654C45.5567 9.3822 46.004 9.9801 46.004 10.7878C46.004 12.1095 45.0366 12.8857 43.4555 12.8857H39.7107V5.54304H43.2683C44.7558 5.54304 45.744 6.35073 45.744 7.53605C45.744 8.21786 45.4111 8.73185 44.8702 9.04654ZM43.2683 7.03255H41.3959V8.50108H43.2683C43.726 8.50108 44.0588 8.16542 44.0588 7.74584C44.0588 7.32626 43.726 7.02206 43.2683 7.03255ZM43.4555 11.3857C43.986 11.3857 44.2877 11.05 44.2877 10.62C44.2877 10.1689 43.986 9.86472 43.4555 9.86472H41.3959V11.3857H43.4555ZM50.5323 7.53605H52.1967V12.8857H50.5323V12.3298C50.1787 12.7388 49.6481 13.0325 48.9616 13.0325C47.5469 13.0325 46.8916 12.0675 46.8916 10.6514V7.53605H48.5559V10.3158C48.5559 11.0186 48.8472 11.4801 49.5025 11.4801C50.1474 11.4801 50.5323 10.9661 50.5323 10.1479V7.53605ZM55.5982 13.0325C54.2355 13.0325 53.2057 12.2353 52.9456 11.3752L54.4332 10.9346C54.61 11.3752 55.0365 11.7109 55.6606 11.7109C56.0767 11.7109 56.3264 11.5221 56.3264 11.3228C56.3264 11.1339 56.1495 11.0081 55.8271 10.9137L54.558 10.536C53.757 10.2948 53.2161 9.81227 53.2161 9.04654C53.2161 8.10248 54.2355 7.38919 55.4214 7.38919C56.5656 7.38919 57.481 7.91367 57.8243 8.75283L56.368 9.17241C56.1703 8.88919 55.8583 8.66891 55.411 8.66891C55.1197 8.66891 54.8492 8.80528 54.8492 9.00458C54.8492 9.14094 54.9325 9.24584 55.1509 9.31926L56.3784 9.66542C57.221 9.90668 57.9595 10.2214 57.9595 11.2493C57.9595 12.2773 56.9921 13.0325 55.5982 13.0325ZM59.7217 6.91716C59.1911 6.91716 58.7646 6.49758 58.7646 5.96262C58.7646 5.44863 59.1911 5.02905 59.7217 5.02905C60.2522 5.02905 60.6787 5.44863 60.6787 5.96262C60.6787 6.49758 60.2522 6.91716 59.7217 6.91716ZM58.8687 12.8857V7.53605H60.533V12.8857H58.8687ZM65.0301 7.38919C66.4448 7.38919 67.1002 8.35423 67.1002 9.77031V12.8857H65.4358V10.106C65.4358 9.40318 65.1445 8.94164 64.4892 8.94164C63.8443 8.94164 63.4594 9.45563 63.4594 10.2738V12.8857H61.795V7.53605H63.4594V8.09199C63.8131 7.6829 64.3436 7.38919 65.0301 7.38919ZM70.897 13.0325C69.1702 13.0325 67.9843 11.8892 67.9843 10.2214C67.9843 8.61647 69.0974 7.38919 70.7929 7.38919C72.5509 7.38919 73.5703 8.61647 73.5703 10.1584C73.5703 10.3472 73.5599 10.536 73.5287 10.7144H69.6071C69.7111 11.2179 70.0752 11.6374 70.9282 11.6374C71.4899 11.6374 71.8124 11.4172 71.9892 11.092L73.4871 11.5325C73.2063 12.1934 72.3117 13.0325 70.897 13.0325ZM69.6071 9.70737H71.9476C71.8956 9.22486 71.4691 8.79479 70.7825 8.79479C70.096 8.79479 69.6799 9.25633 69.6071 9.70737ZM76.6565 13.0325C75.2938 13.0325 74.264 12.2353 74.0039 11.3752L75.4914 10.9346C75.6683 11.3752 76.0947 11.7109 76.7189 11.7109C77.135 11.7109 77.3846 11.5221 77.3846 11.3228C77.3846 11.1339 77.2078 11.0081 76.8853 10.9137L75.6162 10.536C74.8153 10.2948 74.2744 9.81227 74.2744 9.04654C74.2744 8.10248 75.2938 7.38919 76.4796 7.38919C77.6239 7.38919 78.5393 7.91367 78.8825 8.75283L77.4262 9.17241C77.2286 8.88919 76.9165 8.66891 76.4692 8.66891C76.178 8.66891 75.9075 8.80528 75.9075 9.00458C75.9075 9.14094 75.9907 9.24584 76.2092 9.31926L77.4366 9.66542C78.2792 9.90668 79.0178 10.2214 79.0178 11.2493C79.0178 12.2773 78.0504 13.0325 76.6565 13.0325ZM82.0101 13.0325C80.6474 13.0325 79.6176 12.2353 79.3575 11.3752L80.845 10.9346C81.0219 11.3752 81.4483 11.7109 82.0725 11.7109C82.4886 11.7109 82.7382 11.5221 82.7382 11.3228C82.7382 11.1339 82.5614 11.0081 82.2389 10.9137L80.9698 10.536C80.1689 10.2948 79.628 9.81227 79.628 9.04654C79.628 8.10248 80.6474 7.38919 81.8332 7.38919C82.9775 7.38919 83.8929 7.91367 84.2361 8.75283L82.7798 9.17241C82.5822 8.88919 82.2701 8.66891 81.8228 8.66891C81.5316 8.66891 81.2611 8.80528 81.2611 9.00458C81.2611 9.14094 81.3443 9.24584 81.5628 9.31926L82.7902 9.66542C83.6328 9.90668 84.3714 10.2214 84.3714 11.2493C84.3714 12.2773 83.404 13.0325 82.0101 13.0325ZM87.8108 12.8857V5.54304H89.5583V12.8857H87.8108ZM94.0425 7.38919C95.4572 7.38919 96.1126 8.35423 96.1126 9.77031V12.8857H94.4482V10.106C94.4482 9.40318 94.1569 8.94164 93.5016 8.94164C92.8567 8.94164 92.4718 9.45563 92.4718 10.2738V12.8857H90.8074V7.53605H92.4718V8.09199C92.8255 7.6829 93.356 7.38919 94.0425 7.38919ZM100.388 11.3752L100.783 12.7074C100.336 12.8857 99.951 12.9696 99.4829 12.9696C98.193 12.9696 97.6105 12.1724 97.6105 10.9556V9.00458H96.7887V7.53605H97.6105V5.85772H99.2748V7.53605H100.7V9.00458H99.2748V10.9556C99.2748 11.3123 99.4517 11.5116 99.8262 11.5116C100.045 11.5116 100.211 11.4696 100.388 11.3752ZM104.013 13.0325C102.287 13.0325 101.101 11.8892 101.101 10.2214C101.101 8.61647 102.214 7.38919 103.909 7.38919C105.667 7.38919 106.687 8.61647 106.687 10.1584C106.687 10.3472 106.676 10.536 106.645 10.7144H102.724C102.828 11.2179 103.192 11.6374 104.045 11.6374C104.606 11.6374 104.929 11.4172 105.106 11.092L106.604 11.5325C106.323 12.1934 105.428 13.0325 104.013 13.0325ZM102.724 9.70737H105.064C105.012 9.22486 104.586 8.79479 103.899 8.79479C103.212 8.79479 102.796 9.25633 102.724 9.70737ZM107.62 12.8857V5.22835H109.284V12.8857H107.62ZM110.535 12.8857V5.22835H112.2V12.8857H110.535ZM114.272 6.91716C113.742 6.91716 113.315 6.49758 113.315 5.96262C113.315 5.44863 113.742 5.02905 114.272 5.02905C114.803 5.02905 115.229 5.44863 115.229 5.96262C115.229 6.49758 114.803 6.91716 114.272 6.91716ZM113.419 12.8857V7.53605H115.084V12.8857H113.419ZM120.091 7.53605H121.755V12.6864C121.755 14.1864 120.673 15.2353 118.967 15.2353C117.646 15.2353 116.835 14.6374 116.398 13.8402L117.833 13.3158C118.062 13.6724 118.437 13.8717 119.009 13.8717C119.747 13.8717 120.091 13.3682 120.091 12.6969V12.1829C119.706 12.6025 119.206 12.8228 118.624 12.8228C117.115 12.8228 116.034 11.627 116.034 10.106C116.034 8.4801 117.115 7.38919 118.624 7.38919C119.206 7.38919 119.706 7.60947 120.091 8.02905V7.53605ZM118.915 11.3228C119.643 11.3228 120.132 10.8402 120.132 10.106C120.132 9.37171 119.643 8.88919 118.915 8.88919C118.176 8.88919 117.677 9.37171 117.677 10.106C117.677 10.8402 118.176 11.3228 118.915 11.3228ZM125.6 13.0325C123.873 13.0325 122.688 11.8892 122.688 10.2214C122.688 8.61647 123.801 7.38919 125.496 7.38919C127.254 7.38919 128.274 8.61647 128.274 10.1584C128.274 10.3472 128.263 10.536 128.232 10.7144H124.31C124.414 11.2179 124.778 11.6374 125.631 11.6374C126.193 11.6374 126.516 11.4172 126.692 11.092L128.19 11.5325C127.909 12.1934 127.015 13.0325 125.6 13.0325ZM124.31 9.70737H126.651C126.599 9.22486 126.172 8.79479 125.486 8.79479C124.799 8.79479 124.383 9.25633 124.31 9.70737ZM132.441 7.38919C133.856 7.38919 134.512 8.35423 134.512 9.77031V12.8857H132.847V10.106C132.847 9.40318 132.556 8.94164 131.901 8.94164C131.256 8.94164 130.871 9.45563 130.871 10.2738V12.8857H129.206V7.53605H130.871V8.09199C131.224 7.6829 131.755 7.38919 132.441 7.38919ZM138.236 13.0325C136.592 13.0325 135.396 11.8158 135.396 10.2109C135.396 8.60598 136.592 7.38919 138.215 7.38919C139.733 7.38919 140.67 8.36472 140.867 9.20388L139.328 9.64444C139.234 9.25633 138.818 8.86821 138.225 8.86821C137.487 8.86821 137.018 9.47661 137.018 10.2004C137.018 10.9137 137.487 11.5535 138.225 11.5535C138.818 11.5535 139.234 11.1864 139.328 10.7983L140.867 11.2388C140.67 12.078 139.733 13.0325 138.236 13.0325ZM144.353 13.0325C142.626 13.0325 141.44 11.8892 141.44 10.2214C141.44 8.61647 142.553 7.38919 144.249 7.38919C146.007 7.38919 147.026 8.61647 147.026 10.1584C147.026 10.3472 147.016 10.536 146.984 10.7144H143.063C143.167 11.2179 143.531 11.6374 144.384 11.6374C144.946 11.6374 145.268 11.4172 145.445 11.092L146.943 11.5325C146.662 12.1934 145.767 13.0325 144.353 13.0325ZM143.063 9.70737H145.403C145.351 9.22486 144.925 8.79479 144.238 8.79479C143.552 8.79479 143.136 9.25633 143.063 9.70737ZM43.0706 18.1305C45.1198 18.1305 46.5137 19.62 46.5137 21.8017C46.5137 23.9311 45.1511 25.473 43.0706 25.473H39.7107V18.1305H43.0706ZM43.029 23.9101C44.0068 23.9101 44.7662 23.0605 44.7662 21.7702C44.7662 20.4801 44.0068 19.6934 43.029 19.6934H41.4167V23.9101H43.029ZM49.7497 25.6199C48.3142 25.6199 47.1699 24.4241 47.1699 22.7982C47.1699 21.1723 48.3142 19.9766 49.7497 19.9766C50.405 19.9766 50.9147 20.2179 51.2788 20.6165V20.1235H52.9431V25.473H51.2788V24.98C50.9147 25.3682 50.405 25.6199 49.7497 25.6199ZM50.0513 24.1304C50.7691 24.1304 51.3204 23.5954 51.3204 22.7877C51.3204 21.9905 50.7691 21.4661 50.0513 21.4661C49.3336 21.4661 48.8135 21.9905 48.8135 22.7877C48.8135 23.5954 49.3336 24.1304 50.0513 24.1304ZM56.3397 25.6199C54.977 25.6199 53.9472 24.8227 53.6871 23.9626L55.1746 23.522C55.3515 23.9626 55.778 24.2982 56.4021 24.2982C56.8182 24.2982 57.0678 24.1094 57.0678 23.9101C57.0678 23.7213 56.891 23.5954 56.5685 23.501L55.2995 23.1234C54.4985 22.8821 53.9576 22.3996 53.9576 21.6339C53.9576 20.6899 54.977 19.9766 56.1628 19.9766C57.3071 19.9766 58.2225 20.5011 58.5658 21.3402L57.1094 21.7598C56.9118 21.4765 56.5997 21.2563 56.1524 21.2563C55.8612 21.2563 55.5907 21.3926 55.5907 21.5919C55.5907 21.7283 55.6739 21.8332 55.8924 21.9066L57.1198 22.2528C57.9624 22.494 58.701 22.8087 58.701 23.8367C58.701 24.8647 57.7336 25.6199 56.3397 25.6199ZM62.8766 19.9766C64.2913 19.9766 64.9467 20.9416 64.9467 22.3577V25.473H63.2823V22.6933C63.2823 21.9905 62.9911 21.529 62.3357 21.529C61.6908 21.529 61.3059 22.043 61.3059 22.8612V25.473H59.6416V17.8158H61.3059V20.6794C61.6596 20.2703 62.1901 19.9766 62.8766 19.9766ZM69.3364 19.9766C70.7719 19.9766 71.9162 21.1723 71.9162 22.7982C71.9162 24.4241 70.7719 25.6199 69.3364 25.6199C68.6811 25.6199 68.1714 25.3682 67.8073 24.98V25.473H66.1429V17.8158H67.8073V20.6165C68.1714 20.2179 68.6811 19.9766 69.3364 19.9766ZM69.0348 24.1304C69.7525 24.1304 70.2726 23.5954 70.2726 22.7877C70.2726 21.9905 69.7525 21.4661 69.0348 21.4661C68.317 21.4661 67.7657 21.9905 67.7657 22.7877C67.7657 23.5954 68.317 24.1304 69.0348 24.1304ZM75.3855 25.6199C73.7316 25.6199 72.5353 24.4031 72.5353 22.7982C72.5353 21.1933 73.7316 19.9766 75.3855 19.9766C77.0395 19.9766 78.2357 21.1933 78.2357 22.7982C78.2357 24.4031 77.0395 25.6199 75.3855 25.6199ZM75.3855 24.1094C76.1449 24.1094 76.6234 23.5535 76.6234 22.7982C76.6234 22.043 76.1449 21.487 75.3855 21.487C74.6262 21.487 74.1477 22.043 74.1477 22.7982C74.1477 23.5535 74.6262 24.1094 75.3855 24.1094ZM81.4438 25.6199C80.0083 25.6199 78.864 24.4241 78.864 22.7982C78.864 21.1723 80.0083 19.9766 81.4438 19.9766C82.0991 19.9766 82.6088 20.2179 82.9729 20.6165V20.1235H84.6373V25.473H82.9729V24.98C82.6088 25.3682 82.0991 25.6199 81.4438 25.6199ZM81.7454 24.1304C82.4632 24.1304 83.0145 23.5954 83.0145 22.7877C83.0145 21.9905 82.4632 21.4661 81.7454 21.4661C81.0277 21.4661 80.5076 21.9905 80.5076 22.7877C80.5076 23.5954 81.0277 24.1304 81.7454 24.1304ZM87.5451 20.8472C87.8572 20.2703 88.4293 19.9451 89.2094 20.05V21.6234C88.086 21.4346 87.5451 21.9171 87.5451 23.2388V25.473H85.8807V20.1235H87.5451V20.8472ZM93.5784 17.8158H95.2427V25.473H93.5784V24.98C93.2143 25.3682 92.7046 25.6199 92.0493 25.6199C90.6137 25.6199 89.4695 24.4241 89.4695 22.7982C89.4695 21.1723 90.6137 19.9766 92.0493 19.9766C92.7046 19.9766 93.2143 20.2179 93.5784 20.6165V17.8158ZM92.3509 24.1304C93.0687 24.1304 93.62 23.5954 93.62 22.7877C93.62 21.9905 93.0687 21.4661 92.3509 21.4661C91.6332 21.4661 91.1131 21.9905 91.1131 22.7877C91.1131 23.5954 91.6332 24.1304 92.3509 24.1304Z" fill="white"/>
</svg>
