<svg width="233" height="235" viewBox="0 0 233 235" fill="none" xmlns="http://www.w3.org/2000/svg">
<mask id="mask0_3029_31490" style="mask-type:alpha" maskUnits="userSpaceOnUse" x="0" y="16" width="203" height="179">
<rect y="16" width="203" height="179" rx="8" fill="#111111"/>
</mask>
<g mask="url(#mask0_3029_31490)">
<path d="M60.0931 144.6C59.5931 145.4 59.0931 146.2 58.6931 146.8C53.5931 153.9 47.6931 160.3 40.8931 167.2C39.9931 168.1 39.0931 169.1 38.0931 170C32.4931 175.6 26.7931 181.4 23.2931 188.3C21.9931 191 21.5931 193 22.0931 194.3C22.3931 194.9 22.7931 195.3 23.3931 195.4C23.6931 195.5 23.8931 195.5 24.1931 195.5C25.3931 195.5 27.0931 194.9 28.8931 193.8C32.5931 191.6 36.0931 188.8 39.4931 186.1C42.2931 183.9 45.1931 181.6 48.0931 179.7C60.0931 171.8 67.9931 166.5 71.6931 151.7C72.4931 148.6 72.8931 141.6 70.4931 138.6C69.6931 137.6 68.5931 137.1 67.2931 137.1C64.4931 137.4 61.8931 141.6 60.0931 144.6ZM67.7931 137.5C68.8931 137.5 69.7931 138 70.4931 138.9C72.7931 141.9 72.3931 148.7 71.5931 151.7C67.8931 166.4 60.0931 171.6 48.0931 179.5C45.0931 181.5 42.1931 183.7 39.4931 185.9C36.0931 188.6 32.5931 191.3 28.8931 193.6C26.6931 195 24.6931 195.5 23.5931 195.2C23.0931 195 22.6931 194.7 22.4931 194.2C21.9931 193 22.3931 191 23.6931 188.4C27.0931 181.6 32.8931 175.8 38.3931 170.2C39.2931 169.2 40.2931 168.3 41.1931 167.4C47.8931 160.5 53.8931 154.1 58.9931 147C59.3931 146.4 59.8931 145.6 60.3931 144.8C62.1931 141.8 64.6931 137.7 67.5931 137.6C67.5931 137.5 67.6931 137.5 67.7931 137.5Z" fill="#5D5D5D" fill-opacity="0.6"/>
<path d="M66.0926 128C61.6926 129.1 57.8926 135.2 54.7926 140C53.6926 141.7 52.6926 143.3 51.7926 144.5C46.7926 150.9 41.1926 156.7 35.7926 162.3C34.3926 163.8 32.5926 165.4 30.6926 167.1C25.0926 172.3 18.1926 178.7 16.0926 184.6C14.2926 189.6 15.3926 194.3 16.3926 198.8C17.1926 202.5 18.0926 206.4 17.3926 210.5C16.9926 213 15.4926 215.5 13.8926 218.1C11.9926 221.2 9.99258 224.4 9.89258 227.9C9.89258 229.1 9.99258 230.2 10.3926 231.4C11.6926 235.1 13.0926 236.8 14.6926 236.8C16.2926 236.8 18.0926 235.1 20.6926 231C23.1926 227.1 24.1926 222.5 25.0926 218.1C26.0926 213.7 26.9926 209.1 29.5926 205.1C34.3926 197.5 42.8926 192 50.2926 187C50.8926 186.6 51.5926 186.2 52.1926 185.8C64.5926 177.6 74.3926 171.1 78.6926 153.6C79.8926 149 79.5926 137.2 74.7926 131.2C72.6926 128.2 69.6926 127.1 66.0926 128ZM74.5926 131.4C78.7926 136.8 79.6926 148.2 78.3926 153.4C74.0926 170.7 64.3926 177.1 52.0926 185.3C51.4926 185.7 50.8926 186.1 50.1926 186.5C42.6926 191.4 34.1926 197 29.2926 204.7C26.6926 208.7 25.6926 213.4 24.7926 217.9C23.8926 222.3 22.8926 226.8 20.3926 230.7C18.6926 233.5 16.5926 236.3 14.7926 236.3C13.3926 236.3 12.1926 234.6 10.8926 231.2C10.4926 230.1 10.2926 229.1 10.3926 227.9C10.4926 224.6 12.4926 221.4 14.2926 218.3C15.8926 215.7 17.4926 213.2 17.8926 210.6C18.5926 206.5 17.6926 202.6 16.8926 198.8C15.8926 194.1 14.8926 189.7 16.5926 184.8C18.6926 179 25.5926 172.6 31.0926 167.5C32.9926 165.8 34.7926 164.1 36.1926 162.6C41.5926 157 47.1926 151.2 52.1926 144.8C53.0926 143.6 54.0926 142 55.1926 140.3C58.1926 135.5 61.9926 129.5 66.1926 128.5C66.9926 128.3 67.6926 128.2 68.3926 128.2C70.7926 128.2 72.8926 129.3 74.5926 131.4Z" fill="#5D5D5D" fill-opacity="0.6"/>
<path d="M70.6928 106.3C68.2928 102.9 66.1928 102.4 64.0928 102C62.5928 101.7 60.9928 101.3 59.1928 100L59.0928 99.8C53.9928 94.1 36.8928 75.5 31.0928 75.5C30.3928 75.5 29.8928 75.7 29.4928 76.2C28.6928 77.2 28.7928 79.2 29.5928 82.4C30.0928 84.3 34.9928 86.9 40.0928 89.6C44.3928 91.9 48.7928 94.3 50.2928 96C51.5928 97.6 53.3928 99.8 53.2928 100.6C53.2928 100.8 52.9928 100.9 52.5928 101.1C51.6928 101.5 50.3928 102.2 51.0928 105.4C51.5928 107.6 52.8928 109.7 54.2928 111.8C55.4928 113.8 56.6928 115.6 57.0928 117.4C58.3928 122.3 50.2928 131.3 44.9928 137.3C43.1928 139.3 41.6928 141 40.7928 142.3C36.8928 147.5 32.0928 152.2 27.3928 156.8C18.2928 165.8 8.89281 175.1 5.59281 187.9C0.692811 207 -0.307189 224 2.69281 238.2C4.29281 245.8 9.79281 256.3 15.1928 256.3C18.4928 256.3 20.9928 252.3 22.3928 244.4C27.7928 214 43.0928 203.9 57.7928 194.1C70.8928 185.4 83.2928 177.2 88.5928 156C90.5928 148 87.4928 135.6 83.4928 128.8C81.6928 125.8 79.4928 124 77.2928 122.4C75.3928 120.9 73.5928 119.6 72.1928 117.4C71.1928 115.8 71.3928 114 71.5928 112.1C71.6928 110.1 71.8928 108 70.6928 106.3ZM71.5928 117.7C73.0928 120 74.8928 121.4 76.8928 122.9C78.9928 124.5 81.1928 126.2 82.8928 129.1C86.7928 135.8 89.8928 147.9 87.8928 155.8C82.5928 176.8 70.3928 184.9 57.3928 193.5C42.4928 203.4 27.0928 213.6 21.4928 244.3C20.0928 251.7 17.8928 255.6 14.9928 255.6C10.4928 255.6 4.89281 246.1 3.19281 238C0.192811 223.9 1.19281 207.1 6.09281 188.1C9.39281 175.5 18.6928 166.3 27.6928 157.3C32.3928 152.7 37.2928 147.9 41.1928 142.7C42.0928 141.4 43.6928 139.7 45.3928 137.8C51.1928 131.3 58.9928 122.5 57.6928 117.2C57.1928 115.3 55.9928 113.4 54.7928 111.4C53.4928 109.4 52.1928 107.2 51.6928 105.2C51.0928 102.6 51.9928 102.1 52.8928 101.7C53.3928 101.5 53.7928 101.2 53.8928 100.7C54.0928 100 53.5928 98.8 50.7928 95.5C49.1928 93.6 44.6928 91.2 40.3928 88.9C35.8928 86.5 30.6928 83.7 30.2928 82.1C29.2928 78.5 29.5928 77.1 30.0928 76.5C30.2928 76.2 30.6928 76.1 31.0928 76.1C35.4928 76.1 48.1928 88.5 58.5928 100.2C58.6928 100.3 58.7928 100.4 58.7928 100.4C60.7928 101.9 62.4928 102.2 63.9928 102.6C66.0928 103.1 67.9928 103.5 70.1928 106.7C71.2928 108.2 71.0928 110.1 70.8928 112C70.6928 113.9 70.4928 115.9 71.5928 117.7Z" fill="#5D5D5D" fill-opacity="0.6"/>
<path d="M62.4924 154C60.9924 154 59.5924 155.8 58.4924 157.1C58.2924 157.4 58.0924 157.6 57.8924 157.8C56.8924 158.9 55.9924 160.1 54.9924 161.3C54.3924 162 53.7924 162.8 53.1924 163.5L53.0924 163.6C51.0924 166 50.2924 167.5 50.5924 168.3C50.6924 168.5 50.8924 168.8 51.3924 168.9C51.4924 168.9 51.5924 168.9 51.5924 168.9C55.5924 168.8 58.7924 165.2 60.3924 163C61.8924 160.9 62.9924 158.7 63.2924 156.9C63.3924 156.5 63.5924 155 63.0924 154.3C63.1924 154.2 62.8924 154 62.4924 154ZM63.0924 156.9C62.6924 158.6 61.6924 160.8 60.1924 162.8C58.6924 164.9 55.5924 168.4 51.7924 168.5V168.8V168.6C51.6924 168.6 51.6924 168.6 51.5924 168.6C51.1924 168.6 51.1924 168.4 51.1924 168.4C51.0924 168.1 51.0924 167.2 53.5924 164.2L53.6924 164.1C54.2924 163.4 54.8924 162.6 55.4924 161.9C56.3924 160.8 57.3924 159.6 58.3924 158.4C58.5924 158.2 58.7924 157.9 58.9924 157.6C59.8924 156.4 61.2924 154.7 62.5924 154.7C62.7924 154.7 62.9924 154.8 63.0924 154.9C63.2924 155.2 63.2924 156.2 63.0924 156.9Z" fill="#5D5D5D" fill-opacity="0.6"/>
<path d="M167.992 255.3C181.292 253.8 195.492 238.4 195.692 225.4C195.992 205.4 184.492 189.5 173.392 174.1C171.492 171.5 169.592 168.8 167.692 166.1L166.592 164.5C161.392 157 155.492 148.4 153.492 139.2C151.892 131.4 149.392 113.2 152.092 106.9C154.092 102.3 159.692 99.7001 165.192 97.1001C168.992 95.3001 172.592 93.7001 175.092 91.4001L175.192 91.3001C183.792 83.5001 183.792 83.5001 189.592 83.3001C191.392 83.2001 193.592 83.2001 196.692 82.9001C200.892 82.5001 203.292 81.9001 205.092 81.5001C206.192 81.2001 207.092 81.0001 207.792 81.0001C209.592 81.0001 211.092 82.3001 216.092 86.5001C230.892 99.0001 230.592 120.7 230.292 141.7C229.992 168.1 229.592 195.5 259.492 204.1C263.792 205.3 267.992 206 271.992 206C283.192 206 292.792 201 299.692 191.5C309.792 177.6 312.492 155.8 306.392 137.3C292.292 94.7001 258.692 70.4001 222.492 47.2001C189.592 26.1001 158.292 20.3001 131.592 16.5001C129.692 16.2001 127.792 16.1001 126.092 16.1001C115.192 16.1001 110.092 21.6001 103.592 28.6001C101.092 31.3001 98.4922 34.0001 95.2922 36.9001C91.5922 40.1001 86.8922 42.3001 82.3922 44.5001C74.9922 48.0001 68.0922 51.3001 65.1922 58.6001C59.0922 74.2001 74.0922 86.3001 87.3922 97.0001C93.4922 101.9 99.2922 106.6 102.692 111.3C116.192 129.8 112.092 161.1 99.8922 178.6C96.0922 184.1 88.7922 190.9 81.0922 198C68.2922 209.9 53.7922 223.3 51.1922 234.7C49.9922 240 50.2922 243.7 52.1922 246.1C53.6922 248 56.3922 249 60.1922 249C66.4922 249 75.4922 246.4 84.9922 243.7C96.6922 240.3 109.892 236.5 121.092 236.5C126.492 236.5 130.892 237.3 134.692 239.1C138.992 241.1 142.692 243.9 146.292 246.7C152.192 251.3 157.692 255.6 165.492 255.6C166.292 255.5 167.192 255.4 167.992 255.3ZM134.892 238.5C131.092 236.8 126.492 235.9 121.092 235.9C109.792 235.9 96.4922 239.7 84.7922 243.1C75.2922 245.8 66.2922 248.4 60.0922 248.4C56.3922 248.4 53.9922 247.5 52.4922 245.7C50.6922 243.5 50.4922 239.9 51.5922 234.8C54.0922 223.6 68.5922 210.2 81.2922 198.4C88.9922 191.2 96.3922 184.4 100.192 178.9C112.492 161.2 116.492 129.7 102.992 111C99.5922 106.3 93.7922 101.6 87.5922 96.6001C74.4922 86.0001 59.5922 74.0001 65.5922 58.8001C68.3922 51.7001 75.2922 48.4001 82.5922 45.0001C87.1922 42.8001 91.8922 40.6001 95.5922 37.3001C98.7922 34.5001 101.392 31.7001 103.892 29.0001C110.292 22.1001 115.392 16.7001 126.092 16.7001C127.792 16.7001 129.592 16.8001 131.492 17.1001C158.192 20.9001 189.492 26.7001 222.192 47.7001C258.292 70.8001 291.792 95.1001 305.792 137.6C311.792 155.9 309.192 177.5 299.192 191.3C292.392 200.7 282.992 205.6 271.892 205.6C267.992 205.6 263.792 205 259.592 203.7C246.292 199.9 237.992 192 233.992 179.6C230.392 168.5 230.592 154.9 230.792 141.7C231.092 120.6 231.292 98.7001 216.392 86.1001C209.292 80.1001 209.092 80.0001 204.992 81.0001C203.192 81.4001 200.792 82.0001 196.592 82.4001C193.492 82.7001 191.292 82.8001 189.592 82.8001C183.592 83.0001 183.592 83.0001 174.792 90.9001L174.692 91.0001C172.192 93.2001 168.692 94.9001 164.992 96.6001C159.392 99.2001 153.692 101.9 151.592 106.6C148.792 113 151.292 131.3 152.992 139.2C154.892 148.5 160.892 157.1 166.092 164.6L167.192 166.2C168.992 168.9 170.992 171.6 172.892 174.2C183.992 189.6 195.392 205.4 195.092 225.2C194.892 238 180.892 253.1 167.892 254.6C167.092 254.7 166.192 254.7 165.392 254.7C157.692 254.7 152.292 250.4 146.492 245.9C142.992 243.4 139.292 240.5 134.892 238.5Z" fill="#5D5D5D" fill-opacity="0.6"/>
<path d="M160.193 310.2C157.693 314 154.493 318.8 155.593 322C155.993 323.3 157.193 324.3 158.893 325C159.193 325.1 159.593 325.2 159.993 325.2C163.893 325.2 169.993 319.2 175.393 314C178.793 310.7 182.093 307.5 183.993 306.6C193.293 302.4 206.193 300.4 217.493 298.6C221.993 297.9 226.193 297.2 230.093 296.5C238.993 294.8 247.593 293.9 255.593 293.9C281.893 293.9 304.093 303.4 321.293 322.1C323.193 324.2 326.093 325.3 329.693 325.3C340.993 325.3 360.293 314.3 373.993 294C382.193 281.8 393.993 256.9 381.693 227C376.793 215 369.393 209.4 358.593 209.4C350.393 209.4 340.993 212.4 330.093 215.9C316.693 220.2 301.593 225.1 285.293 225.1C272.593 225.1 260.993 222.2 249.693 216.2C214.893 197.6 213.893 163.8 216.893 136.4C218.093 125.7 216.193 117.3 211.393 112C207.993 108.3 203.493 106.3 198.193 106.3C188.193 106.3 175.593 114.1 171.093 129C166.793 143 176.893 155.8 188.593 170.5C201.793 187 216.793 205.8 213.893 231C212.493 243.5 207.893 255.5 201.693 263C196.993 268.7 192.793 269.3 188.493 269.8C185.093 270.2 181.693 270.6 177.593 273.2C174.493 275.2 173.493 278.5 172.493 282.1C171.793 284.5 171.093 287.1 169.593 289.2C168.793 290.3 167.393 290.6 165.793 290.8C163.793 291.1 161.593 291.5 160.393 294.1C159.593 295.9 160.693 298 161.693 300C162.593 301.7 163.493 303.5 163.193 304.9C162.893 306.2 161.693 308 160.193 310.2ZM162.093 299.8C161.093 297.8 160.093 295.9 160.793 294.4C161.893 292.1 163.893 291.8 165.793 291.4C167.393 291.1 168.993 290.9 169.893 289.5C171.493 287.3 172.193 284.8 172.893 282.3C173.893 278.9 174.793 275.6 177.793 273.7C181.793 271.2 185.193 270.8 188.493 270.4C192.993 269.8 197.293 269.3 202.093 263.4C208.393 255.7 212.993 243.7 214.393 231.1C217.293 205.7 202.293 186.7 189.093 170C177.493 155.4 167.493 142.7 171.693 129C176.093 114.4 188.393 106.7 198.193 106.7C203.293 106.7 207.793 108.6 210.993 112.2C215.593 117.4 217.493 125.7 216.293 136.2C213.293 163.8 214.293 197.9 249.393 216.6C260.793 222.7 272.493 225.6 285.293 225.6C301.693 225.6 316.893 220.7 330.293 216.4C341.093 212.9 350.493 209.9 358.593 209.9C369.293 209.9 376.193 215.2 381.093 227.1C393.293 256.7 381.593 281.4 373.493 293.5C360.493 313 340.993 324.6 329.693 324.6C326.193 324.6 323.593 323.6 321.693 321.6C304.293 302.8 282.093 293.2 255.493 293.2C247.393 293.2 238.793 294.1 229.793 295.8C225.893 296.6 221.693 297.2 217.193 297.9C205.793 299.7 192.893 301.7 183.493 306C181.493 306.9 178.293 310 174.693 313.5C169.393 318.7 163.393 324.6 159.693 324.6C159.393 324.6 159.093 324.6 158.793 324.5C157.193 323.9 156.193 323.1 155.793 321.9C154.793 318.9 157.893 314.3 160.293 310.6C161.793 308.4 162.993 306.5 163.293 305.2C163.993 303.4 162.993 301.6 162.093 299.8Z" fill="#5D5D5D" fill-opacity="0.6"/>
<path d="M174.393 299.7C174.993 299.9 176.193 300 177.593 300C180.593 300 191.893 299.5 209.493 293.7C224.193 288.8 241.393 286.2 257.993 286.2C285.193 286.2 303.293 290.3 326.593 312.6C328.293 314.2 330.493 315 333.193 315C343.293 315 358.593 304 368.093 289.9C375.493 278.9 386.193 256.5 375.093 229.6C370.293 218.1 364.393 216.5 358.593 216.5C351.493 216.5 342.593 219.4 332.293 222.7C318.393 227.2 302.693 232.2 285.293 232.2C271.393 232.2 258.693 229 246.293 222.4C207.293 201.6 206.793 162.8 209.793 135.5C210.693 127 209.393 120.3 206.093 116.6C204.093 114.4 201.393 113.2 198.193 113.2C190.793 113.2 181.493 119.3 177.893 130.8C174.693 141.3 183.693 152.6 194.193 165.8C207.493 182.6 224.093 203.6 220.893 231.7C219.993 239.7 217.793 247.4 214.493 254.4C209.193 265.6 202.293 275.1 193.793 282.7C188.193 287.7 182.593 291.2 178.493 293.7C174.793 296 172.493 297.4 172.693 298.5C172.793 299.1 173.393 299.4 174.393 299.7ZM178.693 294.1C182.793 291.6 188.393 288.1 193.993 283.1C202.493 275.5 209.493 266 214.793 254.7C218.093 247.6 220.293 239.9 221.193 231.9C224.393 203.7 207.793 182.7 194.393 165.8C183.993 152.7 175.093 141.4 178.193 131.1C181.693 119.7 190.893 113.7 198.193 113.7C201.393 113.7 203.993 114.8 205.893 117C209.193 120.6 210.393 127.2 209.493 135.6C206.493 163 206.993 201.9 246.193 222.8C258.593 229.4 271.393 232.6 285.293 232.6C302.793 232.6 318.493 227.5 332.393 223C342.693 219.7 351.493 216.8 358.593 216.8C364.193 216.8 370.093 218.4 374.793 229.8C385.793 256.5 375.093 278.8 367.793 289.8C358.593 303.6 343.093 314.8 333.193 314.8C330.593 314.8 328.393 314 326.793 312.5C315.493 301.7 304.993 294.8 293.693 290.9C283.993 287.5 273.293 286.1 257.993 286.1C241.393 286.1 224.193 288.8 209.393 293.7C191.793 299.5 180.593 300 177.593 300C176.193 300 174.993 299.9 174.393 299.8C173.493 299.6 172.993 299.3 172.893 298.9C172.893 297.7 175.393 296.2 178.693 294.1Z" fill="#5D5D5D" fill-opacity="0.6"/>
<path d="M198.293 120.1C192.893 120.1 186.993 125.5 185.093 130.4C183.793 133.6 184.793 139.1 187.693 145.2C190.393 150.9 194.093 155.2 196.793 156C197.193 156.1 197.593 156.2 197.993 156.2C198.493 156.2 198.893 156.1 199.293 156C202.793 154.8 202.693 152.7 202.493 148C202.393 145.1 202.193 141.2 202.793 135.8C203.593 128.5 202.493 123 200.893 121.3C200.493 120.6 199.893 120.1 198.293 120.1ZM202.393 135.7C201.793 141.2 201.893 145.1 202.093 148C202.293 152.7 202.293 154.4 199.193 155.5C198.493 155.8 197.693 155.8 196.893 155.5C194.293 154.7 190.793 150.5 188.093 144.9C185.193 139 184.293 133.6 185.493 130.5C187.393 125.8 193.093 120.5 198.193 120.5C199.593 120.5 200.193 120.9 200.593 121.4C202.093 123.2 203.193 128.5 202.393 135.7Z" fill="#5D5D5D" fill-opacity="0.6"/>
<path d="M142.392 184.6C141.692 184 141.092 183.7 140.592 183.7C139.192 183.7 138.192 185.5 136.692 188.2C135.192 191 133.093 194.8 129.393 198.7L128.292 199.8C124.092 204.2 122.192 206.2 122.692 207.3C122.892 207.8 123.592 208 124.792 208C125.792 208 127.392 207.8 129.992 207.5C131.092 207.4 132.092 207.3 133.192 207.3C141.892 207.3 149.092 212.2 154.392 215.7C157.493 217.8 159.892 219.4 161.692 219.4C162.392 219.4 162.992 219.1 163.492 218.5C168.992 211.4 149.592 191.2 142.392 184.6ZM162.992 218.2C162.592 218.7 162.192 218.9 161.592 218.9C159.993 218.9 157.592 217.3 154.592 215.3C149.292 211.7 141.992 206.8 133.092 206.8C131.992 206.8 130.892 206.9 129.792 207C127.292 207.4 125.692 207.5 124.692 207.5C123.692 207.5 123.192 207.4 123.092 207.1C122.792 206.3 125.092 203.9 128.592 200.1L129.692 199C133.392 195.1 135.492 191.2 137.092 188.4C138.492 185.9 139.392 184.2 140.492 184.2C140.892 184.2 141.392 184.5 141.992 185C150.992 193.1 167.892 211.9 162.992 218.2Z" fill="#5D5D5D" fill-opacity="0.6"/>
<path d="M142.492 192.9C138.992 192.9 134.492 198.4 134.492 201C134.492 202.1 135.192 202.7 136.292 202.7C141.492 202.8 146.892 206.1 150.892 208.4C153.292 209.8 154.992 210.8 155.992 210.8C156.292 210.8 156.592 210.7 156.792 210.5C156.992 210.3 157.092 209.9 157.092 209.3C156.692 204.5 147.592 194.9 143.892 193C143.392 193 142.992 192.9 142.492 192.9ZM156.292 209.6C156.292 210 156.292 210.2 156.192 210.2C156.192 210.2 156.092 210.3 155.992 210.3C155.192 210.3 153.392 209.2 151.292 208C147.292 205.6 141.692 202.2 136.392 202.2C135.592 202.2 135.292 201.9 135.292 201.2C135.292 198.9 139.492 193.8 142.592 193.8C142.992 193.8 143.292 193.9 143.592 194C147.492 195.9 155.992 205.2 156.292 209.6Z" fill="#5D5D5D" fill-opacity="0.6"/>
<path d="M130.093 102.2C130.993 102.2 131.593 101 132.293 98.3001C134.793 88.1001 143.093 74.6001 155.993 67.4001C168.993 60.1001 177.693 58.2001 182.393 57.2001C184.693 56.7001 185.893 56.4001 186.193 55.8001C186.293 55.6001 186.293 55.3001 186.093 55.0001C185.193 53.4001 169.093 44.3001 145.793 42.5001L144.793 42.4001C142.693 42.2001 140.893 42.1001 139.193 42.1001C133.093 42.1001 128.293 43.8001 116.893 53.4001C115.093 54.9001 113.293 56.3001 111.493 57.7001C105.993 61.9001 101.193 65.6001 101.493 69.7001C101.693 72.9001 104.893 76.0001 111.393 79.6001C118.593 83.6001 122.993 91.5001 125.893 96.7001C127.793 100.1 128.993 102.2 130.093 102.2ZM111.493 79.4001C105.193 75.9001 101.993 72.7001 101.693 69.7001C101.393 65.7001 106.093 62.1001 111.493 57.9001C113.293 56.5001 115.093 55.1001 116.893 53.6001C128.193 44.0001 133.093 42.3001 138.993 42.3001C140.693 42.3001 142.493 42.4001 144.593 42.6001L145.593 42.7001C168.293 44.5001 184.793 53.5001 185.593 55.1001C185.793 55.4001 185.693 55.6001 185.693 55.7001C185.493 56.2001 184.193 56.4001 182.193 56.9001C177.493 57.9001 168.793 59.8001 155.693 67.1001C142.693 74.3001 134.393 87.9001 131.893 98.2001C131.293 100.7 130.693 101.9 129.993 101.9C128.993 101.9 127.693 99.5001 125.993 96.6001C123.293 91.3001 118.793 83.4001 111.493 79.4001Z" fill="#5D5D5D" fill-opacity="0.6"/>
<path d="M131.992 119.4C132.892 119.4 133.492 118.4 133.892 116.1C136.492 102.3 142.092 82.7999 160.892 72.3999C166.692 69.1999 173.292 66.5999 180.992 64.5999C182.492 64.1999 184.192 63.0999 185.792 61.9999C187.892 60.5999 189.992 59.1999 191.992 59.1999C192.192 59.1999 192.492 59.1999 192.692 59.2999C193.792 59.4999 194.592 60.0999 195.392 60.7999C196.292 61.4999 197.192 62.1999 198.292 62.1999C198.692 62.1999 199.192 62.0999 199.692 61.8999C200.492 61.5999 200.992 60.8999 201.392 60.2999C201.992 59.3999 202.592 58.5999 204.292 58.6999C205.992 58.7999 206.892 60.0999 207.892 61.4999C208.592 62.4999 209.292 63.3999 210.292 63.9999C210.992 64.3999 212.292 64.7999 213.492 64.7999C214.292 64.7999 214.892 64.5999 215.192 64.1999C215.492 63.7999 215.592 63.1999 215.392 62.4999C214.692 60.0999 209.692 57.8999 206.292 56.4999C205.292 56.0999 204.492 55.6999 203.892 55.3999C198.892 52.7999 193.992 50.4999 189.692 48.6999C171.992 40.8999 155.792 36.1999 140.292 34.1999C138.592 33.9999 136.992 33.8999 135.692 33.8999C128.092 33.8999 122.092 37.1999 110.392 48.1999C107.492 50.8999 104.492 53.1999 101.692 55.3999C95.2925 60.3999 90.1925 64.3999 90.2925 69.2999C90.3925 73.1999 93.7925 77.3999 100.992 82.4999C112.592 90.5999 120.292 103 125.392 111.2C128.392 116.1 130.492 119.4 131.992 119.4ZM100.992 82.0999C93.8925 77.0999 90.4925 72.9999 90.3925 69.1999C90.2925 64.3999 95.2925 60.4999 101.692 55.4999C104.592 53.2999 107.592 50.8999 110.492 48.2999C122.192 37.3999 128.092 34.0999 135.592 34.0999C136.992 34.0999 138.492 34.1999 140.192 34.3999C155.692 36.3999 171.792 41.0999 189.492 48.7999C193.692 50.5999 198.692 52.8999 203.592 55.4999C204.192 55.7999 204.992 56.1999 205.992 56.5999C209.292 57.9999 214.292 60.1999 214.892 62.3999C215.092 62.9999 214.992 63.4999 214.792 63.7999C214.492 64.1999 213.792 64.2999 213.392 64.2999C212.392 64.2999 211.092 63.8999 210.392 63.4999C209.492 62.9999 208.792 61.9999 208.092 61.0999C207.092 59.6999 206.092 58.2999 204.292 58.1999C202.392 57.9999 201.792 58.9999 201.192 59.8999C200.792 60.4999 200.392 61.0999 199.592 61.3999C199.092 61.5999 198.692 61.6999 198.292 61.6999C197.192 61.6999 196.392 61.0999 195.592 60.3999C194.792 59.7999 193.892 59.0999 192.692 58.8999C192.492 58.8999 192.192 58.7999 191.992 58.7999C189.892 58.7999 187.692 60.2999 185.592 61.6999C183.892 62.7999 182.392 63.8999 180.892 64.2999C173.192 66.2999 166.592 68.8999 160.792 72.0999C141.892 82.5999 136.192 102.2 133.592 116C133.192 118 132.692 119 131.992 119C130.692 119 128.492 115.6 125.492 110.8C120.392 102.7 112.692 90.2999 100.992 82.0999Z" fill="#5D5D5D" fill-opacity="0.6"/>
<path d="M168.993 244.9C175.793 244.1 182.293 239.4 185.393 232.9C188.293 227 189.793 216.9 180.893 202.7C177.093 196.6 172.893 190.4 168.893 184.4C157.393 167.3 146.493 151.2 142.093 135C136.993 116.7 141.093 101.6 154.893 87.5001C166.893 75.3001 182.693 68.3001 198.293 68.3001C209.993 68.3001 220.493 72.4001 227.793 79.9001C235.793 88.1001 239.793 100.2 239.293 114.7C239.193 118.1 238.993 121.6 238.893 125.3C238.293 138.4 237.593 153.3 239.693 165.7C242.093 179.9 247.893 188.7 257.393 192.6C262.493 194.7 267.293 195.7 271.693 195.7C279.693 195.7 286.493 192.2 291.393 185.6C299.693 174.4 301.693 155.1 296.393 137.7C284.893 100.3 257.393 78.0001 216.593 54.1001C185.593 36.0001 159.393 30.4001 135.793 27.0001C133.993 26.8001 132.393 26.6001 130.793 26.6001C120.893 26.6001 116.193 31.6001 110.293 38.0001C107.993 40.4001 105.693 43.0001 102.693 45.6001C99.2929 48.6001 96.3929 50.4001 93.7929 52.0001C89.5929 54.6001 85.9929 56.8001 82.0929 62.7001C74.1929 74.5001 84.7929 81.7001 95.8929 89.3001C101.793 93.3001 107.893 97.5001 111.093 102.4C131.593 133.4 123.293 166.5 108.793 187.2C104.593 193.1 98.5929 198.7 92.0929 204.6C84.1929 211.8 76.0929 219.3 71.3929 227.6C69.3929 231.2 68.7929 233.6 69.6929 235C70.2929 236 71.6929 236.5 73.7929 236.5C77.5929 236.5 83.6929 234.9 90.7929 233.1C100.693 230.5 112.993 227.3 123.893 227.3C129.693 227.3 134.593 228.2 138.593 230C142.593 231.8 145.893 234.4 149.193 236.9C154.493 241.1 159.593 245 166.693 245C167.393 245 168.193 245 168.993 244.9ZM138.693 229.7C134.593 227.8 129.793 226.9 123.893 226.9C112.993 226.9 100.593 230.1 90.6929 232.7C83.6929 234.5 77.5929 236.1 73.7929 236.1C71.7929 236.1 70.4929 235.6 69.8929 234.7C69.0929 233.4 69.6929 231 71.5929 227.6C76.1929 219.3 84.3929 211.9 92.1929 204.7C98.5929 198.8 104.693 193.2 108.893 187.3C117.393 175.2 122.493 161.4 123.493 147.4C124.593 131.4 120.493 116.2 111.293 102.2C107.993 97.2001 101.893 93.0001 95.9929 89.0001C84.9929 81.5001 74.5929 74.3001 82.2929 62.8001C86.1929 56.9001 89.7929 54.7001 93.8929 52.2001C96.4929 50.6001 99.4929 48.8001 102.893 45.8001C105.793 43.2001 108.193 40.7001 110.493 38.2001C116.393 31.9001 121.093 26.9001 130.793 26.9001C132.293 26.9001 133.993 27.0001 135.693 27.3001C159.293 30.6001 185.393 36.2001 216.393 54.4001C257.093 78.3001 284.593 100.5 296.093 137.8C301.393 155.1 299.393 174.3 291.193 185.5C286.393 192 279.593 195.5 271.693 195.5C267.293 195.5 262.593 194.5 257.493 192.4C248.093 188.6 242.393 179.9 239.993 165.7C237.893 153.3 238.593 138.5 239.193 125.3C239.393 121.6 239.493 118.1 239.593 114.7C239.993 100.1 235.993 87.9001 227.993 79.6001C220.693 72.0001 210.093 67.9001 198.293 67.9001C182.593 67.9001 166.693 74.9001 154.693 87.2001C147.393 94.7001 142.793 102.4 140.793 110.8C138.993 118.3 139.293 126.2 141.793 134.9C146.293 151.1 157.193 167.3 168.693 184.4C172.693 190.4 176.893 196.5 180.693 202.7C189.493 216.8 187.993 226.8 185.193 232.6C182.093 239 175.793 243.6 168.993 244.4C168.193 244.5 167.493 244.5 166.693 244.5C159.693 244.5 154.693 240.6 149.393 236.5C146.093 234.2 142.693 231.5 138.693 229.7Z" fill="#5D5D5D" fill-opacity="0.6"/>
<path d="M175.493 232.5C178.093 230.6 179.693 227.9 180.093 224.6C181.293 214.8 172.593 200.4 164.693 191.1C154.893 179.5 145.193 167.1 140.493 155.1C140.293 154.5 139.893 152.8 139.493 150.7C137.993 143.6 135.393 131.7 131.693 131.7C131.393 131.7 130.993 131.8 130.693 132C129.193 132.9 128.693 134.7 129.293 137.5C129.793 139.8 130.893 142.4 131.893 144.7C132.993 147.1 133.893 149.3 133.893 150.5C133.893 153.6 132.393 154.9 130.993 156.3C129.893 157.3 128.793 158.4 128.393 160.2C127.893 162.6 128.893 164.4 129.793 166.1C130.693 167.7 131.593 169.3 131.293 171.5C130.793 175.4 118.393 189.5 107.493 201.9C98.4929 212.2 90.6929 221.1 90.7929 222.8C90.7929 222.9 90.8929 223 90.8929 223.1C91.5929 223.7 92.9929 224 95.0929 224C98.2929 224 102.793 223.3 107.993 222.4C114.293 221.4 121.493 220.2 127.693 220.2C132.493 220.2 136.193 220.9 138.793 222.3C140.193 223.1 141.793 224 143.493 225C150.993 229.3 160.193 234.7 168.093 234.7C170.893 234.8 173.493 234 175.493 232.5ZM138.893 222.1C136.193 220.7 132.593 220 127.693 220C121.493 220 114.293 221.1 107.993 222.2C102.793 223 98.2929 223.8 95.0929 223.8C93.0929 223.8 91.7929 223.5 91.0929 222.9C91.0929 222.9 91.0929 222.9 91.0929 222.8C90.9929 221.2 99.0929 212 107.693 202.1C118.593 189.6 131.093 175.5 131.593 171.5C131.893 169.3 130.993 167.6 130.093 165.9C129.093 164.1 128.193 162.5 128.693 160.2C129.093 158.4 130.093 157.5 131.193 156.4C132.593 155 134.093 153.6 134.193 150.4C134.193 149.1 133.293 147 132.193 144.5C131.193 142.2 130.093 139.6 129.593 137.4C128.993 134.8 129.393 133.1 130.793 132.2C131.093 132 131.393 131.9 131.693 131.9C135.193 131.9 137.793 144.1 139.193 150.7C139.693 152.9 139.993 154.5 140.293 155.1C145.093 167.1 154.793 179.5 164.593 191.1C172.393 200.3 181.093 214.6 179.893 224.3C179.493 227.6 177.993 230.2 175.493 232C173.493 233.5 170.993 234.2 168.093 234.2C160.293 234.2 151.093 228.8 143.693 224.5C141.893 223.8 140.293 222.9 138.893 222.1Z" fill="#5D5D5D" fill-opacity="0.6"/>
<path d="M172.092 219.9C172.992 211.7 164.192 198.7 159.792 193.8C152.192 185.2 146.892 177.9 143.392 173.1C139.892 168.3 137.992 165.7 136.792 165.7C135.892 165.7 135.492 166.8 135.192 169.5C132.992 189.9 119.792 200.9 111.992 207.5C108.592 210.4 106.292 212.3 106.192 213.9C106.192 214.4 106.292 214.8 106.692 215.1C107.392 215.9 108.592 216.2 110.292 216.2C112.192 216.2 114.692 215.7 117.492 215.2C121.192 214.5 125.392 213.8 129.592 213.8C135.392 213.8 140.092 215.3 143.992 218.2C149.392 222.4 157.392 226.9 163.692 226.9C165.992 226.9 167.892 226.3 169.492 225.2C170.892 223.9 171.892 222.2 172.092 219.9ZM163.492 226.6C157.292 226.6 149.392 222.1 143.992 218C140.092 215 135.292 213.5 129.492 213.5C125.192 213.5 120.992 214.3 117.292 214.9C114.492 215.4 111.992 215.9 110.092 215.9C108.492 215.9 107.392 215.6 106.692 214.9C106.392 214.6 106.292 214.3 106.292 213.9C106.392 212.5 108.692 210.5 111.992 207.7C119.892 201.1 133.092 190 135.292 169.5C135.592 167.1 135.992 166 136.592 166C137.692 166 139.692 168.8 142.992 173.3C146.492 178.1 151.792 185.5 159.392 194C163.792 198.9 172.592 211.8 171.692 219.9C171.492 222.1 170.492 223.8 168.992 224.9C167.592 226 165.692 226.6 163.492 226.6Z" fill="#5D5D5D" fill-opacity="0.6"/>
<path d="M128.993 75C131.793 75 133.893 72.3 135.993 68.2C139.793 61 147.693 57.6 151.993 55.7C154.193 54.8 154.993 54.4 154.893 53.8C154.793 53.3 154.293 53.1 151.293 52.9C142.393 52.3 122.593 60.7 120.293 67.1C119.793 68.6 120.193 69.9 121.393 71C124.793 73.8 127.093 75 128.993 75ZM120.893 67.3001C122.993 61.5001 141.493 53.5 150.293 53.5C150.593 53.5 150.893 53.5 151.193 53.5C152.893 53.6 153.693 53.7 153.993 53.8C153.593 54.1 152.593 54.5 151.693 54.9C147.393 56.8 139.293 60.3 135.393 67.7C132.893 72.3 131.093 74.2 128.993 74.2C127.193 74.2 125.093 73.0001 121.793 70.3001C120.693 69.5001 120.393 68.5001 120.893 67.3001Z" fill="#5D5D5D" fill-opacity="0.6"/>
<path d="M137.693 74.6001C144.493 62.2001 156.993 57.9001 166.993 55.5001C167.993 55.3001 168.093 54.8001 167.993 54.5001C167.793 52.5001 158.293 48.6001 144.193 48.6001C142.593 48.6001 140.993 48.6001 139.393 48.7001C132.993 49.1001 117.793 58.1001 112.293 64.7001C110.893 66.4001 110.193 67.9001 110.393 69.0001C110.793 71.8001 113.193 73.0001 116.093 74.4001C119.093 75.9001 122.493 77.6001 124.193 81.6001C125.193 83.9001 126.393 85.1001 127.993 85.1001C130.593 85.1001 133.893 81.6001 137.693 74.6001ZM124.693 81.4001C122.993 77.3001 119.493 75.5001 116.393 74.0001C113.693 72.6001 111.293 71.5001 110.993 69.0001C110.893 68.1001 111.493 66.7001 112.793 65.1001C118.193 58.5001 133.193 49.7001 139.493 49.3001C141.093 49.2001 142.693 49.2001 144.293 49.2001C158.093 49.2001 167.393 53.0001 167.593 54.6001C167.593 54.9001 167.193 55.0001 166.993 55.1001C156.793 57.5001 144.193 61.9001 137.293 74.5001C131.493 84.8001 127.193 87.4001 124.693 81.4001Z" fill="#5D5D5D" fill-opacity="0.6"/>
<path d="M167.093 268.5C181.993 266.8 199.693 249.1 204.493 235.6C212.793 212.1 198.093 193.2 183.893 174.9C170.193 157.3 157.293 140.6 163.593 120.3C169.093 102.6 186.793 93.1 200.693 93.1C208.193 93.1 214.593 95.8 218.893 100.6C223.993 106.3 225.993 115 224.693 125.7C220.193 162.5 218.893 202.8 259.993 214.7C264.693 216.1 269.393 216.8 273.793 216.8C291.093 216.8 302.093 206.9 308.293 198.6C320.193 182.7 324.293 158.8 318.593 139.3C313.693 122.7 304.093 106.7 289.193 90.2C267.093 65.7 236.993 44.6 197.093 25.8L195.393 25C178.493 17 161.193 8.8 142.893 4.3C141.793 4 140.593 3.7 139.293 3.4C133.693 1.9 126.693 0 120.693 0C118.293 0 116.193 0.3 114.493 0.9C111.893 1.8 110.393 3.6 108.993 5.3C107.893 6.6 106.893 7.9 105.293 8.9C104.293 9.5 102.293 10.3 100.193 11.1C96.7933 12.4 93.2933 13.8 92.1933 15C90.0933 17.5 90.6933 19 91.1933 20.5C91.5933 21.5 91.9933 22.5 91.4933 24L91.0933 25.2C88.0933 34.1 88.0933 34.1 81.0933 36.1C79.7933 36.5 78.0933 37 76.0933 37.6C70.2933 39.4 67.9933 42.3 65.6933 45C63.8933 47.1 62.2933 49.1 59.1933 50.7C59.0933 50.7 58.9933 50.7 58.8933 50.7C55.2933 50.7 27.9933 52.5 25.8933 59.2C25.2933 61 26.5933 63 29.4933 65C33.1933 67.6 36.0933 67.9 37.8933 67.9C38.7933 67.9 39.5933 67.8 40.2933 67.7C40.9933 67.6 41.5933 67.6 42.1933 67.6C44.3933 67.6 46.5933 68.2 49.6933 75.7C50.3933 77.5 50.9933 79.1 51.4933 80.3C53.8933 86.5 53.8933 86.6 59.8933 89.1C61.3933 89.7 63.1933 90.5 65.5933 91.6C73.2933 95.2 74.8933 99.2 76.8933 104.3C77.9933 107 79.1933 110.1 81.3933 113.5C83.7933 117.2 86.6933 120.2 89.3933 123C94.2933 128.1 98.8933 132.9 100.393 140.9C102.893 154.8 95.3933 168.1 86.8933 180.4C82.7933 186.4 74.2933 193.3 65.1933 200.6C49.8933 213.1 32.5933 227.2 32.4933 240.3C32.4933 247.8 34.3933 253.5 38.1933 257.3C42.3933 261.5 48.6933 263.5 57.4933 263.5C70.2933 263.5 86.0933 259.2 99.9933 255.4C110.993 252.4 120.393 249.8 126.493 249.8C127.893 249.8 128.993 249.9 129.893 250.2C135.693 251.9 140.393 255.6 144.793 259.2C150.693 263.9 156.293 268.4 164.393 268.4C165.393 268.6 166.193 268.6 167.093 268.5ZM130.293 249.7C129.293 249.4 128.093 249.3 126.693 249.3C120.593 249.3 111.093 251.9 100.093 254.9C86.1933 258.7 70.4933 263 57.7933 263C49.0933 263 42.9933 261 38.9933 257C35.2933 253.3 33.4933 247.7 33.4933 240.5C33.5933 227.7 50.7933 213.7 65.8933 201.4C74.8933 194 83.4933 187.1 87.6933 181C96.2933 168.6 103.893 155.2 101.393 141C99.8933 132.8 95.1933 127.9 90.1933 122.7C87.4933 119.9 84.5933 116.9 82.1933 113.3C79.9933 109.9 78.7933 106.9 77.6933 104.2C75.5933 98.9 73.9933 94.8 65.9933 91.1C63.5933 90 61.7933 89.2 60.2933 88.6C54.4933 86.1 54.4933 86.1 52.1933 80.2C51.6933 78.9 51.0933 77.4 50.3933 75.6C47.4933 68.4 45.1933 67 42.2933 67C41.6933 67 40.9933 67.1 40.3933 67.1C39.5933 67.2 38.8933 67.2 37.9933 67.2C36.0933 67.2 33.5933 66.9 29.9933 64.4C27.2933 62.5 26.1933 60.8 26.5933 59.3C28.3933 53.5 53.8933 51.3 58.8933 51.3C58.9933 51.3 59.0933 51.3 59.0933 51.3L59.1933 51L59.3933 51.3C62.6933 49.6 64.4933 47.5 66.2933 45.4C68.5933 42.6 70.7933 40 76.3933 38.2C78.3933 37.6 80.0933 37.1 81.3933 36.7C88.6933 34.6 88.7933 34.5 91.8933 25.3L92.2933 24.1C92.8933 22.4 92.3933 21.2 91.9933 20.1C91.4933 18.7 90.9933 17.5 92.8933 15.4C93.8933 14.2 97.4933 12.9 100.593 11.7C102.693 10.9 104.693 10.1 105.793 9.5C107.493 8.5 108.593 7.1 109.693 5.8C111.093 4.1 112.493 2.5 114.893 1.6C116.493 1 118.493 0.7 120.893 0.7C126.793 0.7 133.793 2.6 139.393 4C140.693 4.3 141.893 4.7 142.993 4.9C161.193 9.4 178.493 17.6 195.193 25.5L196.893 26.3C236.693 45.1 266.693 66.1 288.693 90.5C303.493 106.9 313.093 122.9 317.893 139.3C323.593 158.6 319.493 182.2 307.693 198C301.593 206.2 290.693 215.9 273.693 215.9C269.293 215.9 264.693 215.2 260.093 213.9C219.593 202.2 220.893 162.2 225.293 125.7C226.593 114.8 224.593 105.9 219.393 100C214.993 95 208.293 92.3 200.693 92.3C186.593 92.3 168.593 102 162.993 120C156.593 140.6 170.293 158.2 183.493 175.2C197.593 193.3 212.093 212.1 203.993 235.2C199.293 248.5 181.893 266 167.193 267.6C166.393 267.7 165.593 267.7 164.793 267.7C156.993 267.7 151.493 263.3 145.693 258.6C140.893 255.2 136.293 251.5 130.293 249.7Z" fill="#5D5D5D" fill-opacity="0.6"/>
</g>
</svg>
