<svg width="237" height="215" viewBox="0 0 237 215" fill="none" xmlns="http://www.w3.org/2000/svg">
<mask id="mask0_3029_31548" style="mask-type:alpha" maskUnits="userSpaceOnUse" x="30" y="20" width="207" height="179">
<rect x="237" y="199" width="207" height="179" rx="8" transform="rotate(180 237 199)" fill="#111111"/>
</mask>
<g mask="url(#mask0_3029_31548)">
<path d="M172.907 70.4001C173.407 69.6001 173.907 68.8002 174.307 68.2002C179.407 61.1002 185.307 54.7002 192.107 47.8002C193.007 46.9002 193.907 45.9002 194.907 45.0002C200.507 39.4002 206.207 33.6002 209.707 26.7001C211.007 24.0001 211.407 22.0001 210.907 20.7001C210.607 20.1002 210.207 19.7002 209.607 19.6002C209.307 19.5002 209.107 19.5002 208.807 19.5002C207.607 19.5002 205.907 20.1002 204.107 21.2002C200.407 23.4002 196.907 26.2001 193.507 28.9001C190.707 31.1001 187.807 33.4002 184.907 35.3002C172.907 43.2002 165.007 48.5002 161.307 63.3002C160.507 66.4002 160.107 73.4002 162.507 76.4002C163.307 77.4002 164.407 77.9002 165.707 77.9002C168.507 77.6002 171.107 73.4001 172.907 70.4001ZM165.207 77.5002C164.107 77.5002 163.207 77.0002 162.507 76.1002C160.207 73.1002 160.607 66.3002 161.407 63.3002C165.107 48.6002 172.907 43.4002 184.907 35.5002C187.907 33.5002 190.807 31.3002 193.507 29.1002C196.907 26.4002 200.407 23.7001 204.107 21.4001C206.307 20.0001 208.307 19.5002 209.407 19.8002C209.907 20.0002 210.307 20.3002 210.507 20.8002C211.007 22.0002 210.607 24.0002 209.307 26.6002C205.907 33.4002 200.107 39.2002 194.607 44.8002C193.707 45.8002 192.707 46.7002 191.807 47.6002C185.107 54.5002 179.107 60.9002 174.007 68.0002C173.607 68.6002 173.107 69.4002 172.607 70.2002C170.807 73.2002 168.307 77.3002 165.407 77.4002C165.407 77.5002 165.307 77.5002 165.207 77.5002Z" fill="#5D5D5D" fill-opacity="0.6"/>
<path d="M166.907 87C171.307 85.9 175.107 79.8 178.207 75C179.307 73.3 180.307 71.7 181.207 70.5C186.207 64.1 191.807 58.3 197.207 52.7C198.607 51.2 200.407 49.6 202.307 47.9C207.907 42.7 214.807 36.3 216.907 30.4C218.707 25.4 217.607 20.7 216.607 16.2C215.807 12.5 214.907 8.60003 215.607 4.50003C216.007 2.00003 217.507 -0.499977 219.107 -3.09998C221.007 -6.19997 223.007 -9.39996 223.107 -12.9C223.107 -14.1 223.007 -15.2 222.607 -16.4C221.307 -20.1 219.907 -21.8 218.307 -21.8C216.707 -21.8 214.907 -20.1 212.307 -16C209.807 -12.1 208.807 -7.49998 207.907 -3.09997C206.907 1.30003 206.007 5.90003 203.407 9.90003C198.607 17.5 190.107 23 182.707 28C182.107 28.4 181.407 28.8 180.807 29.2C168.407 37.4 158.607 43.9 154.307 61.4C153.107 66 153.407 77.8 158.207 83.8C160.307 86.8 163.307 87.9 166.907 87ZM158.407 83.6C154.207 78.2 153.307 66.8 154.607 61.6C158.907 44.3 168.607 37.9 180.907 29.7C181.507 29.3 182.107 28.9 182.807 28.5C190.307 23.6 198.807 18 203.707 10.3C206.307 6.30004 207.307 1.60004 208.207 -2.89996C209.107 -7.29996 210.107 -11.8 212.607 -15.7C214.307 -18.5 216.407 -21.3 218.207 -21.3C219.607 -21.3 220.807 -19.6 222.107 -16.2C222.507 -15.1 222.707 -14.1 222.607 -12.9C222.507 -9.59996 220.507 -6.39997 218.707 -3.29997C217.107 -0.699974 215.507 1.80003 215.107 4.40003C214.407 8.50002 215.307 12.4 216.107 16.2C217.107 20.9 218.107 25.3 216.407 30.2C214.307 36 207.407 42.4 201.907 47.5C200.007 49.2 198.207 50.9 196.807 52.4C191.407 58 185.807 63.8 180.807 70.2C179.907 71.4 178.907 73 177.807 74.7C174.807 79.5 171.007 85.5 166.807 86.5C166.007 86.7 165.307 86.8 164.607 86.8C162.207 86.8 160.107 85.7 158.407 83.6Z" fill="#5D5D5D" fill-opacity="0.6"/>
<path d="M162.307 108.7C164.707 112.1 166.807 112.6 168.907 113C170.407 113.3 172.007 113.7 173.807 115L173.907 115.2C179.007 120.9 196.107 139.5 201.907 139.5C202.607 139.5 203.107 139.3 203.507 138.8C204.307 137.8 204.207 135.8 203.407 132.6C202.907 130.7 198.007 128.1 192.907 125.4C188.607 123.1 184.207 120.7 182.707 119C181.407 117.4 179.607 115.2 179.707 114.4C179.707 114.2 180.007 114.1 180.407 113.9C181.307 113.5 182.607 112.8 181.907 109.6C181.407 107.4 180.107 105.3 178.707 103.2C177.507 101.2 176.307 99.4 175.907 97.6C174.607 92.7 182.707 83.7 188.007 77.7C189.807 75.7 191.307 74 192.207 72.7C196.107 67.5 200.907 62.8 205.607 58.2C214.707 49.2 224.107 39.9 227.407 27.1C232.307 8 233.307 -9 230.307 -23.2C228.707 -30.8 223.207 -41.3 217.807 -41.3C214.507 -41.3 212.007 -37.3 210.607 -29.4C205.207 1 189.907 11.1 175.207 20.9C162.107 29.6 149.707 37.8 144.407 59C142.407 67 145.507 79.4 149.507 86.2C151.307 89.2 153.507 91 155.707 92.6C157.607 94.1 159.407 95.4 160.807 97.6C161.807 99.2 161.607 101 161.407 102.9C161.307 104.9 161.107 107 162.307 108.7ZM161.407 97.3C159.907 95 158.107 93.6 156.107 92.1C154.007 90.5 151.807 88.8 150.107 85.9C146.207 79.2 143.107 67.1 145.107 59.2C150.407 38.2 162.607 30.1 175.607 21.5C190.507 11.6 205.907 1.4 211.507 -29.3C212.907 -36.7 215.107 -40.6 218.007 -40.6C222.507 -40.6 228.107 -31.1 229.807 -23C232.807 -8.89999 231.807 7.89999 226.907 26.9C223.607 39.5 214.307 48.7 205.307 57.7C200.607 62.3 195.707 67.1 191.807 72.3C190.907 73.6 189.307 75.3 187.607 77.2C181.807 83.7 174.007 92.5 175.307 97.8C175.807 99.7 177.007 101.6 178.207 103.6C179.507 105.6 180.807 107.8 181.307 109.8C181.907 112.4 181.007 112.9 180.107 113.3C179.607 113.5 179.207 113.8 179.107 114.3C178.907 115 179.407 116.2 182.207 119.5C183.807 121.4 188.307 123.8 192.607 126.1C197.107 128.5 202.307 131.3 202.707 132.9C203.707 136.5 203.407 137.9 202.907 138.5C202.707 138.8 202.307 138.9 201.907 138.9C197.507 138.9 184.807 126.5 174.407 114.8C174.307 114.7 174.207 114.6 174.207 114.6C172.207 113.1 170.507 112.8 169.007 112.4C166.907 111.9 165.007 111.5 162.807 108.3C161.707 106.8 161.907 104.9 162.107 103C162.307 101.1 162.507 99.1 161.407 97.3Z" fill="#5D5D5D" fill-opacity="0.6"/>
<path d="M170.508 61C172.008 61 173.408 59.2 174.508 57.9C174.708 57.6 174.908 57.4 175.108 57.2C176.108 56.1 177.008 54.9 178.008 53.7C178.608 53 179.208 52.2 179.808 51.5L179.908 51.4C181.908 49 182.708 47.5 182.408 46.7C182.308 46.5 182.108 46.2 181.608 46.1C181.508 46.1 181.408 46.1 181.408 46.1C177.408 46.2 174.208 49.8 172.608 52C171.108 54.1 170.008 56.3 169.708 58.1C169.608 58.5 169.408 60 169.908 60.7C169.808 60.8 170.108 61 170.508 61ZM169.908 58.1C170.308 56.4 171.308 54.2 172.808 52.2C174.308 50.1 177.408 46.6 181.208 46.5L181.208 46.2L181.208 46.4C181.308 46.4 181.308 46.4 181.408 46.4C181.808 46.4 181.808 46.6 181.808 46.6C181.908 46.9 181.908 47.8 179.408 50.8L179.308 50.9C178.708 51.6 178.108 52.4 177.508 53.1C176.608 54.2 175.608 55.4 174.608 56.6C174.408 56.8 174.208 57.1 174.008 57.4C173.108 58.6 171.708 60.3 170.408 60.3C170.208 60.3 170.008 60.2 169.908 60.1C169.708 59.8 169.708 58.8 169.908 58.1Z" fill="#5D5D5D" fill-opacity="0.6"/>
<path d="M65.0068 -40.2998C51.7068 -38.7998 37.5068 -23.3998 37.3068 -10.3998C37.0068 9.60017 48.5068 25.5002 59.6068 40.9002C61.5068 43.5002 63.4068 46.2002 65.3068 48.9002L66.4068 50.5002C71.6068 58.0002 77.5068 66.6002 79.5068 75.8002C81.1068 83.6002 83.6068 101.8 80.9068 108.1C78.9068 112.7 73.3068 115.3 67.8068 117.9C64.0068 119.7 60.4068 121.3 57.9068 123.6L57.8068 123.7C49.2068 131.5 49.2068 131.5 43.4068 131.7C41.6068 131.8 39.4068 131.8 36.3068 132.1C32.1068 132.5 29.7068 133.1 27.9068 133.5C26.8068 133.8 25.9068 134 25.2068 134C23.4068 134 21.9068 132.7 16.9068 128.5C2.10677 116 2.40677 94.3002 2.70678 73.3002C3.00678 46.9002 3.40675 19.5002 -26.4932 10.9002C-30.7932 9.70017 -34.9932 9.00017 -38.9932 9.00017C-50.1932 9.00017 -59.7932 14.0002 -66.6932 23.5002C-76.7932 37.4002 -79.4932 59.2002 -73.3932 77.7002C-59.2932 120.3 -25.6932 144.6 10.5068 167.8C43.4068 188.9 74.7068 194.7 101.407 198.5C103.307 198.8 105.207 198.9 106.907 198.9C117.807 198.9 122.907 193.4 129.407 186.4C131.907 183.7 134.507 181 137.707 178.1C141.407 174.9 146.107 172.7 150.607 170.5C158.007 167 164.907 163.7 167.807 156.4C173.907 140.8 158.907 128.7 145.607 118C139.507 113.1 133.707 108.4 130.307 103.7C116.807 85.2001 120.907 53.9002 133.107 36.4002C136.907 30.9002 144.207 24.1002 151.907 17.0002C164.707 5.10016 179.207 -8.29985 181.807 -19.6998C183.007 -24.9998 182.707 -28.6999 180.807 -31.0999C179.307 -32.9998 176.607 -33.9998 172.807 -33.9998C166.507 -33.9998 157.507 -31.3998 148.007 -28.6998C136.307 -25.2998 123.107 -21.4998 111.907 -21.4998C106.507 -21.4998 102.107 -22.2998 98.3068 -24.0998C94.0068 -26.0998 90.3068 -28.8998 86.7068 -31.6998C80.8068 -36.2998 75.3068 -40.5998 67.5068 -40.5998C66.7068 -40.4998 65.8068 -40.3998 65.0068 -40.2998ZM98.1068 -23.4998C101.907 -21.7998 106.507 -20.8998 111.907 -20.8998C123.207 -20.8998 136.507 -24.6999 148.207 -28.0999C157.707 -30.7998 166.707 -33.3998 172.907 -33.3998C176.607 -33.3998 179.007 -32.4998 180.507 -30.6998C182.307 -28.4998 182.507 -24.8999 181.407 -19.7999C178.907 -8.59985 164.407 4.80016 151.707 16.6002C144.007 23.8002 136.607 30.6002 132.807 36.1002C120.507 53.8002 116.507 85.3001 130.007 104C133.407 108.7 139.207 113.4 145.407 118.4C158.507 129 173.407 141 167.407 156.2C164.607 163.3 157.707 166.6 150.407 170C145.807 172.2 141.107 174.4 137.407 177.7C134.207 180.5 131.607 183.3 129.107 186C122.707 192.9 117.607 198.3 106.907 198.3C105.207 198.3 103.407 198.2 101.507 197.9C74.8068 194.1 43.5068 188.3 10.8068 167.3C-25.2932 144.2 -58.7932 119.9 -72.7932 77.4002C-78.7932 59.1002 -76.1932 37.5002 -66.1932 23.7002C-59.3932 14.3002 -49.9932 9.40017 -38.8932 9.40017C-34.9932 9.40017 -30.7932 10.0002 -26.5932 11.3002C-13.2932 15.1002 -4.99323 23.0002 -0.993224 35.4002C2.60678 46.5002 2.40677 60.1002 2.20678 73.3002C1.90677 94.4002 1.70678 116.3 16.6068 128.9C23.7068 134.9 23.9068 135 28.0068 134C29.8068 133.6 32.2068 133 36.4068 132.6C39.5068 132.3 41.7068 132.2 43.4068 132.2C49.4068 132 49.4068 132 58.2068 124.1L58.3068 124C60.8068 121.8 64.3068 120.1 68.0068 118.4C73.6068 115.8 79.3068 113.1 81.4068 108.4C84.2068 102 81.7068 83.7002 80.0068 75.8002C78.1068 66.5002 72.1068 57.9002 66.9068 50.4002L65.8068 48.8002C64.0068 46.1002 62.0068 43.4002 60.1068 40.8002C49.0068 25.4002 37.6068 9.60017 37.9068 -10.1998C38.1068 -22.9998 52.1068 -38.0998 65.1068 -39.5998C65.9068 -39.6998 66.8068 -39.6998 67.6068 -39.6998C75.3068 -39.6998 80.7068 -35.3998 86.5068 -30.8998C90.0068 -28.3998 93.7068 -25.4998 98.1068 -23.4998Z" fill="#5D5D5D" fill-opacity="0.6"/>
<path d="M72.807 -95.2001C75.307 -99.0001 78.507 -103.8 77.407 -107C77.007 -108.3 75.807 -109.3 74.107 -110C73.807 -110.1 73.407 -110.2 73.007 -110.2C69.107 -110.2 63.007 -104.2 57.607 -99C54.207 -95.7 50.907 -92.5 49.007 -91.6C39.707 -87.4001 26.807 -85.4001 15.507 -83.6C11.007 -82.9 6.80698 -82.2 2.90698 -81.5C-5.99302 -79.8 -14.593 -78.9 -22.593 -78.9C-48.893 -78.9 -71.093 -88.4 -88.293 -107.1C-90.193 -109.2 -93.093 -110.3 -96.693 -110.3C-107.993 -110.3 -127.293 -99.3 -140.993 -79C-149.193 -66.8 -160.993 -41.9 -148.693 -12C-143.793 -2.6419e-05 -136.393 5.59998 -125.593 5.59998C-117.393 5.59998 -107.993 2.59998 -97.093 -0.900024C-83.693 -5.20003 -68.593 -10.1 -52.293 -10.1C-39.593 -10.1 -27.993 -7.20003 -16.693 -1.20003C18.107 17.4 19.107 51.2 16.107 78.6C14.907 89.3 16.807 97.7 21.607 103C25.007 106.7 29.507 108.7 34.807 108.7C44.807 108.7 57.407 100.9 61.907 86C66.207 72 56.107 59.2 44.407 44.5C31.207 28 16.207 9.19996 19.107 -16C20.507 -28.5 25.107 -40.5 31.307 -48C36.007 -53.7 40.207 -54.3 44.507 -54.8C47.907 -55.2 51.307 -55.6 55.407 -58.2001C58.507 -60.2001 59.507 -63.5 60.507 -67.1001C61.207 -69.5 61.907 -72.1001 63.407 -74.2001C64.207 -75.3001 65.607 -75.6 67.207 -75.8C69.207 -76.1 71.407 -76.5 72.607 -79.1001C73.407 -80.9001 72.307 -83 71.307 -85C70.407 -86.7 69.507 -88.5 69.807 -89.9C70.107 -91.2 71.307 -93.0001 72.807 -95.2001ZM70.907 -84.8C71.907 -82.8 72.907 -80.9 72.207 -79.4C71.107 -77.1 69.107 -76.8 67.207 -76.4C65.607 -76.1 64.007 -75.9 63.107 -74.5C61.507 -72.3 60.807 -69.8 60.107 -67.3C59.107 -63.9 58.207 -60.6001 55.207 -58.7001C51.207 -56.2001 47.807 -55.8 44.507 -55.4C40.007 -54.8 35.707 -54.3 30.907 -48.4C24.607 -40.7 20.007 -28.7001 18.607 -16.1C15.707 9.29996 30.707 28.3 43.907 45C55.507 59.6 65.507 72.3 61.307 86C56.907 100.6 44.607 108.3 34.807 108.3C29.707 108.3 25.207 106.4 22.007 102.8C17.407 97.6 15.507 89.3 16.707 78.8C19.707 51.2 18.707 17.1 -16.393 -1.60004C-27.793 -7.70004 -39.493 -10.6 -52.293 -10.6C-68.693 -10.6 -83.893 -5.70003 -97.293 -1.40002C-108.093 2.09998 -117.493 5.09998 -125.593 5.09998C-136.293 5.09998 -143.193 -0.200031 -148.093 -12.1C-160.293 -41.7 -148.593 -66.4 -140.493 -78.5C-127.493 -98 -107.993 -109.6 -96.693 -109.6C-93.193 -109.6 -90.593 -108.6 -88.693 -106.6C-71.293 -87.8 -49.093 -78.2 -22.493 -78.2C-14.393 -78.2 -5.79302 -79.1 3.20698 -80.8C7.10699 -81.6 11.307 -82.2 15.807 -82.9C27.207 -84.7 40.107 -86.7 49.507 -91C51.507 -91.9 54.707 -95 58.307 -98.5C63.607 -103.7 69.607 -109.6 73.307 -109.6C73.607 -109.6 73.907 -109.6 74.207 -109.5C75.807 -108.9 76.807 -108.1 77.207 -106.9C78.207 -103.9 75.107 -99.3 72.707 -95.6001C71.207 -93.4001 70.007 -91.5001 69.707 -90.2001C69.007 -88.4001 70.007 -86.6 70.907 -84.8Z" fill="#5D5D5D" fill-opacity="0.6"/>
<path d="M58.6072 -84.7C58.0072 -84.9 56.8072 -85 55.4072 -85C52.4072 -85 41.1072 -84.5 23.5072 -78.7C8.80725 -73.8 -8.39277 -71.2 -24.9928 -71.2C-52.1928 -71.2 -70.2927 -75.2999 -93.5927 -97.5999C-95.2927 -99.2 -97.4928 -99.9999 -100.193 -99.9999C-110.293 -99.9999 -125.593 -88.9999 -135.093 -74.8999C-142.493 -63.8999 -153.193 -41.4999 -142.093 -14.5999C-137.293 -3.09994 -131.393 -1.49994 -125.593 -1.49994C-118.493 -1.49994 -109.593 -4.39993 -99.2927 -7.69994C-85.3928 -12.1999 -69.6927 -17.1999 -52.2928 -17.1999C-38.3927 -17.1999 -25.6928 -13.9999 -13.2927 -7.39994C25.7073 13.4001 26.2073 52.2 23.2073 79.5C22.3073 88 23.6073 94.7001 26.9073 98.4001C28.9073 100.6 31.6073 101.8 34.8073 101.8C42.2073 101.8 51.5073 95.7 55.1073 84.2C58.3073 73.7 49.3073 62.4 38.8073 49.2C25.5073 32.4 8.90725 11.4001 12.1072 -16.6999C13.0072 -24.6999 15.2073 -32.3999 18.5073 -39.3999C23.8072 -50.5999 30.7072 -60.1 39.2072 -67.7C44.8072 -72.7 50.4072 -76.2 54.5072 -78.7C58.2072 -81 60.5072 -82.3999 60.3072 -83.5C60.2072 -84.1 59.6072 -84.4 58.6072 -84.7ZM54.3072 -79.1C50.2072 -76.6 44.6072 -73.1 39.0072 -68.1C30.5072 -60.5 23.5072 -51 18.2072 -39.6999C14.9072 -32.5999 12.7073 -24.8999 11.8073 -16.8999C8.60726 11.3001 25.2072 32.3 38.6072 49.2C49.0072 62.3 57.9073 73.6 54.8073 83.9C51.3073 95.3 42.1073 101.3 34.8073 101.3C31.6073 101.3 29.0073 100.2 27.1073 98C23.8073 94.4 22.6073 87.8 23.5073 79.4C26.5073 52 26.0073 13.1 -13.1927 -7.79995C-25.5927 -14.3999 -38.3927 -17.6 -52.2928 -17.6C-69.7928 -17.5999 -85.4928 -12.4999 -99.3928 -7.99994C-109.693 -4.69994 -118.493 -1.79994 -125.593 -1.79994C-131.193 -1.79994 -137.093 -3.39994 -141.793 -14.7999C-152.793 -41.4999 -142.093 -63.7999 -134.793 -74.7999C-125.593 -88.5999 -110.093 -99.7999 -100.193 -99.7999C-97.5927 -99.7999 -95.3928 -98.9999 -93.7928 -97.4999C-82.4928 -86.6999 -71.9928 -79.7999 -60.6927 -75.8999C-50.9928 -72.4999 -40.2928 -71.1 -24.9928 -71.1C-8.39277 -71.1 8.80724 -73.8 23.6072 -78.7C41.2072 -84.5 52.4072 -85 55.4072 -85C56.8072 -85 58.0072 -84.8999 58.6072 -84.7999C59.5072 -84.5999 60.0072 -84.2999 60.1072 -83.8999C60.1072 -82.7 57.6072 -81.2 54.3072 -79.1Z" fill="#5D5D5D" fill-opacity="0.6"/>
<path d="M34.7073 94.9001C40.1073 94.9001 46.0073 89.5002 47.9073 84.6002C49.2073 81.4002 48.2073 75.9001 45.3073 69.8001C42.6073 64.1001 38.9073 59.8001 36.2073 59.0001C35.8073 58.9001 35.4073 58.8001 35.0073 58.8001C34.5073 58.8001 34.1073 58.9001 33.7073 59.0001C30.2073 60.2001 30.3073 62.3001 30.5073 67.0001C30.6073 69.9001 30.8073 73.8001 30.2073 79.2001C29.4073 86.5001 30.5073 92.0001 32.1073 93.7001C32.5073 94.4001 33.1073 94.9001 34.7073 94.9001ZM30.6073 79.3001C31.2073 73.8001 31.1073 69.9001 30.9073 67.0001C30.7073 62.3001 30.7073 60.6001 33.8073 59.5001C34.5073 59.2001 35.3073 59.2001 36.1073 59.5001C38.7073 60.3001 42.2073 64.5002 44.9073 70.1002C47.8073 76.0002 48.7073 81.4001 47.5073 84.5001C45.6073 89.2001 39.9073 94.5001 34.8073 94.5001C33.4073 94.5001 32.8073 94.1001 32.4073 93.6001C30.9073 91.8001 29.8073 86.5001 30.6073 79.3001Z" fill="#5D5D5D" fill-opacity="0.6"/>
<path d="M90.6075 30.4C91.3075 31 91.9075 31.3001 92.4075 31.3001C93.8075 31.3001 94.8075 29.5001 96.3075 26.8001C97.8075 24 99.9075 20.2 103.607 16.3L104.708 15.2C108.908 10.8 110.808 8.80004 110.308 7.70004C110.108 7.20004 109.408 7.00005 108.208 7.00005C107.208 7.00005 105.608 7.20005 103.008 7.50005C101.908 7.60005 100.908 7.70004 99.8075 7.70004C91.1075 7.70004 83.9075 2.80005 78.6075 -0.699948C75.5075 -2.79995 73.1075 -4.39994 71.3075 -4.39994C70.6075 -4.39994 70.0075 -4.09995 69.5075 -3.49995C64.0075 3.60005 83.4075 23.8 90.6075 30.4ZM70.0075 -3.19995C70.4075 -3.69995 70.8075 -3.89994 71.4075 -3.89994C73.0075 -3.89994 75.4075 -2.29995 78.4075 -0.299954C83.7075 3.30005 91.0075 8.20004 99.9075 8.20004C101.008 8.20004 102.108 8.10005 103.208 8.00005C105.708 7.60005 107.308 7.50005 108.308 7.50005C109.308 7.50005 109.808 7.60004 109.908 7.90004C110.208 8.70004 107.908 11.1 104.408 14.9L103.308 16C99.6075 19.9 97.5075 23.8001 95.9075 26.6001C94.5075 29.1001 93.6075 30.8001 92.5075 30.8001C92.1075 30.8001 91.6075 30.5 91.0075 30C82.0075 21.9 65.1075 3.10005 70.0075 -3.19995Z" fill="#5D5D5D" fill-opacity="0.6"/>
<path d="M90.5068 22.1001C94.0068 22.1001 98.5068 16.6001 98.5068 14.0001C98.5068 12.9001 97.8068 12.3001 96.7068 12.3001C91.5068 12.2001 86.1068 8.9001 82.1068 6.6001C79.7068 5.2001 78.0068 4.20009 77.0068 4.20009C76.7068 4.20009 76.4068 4.30009 76.2068 4.50009C76.0068 4.70009 75.9068 5.10009 75.9068 5.70009C76.3068 10.5001 85.4068 20.1001 89.1068 22.0001C89.6068 22.0001 90.0068 22.1001 90.5068 22.1001ZM76.7068 5.40009C76.7068 5.00009 76.7068 4.8001 76.8068 4.8001C76.8068 4.8001 76.9068 4.70009 77.0068 4.70009C77.8068 4.70009 79.6068 5.80009 81.7068 7.00009C85.7068 9.40009 91.3068 12.8001 96.6068 12.8001C97.4068 12.8001 97.7068 13.1001 97.7068 13.8001C97.7068 16.1001 93.5068 21.2001 90.4068 21.2001C90.0068 21.2001 89.7068 21.1001 89.4068 21.0001C85.5068 19.1001 77.0068 9.80009 76.7068 5.40009Z" fill="#5D5D5D" fill-opacity="0.6"/>
<path d="M102.907 112.8C102.007 112.8 101.407 114 100.707 116.7C98.2071 126.9 89.9072 140.4 77.0072 147.6C64.0072 154.9 55.3071 156.8 50.6071 157.8C48.3071 158.3 47.1072 158.6 46.8072 159.2C46.7072 159.4 46.7072 159.7 46.9071 160C47.8072 161.6 63.9072 170.7 87.2072 172.5L88.2072 172.6C90.3072 172.8 92.1072 172.9 93.8072 172.9C99.9072 172.9 104.707 171.2 116.107 161.6C117.907 160.1 119.707 158.7 121.507 157.3C127.007 153.1 131.807 149.4 131.507 145.3C131.307 142.1 128.107 139 121.607 135.4C114.407 131.4 110.007 123.5 107.107 118.3C105.207 114.9 104.007 112.8 102.907 112.8ZM121.507 135.6C127.807 139.1 131.007 142.3 131.307 145.3C131.607 149.3 126.907 152.9 121.507 157.1C119.707 158.5 117.907 159.9 116.107 161.4C104.807 171 99.9072 172.7 94.0072 172.7C92.3072 172.7 90.5072 172.6 88.4072 172.4L87.4072 172.3C64.7072 170.5 48.2072 161.5 47.4071 159.9C47.2072 159.6 47.3072 159.4 47.3072 159.3C47.5072 158.8 48.8072 158.6 50.8072 158.1C55.5072 157.1 64.2072 155.2 77.3072 147.9C90.3072 140.7 98.6071 127.1 101.107 116.8C101.707 114.3 102.307 113.1 103.007 113.1C104.007 113.1 105.307 115.5 107.007 118.4C109.707 123.7 114.207 131.6 121.507 135.6Z" fill="#5D5D5D" fill-opacity="0.6"/>
<path d="M101.008 95.6001C100.108 95.6001 99.5075 96.6001 99.1075 98.9001C96.5075 112.7 90.9075 132.2 72.1075 142.6C66.3075 145.8 59.7075 148.4 52.0075 150.4C50.5075 150.8 48.8075 151.9 47.2075 153C45.1075 154.4 43.0075 155.8 41.0075 155.8C40.8075 155.8 40.5075 155.8 40.3075 155.7C39.2075 155.5 38.4075 154.9 37.6075 154.2C36.7075 153.5 35.8075 152.8 34.7075 152.8C34.3075 152.8 33.8075 152.9 33.3075 153.1C32.5075 153.4 32.0075 154.1 31.6075 154.7C31.0075 155.6 30.4075 156.4 28.7075 156.3C27.0075 156.2 26.1075 154.9 25.1075 153.5C24.4075 152.5 23.7075 151.6 22.7075 151C22.0075 150.6 20.7075 150.2 19.5075 150.2C18.7075 150.2 18.1075 150.4 17.8075 150.8C17.5075 151.2 17.4075 151.8 17.6075 152.5C18.3075 154.9 23.3075 157.1 26.7075 158.5C27.7075 158.9 28.5075 159.3 29.1075 159.6C34.1075 162.2 39.0075 164.5 43.3075 166.3C61.0075 174.1 77.2075 178.8 92.7075 180.8C94.4075 181 96.0075 181.1 97.3075 181.1C104.908 181.1 110.908 177.8 122.608 166.8C125.508 164.1 128.508 161.8 131.308 159.6C137.708 154.6 142.808 150.6 142.708 145.7C142.608 141.8 139.208 137.6 132.008 132.5C120.408 124.4 112.708 112 107.608 103.8C104.608 98.9001 102.508 95.6001 101.008 95.6001ZM132.008 132.9C139.108 137.9 142.508 142 142.608 145.8C142.708 150.6 137.708 154.5 131.308 159.5C128.408 161.7 125.408 164.1 122.508 166.7C110.808 177.6 104.908 180.9 97.4075 180.9C96.0075 180.9 94.5075 180.8 92.8075 180.6C77.3075 178.6 61.2075 173.9 43.5075 166.2C39.3075 164.4 34.3075 162.1 29.4075 159.5C28.8075 159.2 28.0075 158.8 27.0075 158.4C23.7075 157 18.7075 154.8 18.1075 152.6C17.9075 152 18.0075 151.5 18.2075 151.2C18.5075 150.8 19.2075 150.7 19.6075 150.7C20.6075 150.7 21.9075 151.1 22.6075 151.5C23.5075 152 24.2075 153 24.9075 153.9C25.9075 155.3 26.9075 156.7 28.7075 156.8C30.6075 157 31.2075 156 31.8075 155.1C32.2075 154.5 32.6075 153.9 33.4075 153.6C33.9075 153.4 34.3075 153.3 34.7075 153.3C35.8075 153.3 36.6075 153.9 37.4075 154.6C38.2075 155.2 39.1075 155.9 40.3075 156.1C40.5075 156.1 40.8075 156.2 41.0075 156.2C43.1075 156.2 45.3075 154.7 47.4075 153.3C49.1075 152.2 50.6075 151.1 52.1075 150.7C59.8075 148.7 66.4075 146.1 72.2075 142.9C91.1075 132.4 96.8075 112.8 99.4075 99.0001C99.8075 97.0001 100.308 96.0001 101.008 96.0001C102.308 96.0001 104.508 99.4001 107.508 104.2C112.608 112.3 120.308 124.7 132.008 132.9Z" fill="#5D5D5D" fill-opacity="0.6"/>
<path d="M64.0071 -29.8998C57.2071 -29.0998 50.7071 -24.3998 47.6071 -17.8998C44.7071 -11.9998 43.2071 -1.89983 52.1071 12.3002C55.9071 18.4002 60.1071 24.6002 64.1071 30.6002C75.6071 47.7002 86.5071 63.8001 90.9071 80.0002C96.0071 98.3001 91.9071 113.4 78.1071 127.5C66.1071 139.7 50.3071 146.7 34.7071 146.7C23.0071 146.7 12.5071 142.6 5.2071 135.1C-2.7929 126.9 -6.7929 114.8 -6.2929 100.3C-6.19289 96.9002 -5.99291 93.4002 -5.89291 89.7002C-5.2929 76.6002 -4.59289 61.7002 -6.6929 49.3002C-9.09289 35.1002 -14.8929 26.3002 -24.3929 22.4002C-29.4929 20.3002 -34.2929 19.3002 -38.6929 19.3002C-46.6929 19.3002 -53.4929 22.8002 -58.3929 29.4002C-66.6929 40.6002 -68.6929 59.9002 -63.3929 77.3002C-51.8929 114.7 -24.3929 137 16.4071 160.9C47.4071 179 73.6071 184.6 97.2071 188C99.0071 188.2 100.607 188.4 102.207 188.4C112.107 188.4 116.807 183.4 122.707 177C125.007 174.6 127.307 172 130.307 169.4C133.707 166.4 136.607 164.6 139.207 163C143.407 160.4 147.007 158.2 150.907 152.3C158.807 140.5 148.207 133.3 137.107 125.7C131.207 121.7 125.107 117.5 121.907 112.6C101.407 81.6001 109.707 48.5002 124.207 27.8002C128.407 21.9002 134.407 16.3001 140.907 10.4001C148.807 3.20015 156.907 -4.29985 161.607 -12.5999C163.607 -16.1999 164.207 -18.5999 163.307 -19.9998C162.707 -20.9998 161.307 -21.4998 159.207 -21.4998C155.407 -21.4998 149.307 -19.8999 142.207 -18.0999C132.307 -15.4998 120.007 -12.2998 109.107 -12.2998C103.307 -12.2998 98.4071 -13.1998 94.4071 -14.9998C90.4071 -16.7998 87.1071 -19.3998 83.8071 -21.8998C78.5071 -26.0998 73.4071 -29.9998 66.3071 -29.9998C65.6071 -29.9998 64.8071 -29.9998 64.0071 -29.8998ZM94.3071 -14.6998C98.4071 -12.7998 103.207 -11.8998 109.107 -11.8998C120.007 -11.8998 132.407 -15.0998 142.307 -17.6998C149.307 -19.4998 155.407 -21.0999 159.207 -21.0999C161.207 -21.0999 162.507 -20.5998 163.107 -19.6998C163.907 -18.3998 163.307 -15.9998 161.407 -12.5999C156.807 -4.29985 148.607 3.10016 140.807 10.3002C134.407 16.2002 128.307 21.8002 124.107 27.7002C115.607 39.8002 110.507 53.6002 109.507 67.6002C108.407 83.6002 112.507 98.8002 121.707 112.8C125.007 117.8 131.107 122 137.007 126C148.007 133.5 158.407 140.7 150.707 152.2C146.807 158.1 143.207 160.3 139.107 162.8C136.507 164.4 133.507 166.2 130.107 169.2C127.207 171.8 124.807 174.3 122.507 176.8C116.607 183.1 111.907 188.1 102.207 188.1C100.707 188.1 99.0071 188 97.3071 187.7C73.7071 184.4 47.6071 178.8 16.6071 160.6C-24.0929 136.7 -51.5929 114.5 -63.0929 77.2002C-68.3929 59.9002 -66.3929 40.7002 -58.1929 29.5002C-53.3929 23.0002 -46.5929 19.5002 -38.6929 19.5002C-34.2929 19.5002 -29.5929 20.5002 -24.4929 22.6002C-15.0929 26.4002 -9.3929 35.1002 -6.9929 49.3002C-4.89289 61.7002 -5.59289 76.5002 -6.19289 89.7002C-6.39289 93.4002 -6.4929 96.9002 -6.5929 100.3C-6.9929 114.9 -2.99289 127.1 5.00711 135.4C12.3071 143 22.9071 147.1 34.7071 147.1C50.4071 147.1 66.3071 140.1 78.3071 127.8C85.6071 120.3 90.2071 112.6 92.2071 104.2C94.0071 96.7001 93.7071 88.8002 91.2071 80.1002C86.7071 63.9002 75.8071 47.7002 64.3071 30.6002C60.3071 24.6002 56.1071 18.5002 52.3071 12.3002C43.5071 -1.79984 45.0071 -11.7998 47.8071 -17.5998C50.9071 -23.9998 57.2071 -28.5998 64.0071 -29.3998C64.8071 -29.4998 65.5071 -29.4998 66.3071 -29.4998C73.3071 -29.4998 78.3071 -25.5998 83.6071 -21.4998C86.9071 -19.1998 90.3071 -16.4998 94.3071 -14.6998Z" fill="#5D5D5D" fill-opacity="0.6"/>
<path d="M57.507 -17.4999C54.9071 -15.5999 53.307 -12.9 52.907 -9.59995C51.707 0.200051 60.4071 14.6 68.3071 23.9C78.1071 35.5 87.8071 47.9 92.5071 59.9C92.7071 60.5 93.1071 62.2001 93.5071 64.3001C95.0071 71.4001 97.6071 83.3001 101.307 83.3001C101.607 83.3001 102.007 83.2 102.307 83C103.807 82.1 104.307 80.3 103.707 77.5C103.207 75.2 102.107 72.6001 101.107 70.3001C100.007 67.9001 99.1071 65.7001 99.1071 64.5C99.107 61.4 100.607 60.1 102.007 58.7C103.107 57.7 104.207 56.6001 104.607 54.8001C105.107 52.4001 104.107 50.6 103.207 48.9C102.307 47.3 101.407 45.7001 101.707 43.5C102.207 39.6 114.607 25.5001 125.507 13.1001C134.507 2.80005 142.307 -6.09996 142.207 -7.79996C142.207 -7.89996 142.107 -7.99996 142.107 -8.09996C141.407 -8.69996 140.007 -8.99995 137.907 -8.99995C134.707 -8.99995 130.207 -8.29995 125.007 -7.39995C118.707 -6.39995 111.507 -5.19995 105.307 -5.19995C100.507 -5.19995 96.807 -5.89995 94.2071 -7.29995C92.807 -8.09996 91.2071 -8.99995 89.5071 -9.99995C82.0071 -14.3 72.807 -19.6999 64.907 -19.6999C62.107 -19.7999 59.507 -18.9999 57.507 -17.4999ZM94.107 -7.09996C96.807 -5.69995 100.407 -4.99995 105.307 -4.99995C111.507 -4.99995 118.707 -6.09995 125.007 -7.19995C130.207 -7.99995 134.707 -8.79996 137.907 -8.79996C139.907 -8.79996 141.207 -8.49995 141.907 -7.89995C141.907 -7.89995 141.907 -7.89996 141.907 -7.79996C142.007 -6.19996 133.907 3.00004 125.307 12.9C114.407 25.4 101.907 39.5 101.407 43.5C101.107 45.7001 102.007 47.4001 102.907 49.1001C103.907 50.9001 104.807 52.5001 104.307 54.8001C103.907 56.6001 102.907 57.5001 101.807 58.6001C100.407 60.0001 98.9071 61.4001 98.8071 64.6001C98.8071 65.9001 99.7071 68 100.807 70.5C101.807 72.8 102.907 75.4001 103.407 77.6001C104.007 80.2001 103.607 81.9001 102.207 82.8001C101.907 83.0001 101.607 83.1001 101.307 83.1001C97.8071 83.1001 95.2071 70.9001 93.8071 64.3001C93.3071 62.1001 93.0071 60.5 92.7071 59.9C87.9071 47.9 78.207 35.5 68.407 23.9C60.607 14.7 51.907 0.400048 53.107 -9.29995C53.507 -12.6 55.007 -15.1999 57.507 -16.9999C59.507 -18.4999 62.007 -19.1999 64.907 -19.1999C72.707 -19.1999 81.9071 -13.8 89.3071 -9.49995C91.1071 -8.79995 92.707 -7.89996 94.107 -7.09996Z" fill="#5D5D5D" fill-opacity="0.6"/>
<path d="M60.9076 -4.89994C60.0076 3.30006 68.8076 16.3 73.2076 21.2C80.8076 29.8 86.1076 37.1 89.6076 41.9C93.1076 46.7 95.0076 49.3001 96.2076 49.3001C97.1076 49.3001 97.5076 48.2 97.8076 45.5C100.008 25.1 113.208 14.1 121.008 7.50005C124.408 4.60004 126.708 2.70005 126.808 1.10005C126.808 0.600052 126.708 0.200039 126.308 -0.0999603C125.608 -0.899959 124.408 -1.19995 122.708 -1.19995C120.808 -1.19995 118.308 -0.69995 115.508 -0.19995C111.808 0.500051 107.608 1.20004 103.408 1.20004C97.6076 1.20005 92.9076 -0.299947 89.0076 -3.19995C83.6076 -7.39995 75.6076 -11.8999 69.3076 -11.8999C67.0076 -11.8999 65.1076 -11.2999 63.5076 -10.1999C62.1076 -8.89995 61.1076 -7.19994 60.9076 -4.89994ZM69.5076 -11.6C75.7076 -11.6 83.6076 -7.09995 89.0076 -2.99995C92.9076 4.874e-05 97.7076 1.50005 103.508 1.50005C107.808 1.50005 112.008 0.700052 115.708 0.100053C118.508 -0.399947 121.008 -0.899948 122.908 -0.899948C124.508 -0.899948 125.608 -0.599949 126.308 0.100052C126.608 0.400051 126.708 0.70005 126.708 1.10005C126.608 2.50005 124.308 4.50005 121.008 7.30005C113.108 13.9 99.9076 25 97.7076 45.5C97.4076 47.9 97.0076 49 96.4076 49C95.3076 49 93.3076 46.2 90.0076 41.7C86.5076 36.9 81.2076 29.5 73.6076 21.0001C69.2076 16.1 60.4076 3.20006 61.3076 -4.89994C61.5076 -7.09994 62.5076 -8.79994 64.0076 -9.89994C65.4076 -10.9999 67.3076 -11.6 69.5076 -11.6Z" fill="#5D5D5D" fill-opacity="0.6"/>
<path d="M104.007 140C101.207 140 99.1074 142.7 97.0074 146.8C93.2074 154 85.3074 157.4 81.0074 159.3C78.8074 160.2 78.0074 160.6 78.1074 161.2C78.2074 161.7 78.7074 161.9 81.7074 162.1C90.6074 162.7 110.407 154.3 112.707 147.9C113.207 146.4 112.807 145.1 111.607 144C108.207 141.2 105.907 140 104.007 140ZM112.107 147.7C110.007 153.5 91.5074 161.5 82.7074 161.5C82.4074 161.5 82.1074 161.5 81.8074 161.5C80.1074 161.4 79.3074 161.3 79.0074 161.2C79.4074 160.9 80.4074 160.5 81.3074 160.1C85.6074 158.2 93.7074 154.7 97.6074 147.3C100.107 142.7 101.907 140.8 104.007 140.8C105.807 140.8 107.907 142 111.207 144.7C112.307 145.5 112.607 146.5 112.107 147.7Z" fill="#5D5D5D" fill-opacity="0.6"/>
<path d="M95.307 140.4C88.507 152.8 76.007 157.1 66.007 159.5C65.007 159.7 64.907 160.2 65.007 160.5C65.207 162.5 74.707 166.4 88.807 166.4C90.407 166.4 92.007 166.4 93.607 166.3C100.007 165.9 115.207 156.9 120.707 150.3C122.107 148.6 122.807 147.1 122.607 146C122.207 143.2 119.807 142 116.907 140.6C113.907 139.1 110.507 137.4 108.807 133.4C107.807 131.1 106.607 129.9 105.007 129.9C102.407 129.9 99.107 133.4 95.307 140.4ZM108.307 133.6C110.007 137.7 113.507 139.5 116.607 141C119.307 142.4 121.707 143.5 122.007 146C122.107 146.9 121.507 148.3 120.207 149.9C114.807 156.5 99.807 165.3 93.507 165.7C91.907 165.8 90.307 165.8 88.707 165.8C74.907 165.8 65.607 162 65.407 160.4C65.407 160.1 65.807 160 66.007 159.9C76.207 157.5 88.807 153.1 95.707 140.5C101.507 130.2 105.807 127.6 108.307 133.6Z" fill="#5D5D5D" fill-opacity="0.6"/>
<path d="M65.9067 -53.5C51.0067 -51.8 33.3067 -34.1 28.5067 -20.6C20.2067 2.90001 34.9067 21.8 49.1067 40.1C62.8067 57.7 75.7067 74.4 69.4067 94.7C63.9067 112.4 46.2067 121.9 32.3067 121.9C24.8067 121.9 18.4067 119.2 14.1067 114.4C9.00667 108.7 7.00669 100 8.30669 89.3C12.8067 52.5 14.1067 12.2 -26.9933 0.300024C-31.6933 -1.09997 -36.3933 -1.79998 -40.7933 -1.79998C-58.0933 -1.79998 -69.0933 8.10002 -75.2933 16.4C-87.1933 32.3 -91.2933 56.2 -85.5933 75.7C-80.6933 92.3 -71.0933 108.3 -56.1933 124.8C-34.0933 149.3 -3.99332 170.4 35.9067 189.2L37.6067 190C54.5067 198 71.8067 206.2 90.1067 210.7C91.2067 211 92.4067 211.3 93.7067 211.6C99.3067 213.1 106.307 215 112.307 215C114.707 215 116.807 214.7 118.507 214.1C121.107 213.2 122.607 211.4 124.007 209.7C125.107 208.4 126.107 207.1 127.707 206.1C128.707 205.5 130.707 204.7 132.807 203.9C136.207 202.6 139.707 201.2 140.807 200C142.907 197.5 142.307 196 141.807 194.5C141.407 193.5 141.007 192.5 141.507 191L141.907 189.8C144.907 180.9 144.907 180.9 151.907 178.9C153.207 178.5 154.907 178 156.907 177.4C162.707 175.6 165.007 172.7 167.307 170C169.107 167.9 170.707 165.9 173.807 164.3C173.907 164.3 174.007 164.3 174.107 164.3C177.707 164.3 205.007 162.5 207.107 155.8C207.707 154 206.407 152 203.507 150C199.807 147.4 196.907 147.1 195.107 147.1C194.207 147.1 193.407 147.2 192.707 147.3C192.007 147.4 191.407 147.4 190.807 147.4C188.607 147.4 186.407 146.8 183.307 139.3C182.607 137.5 182.007 135.9 181.507 134.7C179.107 128.5 179.107 128.4 173.107 125.9C171.607 125.3 169.807 124.5 167.407 123.4C159.707 119.8 158.107 115.8 156.107 110.7C155.007 108 153.807 104.9 151.607 101.5C149.207 97.8 146.307 94.8 143.607 92C138.707 86.9 134.107 82.1 132.607 74.1C130.107 60.2 137.607 46.9 146.107 34.6C150.207 28.6 158.707 21.7 167.807 14.4C183.107 1.9 200.407 -12.2 200.507 -25.3C200.507 -32.8 198.607 -38.5 194.807 -42.3C190.607 -46.5 184.307 -48.5 175.507 -48.5C162.707 -48.5 146.907 -44.2 133.007 -40.4C122.007 -37.4 112.607 -34.8 106.507 -34.8C105.107 -34.8 104.007 -34.9 103.107 -35.2C97.3067 -36.9 92.6067 -40.6 88.2067 -44.2C82.3067 -48.9 76.7067 -53.4 68.6067 -53.4C67.6067 -53.6 66.8067 -53.6 65.9067 -53.5ZM102.707 -34.7C103.707 -34.4 104.907 -34.3 106.307 -34.3C112.407 -34.3 121.907 -36.9 132.907 -39.9C146.807 -43.7 162.507 -48 175.207 -48C183.907 -48 190.007 -46 194.007 -42C197.707 -38.3 199.507 -32.7 199.507 -25.5C199.407 -12.7 182.207 1.30001 167.107 13.6C158.107 21 149.507 27.9 145.307 34C136.707 46.4 129.107 59.8 131.607 74C133.107 82.2 137.807 87.1 142.807 92.3C145.507 95.1 148.407 98.1 150.807 101.7C153.007 105.1 154.207 108.1 155.307 110.8C157.407 116.1 159.007 120.2 167.007 123.9C169.407 125 171.207 125.8 172.707 126.4C178.507 128.9 178.507 128.9 180.807 134.8C181.307 136.1 181.907 137.6 182.607 139.4C185.507 146.6 187.807 148 190.707 148C191.307 148 192.007 147.9 192.607 147.9C193.407 147.8 194.107 147.8 195.007 147.8C196.907 147.8 199.407 148.1 203.007 150.6C205.707 152.5 206.807 154.2 206.407 155.7C204.607 161.5 179.107 163.7 174.107 163.7C174.007 163.7 173.907 163.7 173.907 163.7L173.807 164L173.607 163.7C170.307 165.4 168.507 167.5 166.707 169.6C164.407 172.4 162.207 175 156.607 176.8C154.607 177.4 152.907 177.9 151.607 178.3C144.307 180.4 144.207 180.5 141.107 189.7L140.707 190.9C140.107 192.6 140.607 193.8 141.007 194.9C141.507 196.3 142.007 197.5 140.107 199.6C139.107 200.8 135.507 202.1 132.407 203.3C130.307 204.1 128.307 204.9 127.207 205.5C125.507 206.5 124.407 207.9 123.307 209.2C121.907 210.9 120.507 212.5 118.107 213.4C116.507 214 114.507 214.3 112.107 214.3C106.207 214.3 99.2067 212.4 93.6067 211C92.3067 210.7 91.1067 210.3 90.0067 210.1C71.8067 205.6 54.5067 197.4 37.8067 189.5L36.1067 188.7C-3.69332 169.9 -33.6933 148.9 -55.6933 124.5C-70.4933 108.1 -80.0933 92.1 -84.8933 75.7C-90.5933 56.4 -86.4933 32.8 -74.6933 17C-68.5933 8.80003 -57.6933 -0.899971 -40.6933 -0.899972C-36.2933 -0.899973 -31.6933 -0.199976 -27.0933 1.10003C13.4067 12.8 12.1067 52.8 7.70668 89.3C6.40668 100.2 8.40668 109.1 13.6067 115C18.0067 120 24.7067 122.7 32.3067 122.7C46.4067 122.7 64.4067 113 70.0067 95C76.4067 74.4 62.7067 56.8 49.5067 39.8C35.4067 21.7 20.9067 2.90003 29.0067 -20.2C33.7067 -33.5 51.1067 -51 65.8067 -52.6C66.6067 -52.7 67.4067 -52.7 68.2067 -52.7C76.0067 -52.7 81.5067 -48.3 87.3067 -43.6C92.1067 -40.2 96.7067 -36.5 102.707 -34.7Z" fill="#5D5D5D" fill-opacity="0.6"/>
</g>
</svg>
