<svg width="68" height="68" viewBox="0 0 68 68" fill="none" xmlns="http://www.w3.org/2000/svg">
<circle cx="34" cy="34" r="34" fill="#FF6060"/>
<circle cx="33.9988" cy="34.0008" r="25.2821" fill="white"/>
<path d="M47.9392 29.8576L40.1631 22.0675C40.1228 22.0272 40.0692 22.0053 40.0131 22.0053L29.0067 21.9961C28.9513 21.9961 28.8974 22.018 28.858 22.0567L21.0688 29.8337C21.0287 29.8727 21.0059 29.9263 21.0059 29.9828L20.9961 40.9888C20.9961 41.0447 21.0182 41.0983 21.0574 41.1377L28.8339 48.9272C28.8733 48.9661 28.9265 48.9911 28.9826 48.9911L39.9891 49.0027H39.9895C40.0453 49.0027 40.0987 48.9786 40.1375 48.9392L47.9283 41.1627C47.9685 41.1235 47.9904 41.0694 47.9904 41.0136L47.9994 30.0067C47.9994 29.9506 47.9777 29.8968 47.9392 29.8576ZM35.0764 42.4266C34.9197 42.5829 34.7017 42.6716 34.4799 42.6716C34.2573 42.6716 34.0393 42.582 33.8819 42.4253C33.7253 42.2681 33.6398 42.0505 33.6402 41.8268C33.6402 41.6053 33.7348 41.3881 33.8904 41.2318C34.0494 41.0757 34.2839 40.985 34.4937 40.9838C34.7129 40.9854 34.9242 41.0756 35.0817 41.2331C35.2388 41.3894 35.3255 41.6062 35.3255 41.8286C35.3251 42.0527 35.2345 42.2696 35.0764 42.4266ZM35.3268 38.4537C35.3264 38.918 34.9484 39.2969 34.4825 39.2969C34.0167 39.2965 33.6382 38.9171 33.6387 38.4522L33.6505 29.1669C33.6509 28.7011 34.076 28.3226 34.4981 28.3226V28.3223C34.7224 28.3233 34.9318 28.4112 35.09 28.5707C35.2494 28.7302 35.336 28.9426 35.336 29.1676L35.3268 38.4537Z" fill="#F90000"/>
</svg>
