<svg width="44" height="44" viewBox="0 0 44 44" fill="none" xmlns="http://www.w3.org/2000/svg">
<circle cx="22" cy="22" r="22" fill="#D7FFCB"/>
<circle cx="22" cy="22" r="15" fill="#0D968F"/>
<g clip-path="url(#clip0_420_10031)">
<path d="M29.6801 25.6582L24.0747 15.949C23.1591 14.3451 20.8438 14.3451 19.9315 15.949L14.3227 25.6582C13.4072 27.2621 14.5467 29.2546 16.3943 29.2546H27.5888C29.4364 29.2546 30.5957 27.2423 29.6801 25.6582ZM21.9998 27.1007C21.5124 27.1007 21.1073 26.6956 21.1073 26.2082C21.1073 25.7207 21.5124 25.3156 21.9998 25.3156C22.4872 25.3156 22.8923 25.7207 22.8726 26.2312C22.8956 26.6956 22.4675 27.1007 21.9998 27.1007ZM22.8133 21.3305C22.7738 22.0222 22.7309 22.7105 22.6914 23.4021C22.6717 23.6261 22.6717 23.8303 22.6717 24.0509C22.6519 24.4165 22.3654 24.6998 21.9998 24.6998C21.6342 24.6998 21.351 24.4363 21.3279 24.0707C21.2686 22.9937 21.2061 21.9365 21.1468 20.8596C21.127 20.5763 21.1073 20.2898 21.0842 20.0066C21.0842 19.5389 21.3477 19.1536 21.7758 19.0317C22.204 18.9296 22.6288 19.1338 22.8133 19.5389C22.8759 19.6805 22.8956 19.8221 22.8956 19.9868C22.8759 20.438 22.833 20.8859 22.8133 21.3305Z" fill="white"/>
</g>
<defs>
<clipPath id="clip0_420_10031">
<rect width="16" height="16" fill="white" transform="translate(14 14)"/>
</clipPath>
</defs>
</svg>
