<svg width="44" height="44" viewBox="0 0 44 44" fill="none" xmlns="http://www.w3.org/2000/svg">
<circle cx="22" cy="22" r="22" fill="#D7FFCB"/>
<circle cx="22" cy="22" r="15" fill="#0D968F"/>
<path fill-rule="evenodd" clip-rule="evenodd" d="M18.6586 22.321C21.2308 22.321 23.3172 20.2347 23.3172 17.6624C23.3172 15.0902 21.2308 13 18.6586 13C16.0863 13 14 15.0863 14 17.6586C14 20.2308 16.0863 22.321 18.6586 22.321ZM29.1098 22.7103H28.566C28.2073 21.6112 27.5055 20.6355 26.5684 19.8796C26.5684 19.8449 26.5606 19.8064 26.5529 19.7717C26.3563 19.0814 26.5992 18.4528 26.8807 18.0016C27.0774 17.6853 26.8229 17.2804 26.4527 17.3267C25.6235 17.4308 25.0528 17.7355 24.6594 18.0787C24.3895 18.3139 24.1966 18.6302 24.1118 18.9811C23.5179 21.4415 21.3005 23.2733 18.6588 23.2733C17.3746 23.2733 16.1945 22.8414 15.2497 22.1164C14.9219 22.826 14.7445 23.6011 14.7445 24.4148C14.7445 24.8545 14.7985 25.2825 14.8988 25.6952C14.8988 25.6952 14.8988 25.7029 14.9026 25.7144C15.0067 26.1425 15.1649 26.5551 15.3654 26.9446C15.6315 27.5193 16.0171 28.1903 16.5493 28.734C17.3168 29.5246 17.4479 30.5041 17.4672 30.9284V31.1096V31.1327V31.1366C17.4826 31.3448 17.6561 31.5107 17.8682 31.5107H20.3055C20.5253 31.5107 20.7066 31.3333 20.7066 31.1096V30.508C21.0614 30.5543 21.4239 30.5813 21.7902 30.5813C22.0795 30.5813 22.361 30.5658 22.6425 30.535V31.1096C22.6425 31.3294 22.8199 31.5107 23.0436 31.5107H25.4886C25.7084 31.5107 25.8896 31.3333 25.8896 31.1096V30.508C25.8935 30.3075 25.9629 29.5092 26.7188 28.8266L26.7997 28.7572C26.8036 28.7533 26.8075 28.7504 26.8113 28.7475C26.8152 28.7446 26.819 28.7417 26.8229 28.7379C27.6636 27.9897 28.2845 27.0565 28.6046 26.0152H29.1175C29.5263 26.0152 29.8579 25.6836 29.8579 25.2748V23.4507C29.8502 23.0419 29.5185 22.7103 29.1098 22.7103ZM26.0593 22.8414C25.7238 22.8414 25.4538 22.5714 25.4538 22.2359C25.4538 21.9004 25.7238 21.6305 26.0593 21.6305C26.3948 21.6305 26.6648 21.9004 26.6648 22.2359C26.6648 22.5714 26.3948 22.8414 26.0593 22.8414Z" fill="white"/>
</svg>
