<svg width="44" height="44" viewBox="0 0 44 44" fill="none" xmlns="http://www.w3.org/2000/svg">
<circle cx="22" cy="22" r="22" fill="#1A460D"/>
<circle cx="22" cy="22" r="15" fill="#0D968F"/>
<path d="M22.1686 19.2318C23.8895 19.2318 25.2845 17.8368 25.2845 16.1159C25.2845 14.395 23.8895 13 22.1686 13C20.4478 13 19.0527 14.395 19.0527 16.1159C19.0527 17.8368 20.4478 19.2318 22.1686 19.2318Z" fill="white"/>
<path d="M28.472 19.2319C29.5599 19.2319 30.4418 18.35 30.4418 17.2621C30.4418 16.1742 29.5599 15.2922 28.472 15.2922C27.3841 15.2922 26.5022 16.1742 26.5022 17.2621C26.5022 18.35 27.3841 19.2319 28.472 19.2319Z" fill="white"/>
<path d="M15.8651 19.2319C16.953 19.2319 17.8349 18.35 17.8349 17.2621C17.8349 16.1742 16.953 15.2922 15.8651 15.2922C14.7772 15.2922 13.8953 16.1742 13.8953 17.2621C13.8953 18.35 14.7772 19.2319 15.8651 19.2319Z" fill="white"/>
<path d="M17.806 21.0007C17.0306 20.3654 16.3284 20.4495 15.4318 20.4495C14.0909 20.4495 13 21.534 13 22.8666V26.778C13 27.3567 13.4724 27.8274 14.0533 27.8274C16.5613 27.8274 16.2592 27.8727 16.2592 27.7192C16.2592 24.9476 15.9309 22.9151 17.806 21.0007Z" fill="white"/>
<path d="M23.0214 20.4641C21.4554 20.3335 20.0943 20.4656 18.9202 21.4347C16.9556 23.0084 17.3336 25.1273 17.3336 27.7195C17.3336 28.4053 17.8916 28.9738 18.5879 28.9738C26.1478 28.9738 26.4486 29.2176 26.8969 28.2249C27.044 27.8891 27.0037 27.9958 27.0037 24.7841C27.0037 22.2332 24.7949 20.4641 23.0214 20.4641Z" fill="white"/>
<path d="M28.9052 20.4496C28.0037 20.4496 27.3054 20.3664 26.531 21.0008C28.3921 22.901 28.0779 24.7949 28.0779 27.7193C28.0779 27.8739 27.827 27.8275 30.2461 27.8275C30.8478 27.8275 31.337 27.3401 31.337 26.7409V22.8668C31.337 21.5341 30.2461 20.4496 28.9052 20.4496Z" fill="white"/>
</svg>
