<svg width="34" height="34" viewBox="0 0 34 34" fill="none" xmlns="http://www.w3.org/2000/svg">
<circle cx="17" cy="17" r="17" fill="white" fill-opacity="0.5"/>
<circle cx="17.0002" cy="16.9999" r="12.641" fill="white"/>
<path d="M17.0199 15.6517C18.3326 15.6517 19.3968 14.5875 19.3968 13.2748C19.3968 11.9621 18.3326 10.8979 17.0199 10.8979C15.7072 10.8979 14.6431 11.9621 14.6431 13.2748C14.6431 14.5875 15.7072 15.6517 17.0199 15.6517Z" fill="#0D968F"/>
<path d="M21.8283 15.6517C22.6582 15.6517 23.3309 14.979 23.3309 14.1491C23.3309 13.3192 22.6582 12.6465 21.8283 12.6465C20.9984 12.6465 20.3257 13.3192 20.3257 14.1491C20.3257 14.979 20.9984 15.6517 21.8283 15.6517Z" fill="#0D968F"/>
<path d="M12.2114 15.6517C13.0412 15.6517 13.714 14.979 13.714 14.1491C13.714 13.3192 13.0412 12.6465 12.2114 12.6465C11.3815 12.6465 10.7087 13.3192 10.7087 14.1491C10.7087 14.979 11.3815 15.6517 12.2114 15.6517Z" fill="#0D968F"/>
<path d="M13.692 17.0014C13.1005 16.5168 12.5648 16.5809 11.8809 16.5809C10.8581 16.5809 10.0259 17.4082 10.0259 18.4248V21.4084C10.0259 21.8499 10.3862 22.2089 10.8294 22.2089C12.7425 22.2089 12.512 22.2435 12.512 22.1264C12.512 20.0122 12.2616 18.4617 13.692 17.0014Z" fill="#0D968F"/>
<path d="M17.6703 16.5918C16.4758 16.4922 15.4375 16.593 14.5419 17.3322C13.0432 18.5326 13.3316 20.149 13.3316 22.1263C13.3316 22.6495 13.7573 23.0831 14.2884 23.0831C20.0552 23.0831 20.2847 23.2691 20.6267 22.5118C20.7388 22.2557 20.7081 22.3371 20.7081 19.8872C20.7081 17.9413 19.0231 16.5918 17.6703 16.5918Z" fill="#0D968F"/>
<path d="M22.1587 16.5809C21.4711 16.5809 20.9383 16.5174 20.3477 17.0013C21.7674 18.4508 21.5276 19.8955 21.5276 22.1263C21.5276 22.2442 21.3363 22.2088 23.1816 22.2088C23.6406 22.2088 24.0138 21.837 24.0138 21.3799V18.4247C24.0138 17.4081 23.1816 16.5809 22.1587 16.5809Z" fill="#0D968F"/>
</svg>
