<svg width="19" height="16" viewBox="0 0 19 16" fill="none" xmlns="http://www.w3.org/2000/svg">
<path d="M9.16863 6.23179C10.8895 6.23179 12.2845 4.83676 12.2845 3.1159C12.2845 1.39503 10.8895 0 9.16863 0C7.44777 0 6.05273 1.39503 6.05273 3.1159C6.05273 4.83676 7.44777 6.23179 9.16863 6.23179Z" fill="white"/>
<path d="M15.4718 6.23187C16.5597 6.23187 17.4416 5.34996 17.4416 4.26206C17.4416 3.17415 16.5597 2.29224 15.4718 2.29224C14.3839 2.29224 13.502 3.17415 13.502 4.26206C13.502 5.34996 14.3839 6.23187 15.4718 6.23187Z" fill="white"/>
<path d="M2.86533 6.23187C3.95323 6.23187 4.83515 5.34996 4.83515 4.26206C4.83515 3.17415 3.95323 2.29224 2.86533 2.29224C1.77743 2.29224 0.895508 3.17415 0.895508 4.26206C0.895508 5.34996 1.77743 6.23187 2.86533 6.23187Z" fill="white"/>
<path d="M4.806 8.00068C4.03061 7.36539 3.32838 7.44949 2.43183 7.44949C1.09092 7.44949 0 8.53396 0 9.86663V13.778C0 14.3567 0.472398 14.8274 1.05332 14.8274C3.56129 14.8274 3.25915 14.8727 3.25915 14.7192C3.25915 11.9476 2.93088 9.91509 4.806 8.00068Z" fill="white"/>
<path d="M10.0217 7.46414C8.45568 7.33352 7.09454 7.46564 5.92049 8.43472C3.95579 10.0084 4.33389 12.1273 4.33389 14.7195C4.33389 15.4053 4.89189 15.9738 5.58813 15.9738C13.148 15.9738 13.4489 16.2176 13.8972 15.2249C14.0442 14.8891 14.0039 14.9958 14.0039 11.7841C14.0039 9.23318 11.7951 7.46414 10.0217 7.46414Z" fill="white"/>
<path d="M15.9054 7.44964C15.004 7.44964 14.3056 7.36641 13.5312 8.00083C15.3924 9.90103 15.0781 11.7949 15.0781 14.7193C15.0781 14.8739 14.8273 14.8275 17.2463 14.8275C17.848 14.8275 18.3372 14.3401 18.3372 13.7409V9.86679C18.3372 8.53412 17.2463 7.44964 15.9054 7.44964Z" fill="white"/>
</svg>
