<svg width="158" height="182" viewBox="0 0 158 182" fill="none" xmlns="http://www.w3.org/2000/svg">
<mask id="mask0_70_399" style="mask-type:alpha" maskUnits="userSpaceOnUse" x="0" y="0" width="158" height="182">
<rect width="158" height="182" rx="8" fill="#0D968F"/>
</mask>
<g mask="url(#mask0_70_399)">
<path d="M89.601 8.02934C88.9993 7.91061 88.3976 7.79188 87.9406 7.68765C82.4473 6.23141 77.1943 4.12722 71.4293 1.59188C70.6743 1.25326 69.8586 0.937775 69.0805 0.538399C64.3829 -1.56857 59.5407 -3.69004 54.539 -4.22045C52.5979 -4.38574 51.2903 -4.16615 50.6161 -3.56168C50.321 -3.24063 50.1705 -2.90509 50.2485 -2.51743C50.2572 -2.31203 50.3034 -2.19052 50.3728 -2.00825C50.6504 -1.27919 51.4081 -0.38514 52.4928 0.454014C54.6852 2.19308 57.1959 3.67185 59.6228 5.113C61.607 6.30527 63.6752 7.53516 65.5003 8.85757C73.0756 14.3209 78.123 17.8946 87.9706 16.7192C90.039 16.4882 94.3844 15.1121 95.6519 12.96C96.0744 12.2427 96.1237 11.4587 95.823 10.6689C94.9931 9.03716 91.84 8.42902 89.601 8.02934ZM95.6957 11.0652C95.9501 11.7335 95.8545 12.396 95.4696 13.0294C94.179 15.1207 89.9551 16.4506 87.9474 16.6584C78.1606 17.8107 73.1971 14.2746 65.6218 8.81131C63.7128 7.45127 61.7054 6.19825 59.7443 5.06673C57.3174 3.62559 54.8675 2.12369 52.6143 0.407754C51.2548 -0.605029 50.4885 -1.70448 50.4163 -2.44218C50.4221 -2.79221 50.5119 -3.10463 50.7694 -3.34179C51.3828 -3.92313 52.6904 -4.14272 54.5708 -3.9543C59.4885 -3.46151 64.3539 -1.27929 69.0284 0.766925C69.8441 1.08241 70.6222 1.48179 71.3772 1.82041C77.119 4.29499 82.3952 6.45993 87.8885 7.91617C88.3455 8.02041 88.9472 8.13914 89.5489 8.25787C91.7879 8.65754 94.8571 9.22807 95.5887 10.9668C95.6494 10.9437 95.6725 11.0045 95.6957 11.0652Z" fill="white" fill-opacity="0.3"/>
<path d="M101.074 7.83499C99.3879 5.4162 94.8028 4.51847 91.1696 3.74534C89.8823 3.47025 88.6789 3.23279 87.7417 2.96356C82.6968 1.40616 77.8777 -0.654545 73.2264 -2.64001C71.9912 -3.14362 70.6028 -3.86712 69.1305 -4.62825C64.6759 -6.82774 59.1915 -9.53948 55.1213 -9.45063C51.6672 -9.38769 49.0661 -7.63225 46.5634 -5.98382C44.5005 -4.64195 42.3393 -3.19306 39.6864 -2.66999C38.075 -2.33475 36.2092 -2.66781 34.2594 -3.03849C31.9365 -3.47579 29.5298 -3.95072 27.3802 -3.2019C26.6512 -2.92434 26.006 -2.60914 25.3695 -2.08856C23.4222 -0.44291 22.7132 0.800882 23.0833 1.77296C23.4534 2.74504 24.9026 3.44542 27.9949 4.07669C30.9426 4.69348 33.9687 4.23702 36.8501 3.76607C39.7546 3.35588 42.7575 2.83866 45.7891 3.49307C51.5167 4.65139 56.8244 8.54339 61.5738 11.8827C61.9556 12.1547 62.3605 12.4875 62.7423 12.7595C70.5924 18.3964 76.8083 22.8469 88.4351 21.4116C91.5074 21.0766 98.6071 18.1649 101.142 13.8609C102.479 11.8911 102.453 9.814 101.074 7.83499ZM100.974 13.7856C98.6651 17.5864 91.9472 20.7701 88.4872 21.183C76.982 22.5722 70.85 18.1593 63.023 12.5831C62.6412 12.3111 62.2594 12.0391 61.8544 11.7063C57.1427 8.2831 51.7743 4.41423 45.9627 3.21828C42.9311 2.56388 39.8443 3.04346 36.9022 3.53754C34.0208 4.00849 31.0555 4.44182 28.1078 3.82504C26.0134 3.43986 23.8265 2.81166 23.4102 1.71807C23.0864 0.867496 23.8416 -0.254787 25.6066 -1.83104C26.1824 -2.3285 26.7437 -2.68132 27.4959 -2.89813C29.5239 -3.60068 31.9307 -3.12576 34.2304 -2.74921C36.1802 -2.37853 38.0691 -1.98471 39.7413 -2.34309C42.3942 -2.86616 44.5554 -4.31504 46.6791 -5.68005C49.3033 -7.37473 51.7452 -9.00003 55.1154 -9.1006C59.1249 -9.16631 64.6093 -6.45457 68.98 -4.2927C70.4523 -3.53158 71.9015 -2.8312 73.1366 -2.32759C77.788 -0.342131 82.6071 1.71858 87.6519 3.27597C88.5891 3.5452 89.7925 3.78266 91.0798 4.05775C94.69 4.77013 99.2142 5.69099 100.793 8.0114C101.1 8.45118 101.322 8.85333 101.484 9.27861C102.04 10.7367 101.857 12.267 100.974 13.7856Z" fill="white" fill-opacity="0.3"/>
<path d="M115.322 5.61066C116.832 3.36611 116.65 1.97459 116.408 0.606217C116.243 -0.374501 116.116 -1.4391 116.489 -2.83339L116.588 -2.94041C118.871 -7.35736 126.216 -22.0488 124.875 -25.5726C124.713 -25.9978 124.476 -26.2554 124.079 -26.3827C123.287 -26.6375 122.095 -26.1141 120.336 -24.8879C119.297 -24.1446 118.851 -20.5662 118.39 -16.8432C117.987 -13.6987 117.547 -10.4704 116.861 -9.16582C116.19 -8.00591 115.269 -6.40345 114.76 -6.27916C114.639 -6.2329 114.509 -6.39203 114.294 -6.58879C113.843 -7.04306 113.117 -7.67097 111.335 -6.5055C110.114 -5.69285 109.139 -4.41729 108.187 -3.08098C107.249 -1.88931 106.433 -0.743897 105.432 -0.0845266C102.756 1.83869 95.4145 -1.00072 90.5432 -2.8329C88.9118 -3.46388 87.532 -3.98199 86.534 -4.22808C82.4726 -5.39474 78.5069 -7.22385 74.625 -9.01533C67.0522 -12.4623 59.2277 -16.0221 50.6877 -15.0663C37.9501 -13.6254 27.3904 -10.3007 19.4571 -5.19353C15.2098 -2.46353 10.1027 3.30671 11.3518 6.58748C12.1151 8.5924 15.1236 9.18606 20.247 8.20931C39.9656 4.45839 49.6409 11.4177 58.9951 18.0819C67.3109 24.0285 75.161 29.6654 89.267 27.9817C94.59 27.3464 101.407 22.5948 104.613 18.5917C106.019 16.8042 106.604 15.0512 107.067 13.3445C107.539 11.8432 107.912 10.4489 108.925 9.08949C109.666 8.11185 110.806 7.81701 112.006 7.49904C113.244 7.09718 114.567 6.73295 115.322 5.61066ZM108.604 8.79435C107.554 10.2377 107.119 11.6551 106.671 13.2172C106.184 14.8631 105.66 16.5929 104.292 18.2966C101.123 22.2158 94.4888 26.898 89.2266 27.5102C75.2421 29.1476 67.499 23.609 59.2671 17.7001C49.8059 10.9375 40.0467 3.94058 20.0996 7.63939C15.2799 8.50048 12.4016 8.06596 11.7308 6.30406C10.6899 3.57009 15.1663 -2.0296 19.6943 -4.93602C27.5668 -10.0201 38.005 -13.2985 50.6819 -14.7163C59.1003 -15.6258 66.8409 -12.1036 74.3906 -8.71741C78.2725 -6.92593 82.3221 -5.0592 86.3835 -3.89254C87.3815 -3.64645 88.7844 -3.06758 90.332 -2.47423C95.6226 -0.453923 102.773 2.24948 105.693 0.233742C106.731 -0.509514 107.608 -1.67805 108.546 -2.86973C109.46 -4.12216 110.496 -5.42084 111.595 -6.18723C113.036 -7.15316 113.548 -6.72202 113.999 -6.26774C114.237 -6.01023 114.511 -5.8366 114.838 -5.8915C115.31 -5.9319 115.923 -6.51324 117.28 -8.97769C118.065 -10.3893 118.482 -13.6784 118.885 -16.8228C119.302 -20.112 119.8 -23.9189 120.68 -24.532C122.636 -25.9722 123.556 -26.1138 124.036 -25.9488C124.264 -25.8967 124.418 -25.6768 124.51 -25.4338C125.528 -22.7606 120.932 -12.1765 116.229 -3.15166C116.191 -3.06778 116.154 -2.98389 116.154 -2.98389C115.705 -1.42183 115.916 -0.319601 116.02 0.684245C116.202 2.07576 116.398 3.32262 114.963 5.39941C114.306 6.41468 113.106 6.73265 111.905 7.05062C110.704 7.36859 109.443 7.70969 108.604 8.79435Z" fill="white" fill-opacity="0.3"/>
<path d="M84.4449 11.6615C84.0979 10.7502 82.6805 10.316 81.6363 9.94836C81.4077 9.89624 81.24 9.82099 81.0722 9.74574C80.1726 9.39263 79.2353 9.1234 78.275 8.79342C77.7109 8.5908 77.0861 8.41132 76.522 8.2087L76.4381 8.17107C74.5174 7.51111 73.421 7.37203 73.0044 7.73934C72.906 7.84635 72.77 8.03725 72.8249 8.36416C72.848 8.42491 72.8712 8.48567 72.8712 8.48567C73.8571 10.8927 76.7845 12.0042 78.4912 12.4674C80.114 12.893 81.7051 13.0524 82.868 12.8183C83.1342 12.7866 84.0918 12.5611 84.4014 12.0954C84.4853 12.1331 84.5374 11.9045 84.4449 11.6615ZM82.8218 12.6968C81.6964 12.847 80.1285 12.7484 78.5664 12.2996C76.9436 11.8741 74.1002 10.8002 73.1604 8.51466L72.9782 8.58405L73.0997 8.53779C73.0766 8.47703 73.0766 8.47703 73.0534 8.41628C72.9609 8.17326 73.0824 8.127 73.0824 8.127C73.2416 7.99685 73.7883 7.78867 76.1893 8.61363L76.2731 8.65126C76.8372 8.85388 77.462 9.03336 78.0261 9.23597C78.9026 9.52833 79.863 9.85832 80.8233 10.1883C80.9911 10.2635 81.2196 10.3157 81.4481 10.3678C82.3854 10.637 83.742 11.0944 84.0427 11.8842C84.089 12.0057 84.0745 12.1503 84.0369 12.2342C83.9009 12.4251 83.2933 12.6564 82.8218 12.6968Z" fill="white" fill-opacity="0.3"/>
<path d="M47.3033 99.1892C51.291 106.923 63.9318 111.988 71.8762 109.102C84.0966 104.658 91.0966 93.9939 97.8854 83.688C99.0256 81.9322 100.226 80.1534 101.427 78.3745L102.145 77.3361C105.499 72.442 109.359 66.8683 114.486 63.5251C118.855 60.7489 129.334 55.0202 133.786 55.2034C137.043 55.3545 139.918 58.1554 142.77 60.8955C144.743 62.7878 146.547 64.6049 148.523 65.5918L148.607 65.6294C155.335 69.0502 155.335 69.0502 156.798 72.5277C157.275 73.5982 157.784 74.9348 158.683 76.7488C159.898 79.208 160.818 80.5273 161.477 81.5284C161.914 82.1273 162.243 82.6279 162.405 83.0531C162.822 84.1467 162.379 85.3588 160.984 89.368C156.813 101.251 143.559 106.088 130.731 110.763C114.623 116.688 97.8832 122.782 99.5743 142.937C99.8399 145.827 100.386 148.541 101.311 150.971C103.902 157.776 109.16 162.452 116.528 164.446C127.309 167.367 141.178 163.965 151.007 155.98C173.627 137.56 180.619 111.526 186.341 84.166C191.55 59.297 187.834 38.9391 183.967 21.8386C183.71 20.6148 183.331 19.4373 182.938 18.4045C180.416 11.7822 175.895 9.95587 170.139 7.62594C167.92 6.73158 165.678 5.77648 163.176 4.5031C160.376 2.99535 157.953 0.648727 155.575 -1.57638C151.737 -5.26268 148.136 -8.69147 143.03 -8.76483C132.141 -8.86252 128.26 3.04954 124.835 13.6049C123.269 18.4444 121.755 23.0553 119.686 26.2081C111.569 38.6892 91.6045 43.4381 78.1505 40.0739C73.93 39.0374 68.1101 36.1751 62.0154 33.1393C51.8249 28.1152 40.3297 22.4052 32.8023 23.4624C29.3047 23.9593 27.1261 24.9974 26.1075 26.7069C25.3001 28.0577 25.3171 29.9294 26.196 32.2381C27.6533 36.0656 31.3147 40.9322 35.1525 46.0794C39.9244 52.4013 45.2863 59.542 47.877 66.3466C49.126 69.6273 49.6577 72.4856 49.4431 75.2106C49.2226 78.2857 48.3773 81.1813 47.5089 84.0162C46.0788 88.6647 44.7385 93.0009 46.5427 97.7398C46.7885 98.2027 47.0575 98.7263 47.3033 99.1892ZM49.8539 75.1934C50.0078 72.4915 49.4905 69.4886 48.2415 66.2078C45.6277 59.3425 40.2427 52.141 35.4707 45.8191C31.6329 40.6719 27.9715 35.8053 26.5374 32.0385C25.6816 29.7906 25.6733 28.1243 26.4199 26.7966C27.3402 25.1941 29.4811 24.2399 32.834 23.7286C40.2169 22.6568 51.712 28.3668 61.8187 33.3533C67.9741 36.366 73.8171 39.289 78.0376 40.3255C91.6363 43.7043 111.699 38.8484 119.938 26.321C122.007 23.1682 123.521 18.5573 125.125 13.6339C128.534 3.22317 132.379 -8.60501 143.001 -8.47555C147.963 -8.41668 151.563 -4.98789 155.318 -1.33921C157.718 0.94665 160.142 3.29326 163.003 4.77789C165.444 6.0744 167.747 7.00637 169.965 7.90072C175.638 10.193 180.098 12.0425 182.573 18.5433C182.966 19.5761 183.322 20.6928 183.579 21.9166C187.446 39.0171 191.162 59.3751 185.968 84.0994C180.283 111.375 173.269 137.349 150.686 155.685C140.956 163.563 127.231 166.98 116.534 164.096C109.25 162.139 104.099 157.562 101.531 150.818C100.629 148.448 100.022 145.758 99.8405 142.905C99.0728 133.946 101.953 127.076 108.561 121.778C114.472 117.023 122.781 113.999 130.847 111.067C143.736 106.369 157.087 101.425 161.296 89.4577C163.299 83.7563 163.314 83.6116 161.758 81.352C161.098 80.3509 160.179 79.0316 158.964 76.5724C158.065 74.7584 157.495 73.4449 157.102 72.4121C155.593 68.813 155.593 68.813 148.757 65.2939L148.674 65.2563C146.759 64.2463 144.916 62.5131 143.028 60.6583C140.153 57.8574 137.194 55.0189 133.853 54.8302C129.317 54.6094 118.777 60.3612 114.37 63.2214C109.16 66.5269 105.322 72.1614 101.969 77.0555L101.251 78.0938C100.027 79.812 98.8492 81.6516 97.709 83.4073C90.9202 93.7133 83.9578 104.294 71.8589 108.692C64.036 111.531 51.6237 106.518 47.7054 98.9666C47.4596 98.5037 47.2514 97.9569 47.0664 97.4708C45.2853 92.7927 46.6487 88.5173 48.0412 83.9526C48.7505 81.2479 49.6565 78.3292 49.8539 75.1934Z" fill="white" fill-opacity="0.3"/>
<path d="M12.1442 107.15C9.25722 106.51 5.60081 105.676 3.91108 107.085C3.21379 107.628 2.88381 108.589 2.85175 109.784C2.86038 109.989 2.89213 110.255 2.98466 110.498C3.88675 112.868 8.94302 115.186 13.3514 117.264C16.1427 118.566 18.8502 119.831 19.8364 120.777C24.5393 125.456 28.7382 132.831 32.4456 139.28C33.9118 141.852 35.3085 144.241 36.6359 146.449C39.7274 151.463 42.2634 156.48 44.1138 161.34C50.1972 177.319 49.5604 193.004 42.1777 207.779C41.3413 209.419 41.3438 211.435 42.1765 213.623C44.7903 220.488 55.9375 229.669 71.4397 233.297C80.7485 235.457 98.6059 236.867 113.927 222.478C120.084 216.725 121.774 210.934 119.276 204.372C117.38 199.391 113.383 194.373 108.735 188.561C103.023 181.414 96.5534 173.374 92.7831 163.471C89.8455 155.755 88.9243 148.036 89.9558 139.783C93.2068 114.338 113.511 105.912 130.852 101.397C137.63 99.6513 142.294 96.554 144.404 92.4118C145.865 89.4903 146.039 86.2937 144.813 83.0737C142.5 76.9982 134.847 71.1473 124.754 71.8597C115.253 72.4855 109.813 81.5825 103.588 92.0911C96.6168 103.927 88.6644 117.389 72.6833 121.456C64.7651 123.497 56.4105 123.478 50.4198 121.446C45.8696 119.909 44.5336 117.496 43.2352 114.999C42.2057 113.026 41.1763 111.053 38.6483 109.163C36.7161 107.742 34.4799 107.898 32.0614 108.123C30.4414 108.253 28.6998 108.429 27.077 108.004C26.2237 107.772 25.7176 106.991 25.226 106.065C24.5811 104.919 23.8292 103.675 21.972 103.548C20.6934 103.478 19.672 104.632 18.6882 105.702C17.8635 106.642 16.9781 107.605 16.0581 107.747C15.1989 107.865 13.8277 107.553 12.1442 107.15ZM18.9022 105.899C19.886 104.829 20.809 103.782 21.8823 103.86C23.5341 103.996 24.179 105.142 24.8615 106.204C25.4138 107.106 25.9054 108.032 26.9642 108.255C28.6709 108.718 30.3517 108.565 32.0324 108.413C34.3294 108.234 36.5425 108.017 38.3908 109.4C40.8349 111.252 41.8643 113.225 42.8707 115.138C44.2761 117.733 45.5745 120.23 50.2693 121.781C56.4046 123.828 64.7593 123.847 72.7382 121.783C88.8408 117.67 96.9147 104.162 104.008 92.2792C110.195 81.8545 115.597 72.8414 124.892 72.2243C134.78 71.5204 142.304 77.2122 144.57 83.1662C145.75 86.2647 145.637 89.4382 144.19 92.2151C142.094 96.2126 137.491 99.2868 130.834 100.986C113.372 105.548 92.8858 114.043 89.6434 139.693C88.5742 148.03 89.5186 155.81 92.4793 163.586C96.2727 173.55 102.766 181.651 108.478 188.798C113.102 194.55 117.099 199.567 118.973 204.488C121.448 210.989 119.824 216.407 113.727 222.136C98.5655 236.395 80.8528 235 71.6278 232.878C56.7736 229.49 45.2156 220.326 42.6018 213.461C41.7922 211.334 41.7984 209.523 42.574 207.906C49.9712 192.986 50.6687 177.278 44.516 161.117C42.6424 156.196 40.1064 151.18 36.9918 146.105C35.6037 143.92 34.2677 141.507 32.8015 138.935C29.071 132.426 24.8721 125.051 20.0853 120.335C19.0759 119.328 16.4523 118.1 13.4932 116.723C9.10802 114.706 4.13563 112.425 3.2798 110.177C3.21041 109.995 3.14102 109.813 3.13239 109.607C3.12682 108.496 3.38156 107.704 4.01811 107.183C5.60945 105.882 9.12122 106.701 11.9243 107.303C13.6079 107.706 15.0398 107.995 15.899 107.877C17.1545 107.886 18.0168 106.862 18.9022 105.899Z" fill="white" fill-opacity="0.3"/>
<path d="M58.1971 144.431C58.1682 144.72 58.223 145.047 58.3156 145.29C58.7319 146.383 60.158 147.023 61.5002 147.625C62.2551 147.964 62.9262 148.265 63.3311 148.597C63.7823 149.052 64.0889 149.491 64.2971 150.038C64.6671 151.01 64.4818 151.985 64.3659 153.142C64.3224 153.576 64.2558 153.949 64.2354 154.444C64.1571 155.517 64.261 156.521 64.608 157.432C64.955 158.344 65.461 159.125 66.051 159.944C66.641 160.763 67.2541 161.642 67.6936 162.796L67.7399 162.918C68.6188 165.227 68.2133 167.816 67.8222 170.26C67.4312 172.705 67.0257 175.294 67.9046 177.602C68.321 178.696 68.9572 179.636 69.9204 180.522C70.6695 181.21 71.4707 181.67 72.1649 182.032C73.3248 182.704 74.2938 183.239 74.8259 184.636C74.9878 185.062 75.0889 185.51 75.1525 186.042C75.7215 190.278 72.7846 193.343 69.9692 196.363C68.6295 197.777 67.2898 199.192 66.3464 200.733C64.4365 203.756 63.9354 207.008 64.9763 209.741L65.0225 209.863C66.1242 212.574 68.6377 214.608 72.0973 215.656C76.7835 217.002 90.6113 217.511 95.7181 213.202C97.2487 211.924 97.8797 210.292 97.6573 208.429C97.6083 207.752 97.4609 207.182 97.2527 206.635C96.5819 204.873 95.2832 203.838 93.7936 202.666C93.4726 202.37 93.0908 202.098 92.7697 201.803C89.8282 199.376 88.284 196.416 86.6704 193.274C86.0632 192.044 85.372 190.777 84.6201 189.533C83.7381 188.13 82.7432 186.978 81.7714 185.887C80.4554 184.441 79.2233 183.032 78.5526 181.27C78.0899 180.055 77.9542 178.785 78.0992 177.338C78.3659 174.385 78.4794 171.211 77.3229 168.173C76.9528 167.201 76.438 166.215 75.8249 165.335C75.5184 164.895 75.235 164.516 74.9515 164.137C73.8555 162.537 72.8056 161.059 72.1811 159.419C71.6722 158.082 71.4903 156.69 71.5513 155.206L71.5862 154.567C71.7401 151.865 71.9923 149.056 71.0671 146.626C70.5582 145.289 69.7918 144.19 68.6609 143.229C67.2321 142.034 62.9218 141.31 60.454 142.319C59.0249 142.585 58.3594 143.395 58.1971 144.431ZM68.2125 143.33C69.3203 144.23 70.0867 145.33 70.5724 146.606C71.4745 148.975 71.2599 151.7 71.106 154.402L71.0712 155.041C70.9493 156.549 71.1544 158.001 71.6864 159.398C72.3341 161.099 73.407 162.639 74.5031 164.239C74.7865 164.618 75.0931 165.057 75.3765 165.436C75.9896 166.316 76.4812 167.242 76.8513 168.214C77.9847 171.191 77.8481 174.304 77.6421 177.234C77.5203 178.741 77.6792 180.072 78.1418 181.287C78.8357 183.11 80.0678 184.519 81.4676 186.003C82.4394 187.094 83.4951 188.222 84.2932 189.588C85.0451 190.832 85.7362 192.099 86.3435 193.329C87.9571 196.471 89.5244 199.491 92.5498 201.957C92.9316 202.229 93.2527 202.524 93.5737 202.819C95.0633 203.991 96.2781 204.989 96.9258 206.69C97.134 207.237 97.2583 207.746 97.3073 208.423C97.5065 210.225 96.8901 211.712 95.4578 212.884C90.4118 217.17 76.7894 216.652 72.1032 215.306C68.7274 214.296 66.2978 212.299 65.2424 209.71L65.1962 209.588C64.2016 206.976 64.6882 203.869 66.5374 200.869C67.5039 199.388 68.7828 197.997 70.1832 196.56C73.0594 193.517 76.0339 190.367 75.4794 185.987C75.4158 185.455 75.2915 184.946 75.1296 184.521C74.5745 183.062 73.5216 182.489 72.3386 181.757C71.6212 181.335 70.9039 180.912 70.1779 180.284C69.2379 179.46 68.6016 178.519 68.2084 177.487C67.3757 175.299 67.706 172.878 68.1347 170.35C68.5026 167.845 68.885 165.195 67.9829 162.825L67.9366 162.704C67.4971 161.55 66.8609 160.609 66.2709 159.791C65.6809 158.972 65.198 158.251 64.851 157.34C64.5041 156.429 64.3856 155.569 64.4871 154.557C64.5306 154.123 64.574 153.689 64.6406 153.316C64.8174 152.136 64.9796 151.1 64.5864 150.067C64.3782 149.52 64.0485 149.02 63.5134 148.528C63.0853 148.134 62.4142 147.833 61.5754 147.457C60.3171 146.893 58.975 146.291 58.6049 145.319C58.5123 145.076 58.5037 144.87 58.5327 144.581C58.6804 143.69 59.2476 142.987 60.3411 142.571C62.8466 141.478 66.9977 142.332 68.2125 143.33Z" fill="white" fill-opacity="0.3"/>
<path d="M21.808 113.348C21.8253 113.758 22.0421 114.511 22.3659 115.361C23.0599 117.184 25.9774 123.934 33.5722 133.285C39.9494 141.082 45.5074 150.931 49.3471 161.016C55.6386 177.542 57.3343 189.487 49.1754 208.801C48.5965 210.204 48.6194 211.725 49.2439 213.366C51.5801 219.502 61.8021 226.253 72.566 228.763C80.9607 230.715 97.0448 232.034 110.82 219.069C116.697 213.492 116.304 209.538 114.963 206.014C113.321 201.7 109.5 196.964 105.113 191.469C99.1635 184.065 92.4942 175.683 88.4695 165.112C85.2544 156.667 84.2609 148.211 85.4026 139.151C89.0187 110.645 112.476 101.367 129.756 96.8745C135.128 95.4552 138.898 93.1157 140.383 90.2549C141.257 88.5309 141.361 86.613 140.621 84.6688C138.91 80.1729 133.052 75.9337 125.233 76.4065C118.113 76.8911 113.33 84.9728 107.739 94.4053C100.608 106.372 91.6896 121.314 73.8772 125.87C68.8086 127.174 63.6216 127.618 58.6054 127.232C50.575 126.603 43.2072 124.608 36.6237 121.202C32.2907 118.956 28.8689 116.363 26.4017 114.451C24.1485 112.735 22.7659 111.661 22.1439 112.037C21.8025 112.237 21.759 112.671 21.808 113.348ZM26.2049 114.665C28.6722 116.578 32.0939 119.17 36.427 121.416C43.0104 124.822 50.4013 126.878 58.4926 127.484C63.5695 127.847 68.7565 127.402 73.8251 126.098C91.6982 121.52 100.617 106.577 107.785 94.5268C113.339 85.1782 118.145 77.1572 125.12 76.6582C132.856 76.1477 138.629 80.3494 140.318 84.7845C141.058 86.7286 140.991 88.5627 140.094 90.2259C138.67 93.0635 134.938 95.3192 129.626 96.7154C112.285 101.231 88.767 110.532 85.1364 139.182C83.9948 148.243 85.0113 156.759 88.2265 165.204C92.2743 175.837 99.0044 184.195 104.953 191.6C109.341 197.094 113.138 201.77 114.781 206.083C116.076 209.486 116.468 213.44 110.63 218.933C96.9523 231.791 80.9289 230.449 72.5573 228.558C62.0451 226.161 51.6553 219.334 49.3654 213.319C48.764 211.74 48.7412 210.218 49.2824 208.899C53.2302 199.536 54.9936 191.56 54.7493 183.793C54.5713 177.113 52.9469 170.289 49.4079 160.993C45.5682 150.908 39.9494 141.082 33.549 133.224C25.9543 123.873 23.0599 117.184 22.3659 115.361C22.0421 114.511 21.8253 113.758 21.7473 113.371C21.6606 112.778 21.7272 112.405 21.9471 112.251C22.6762 111.974 24.1658 113.146 26.2049 114.665Z" fill="white" fill-opacity="0.3"/>
<path d="M136.452 86.3255C135.203 83.0447 130.558 80.7092 127.141 80.6883C124.897 80.6387 121.786 82.5184 118.751 85.6912C115.913 88.6501 114.156 91.8926 114.294 93.7181C114.326 93.9842 114.358 94.2504 114.45 94.4934C114.566 94.7972 114.719 95.0171 114.873 95.2369C116.411 97.0858 117.664 96.5393 120.473 95.3307C122.212 94.5991 124.535 93.5755 127.955 92.691C132.575 91.4885 135.662 89.548 136.325 88.1827C136.658 87.7778 136.822 87.2976 136.452 86.3255ZM127.923 92.4248C124.443 93.3325 122.096 94.2953 120.381 95.0876C117.571 96.2963 116.539 96.6895 115.153 95.0605C114.809 94.7046 114.624 94.2186 114.621 93.6632C114.506 91.8985 116.248 88.8006 119.026 85.8649C121.94 82.7383 125.012 80.9424 127.173 80.9544C130.468 81.0217 135.007 83.2588 136.186 86.3573C136.51 87.2078 136.406 87.6649 136.195 88.0236C135.448 89.3513 132.482 91.2455 127.923 92.4248Z" fill="white" fill-opacity="0.3"/>
<path d="M48.7323 140.034C48.9405 140.581 49.2788 141.287 49.6634 142.114C49.8629 142.456 54.1889 150.895 57.7973 160.373C59.2083 164.079 60.2751 167.429 61.0961 170.317C64.8972 184.868 62.8779 199.48 59.1213 207.518C58.4441 209.028 58.3599 210.452 58.915 211.91C60.1409 215.13 64.4623 218.076 70.7944 219.908C81.8966 223.124 99.1245 218.861 104.316 213.128C105.693 211.63 106.142 210.068 105.61 208.671C105.563 208.549 105.517 208.428 105.471 208.306C104.256 205.847 101.882 202.716 98.8336 198.729C93.1506 191.294 85.4143 181.022 80.4902 168.637C76.2601 158.074 75.8637 144.243 76.2957 139.349C76.4552 137.758 76.412 136.731 76.1807 136.123C75.7181 134.908 74.5406 135.287 72.5502 135.905C71.0082 136.423 68.8355 137.111 66.1277 137.307C61.2213 137.575 57.3016 137.328 54.4319 137.099C51.2729 136.841 49.3549 136.737 48.7126 137.607C48.2583 138.058 48.2697 138.819 48.7323 140.034ZM54.319 137.351C57.1887 137.58 61.1085 137.827 66.0756 137.536C68.8065 137.4 70.9561 136.651 72.5588 136.111C74.4654 135.454 75.5821 135.099 75.9984 136.192C76.2066 136.739 76.2498 137.766 76.128 139.273C75.6728 144.107 76.1127 157.504 80.1143 168.015C80.1837 168.197 80.2762 168.44 80.3456 168.622C85.2927 181.069 93.0667 191.256 98.7728 198.753C101.821 202.74 104.196 205.87 105.41 208.329C106.171 209.779 105.783 211.318 104.307 212.923C99.0928 218.595 81.9863 222.812 70.968 219.633C64.6967 217.778 60.4216 214.953 59.1957 211.733C58.6637 210.336 58.7478 208.913 59.3874 207.487C63.1209 199.387 65.201 184.753 61.3767 170.14C60.6165 167.23 59.4889 163.903 58.0779 160.197C54.4696 150.719 50.1436 142.279 49.944 141.938C49.4987 141.134 49.2442 140.465 49.0361 139.919C48.6197 138.825 48.5707 138.148 48.8803 137.682C49.3028 136.965 51.2208 137.07 54.319 137.351Z" fill="white" fill-opacity="0.3"/>
<path d="M36.6251 129.062C36.8332 129.609 37.2323 130.291 37.8368 130.966C44.0521 138.338 49.1966 147.648 53.6839 159.435C59.2815 174.137 63.4731 189.167 53.4823 211.891C53.1813 212.562 53.1696 213.262 53.4703 214.052C55.2282 218.67 67.3599 223.859 73.6547 224.314C74.2332 224.372 74.8118 224.43 75.4511 224.465C83.2993 225.164 96.4154 226.361 107.677 215.744C112.19 211.521 111.404 209.456 110.71 207.633C109.322 203.988 105.739 199.509 101.612 194.333C95.4862 186.648 88.519 178.031 84.2399 166.792C80.5852 157.192 79.3633 148.684 80.3285 139.343C80.4734 137.897 80.7023 136.488 80.9166 135.224C81.3453 132.696 81.6321 130.708 81.2388 129.676C80.9381 128.886 80.2294 128.669 79.0143 129.131C78.8321 129.201 78.5283 129.316 78.1261 129.539C66.999 135.027 54.5569 134.686 41.0658 128.484C38.6938 127.37 37.2012 127.104 36.5878 127.685C36.391 127.899 36.3706 128.394 36.6251 129.062ZM41.0281 128.568C49.7146 132.565 58.0544 134.19 65.8798 133.367C72.1691 132.711 76.4423 130.597 78.2563 129.698C78.6584 129.475 78.9622 129.36 79.1445 129.29C80.5418 128.758 80.9554 129.297 81.1173 129.722C81.4874 130.694 81.163 132.765 80.772 135.21C80.5576 136.474 80.3288 137.882 80.1839 139.329C79.181 148.754 80.3798 157.201 84.0576 166.861C88.3599 178.162 95.3502 186.839 101.453 194.463C105.58 199.639 109.163 204.118 110.528 207.702C111.199 209.464 111.962 211.469 107.546 215.585C96.3229 226.118 83.2299 224.982 75.4425 224.26C74.8032 224.225 74.2015 224.106 73.646 224.109C67.412 223.63 55.3642 218.479 53.6294 213.922C53.3519 213.193 53.3867 212.554 53.6501 211.966C58.2692 201.443 60.2211 191.587 59.5258 181.905C58.897 173.31 56.4106 166.048 53.8662 159.365C49.3789 147.579 44.1505 138.231 37.9959 130.836C37.4753 130.199 37.0155 129.539 36.8073 128.992C36.6454 128.567 36.5211 128.058 36.877 127.714C37.1345 127.477 38.069 127.19 41.0281 128.568Z" fill="white" fill-opacity="0.3"/>
<path d="M84.3354 67.2831C84.538 66.719 84.5815 66.2851 84.4658 65.9813C84.142 65.1307 82.8171 64.9395 80.8298 64.6527C78.7817 64.389 75.9872 63.9922 72.762 62.6463L71.8392 62.2324C68.1945 60.6985 66.5399 60.0067 65.9873 60.5649C65.7298 60.8021 65.7702 61.2737 66.0477 62.0027C66.279 62.6103 66.7706 63.5361 67.5543 65.0463C67.8695 65.6915 68.1615 66.2759 68.416 66.9442C70.4283 72.2299 69.1168 77.7377 68.2162 81.7673C67.6574 84.1364 67.2405 85.9646 67.6568 87.0582C67.8188 87.4835 68.1398 87.7786 68.62 87.9436C74.2058 89.6429 81.991 73.184 84.3354 67.2831ZM68.6866 87.5705C68.2903 87.4431 68.0763 87.2463 67.9375 86.8818C67.5674 85.9097 67.9843 84.0815 68.5055 81.7963C69.4668 77.7435 70.7552 72.175 68.6966 66.7678C68.4422 66.0995 68.127 65.4543 67.8118 64.8092C66.9905 63.3828 66.5597 62.4339 66.3284 61.8263C66.0971 61.2188 66.0422 60.8919 66.2013 60.7617C66.618 60.3944 68.6081 61.2366 71.7263 62.4841L72.6491 62.898C75.8744 64.2438 78.7296 64.6176 80.8008 64.942C82.6435 65.2143 83.8845 65.3679 84.1389 66.0362C84.2315 66.2792 84.1648 66.6524 83.9999 67.1326C81.1604 74.4741 73.6476 89.0902 68.6866 87.5705Z" fill="white" fill-opacity="0.3"/>
<path d="M79.3155 69.2637C78.506 67.1373 74.1236 65.6755 72.5439 66.2769C71.8756 66.5313 71.673 67.0954 71.9274 67.7637C73.0695 70.9461 72.3136 74.9902 71.8415 77.9524C71.546 79.7343 71.3317 80.9985 71.563 81.606C71.6324 81.7883 71.7625 81.9474 71.9303 82.0227C72.0981 82.0979 72.3642 82.0662 72.7288 81.9274C75.5525 80.5741 79.2801 72.8249 79.5786 70.1374C79.463 69.8337 79.4312 69.5675 79.3155 69.2637ZM72.3615 81.5107C72.1184 81.6033 71.9969 81.6495 71.9738 81.5888C71.9738 81.5888 71.8899 81.5511 71.8668 81.4904C71.6817 81.0043 71.9337 79.6563 72.177 78.1029C72.7099 75.1176 73.4803 70.9288 72.2543 67.7088C72.0693 67.2228 72.1822 66.9711 72.6075 66.8092C74.0048 66.2772 78.0748 67.6493 78.7919 69.5327C78.8844 69.7757 78.893 69.9811 78.9017 70.1865C78.6494 72.9954 74.9653 80.3107 72.3615 81.5107Z" fill="white" fill-opacity="0.3"/>
<path d="M131.552 40.7504C131.761 41.2972 132.628 41.3841 134.431 41.1849C141.206 40.3445 151.328 42.2645 158.686 48.4365C166.128 54.6461 169.295 59.4923 170.989 62.1165C171.825 63.3982 172.285 64.0579 172.719 64.1014C172.864 64.1159 173.046 64.0465 173.182 63.8556C173.946 62.9387 175.751 51.0522 171.455 36.48L171.284 35.8493C170.92 34.5272 170.564 33.4104 170.171 32.3776C168.76 28.6716 166.617 26.1485 158.148 21.443C156.82 20.6964 155.553 19.9266 154.286 19.1568C150.462 16.7868 147.104 14.7264 144.682 15.857C142.785 16.7187 141.641 19.3799 140.958 24.1617C140.193 29.4613 136.411 33.9618 133.922 36.9265C132.296 38.8673 131.298 40.0821 131.552 40.7504ZM141.102 24.1762C141.771 19.539 142.975 16.8547 144.729 15.9785C147.09 14.871 150.364 16.8938 154.165 19.2031C155.432 19.9729 156.698 20.7426 158.026 21.4893C166.472 26.134 168.639 28.7178 170.003 32.3024C170.397 33.3352 170.752 34.4519 171.116 35.774L171.287 36.4047C175.444 50.6125 173.793 62.7188 173.006 63.5749C172.87 63.7658 172.725 63.7513 172.664 63.7745C172.314 63.7686 171.892 63.0251 171.125 61.9256C169.431 59.3014 166.264 54.4552 158.799 48.1848C151.418 41.9521 141.235 40.0552 134.399 40.9188C132.741 41.1325 131.873 41.0455 131.712 40.6202C131.48 40.0127 132.638 38.6677 134.006 36.9641C136.602 34.0978 140.361 29.5365 141.102 24.1762Z" fill="white" fill-opacity="0.3"/>
<path d="M121.542 45.8834C121.75 46.4302 122.496 46.5634 123.986 46.2744C132.972 44.662 146.114 43.5539 156.781 52.5702C160.067 55.3538 163.173 58.7623 166.17 62.9778C166.76 63.7966 167.821 64.575 168.859 65.2927C170.196 66.2447 171.532 67.1967 171.995 68.4118C172.041 68.5333 172.11 68.7156 172.096 68.8602C172.229 69.5748 172.049 70.1996 171.809 70.8476C171.592 71.5563 171.375 72.265 171.629 72.9333C171.722 73.1763 171.898 73.457 172.135 73.7145C172.503 74.1311 173.044 74.273 173.501 74.3772C174.186 74.5336 174.811 74.7131 175.144 75.769C175.476 76.825 174.894 77.6725 174.275 78.6039C173.829 79.2605 173.445 79.8939 173.311 80.6403C173.23 81.1581 173.288 82.0404 173.565 82.7695C173.751 83.2555 174.011 83.5738 174.323 83.6635C174.636 83.7533 175.023 83.6752 175.402 83.3918C176.699 82.4114 176.879 78.8648 176.943 76.4753C176.954 75.7752 177.012 75.1966 177.056 74.7627C177.479 71.1236 177.743 67.6146 177.842 64.5857C178.487 52.0279 177.595 41.0984 175.225 31.2188C174.953 30.1397 174.644 29.1445 174.343 28.3547C172.585 23.7373 169.192 20.8553 159.803 16.2913C157.492 15.1539 155.401 13.8633 153.416 12.671C148.898 9.93924 145.288 7.76595 142.335 8.9601C139.988 9.92295 138.223 12.9601 136.79 18.5141C134.552 27.4353 128.799 34.9816 124.997 39.9768C122.714 42.9329 121.195 44.9721 121.542 45.8834ZM137.033 18.4216C138.428 12.9515 140.133 9.93744 142.418 8.99773C145.312 7.8267 148.838 9.96237 153.356 12.6942C155.363 13.9472 157.515 15.2147 159.766 16.3752C169.094 20.9623 172.464 23.7836 174.199 28.3402C174.522 29.1908 174.809 30.1252 175.08 31.2043C177.45 41.0839 178.319 51.9527 177.735 64.4874C177.613 67.4554 177.372 71.0252 176.926 74.6036C176.882 75.0375 176.824 75.6161 176.813 76.3161C176.725 78.6449 176.545 82.1915 175.347 83.0649C175.029 83.3252 174.702 83.3801 174.474 83.328C174.161 83.2382 173.939 82.8361 173.846 82.5931C173.615 81.9855 173.557 81.1032 173.638 80.5854C173.734 79.9229 174.179 79.2663 174.564 78.6329C175.184 77.7015 175.803 76.7701 175.447 75.6534C175.129 74.4528 174.383 74.3196 173.697 74.1632C173.24 74.059 172.783 73.9547 172.416 73.5381C172.179 73.2806 172.026 73.0607 171.933 72.8177C171.679 72.1493 171.858 71.5245 172.098 70.8766C172.278 70.2517 172.495 69.543 172.339 68.7677C172.293 68.6462 172.284 68.4408 172.238 68.3193C171.752 67.0434 170.332 66.0538 168.995 65.1018C167.934 64.3234 166.919 63.6665 166.329 62.8477C163.333 58.6321 160.226 55.2237 156.941 52.4401C146.19 43.3861 132.963 44.4566 123.978 46.069C122.67 46.2886 121.947 46.2162 121.785 45.7909C121.484 45.0011 123.041 42.878 125.263 39.9451C129.005 34.973 134.757 27.4267 137.033 18.4216Z" fill="white" fill-opacity="0.3"/>
<path d="M53.8529 97.3914C55.9118 101.338 60.2708 104.2 64.9369 104.58C69.1923 104.977 75.6755 103.552 82.2441 94.8601C85.0712 91.1405 87.8665 87.1547 90.5866 83.3366C98.3157 72.3945 105.576 62.0482 114.401 55.6278C124.339 48.2964 134.461 47.2946 146.22 52.4174C156.408 56.8861 164.315 64.8662 167.924 74.344C170.63 81.4524 170.568 88.78 167.7 94.9499C164.568 101.707 158.142 106.936 149.217 109.986C147.128 110.712 144.955 111.4 142.684 112.195C134.587 114.861 125.372 117.882 118.324 122.026C110.252 126.768 106.247 132.328 106.075 139.002C105.979 142.586 106.482 145.733 107.5 148.407C109.35 153.267 113.049 156.589 118.192 158.039C126.917 160.491 139.105 157.242 148.451 149.997C168.513 134.36 175.701 112.494 180.784 82.1777C184.61 59.1569 181.952 41.9438 178.559 26.8192C178.264 25.6793 178.015 24.661 177.645 23.6889C175.355 17.6741 171.23 15.9752 165.977 13.871C163.987 13.0288 161.876 12.2328 159.602 11.0115C156.993 9.63978 155.229 8.29423 153.655 7.08469C151.104 5.13437 148.935 3.45606 144.448 2.45132C135.452 0.381077 133.529 8.48651 131.479 16.9883C130.414 21.498 129.273 26.1756 127.036 29.2531C112.944 48.8784 90.9142 51.492 74.984 47.4705C70.4279 46.2835 65.6378 43.9335 60.5498 41.3491C54.3481 38.2149 47.9179 35.0285 41.7881 34.0929C39.1383 33.7105 37.5414 33.9011 36.899 34.7717C36.4302 35.3675 36.4503 36.3337 36.936 37.6096C37.815 39.9183 40.198 43.2543 42.9339 47.1515C46.8034 52.5649 51.5927 59.2976 54.1139 65.9199C55.4555 69.4437 56.0421 72.6288 55.8737 75.4754C55.7053 78.322 54.889 80.9283 54.1335 83.5114C52.8077 87.703 51.6179 91.7036 53.2602 96.0172C53.4221 96.4424 53.6071 96.9285 53.8529 97.3914ZM56.0791 75.4668C56.2851 72.5363 55.7216 69.4119 54.3569 65.8274C51.8357 59.2051 47.0233 52.4116 43.1538 46.9982C40.441 43.1617 38.058 39.8258 37.179 37.5171C36.7164 36.302 36.7195 35.3965 37.1275 34.8238C37.7323 34.0371 39.3292 33.8465 41.8343 34.2144C47.941 35.0893 54.3336 38.3595 60.5121 41.433C65.5771 43.9566 70.3903 46.3674 74.9463 47.5544C84.2638 49.9198 93.8277 49.8263 102.565 47.1955C112.54 44.1629 120.826 38.1561 127.204 29.3284C129.478 26.1669 130.619 21.4894 131.685 16.9796C133.697 8.56176 135.666 0.577835 144.434 2.59596C148.92 3.6007 151.09 5.27901 153.557 7.1917C155.13 8.40124 156.918 9.80755 159.527 11.1793C161.777 12.3398 163.851 13.2197 165.902 14.0388C171.094 16.1661 175.219 17.865 177.463 23.7583C177.81 24.6696 178.142 25.7256 178.353 26.8278C181.807 41.9293 184.442 59.0817 180.555 82.1255C175.449 112.381 168.322 134.224 148.321 149.838C139.036 157.06 126.908 160.286 118.207 157.895C113.148 156.482 109.448 153.16 107.621 148.36C106.603 145.687 106.124 142.6 106.22 139.016C106.354 132.426 110.322 126.951 118.394 122.208C125.442 118.064 134.595 115.066 142.754 112.377C145.048 111.643 147.197 110.894 149.286 110.168C158.249 107.034 164.736 101.782 167.928 95.002C170.857 88.809 170.896 81.4206 168.167 74.2515C164.535 64.7129 156.605 56.672 146.356 52.2265C140.111 49.5262 134.369 48.5125 128.803 49.2404C123.83 49.8816 119.099 51.8911 114.392 55.4224C105.591 61.9035 98.2694 72.273 90.5403 83.2151C87.8203 87.0332 85.0857 90.9958 82.1978 94.7386C75.6668 103.346 69.2444 104.748 65.0729 104.389C60.4676 103.986 56.2156 101.222 54.1567 97.2757C53.9109 96.8128 53.749 96.3875 53.5639 95.9015C51.9448 91.6487 53.1577 87.7088 54.4227 83.5404C55.0568 81.0035 55.9107 78.3133 56.0791 75.4668Z" fill="white" fill-opacity="0.3"/>
<path d="M62.8898 98.4725C64.6455 99.6127 66.656 99.9602 68.7534 99.4399C74.985 97.9022 81.7214 89.2857 85.5443 82.3349C90.3251 73.6978 95.615 64.9363 101.818 59.3052C102.137 59.0449 103.077 58.4086 104.26 57.6799C108.227 55.1263 114.856 50.7941 114 48.5462C113.93 48.3639 113.777 48.144 113.586 48.008C112.692 47.3049 111.483 47.4174 109.921 48.4296C108.639 49.2654 107.314 50.5351 106.148 51.6747C104.944 52.8981 103.816 53.9538 103.087 54.2313C101.203 54.9484 100.066 54.3378 98.892 53.811C98.03 53.374 97.1073 52.9601 95.9212 53.1335C94.3474 53.3848 93.4851 54.4087 92.6605 55.3488C91.8966 56.2656 91.1327 57.1825 89.7267 57.5091C87.2416 58.1074 75.8069 53.8352 65.752 50.0811C57.4125 46.9956 50.2011 44.3153 49.1914 44.7693C49.1307 44.7925 49.093 44.8763 49.0323 44.8995C48.8297 45.4635 48.9712 46.3835 49.457 47.6594C50.1972 49.6035 51.6633 52.1756 53.4129 55.1267C55.4777 58.7229 57.8721 62.8197 59.3062 66.5865C60.4165 69.5028 60.847 71.9126 60.5979 73.8161C60.4357 74.8517 60.259 76.032 60.0446 77.2961C59.1669 82.8474 58.0142 89.6859 59.8415 94.4855C60.4284 96.2098 61.5158 97.6044 62.8898 98.4725ZM60.7425 73.8306C60.9686 71.8664 60.5611 69.5173 59.4277 66.5403C57.9936 62.7735 55.6599 58.6535 53.5344 55.0804C51.8456 52.1062 50.3187 49.5573 49.5785 47.6131C49.1159 46.398 48.9974 45.5388 49.2001 44.9747C49.2001 44.9747 49.2001 44.9747 49.2608 44.9516C50.2098 44.5207 57.6728 47.3139 65.6768 50.2489C75.7924 53.9799 87.2502 58.3128 89.796 57.6914C91.202 57.3648 92.0267 56.4248 92.8514 55.4848C93.7137 54.4609 94.4776 53.544 95.9906 53.3157C97.1767 53.1424 97.9548 53.5418 98.8775 53.9556C100.052 54.4824 101.249 55.0699 103.217 54.3905C104.007 54.0898 105.074 53.0572 106.339 51.8107C107.505 50.6711 108.83 49.4014 110.051 48.5888C111.492 47.6228 112.617 47.4726 113.488 48.115C113.679 48.251 113.809 48.4102 113.878 48.5924C114.688 50.7189 107.877 55.1204 104.191 57.4976C102.97 58.3103 102.067 58.8626 101.772 59.1837C95.5919 64.8756 90.3019 73.637 85.5211 82.2742C81.7359 89.1411 75.0603 97.7344 68.8894 99.249C66.792 99.7693 64.8654 99.4594 63.1936 98.3569C61.8196 97.4887 60.8161 96.1318 60.1453 94.3699C58.3411 89.631 59.4939 82.7925 60.3947 77.302C60.4036 76.0465 60.5803 74.8662 60.7425 73.8306Z" fill="white" fill-opacity="0.3"/>
<path d="M69.7584 93.4918C74.9485 92.1419 80.8111 83.7885 82.7704 79.9819C86.2374 73.3753 89.4466 68.4667 91.5533 65.23C93.66 61.9933 94.8001 60.2376 94.5225 59.5085C94.3144 58.9617 93.5535 58.9731 91.8438 59.4154C78.9408 62.7974 69.2046 57.3221 63.3905 54.1099C60.8422 52.715 59.1559 51.7571 58.1606 52.0664C57.8569 52.1821 57.637 52.3354 57.5472 52.6478C57.2231 53.2581 57.3184 54.0565 57.7116 55.0894C58.1511 56.2437 59.0331 57.647 59.9846 59.2324C61.2657 61.3185 62.6625 63.7083 63.634 66.26C64.9755 69.7838 65.1513 72.9862 64.2915 76.0264C62.9889 80.2787 62.1053 86.18 63.5626 90.0076C64.0946 91.4049 64.8986 92.4205 65.937 93.1381C67.0506 93.688 68.3148 93.9023 69.7584 93.4918ZM63.6986 89.8167C62.2645 86.0498 63.1711 80.2093 64.413 75.9802C65.3336 72.9168 65.1347 69.6536 63.7931 66.1298C62.7985 63.5174 61.3409 61.1507 60.1206 59.0415C59.1692 57.4561 58.2871 56.0528 57.8476 54.8985C57.4775 53.9264 57.4054 53.1887 57.6687 52.6015C57.7816 52.3498 57.9408 52.2197 58.1838 52.1272C59.0575 51.8641 60.8046 52.7989 63.269 54.1561C69.1062 57.4291 78.9032 62.8813 91.8669 59.4762C93.3944 59.1033 94.1552 59.0919 94.294 59.4564C94.5484 60.1247 93.3099 61.9875 91.3392 65.0333C89.2326 68.27 85.9626 73.2016 82.5564 79.7851C80.5971 83.5918 74.7952 91.922 69.6659 93.2488C68.283 93.6362 67.0189 93.4219 66.0036 92.765C65.0115 92.1688 64.2074 91.1533 63.6986 89.8167Z" fill="white" fill-opacity="0.3"/>
<path d="M139.537 126.401C129.828 129.402 124.307 134.634 122.371 138.502C121.52 140.286 121.323 141.961 121.785 143.176C122.456 144.938 124.362 145.743 127.108 145.463C144.963 143.395 156.73 122.777 157.517 120.46C157.757 119.812 157.679 119.425 157.344 119.274C156.756 119.011 155.345 119.687 152.764 120.948C149.72 122.455 145.204 124.661 139.537 126.401ZM157.193 119.61C157.277 119.647 157.277 119.647 157.3 119.708C157.323 119.769 157.332 119.974 157.205 120.37C156.455 122.604 144.787 143.115 127.114 145.113C124.513 145.407 122.714 144.701 122.089 143.061C121.65 141.906 121.87 140.292 122.683 138.591C124.559 134.747 129.981 129.622 139.629 126.644C145.357 124.881 149.874 122.675 152.94 121.229C155.119 120.191 156.713 119.445 157.193 119.61Z" fill="white" fill-opacity="0.3"/>
<path d="M138.279 121.454C128.767 124.241 121.988 128.909 119.201 134.561C117.762 137.543 117.458 140.581 118.43 143.133C119.84 146.839 123.502 148.783 127.775 148.13C140.29 146.287 149.237 138.36 154.486 132.049C160.635 124.63 164.073 116.851 164.855 113.423C165.153 112.197 165.301 111.306 165.139 110.881C165.069 110.698 164.962 110.6 164.818 110.586C164.254 110.383 163.229 110.982 161.074 112.08C157.333 114.131 150.291 117.925 138.279 121.454ZM164.765 110.814C164.849 110.852 164.933 110.889 164.98 111.011C165.118 111.375 164.971 112.266 164.71 113.409C162.915 121.118 150.448 144.646 127.79 147.986C123.578 148.616 120 146.708 118.612 143.063C117.64 140.511 117.907 137.558 119.369 134.636C122.179 129.045 128.897 124.4 138.265 121.599C150.337 118.046 157.379 114.252 161.143 112.263C163.14 111.294 164.346 110.626 164.765 110.814Z" fill="white" fill-opacity="0.3"/>
<path d="M136.353 118.222C124.593 121.865 116.396 127.559 113.196 134.134C111.569 137.536 111.282 140.984 112.485 144.143C114.775 150.158 121.578 153.411 129.409 152.238C140.981 150.476 150.729 144.469 158.394 134.456C166.195 124.251 169.426 113.004 170.683 107.17C171.299 104.222 171.574 102.935 170.95 102.755C170.469 102.59 169.384 103.212 167.359 104.47C162.944 107.125 153.758 112.779 136.353 118.222ZM170.912 102.839C170.996 102.877 171.019 102.938 171.065 103.059C171.25 103.545 170.998 104.893 170.515 107.095C166.328 126.427 153.343 148.413 129.401 152.033C121.63 153.183 114.934 150.028 112.667 144.074C111.487 140.975 111.714 137.55 113.363 134.209C116.504 127.658 124.746 122.085 136.423 118.405C153.888 112.938 163.074 107.284 167.527 104.545C169.332 103.441 170.455 102.735 170.912 102.839Z" fill="white" fill-opacity="0.3"/>
<path d="M147.823 33.7908C148.471 35.4919 150.597 36.1433 153.573 36.4708C158.827 37.1141 162.72 41.1273 164.869 43.3003C165.924 44.4287 166.352 44.8222 166.694 44.6227C166.975 44.4463 166.98 44.0962 166.408 42.2273C164.714 36.6813 155.031 26.5948 150.61 26.6778C149.583 26.721 148.886 27.2647 148.495 28.2482C147.581 30.9615 147.384 32.6364 147.823 33.7908ZM150.628 27.0886C154.637 27.0229 163.777 36.4121 165.812 41.7585C165.882 41.9408 165.951 42.1231 166.02 42.3053C166.353 43.3613 166.477 43.8705 166.486 44.0759C166.211 43.9022 165.737 43.3872 165.285 42.9329C163.136 40.76 159.136 36.6484 153.738 35.9906C150.365 35.5357 148.795 34.8816 148.309 33.6057C147.893 32.5122 148.136 30.9587 149.013 28.3293C149.245 27.4759 149.783 27.0624 150.628 27.0886Z" fill="white" fill-opacity="0.3"/>
<path d="M150.079 38.9838C159.186 40.2469 164.689 46.8467 168.461 52.3671C168.813 52.9284 169.14 52.8735 169.299 52.7433C170.468 52.1592 170.64 45.4854 167.379 36.9189C167.009 35.9468 166.639 34.9748 166.208 34.0258C164.484 30.23 155.501 23.077 150.219 21.2621C148.862 20.8047 147.789 20.7264 147.167 21.1023C145.558 21.993 145.384 23.7287 145.204 25.8144C144.987 27.984 144.741 30.4429 142.704 32.401C141.538 33.5406 141.086 34.5472 141.456 35.5193C142.058 37.0989 144.947 38.2942 150.079 38.9838ZM142.941 32.6585C145.039 30.6773 145.323 28.1345 145.517 25.9042C145.743 23.94 145.856 22.2274 147.306 21.4669C147.829 21.1979 148.819 21.2386 150.091 21.6584C155.35 23.4125 164.166 30.4903 165.866 34.2253C166.297 35.1743 166.667 36.1464 167.037 37.1185C170.23 45.5027 170.072 52.0318 169.146 52.5234C168.964 52.5928 168.811 52.3729 168.704 52.2746C164.886 46.6327 159.298 39.9953 150.047 38.7176C142.448 37.5763 139.874 35.5652 142.941 32.6585Z" fill="white" fill-opacity="0.3"/>
<path d="M128.391 138.783C128.507 139.087 128.865 139.298 129.383 139.379C132.07 139.677 139.726 136.763 143.201 131.823C143.647 131.166 143.378 130.642 142.403 130.457C139.958 130.066 133.249 131.994 128.886 137.342C128.417 137.938 128.252 138.418 128.391 138.783ZM142.299 130.914C142.611 131.004 142.839 131.056 142.886 131.177C142.932 131.299 142.857 131.467 142.735 131.513C139.373 136.202 131.885 139.191 129.319 138.847C128.969 138.841 128.779 138.705 128.709 138.522C128.64 138.34 128.79 138.005 129.123 137.6C133.458 132.541 139.999 130.538 142.299 130.914Z" fill="white" fill-opacity="0.3"/>
<path d="M39.075 101.696C43.5543 110.355 58.402 117.015 67.7143 116.809C83.9115 116.416 91.9941 103.113 99.8277 90.2527C107.352 77.8583 114.514 66.1581 128.304 65.2902C140.33 64.5376 150.196 73.0938 153.411 81.5388C155.146 86.0954 154.986 90.6083 153.064 94.331C150.781 98.7479 145.958 101.975 139.156 103.661C115.758 109.439 90.9727 117.97 93.2495 145.693C93.4861 148.873 94.148 151.89 95.1657 154.563C99.1673 165.074 107.726 169.467 114.203 171.314C126.616 174.866 142.085 171.829 152.613 163.855C161.565 157.039 169.066 147.505 175.644 134.636C185.417 115.542 191.274 92.3745 193.467 63.7847L193.56 62.5668C194.511 50.4488 195.491 38.0415 193.992 25.8824C193.92 25.1447 193.825 24.3462 193.706 23.487C193.322 19.7378 192.858 15.0455 191.47 11.4002C190.915 9.94204 190.247 8.73557 189.489 7.84152C188.341 6.47006 186.9 5.97508 185.543 5.51773C184.499 5.15013 183.478 4.84327 182.5 4.1025C181.905 3.63373 180.956 2.60367 179.984 1.51286C178.408 -0.252111 176.748 -2.05471 175.764 -2.44545C173.76 -3.14304 172.987 -2.43155 172.191 -1.78082C171.676 -1.30649 171.161 -0.832167 170.134 -0.788983L169.313 -0.754432C163.212 -0.518464 163.212 -0.518465 160.377 -4.30871C159.834 -5.006 159.137 -5.92319 158.31 -6.9995C155.874 -10.1069 153.581 -10.8335 151.408 -11.6064C149.716 -12.2142 148.131 -12.7237 146.442 -14.237C146.418 -14.2978 146.395 -14.3585 146.372 -14.4193C145.54 -16.6065 138.131 -32.7762 133.575 -32.5023C132.343 -32.4505 131.428 -31.1981 130.884 -28.9736C130.16 -26.1243 130.649 -24.293 131.065 -23.1994C131.273 -22.6526 131.519 -22.1897 131.742 -21.7875C131.964 -21.3854 132.103 -21.0208 132.242 -20.6563C132.751 -19.3197 132.895 -17.8443 129.055 -14.2261C128.124 -13.3845 127.29 -12.6498 126.677 -12.0685C123.465 -9.17627 123.405 -9.15314 123.274 -4.92958C123.256 -3.87947 123.186 -2.60083 123.073 -0.88827C122.667 4.62257 120.607 6.51988 117.971 8.91464C116.585 10.2075 114.979 11.6536 113.422 13.7766C111.73 16.0906 110.578 18.5464 109.501 20.8344C107.536 24.9911 105.684 28.8961 101.17 31.6579C93.3037 36.3919 83.4884 34.9116 74.0495 32.5925C69.4558 31.4894 63.2976 27.9212 56.7576 24.0811C45.6243 17.6768 33.0562 10.4276 25.0742 13.397C20.5175 15.1318 17.494 17.6046 16.0643 20.7922C14.484 24.3154 14.7261 28.6056 16.7616 33.952C19.7224 41.7287 25.9895 50.3334 31.5133 57.8994C35.8803 63.8885 39.6342 68.9981 41.0452 72.7042C41.369 73.5547 41.5627 74.2462 41.5886 74.8624C41.8973 78.7794 40.7365 82.4907 39.5671 85.9966C38.0763 90.6683 36.6377 95.1115 38.5112 100.033C38.621 100.686 38.8061 101.172 39.075 101.696ZM41.9849 74.9897C41.9359 74.3128 41.719 73.5606 41.3952 72.71C39.9843 69.004 36.2072 63.8336 31.8402 57.8445C26.3164 50.2785 20.0724 41.7345 17.1348 34.0187C15.1224 28.733 14.9266 24.5643 16.4316 21.2089C17.8237 18.1051 20.8096 15.7162 25.184 14.0508C32.9837 11.1508 45.4679 18.3624 56.4335 24.6914C63.0111 28.4477 69.1925 32.0766 73.87 33.2173C83.3928 35.5741 93.292 37.092 101.341 32.2886C105.976 29.4805 107.866 25.4916 109.868 21.2511C110.945 18.963 112.097 16.5072 113.729 14.2164C115.286 12.0934 116.831 10.6704 118.217 9.37755C120.951 6.87577 123.072 4.95533 123.469 -0.760906C123.583 -2.47346 123.652 -3.7521 123.67 -4.80221C123.847 -8.90427 123.847 -8.90426 126.9 -11.6663C127.574 -12.2708 128.346 -12.9823 129.278 -13.8239C132.982 -17.2512 133.3 -18.9724 132.629 -20.7343C132.491 -21.0989 132.268 -21.501 132.129 -21.8655C131.883 -22.3285 131.722 -22.7537 131.513 -23.3005C131.074 -24.4549 130.678 -26.0431 131.364 -28.8086C131.894 -30.8885 132.672 -31.95 133.676 -32.0539C137.616 -32.3019 144.851 -17.3182 146.008 -14.2805C146.031 -14.2197 146.054 -14.159 146.054 -14.159L146.259 -14.1676L146.123 -13.9767C147.919 -12.365 149.612 -11.7572 151.304 -11.1493C153.537 -10.3996 155.626 -9.66439 158.014 -6.67846C158.842 -5.60214 159.539 -4.68496 160.082 -3.98766C163.047 -0.0382831 163.131 -0.000658126 169.437 -0.245266L170.259 -0.27981C171.43 -0.308502 172.044 -0.889844 172.619 -1.3873C173.354 -2.0149 173.968 -2.59625 175.683 -1.92764C176.644 -1.59766 178.266 0.288829 179.712 1.89467C180.684 2.98548 181.633 4.01554 182.252 4.54506C183.252 5.34659 184.357 5.69107 185.402 6.05868C186.758 6.51602 188.054 6.99651 189.156 8.24645C189.891 9.07975 190.536 10.2255 191.091 11.6836C192.455 15.2681 192.92 19.9605 193.365 23.6866C193.483 24.5458 193.518 25.3674 193.651 26.0819C195.127 38.1802 194.146 50.5876 193.209 62.561L193.117 63.7789C190.901 92.3079 185.081 115.392 175.346 134.402C168.805 147.187 161.305 156.72 152.451 163.43C142.044 171.357 126.758 174.325 114.429 170.811C108.036 169.001 99.6216 164.623 95.6894 154.294C94.6716 151.621 94.0329 148.664 93.7587 145.569C91.4992 118.257 116.102 109.795 139.295 104.025C146.218 102.294 151.163 99.02 153.545 94.496C155.565 90.6662 155.655 85.9711 153.897 81.3537C150.636 72.7873 140.579 64.095 128.348 64.8562C114.352 65.7328 106.828 78.1273 99.5529 90.0791C91.8176 102.832 83.7496 115.99 67.8416 116.412C58.6741 116.633 44.0172 110.11 39.6449 101.549C39.3991 101.086 39.2141 100.6 39.029 100.114C37.2248 95.3748 38.6259 91.0155 40.1398 86.4046C41.0952 82.7019 42.2791 79.0514 41.9849 74.9897Z" fill="white" fill-opacity="0.3"/>
</g>
</svg>
