<svg width="563" height="297" viewBox="0 0 563 297" fill="none" xmlns="http://www.w3.org/2000/svg">
<path d="M181.748 217.228C180.661 215.454 179.574 213.68 178.72 212.366C168.051 197.061 156.418 184.133 143.196 170.487C141.452 168.716 139.668 166.681 137.768 164.977C126.912 153.956 115.823 142.475 107.708 126.631C104.639 120.385 103.238 115.383 103.503 111.625C103.732 109.844 104.194 108.524 105.084 107.861C105.509 107.398 105.818 107.264 106.282 107.064C108.139 106.265 111.004 106.713 114.219 108.411C120.805 111.741 127.316 116.785 133.633 121.632C138.827 125.561 144.214 129.688 149.444 132.761C171.102 145.576 185.4 154.273 196.916 190.795C199.367 198.429 202.726 216.602 200.187 226.104C199.34 229.271 197.834 231.322 195.823 232.188C191.373 233.263 185.707 223.932 181.748 217.228ZM196.44 230.801C198.142 230.068 199.338 228.151 200.069 225.314C202.454 215.878 199.174 198.232 196.762 190.862C185.284 154.603 171.181 146.102 149.522 133.288C144.098 130.018 138.75 126.155 133.712 122.159C127.394 117.312 120.922 112.531 114.298 108.938C110.346 106.716 107.056 106.731 105.471 108.254C104.776 109.115 104.274 110.171 104.161 111.622C103.857 115.116 105.258 120.118 108.287 126.101C116.209 141.749 127.453 153.163 138.154 164.25C139.938 166.285 141.837 167.989 143.582 169.76C156.649 183.472 168.437 196.334 179.106 211.639C179.96 212.953 181.047 214.727 182.133 216.502C186.092 223.205 191.565 232.34 196.091 230.671C196.13 230.934 196.285 230.868 196.44 230.801Z" fill="#5D5D5D" fill-opacity="0.2"/>
<path d="M197.525 256.961C190.287 256.995 182.02 243.458 175.345 232.879C172.978 229.134 170.805 225.585 168.943 223.024C158.702 209.496 147.768 197.948 137.221 186.795C134.468 183.776 131.057 180.761 127.452 177.548C116.752 167.582 103.572 155.32 98.0135 141.177C93.2717 129.205 93.1343 116.091 92.9203 103.57C92.71 93.29 92.5762 82.4166 89.8886 72.0824C88.2913 65.7632 84.992 60.1769 81.499 54.3939C77.346 47.4937 72.9992 40.3966 71.4747 31.2432C71.0051 28.0821 70.7293 25.1177 70.8786 21.69C71.4419 11.0769 72.9427 5.66571 75.4182 4.59957C77.8937 3.53342 81.344 6.81232 86.9714 15.8804C92.3657 24.4883 95.7132 35.9397 98.8277 46.9309C102.097 57.8555 105.29 69.3735 110.878 78.1782C121.279 95.0004 136.583 103.825 149.989 112.066C151.074 112.72 152.313 113.307 153.398 113.961C175.793 127.299 193.499 137.892 207.001 181.127C210.658 192.445 214.812 223.73 209.734 242.734C207.659 252.036 203.447 256.933 197.525 256.961ZM209.346 242.34C213.731 225.317 210.662 194.686 206.615 181.854C193.192 139.146 175.679 128.75 153.439 115.345C152.354 114.691 151.269 114.037 150.03 113.449C136.508 105.539 121.165 96.4508 110.57 79.4318C104.982 70.6271 101.595 58.9123 98.4418 47.6577C95.3273 36.6665 92.019 25.4785 86.6246 16.8706C82.8986 10.6274 78.5536 4.65065 75.7686 5.85007C73.6025 6.78294 72.4112 12.0609 71.7305 21.8837C71.5421 25.048 71.624 27.8155 72.2483 30.9101C73.6946 39.5366 78.0414 46.6336 82.0396 53.6005C85.5327 59.3836 88.9866 64.9031 90.623 71.4858C93.3107 81.8199 93.4445 92.6934 93.6939 103.237C93.9861 116.284 94.1609 128.542 98.7089 140.317C104.228 154.196 117.408 166.458 127.914 176.228C131.519 179.44 134.969 182.719 137.722 185.738C148.269 196.892 159.203 208.439 169.444 221.967C171.306 224.528 173.48 228.077 175.847 231.822C182.367 242.468 190.595 255.741 197.484 255.577C198.8 255.571 199.923 255.368 201.006 254.901C204.719 253.302 207.538 249.005 209.346 242.34Z" fill="#5D5D5D" fill-opacity="0.2"/>
<path d="M213.139 311.06C210.756 321.616 207.703 324.333 204.61 326.786C202.407 328.575 200.088 330.695 197.811 335.319L197.735 335.913C192.075 354.327 172.897 414.719 163.923 418.584C162.84 419.05 161.988 418.856 161.174 417.806C159.545 415.705 158.917 410.369 158.902 401.407C158.932 396.068 165.496 385.954 172.33 375.443C178.083 366.519 183.951 357.265 185.607 351.787C186.992 346.706 188.916 339.711 188.448 337.67C188.37 337.143 187.866 337.08 187.169 336.819C185.62 336.365 183.335 335.388 183.166 326.491C183.078 320.363 184.268 313.965 185.612 307.5C186.686 301.431 187.838 295.89 187.752 290.882C187.846 277.108 171.791 258.796 161.243 246.522C157.675 242.453 154.689 238.974 152.788 236.149C144.719 225.05 135.453 215.867 126.381 206.881C108.779 189.236 90.5952 171.001 80.4799 139.481C65.4235 92.4308 57.2231 48.3141 56.3074 8.90812C55.8085 -12.1787 60.2089 -43.5036 68.5638 -47.1019C73.6696 -49.3008 79.1031 -40.4295 84.361 -20.5514C104.613 55.9329 132.238 72.3442 158.818 88.3651C182.491 102.554 204.886 115.893 221.383 168.208C227.608 187.95 227.665 222.681 224.137 243.26C222.526 252.362 219.827 258.569 217.049 264.25C214.697 269.468 212.42 274.092 211.115 280.82C210.194 285.701 211.208 290.31 212.261 295.182C213.199 300.384 214.33 305.782 213.139 311.06ZM210.07 280.43C211.49 273.371 213.727 268.484 216.235 263.2C218.858 257.586 221.596 251.641 223.091 242.869C226.503 222.62 226.564 188.68 220.378 169.202C203.959 117.413 181.913 104.205 158.434 90.2122C131.506 74.0611 103.687 57.453 83.0076 -19.6883C77.9454 -38.2492 73.0152 -47.057 68.5283 -45.1246C61.5659 -42.1261 56.6195 -13.3688 57.1593 9.10177C58.0359 48.2444 66.158 91.8341 81.1753 138.621C91.2123 169.614 109.202 187.652 126.649 205.364C135.721 214.35 145.181 223.729 153.25 234.829C155.152 237.654 158.292 241.066 161.666 244.938C173.184 258.197 188.696 276.181 188.759 291.009C188.729 296.347 187.616 302.152 186.542 308.22C185.313 314.355 184.163 321.017 184.172 326.619C184.261 333.867 185.85 334.585 187.399 335.039C188.25 335.233 188.987 335.756 189.337 337.007C189.921 338.718 189.617 342.212 186.576 352.771C184.844 358.842 178.821 368.163 173.068 377.087C167.045 386.408 160.095 397.249 160.102 401.73C159.964 411.88 160.976 415.368 161.985 416.616C162.411 417.273 163.069 417.27 163.688 417.003C170.496 414.071 185.293 372.943 196.805 335.192C196.92 334.862 197.036 334.532 197.036 334.532C199.543 329.248 202.056 327.325 204.22 325.272C207.274 322.555 210.057 320.235 212.209 310.34C213.323 305.655 212.27 300.783 211.217 295.912C210.164 291.04 209.072 285.904 210.07 280.43Z" fill="#5D5D5D" fill-opacity="0.2"/>
<path d="M181.78 190.867C179.459 191.867 176.588 188.058 174.378 185.366C173.951 184.709 173.563 184.316 173.175 183.922C171.198 181.691 169.336 179.129 167.319 176.634C166.116 175.19 164.875 173.483 163.673 172.038L163.479 171.842C159.445 166.852 157.62 163.434 157.771 161.126C157.848 160.533 158.04 159.609 158.774 159.013C158.929 158.946 159.084 158.879 159.084 158.879C165.312 156.477 171.672 163.829 175.008 168.558C178.151 173.09 180.714 178.153 181.883 182.695C182.194 183.682 183.09 187.5 182.591 189.677C182.785 189.874 182.399 190.601 181.78 190.867ZM181.573 182.828C180.289 178.616 177.881 173.487 174.777 169.218C171.635 164.685 165.468 157.531 159.55 159.8L159.432 159.01L159.511 159.536C159.356 159.603 159.356 159.603 159.201 159.67C158.582 159.936 158.661 160.463 158.661 160.463C158.623 161.32 158.976 163.691 164.018 169.928L164.212 170.125C165.414 171.569 166.655 173.276 167.858 174.721C169.681 177.019 171.697 179.514 173.714 182.008C174.102 182.402 174.529 183.059 174.956 183.716C176.818 186.277 179.649 189.823 181.661 188.957C181.97 188.823 182.24 188.427 182.356 188.097C182.548 187.173 182.157 184.539 181.573 182.828Z" fill="#5D5D5D" fill-opacity="0.2"/>
<path d="M305.366 -146.286C326.531 -151.197 354.528 -120.091 359.926 -85.9781C368.217 -33.4921 356.647 16.0561 345.5 64.0206C343.578 72.1358 341.695 80.5145 339.812 88.8931L338.736 93.841C333.626 117.063 327.863 143.649 328.369 169.218C328.946 190.831 332.201 240.441 338.844 255.238C343.739 266.023 353.421 269.141 362.948 272.325C369.532 274.535 375.728 276.351 380.496 280.744L380.69 280.941C397.048 295.758 397.048 295.758 406.101 292.42C408.925 291.484 412.329 290.018 417.242 288.742C423.897 286.998 427.845 286.979 430.787 286.833C432.606 286.891 434.077 286.818 435.16 286.351C437.945 285.152 439.757 280.728 445.849 266.332C463.856 223.541 454.899 166.577 446.216 111.457C435.42 42.1115 424.078 -29.8017 466.974 -72.3802C473.157 -78.4067 479.381 -83.0493 485.57 -85.7146C502.899 -93.1777 519.709 -86.4031 534.103 -65.975C555.17 -36.0884 567.879 19.5401 565.681 72.3392C560.537 193.956 518.061 280.358 471.132 365.595C428.487 443.101 382.329 479.237 342.506 507.038C339.683 509.095 336.783 510.624 334.152 511.757C317.288 519.02 307.245 507.93 294.448 493.821C289.523 488.374 284.444 482.994 278.358 477.487C271.381 471.523 263.248 468.859 255.425 466.062C242.605 461.773 230.638 457.678 223.294 440.38C207.751 403.349 226.224 361.479 242.614 324.43C250.134 307.457 257.269 291.211 260.69 276.565C274.337 218.835 255.744 139.113 230.019 101.142C221.987 89.1859 208.031 76.1369 193.339 62.5643C168.877 39.7454 141.198 14.1078 132.714 -14.1907C128.783 -27.3529 127.799 -37.2997 129.8 -44.888C131.377 -50.8927 135.163 -55.3261 141.042 -57.8582C150.79 -62.0562 165.732 -61.204 181.487 -60.4217C200.92 -59.2613 222.831 -58.0467 240.16 -65.5097C248.515 -69.108 255.009 -74.1473 260.184 -81.4211C266.054 -89.555 270.683 -99.3964 275.157 -109.171C282.486 -125.22 289.312 -140.213 301.381 -145.41C302.658 -145.68 304.089 -146.016 305.366 -146.286ZM260.728 -79.9738C255.514 -72.9634 248.749 -67.5273 240.394 -63.9291C222.911 -56.3994 200.846 -57.5475 181.413 -58.7078C165.658 -59.4902 150.715 -60.3423 141.123 -56.211C135.398 -53.7455 132.037 -49.7754 130.42 -44.0342C128.496 -37.0393 129.596 -27.4226 133.294 -14.7207C141.545 13.1176 169.224 38.7552 193.492 61.3773C208.223 75.2134 222.334 88.1957 230.366 100.152C256.323 138.583 274.84 218.898 261.271 277.155C257.85 291.802 250.716 308.048 243.08 325.35C226.96 362.003 208.603 403.543 223.835 439.586C230.946 456.424 242.913 460.519 255.538 464.612C263.517 467.342 271.649 470.006 278.666 476.233C284.712 481.477 289.831 487.121 294.756 492.567C307.358 506.479 317.362 517.306 333.918 510.176C336.548 509.044 339.294 507.581 342.116 505.525C381.939 477.723 428.097 441.587 470.472 364.478C517.286 279.571 559.607 193.235 564.635 71.9487C566.757 19.7431 554.28 -35.4251 533.407 -65.115C519.208 -85.3463 502.746 -91.9907 485.572 -84.5943C479.538 -81.9956 473.274 -77.6163 467.285 -71.3931C448.194 -52.5204 438.444 -26.1789 437.108 9.15169C435.882 40.7912 441.514 76.4843 446.99 111.124C455.712 166.507 464.592 224.065 446.47 267.186C437.833 287.723 437.563 288.119 430.828 288.217C427.886 288.363 423.938 288.381 417.283 290.126C412.37 291.402 408.927 292.604 406.296 293.737C396.935 297.208 396.935 297.208 380.227 282.261L380.034 282.064C375.305 277.935 369.224 275.789 362.834 273.776C353.152 270.658 343.276 267.344 338.188 256.362C331.351 241.368 328.057 191.495 327.595 169.551C326.895 143.786 332.813 117.133 337.923 93.9107L338.999 88.9629C340.727 80.6509 342.765 72.2056 344.687 64.0903C355.834 16.1258 367.289 -33.0923 359.076 -85.0514C353.757 -118.637 326.186 -149.086 305.485 -144.375C304.208 -144.106 302.816 -143.506 301.578 -142.973C289.665 -137.842 282.993 -122.916 275.78 -107.197C271.343 -98.2792 266.753 -88.1743 260.728 -79.9738Z" fill="#5D5D5D" fill-opacity="0.2"/>
<path d="M271.809 -285.711C266.454 -294.055 259.624 -304.567 260.074 -313.73C260.184 -317.421 261.649 -320.855 264.006 -323.832C264.431 -324.295 265.01 -324.825 265.629 -325.092C271.663 -327.691 283.45 -315.949 293.84 -305.849C300.392 -299.422 306.75 -293.191 310.042 -292.086C326.075 -287.219 346.816 -290.546 365.004 -293.334C372.241 -294.489 379.013 -295.443 385.321 -296.198C399.756 -297.65 413.415 -301.01 425.792 -306.341C466.484 -323.865 497.114 -363.684 516.407 -424.406C518.525 -431.204 522.582 -436.034 528.152 -438.433C545.635 -445.963 579.801 -429.846 608.943 -385.499C626.405 -358.824 654.407 -301.093 647.078 -214.132C644.193 -179.255 634.935 -159.572 618.225 -152.376C605.538 -146.912 589.82 -148.551 571.586 -150.508C549.17 -152.907 523.89 -155.753 498.67 -144.891C479.021 -136.429 462.208 -121.06 447.073 -97.7245C400.509 -25.5379 412.19 64.1676 427.555 134.348C433.599 161.736 433.947 185.13 428.595 202.29C424.782 214.302 418.603 222.569 410.402 226.101C394.93 232.764 372.383 220.613 359.589 184.36C347.457 150.346 358.074 109.897 370.424 63.3762C384.389 11.1147 400.24 -48.4052 385.89 -112.857C378.832 -144.853 367.019 -173.399 354.491 -189.025C344.988 -200.909 338.255 -199.691 331.406 -198.143C325.989 -196.931 320.572 -195.719 313.211 -199.836C307.632 -203.039 304.793 -211.066 301.837 -219.883C299.815 -225.739 297.714 -232.122 294.572 -236.654C292.903 -239.019 290.62 -238.876 288.066 -238.337C284.854 -237.794 281.294 -237.382 278.42 -243.432C276.477 -247.64 277.357 -253.905 278.122 -259.84C278.849 -264.918 279.537 -270.26 278.525 -273.748C277.552 -276.973 274.991 -280.915 271.809 -285.711ZM278.819 -259.58C278.055 -253.645 277.251 -247.974 278.921 -244.489C281.523 -239.163 284.735 -239.705 287.831 -239.917C290.424 -240.193 292.978 -240.733 294.918 -237.644C298.255 -232.915 300.316 -226.796 302.378 -220.676C305.256 -212.386 307.94 -204.293 313.325 -201.287C320.492 -197.366 325.909 -198.578 331.172 -199.723C338.369 -201.141 345.218 -202.689 354.953 -190.345C367.714 -174.259 379.528 -145.713 386.625 -113.454C401.053 -48.475 385.28 11.5718 371.393 64.3602C359.159 110.55 348.657 150.669 360.517 183.961C373.039 219.489 395.083 231.578 410.246 225.047C418.137 221.649 424.356 213.645 427.898 202.03C432.98 185.266 432.671 162.135 426.705 135.275C411.262 64.5674 399.464 -25.9284 446.452 -98.5783C461.703 -122.244 478.67 -137.679 498.475 -146.209C523.849 -157.137 549.284 -154.357 571.7 -151.958C589.779 -149.935 605.497 -148.296 618.03 -153.693C634.585 -160.823 643.186 -179.382 646.11 -213.996C653.402 -300.1 625.633 -357.371 608.365 -383.849C580.62 -426.555 545.909 -444.119 528.426 -436.589C523.01 -434.257 519.379 -429.89 517.222 -423.356C497.658 -362.237 467.067 -322.155 425.912 -304.43C413.379 -299.033 399.721 -295.673 385.131 -294.154C378.783 -293.663 372.05 -292.445 364.814 -291.29C346.471 -288.436 325.73 -285.109 309.503 -290.172C306.056 -291.211 299.892 -297.245 292.952 -304.066C282.717 -314.233 271.125 -325.777 265.4 -323.311C264.936 -323.111 264.472 -322.912 264.047 -322.448C261.806 -319.801 260.572 -317.028 260.423 -313.6C260.049 -305.031 266.646 -294.979 271.807 -286.831C274.989 -282.035 277.589 -277.83 278.562 -274.605C280.35 -270.33 279.507 -264.921 278.819 -259.58Z" fill="#5D5D5D" fill-opacity="0.2"/>
<path d="M297.89 -267.512C298.74 -268.438 300.557 -269.501 302.724 -270.434C307.365 -272.433 325.044 -278.646 354.545 -275.094C379.207 -271.982 406.836 -276.593 432.52 -287.655C474.604 -305.779 501.004 -328.641 528.327 -402.911C530.331 -408.259 533.421 -411.832 537.599 -413.631C553.226 -420.361 581.203 -401.579 601.42 -370.766C617.174 -346.719 642.496 -294.841 635.85 -216.582C632.924 -183.089 624.421 -174.943 615.447 -171.078C604.462 -166.347 589.557 -168.056 572.329 -169.886C549.062 -172.478 522.814 -175.188 495.893 -163.594C474.386 -154.332 455.989 -137.439 439.387 -111.79C387.186 -31.0098 401.597 71.534 416.923 141.451C421.642 163.243 422.253 181.759 418.595 193.705C416.362 200.833 412.654 205.793 407.703 207.926C396.254 212.856 379.477 202.984 369.407 175.089C360.346 149.561 369.849 113.796 380.928 72.027C394.931 18.9085 412.396 -47.4729 396.448 -119.364C391.925 -139.839 385.507 -158.657 377.662 -174.898C365.078 -200.871 350.685 -221.299 334.559 -235.656C323.938 -245.096 313.904 -250.584 306.582 -254.438C299.957 -258.031 295.85 -260.187 295.729 -263.218C295.649 -264.865 296.46 -266.055 297.89 -267.512ZM306.735 -255.625C314.056 -251.771 324.091 -246.282 334.712 -236.842C350.838 -222.486 365.386 -202.124 378.009 -175.888C385.893 -159.384 392.31 -140.566 396.834 -120.091C412.821 -47.9362 395.356 18.4452 381.238 71.8937C370.274 113.333 360.926 149.031 369.753 174.098C379.63 201.797 396.213 211.473 407.507 206.608C412.458 204.476 416.051 199.846 418.129 192.784C421.826 181.102 421.1 162.916 416.42 141.388C401.055 71.207 386.604 -31.6002 439.075 -112.778C455.678 -138.427 474.23 -155.385 495.736 -164.648C522.812 -176.309 549.099 -173.335 572.367 -170.743C589.595 -168.913 604.345 -167.138 615.33 -171.869C623.994 -175.6 632.497 -183.746 635.307 -216.909C641.877 -294.575 616.594 -346.189 600.995 -370.302C581.36 -400.525 552.995 -419.701 537.677 -413.104C533.654 -411.372 530.564 -407.798 528.675 -402.781C515.418 -366.801 501.873 -341.628 485.916 -323.824C472.239 -308.404 456.232 -297.586 432.559 -287.391C406.876 -276.33 379.207 -271.982 354.39 -275.028C324.89 -278.579 307.365 -272.433 302.724 -270.434C300.557 -269.501 298.74 -268.438 297.851 -267.775C296.537 -266.648 295.88 -265.525 295.882 -264.405C296.352 -261.243 300.807 -258.958 306.735 -255.625Z" fill="#5D5D5D" fill-opacity="0.2"/>
<path d="M405.158 189.681C396.803 193.28 385.561 182.986 380.703 171.344C377.44 163.78 376.834 148.625 378.934 130.624C380.881 113.809 384.922 100.016 388.787 96.1097C389.366 95.5798 389.946 95.0498 390.565 94.7833C391.339 94.4501 391.997 94.447 392.655 94.4439C398.54 95.2728 399.207 100.871 400.737 113.386C401.717 121.092 402.934 131.499 405.976 145.324C410.07 164.022 410.521 179.243 408.711 184.788C408.366 186.898 407.633 188.615 405.158 189.681ZM405.396 145.854C402.315 131.766 400.943 121.425 400.118 113.652C398.588 101.138 397.923 96.6597 392.696 95.8276C391.495 95.5038 390.257 96.0369 389.137 97.3602C385.427 101.2 381.656 114.596 379.67 131.148C377.492 148.622 378.213 163.447 381.283 170.814C386.062 181.929 396.955 192.093 404.846 188.694C407.012 187.761 407.784 186.308 408.207 184.724C409.824 178.983 409.451 164.288 405.396 145.854Z" fill="#5D5D5D" fill-opacity="0.2"/>
<path d="M293.427 57.0174C292.578 59.0645 291.767 60.2546 290.994 60.5877C288.828 61.5206 286.576 57.4452 283.199 51.3322C279.782 44.9556 275.046 36.3446 267.795 28.5363L265.662 26.3716C257.442 17.5793 253.719 13.5768 254.063 10.3459C254.176 8.89547 255.181 7.90218 257.038 7.10257C258.585 6.43623 261.139 5.89695 265.279 4.95475C267.02 4.4852 268.606 4.08228 270.308 3.34931C283.769 -2.44786 292.991 -20.1535 299.822 -32.9052C303.796 -40.5029 306.883 -46.3169 309.668 -47.5164C310.751 -47.9828 311.797 -47.5923 312.805 -46.3449C324.094 -31.3063 301.984 34.8334 293.427 57.0174ZM312.149 -45.2215C311.335 -46.2721 310.638 -46.5324 309.709 -46.1326C307.234 -45.0664 304.147 -39.2524 300.288 -31.9848C293.496 -18.9697 284.119 -1.19735 270.349 4.73309C268.647 5.46606 266.906 5.93562 265.165 6.40516C261.141 7.0173 258.626 7.82001 257.079 8.48635C255.532 9.15269 254.797 9.74928 254.76 10.6062C254.609 12.9135 259.107 17.7033 266.009 25.3814L268.141 27.5462C275.392 35.3544 280.168 44.2289 283.739 50.5388C286.884 56.1916 288.942 60.0702 290.643 59.3372C291.262 59.0707 291.919 57.9472 292.651 56.2303C303.406 28.8954 322.196 -31.8905 312.149 -45.2215Z" fill="#5D5D5D" fill-opacity="0.2"/>
<path d="M290.331 35.0877C284.916 37.4199 275.801 25.9298 274.783 19.0807C274.353 16.1829 275.201 14.1359 276.903 13.403C284.909 9.67455 291.973 -2.61686 297.261 -11.3411C300.427 -16.6283 302.666 -20.3954 304.213 -21.0618C304.677 -21.2617 305.18 -21.1981 305.568 -20.8045C305.956 -20.411 306.267 -19.4239 306.502 -17.8433C307.761 -4.93216 297.439 26.4208 292.458 33.8914C291.684 34.2246 291.104 34.7546 290.331 35.0877ZM305.147 -18.1005C304.99 -19.1542 304.912 -19.6811 304.757 -19.6144C304.757 -19.6144 304.563 -19.8112 304.408 -19.7446C303.171 -19.2115 300.816 -15.1144 298.037 -10.5539C292.787 -1.56626 285.453 11.1219 277.253 14.6535C276.015 15.1865 275.669 16.1767 275.943 18.0207C276.843 24.0796 285.337 34.7159 290.133 32.6502C290.752 32.3837 291.177 31.9203 291.602 31.457C296.893 23.8531 306.404 -6.30973 305.147 -18.1005Z" fill="#5D5D5D" fill-opacity="0.2"/>
<path d="M306.644 282.279C308.037 281.679 309.435 284.441 311.575 291.087C319.435 316.291 337.56 346.323 360.337 356.694C383.307 367.262 397.512 366.47 405.175 365.973C408.929 365.757 410.903 365.748 411.602 367.129C411.835 367.589 411.953 368.379 411.761 369.303C410.994 374.117 389.646 408.817 354.3 429.085L352.792 430.015C349.621 431.941 346.875 433.404 344.245 434.537C334.807 438.601 326.715 437.321 305.32 419.628C301.948 416.876 298.615 414.388 295.282 411.899C285.129 404.5 276.254 397.952 275.114 386.951C274.171 378.388 277.908 368.089 286.556 354.275C296.131 338.94 299.847 315.197 302.299 299.566C303.908 289.344 304.942 283.012 306.644 282.279ZM286.789 354.735C278.412 368.153 274.713 378.715 275.423 386.818C276.524 397.555 285.205 403.907 295.204 411.372C298.537 413.861 301.87 416.35 305.242 419.102C326.482 436.861 334.729 438.074 343.857 434.143C346.488 433.01 349.233 431.547 352.404 429.621L353.912 428.691C388.33 408.824 410.336 374.12 410.948 369.372C411.14 368.449 410.907 367.989 410.868 367.725C410.363 366.541 408.273 366.881 404.983 366.896C397.32 367.394 383.115 368.186 359.99 357.685C337.058 347.38 318.894 317.084 310.995 291.617C309.088 285.431 307.69 282.67 306.607 283.136C305.06 283.802 303.988 290.991 302.492 299.763C300.389 315.524 296.519 339.334 286.789 354.735Z" fill="#5D5D5D" fill-opacity="0.2"/>
<path d="M302.852 235.704C304.245 235.104 305.564 237.338 307.083 243.131C316.507 277.751 332.803 325.389 365.961 340.258C376.187 344.823 387.416 347.274 400.112 347.412C402.59 347.466 405.65 349.231 408.556 351.063C412.353 353.352 416.151 355.64 419.245 354.308C419.554 354.174 420.019 353.974 420.289 353.578C421.913 352.318 422.915 350.204 423.879 347.827C424.998 345.383 426.116 342.94 427.818 342.207C428.437 341.94 429.25 341.871 430.102 342.064C431.457 342.321 432.505 343.832 433.358 345.146C434.639 347.117 435.88 348.825 438.471 347.429C441.062 346.033 441.946 342.008 442.945 337.654C443.637 334.553 444.368 331.716 445.68 329.469C446.607 327.949 448.462 326.029 450.318 325.229C451.556 324.696 452.563 324.823 453.183 325.677C453.804 326.531 454.194 328.045 454.158 330.022C454.014 336.811 447.139 345.938 442.427 351.892C441.036 353.612 439.955 355.198 439.144 356.388C432.425 366.569 425.744 375.893 419.796 383.5C395.463 415.842 372.237 439.018 349.038 454.615C346.486 456.274 344.05 457.604 342.039 458.47C330.28 463.534 319.705 458.839 297.298 437.658C291.754 432.478 286.212 428.418 281.019 424.489C269.16 415.582 259.704 408.443 257.941 395.468C256.569 385.128 260.186 371.798 269.33 353.566C284.108 324.498 291.168 286.702 295.85 261.703C298.574 246.796 300.531 236.703 302.852 235.704ZM269.487 354.619C260.458 372.522 256.802 385.588 258.135 395.665C259.859 408.376 269.121 415.318 280.98 424.225C286.328 428.088 291.909 432.411 297.413 437.328C319.781 458.246 330.201 463.008 341.806 458.01C343.972 457.077 346.253 455.814 348.805 454.155C372.004 438.558 395.075 415.448 419.447 383.37C425.241 375.83 432.077 366.439 438.641 356.325C439.452 355.135 440.533 353.548 441.923 351.828C446.481 345.941 453.356 336.814 453.424 330.619C453.498 328.905 453.148 327.654 452.721 326.997C452.1 326.143 450.978 326.346 450.359 326.613C448.812 327.279 446.957 329.199 446.031 330.719C444.834 332.636 444.142 335.737 443.411 338.574C442.412 342.929 441.413 347.283 438.667 348.746C435.806 350.539 434.486 348.304 433.205 346.333C432.352 345.019 431.498 343.705 430.143 343.448C429.291 343.254 428.633 343.257 428.014 343.524C426.312 344.257 425.309 346.371 424.345 348.748C423.342 350.861 422.224 353.305 420.445 354.631C420.136 354.765 419.711 355.228 419.401 355.361C416.152 356.761 412.161 354.275 408.364 351.986C405.304 350.222 402.552 348.323 400.075 348.269C387.379 348.131 376.15 345.68 365.923 341.115C332.572 326.049 316.082 278.215 306.658 243.594C305.257 238.592 304.092 236.291 303.009 236.757C300.997 237.624 298.924 248.046 296.161 262.69C291.44 287.426 284.38 325.222 269.487 354.619Z" fill="#5D5D5D" fill-opacity="0.2"/>
<path d="M310.982 -119.555C321.816 -121.979 333.713 -113.929 341.053 -98.8716C347.849 -85.2616 354.123 -59.6548 345.91 -16.3174C342.418 2.2839 338.346 21.4152 334.505 39.8863C323.405 92.5957 312.841 142.271 312.373 187.878C311.645 239.484 323.898 276.53 350.767 304.478C374.109 328.62 401.294 336.532 425.431 326.137C443.533 318.341 458.174 300.544 466.533 275.923C475.702 248.991 477.155 214.45 470.707 176.586C469.222 167.696 467.542 158.609 465.94 148.929C459.884 114.82 452.97 76.0352 451.366 41.9707C449.522 2.96444 455.052 -24.0821 468.224 -40.6861C475.293 -49.6165 482.328 -55.4492 489.136 -58.3811C501.514 -63.7118 513.404 -59.023 523.569 -44.9017C540.794 -20.9282 551.442 28.581 550.051 77.9493C546.895 184.135 513.074 261.204 459.302 351.35C418.422 419.688 380.077 451.898 344.893 476.58C342.187 478.306 339.789 479.899 337.314 480.966C321.996 487.562 312.768 477.523 301.134 464.595C296.637 459.805 292.06 454.488 286.401 449.638C279.967 444.001 274.775 441.191 270.126 438.709C262.611 434.659 256.18 431.262 247.836 418.318C230.995 392.498 244.578 366.468 258.778 339.051C266.341 324.582 274.135 309.453 277.168 294.413C296.754 199.09 270.958 117.425 240.422 72.5574C231.615 59.8137 220.14 49.0597 207.774 37.8486C192.733 24.1457 177.265 9.78589 166.745 -8.94694C162.242 -17.0977 160.374 -23.0202 161.219 -27.308C161.756 -30.342 163.726 -32.5921 166.975 -33.9914C172.855 -36.5235 182.919 -36.3733 194.609 -36.3626C210.944 -36.1102 231.227 -35.8765 248.091 -43.1396C257.065 -47.0044 264.294 -52.6403 269.778 -60.0474C275.263 -67.4545 279.351 -76.5025 283.478 -85.2872C290.035 -99.8829 296.399 -113.555 307.385 -118.286C308.468 -118.752 309.705 -119.286 310.982 -119.555ZM270.051 -59.3237C264.451 -51.5866 257.376 -46.0173 248.248 -42.0858C231.383 -34.8227 210.945 -34.9899 194.61 -35.2422C183.076 -35.3196 173.011 -35.4698 167.132 -32.9377C164.038 -31.605 162.222 -29.4216 161.646 -26.6509C160.917 -22.6933 162.784 -16.7708 167.055 -9.08021C177.42 9.71925 193.003 23.7491 207.889 37.5185C220.101 48.7963 231.73 59.4836 240.538 72.2273C258.424 98.4384 271.716 131.393 278.742 167.607C286.706 209.023 286.311 251.796 277.556 294.807C274.407 310.177 266.613 325.306 259.05 339.774C244.966 366.861 231.693 392.758 248.107 417.922C256.45 430.865 262.881 434.262 270.203 438.116C274.852 440.598 280.198 443.341 286.632 448.978C292.137 453.895 296.829 458.881 301.366 463.934C312.96 476.599 322.188 486.639 337.196 480.175C339.517 479.176 342.108 477.78 344.621 475.856C379.844 451.438 418.034 419.294 458.875 350.693C512.493 260.614 546.353 183.808 549.548 77.8858C550.977 28.7809 540.369 -20.4649 523.298 -44.505C513.328 -58.4294 501.437 -63.1184 489.214 -57.8543C482.406 -54.9224 475.526 -49.1562 468.457 -40.2259C455.4 -23.952 449.986 2.76454 451.83 41.7708C453.434 75.8353 460.309 114.356 466.404 148.729C468.161 158.343 469.686 167.496 471.171 176.386C477.504 214.58 476.09 249.384 466.96 276.58C458.64 301.464 443.844 319.328 425.587 327.191C401.296 337.653 373.956 329.807 350.575 305.402C336.346 290.509 326.215 273.29 319.833 252.495C314.113 233.937 311.485 212.926 311.948 188.342C312.571 142.668 323.095 92.7289 334.196 40.0196C338.036 21.5485 342.147 2.68063 345.6 -16.1841C353.697 -59.1915 347.463 -84.5349 340.861 -97.9481C333.56 -112.742 322.012 -120.662 311.178 -118.238C309.901 -117.968 308.818 -117.502 307.58 -116.969C296.75 -112.304 290.54 -98.699 283.944 -84.3668C279.739 -76.109 275.535 -66.7308 270.051 -59.3237Z" fill="#5D5D5D" fill-opacity="0.2"/>
<path d="M325.892 -91.2203C330.658 -87.9476 334.19 -81.9012 336.101 -73.4745C341.793 -48.4581 333.967 -4.72705 325.384 25.036C314.761 62.1239 304.606 101.253 302.031 135.996C301.956 137.71 302.003 142.455 302.206 148.253C302.664 167.956 303.298 201.037 297.573 203.502C297.109 203.702 296.451 203.705 295.909 203.378C293.236 202.007 291.758 197.598 291.59 189.823C291.464 183.431 292.148 175.848 292.795 169.123C293.558 162.068 294.089 155.673 293.62 152.512C292.406 144.345 289.577 141.92 286.863 139.165C284.769 137.264 282.637 135.099 281.314 130.624C279.601 124.635 280.444 119.227 281.171 114.149C281.937 109.334 282.703 104.52 281.378 98.924C279.078 88.9834 254.375 60.1025 232.657 34.7004C214.701 13.5642 199.15 -4.68358 198.639 -9.22852C198.6 -9.49195 198.716 -9.82202 198.676 -10.0854C199.525 -12.1325 201.573 -13.8556 204.823 -15.2549C209.774 -17.3872 217.01 -18.5417 225.408 -19.6358C235.547 -21.1995 247.156 -22.836 256.749 -26.9673C264.175 -30.1658 269.626 -34.4753 273.101 -39.8958C274.954 -42.9361 277.077 -46.3731 279.316 -50.1402C289.237 -66.4652 301.358 -86.8207 313.581 -92.0848C317.874 -94.214 322.21 -93.839 325.892 -91.2203ZM273.334 -39.4355C269.704 -33.9484 264.408 -29.7056 256.827 -26.4405C247.234 -22.3092 235.664 -20.4092 225.486 -19.109C217.127 -17.7515 209.852 -16.8604 204.901 -14.7281C201.806 -13.3954 199.912 -11.7389 199.064 -9.69182C199.064 -9.69182 199.064 -9.69185 199.103 -9.42843C199.575 -5.14691 215.708 13.6912 232.888 34.0402C254.645 59.7058 279.503 88.5201 281.842 98.7241C283.167 104.32 282.44 109.398 281.713 114.476C280.87 119.884 280.104 124.698 281.778 130.424C283.101 134.899 285.001 136.604 287.133 138.768C289.847 141.524 292.716 144.212 294.123 152.575C294.632 156 294.061 162.131 293.337 169.45C292.69 176.175 292.006 183.758 292.093 189.886C292.183 197.135 293.467 201.347 295.985 202.785C296.528 203.112 297.031 203.175 297.495 202.976C302.91 200.643 302.158 166.772 301.742 148.453C301.654 142.325 301.492 137.91 301.721 136.129C304.452 101.319 314.607 62.1906 325.23 25.1026C333.697 -4.33036 341.561 -47.7979 335.909 -72.551C333.998 -80.9776 330.66 -86.8273 326.087 -89.9031C322.406 -92.5219 318.264 -92.7 313.777 -90.7676C301.709 -85.5702 289.588 -65.2147 279.821 -48.9563C277.31 -45.9128 275.187 -42.4758 273.334 -39.4355Z" fill="#5D5D5D" fill-opacity="0.2"/>
<path d="M325.566 -55.7634C330.167 -34.7619 321.64 5.34774 316.75 21.1877C308.356 48.9068 303.013 71.6687 299.477 86.6455C295.94 101.622 294.018 109.738 292.161 110.537C290.769 111.137 289.719 108.506 288.198 101.593C276.811 49.3194 252.082 29.1378 237.431 16.949C231.036 11.5751 226.734 8.10252 225.953 3.95428C225.757 2.63713 225.755 1.51674 226.257 0.459928C227.027 -2.11395 228.766 -3.70382 231.396 -4.8366C234.336 -6.10265 238.399 -6.45136 242.927 -6.99997C248.926 -7.62143 255.698 -8.57607 262.196 -11.3747C271.17 -15.2395 277.855 -22.3227 282.754 -32.5609C289.465 -47.2232 300.082 -64.4082 309.829 -68.6062C313.388 -70.1387 316.563 -69.8242 319.469 -67.9926C322.143 -65.5009 324.356 -61.689 325.566 -55.7634ZM309.637 -67.6826C300.045 -63.5513 289.583 -46.4329 282.833 -32.034C277.973 -21.5324 271.133 -14.3825 262.159 -10.5178C255.506 -7.6525 248.695 -6.96129 242.735 -6.0764C238.207 -5.5278 234.144 -5.17909 231.204 -3.91304C228.728 -2.8469 227.144 -1.32363 226.335 0.986811C225.988 1.97701 225.951 2.83392 226.107 3.88764C226.81 7.50902 231.151 11.245 237.353 16.4221C252.159 28.5444 276.926 48.9893 288.353 101.526C289.756 107.649 290.806 110.28 291.734 109.88C293.436 109.147 295.435 100.438 298.779 86.3852C302.316 71.4084 307.62 48.383 316.052 20.9274C320.942 5.08742 329.509 -34.7588 324.947 -55.4968C323.776 -61.159 321.564 -64.971 318.812 -66.8692C316.216 -68.834 313.041 -69.1486 309.637 -67.6826Z" fill="#5D5D5D" fill-opacity="0.2"/>
<path d="M490.057 104.067C482.404 63.6385 485.14 32.1896 490.185 16.2831C492.573 9.08829 495.662 4.39452 498.756 3.06183C503.243 1.12944 507.547 5.7224 510.854 15.79C531.863 81.858 507.005 171.604 503.457 179.859C502.493 182.236 501.604 182.899 500.828 182.112C499.471 180.734 498.842 174.279 497.739 162.421C496.477 148.39 494.547 127.639 490.057 104.067ZM501.291 180.792C501.485 180.989 501.485 180.989 501.639 180.922C501.794 180.855 502.219 180.392 502.836 179.005C506.268 171.08 531.051 81.9277 510.158 16.6501C507.085 7.04266 503.129 2.57986 498.952 4.37898C496.012 5.64503 493.078 10.2721 490.805 17.1368C485.722 32.78 483.062 63.6354 490.676 103.801C495.205 127.636 497.135 148.387 498.551 162.352C499.535 172.299 500.282 179.544 501.291 180.792Z" fill="#5D5D5D" fill-opacity="0.2"/>
<path d="M478.344 111.635C470.539 72.3933 470.367 37.9924 477.8 14.8911C481.767 2.81196 487.443 -5.5187 493.942 -8.31733C503.38 -12.382 512.45 -4.51639 517.16 11.6736C531.094 58.9266 527.769 108.568 522.481 141.676C516.235 180.523 505.447 210.955 499.658 221.857C497.613 225.821 496.03 228.464 494.947 228.931C494.483 229.131 494.135 229.001 493.902 228.54C492.699 227.096 492.459 222.154 491.63 212.141C490.479 194.418 488.179 161.214 478.344 111.635ZM494.288 227.814C494.481 228.01 494.675 228.207 494.985 228.074C495.913 227.674 497.496 225.03 499.425 221.397C512.391 196.753 542.111 97.6259 516.89 12.0703C512.219 -3.85627 503.342 -11.5251 494.059 -7.52704C487.561 -4.7284 482 3.27217 478.187 15.2846C470.909 38.3193 471.042 72.4568 478.615 111.238C488.489 161.081 490.788 194.285 492.094 211.941C492.961 221.098 493.318 226.83 494.288 227.814Z" fill="#5D5D5D" fill-opacity="0.2"/>
<path d="M469.135 112.799C459.882 63.8105 459.775 22.0941 468.479 -4.63797C473.025 -18.3674 479.551 -27.6247 487.596 -31.0897C502.914 -37.6865 519.041 -22.2094 527.721 7.40625C540.489 51.2377 542.154 99.0099 532.83 149.272C523.313 200.459 505.26 238.504 495.304 256.807C490.248 265.991 488.048 270.022 486.807 268.314C485.798 267.067 485.519 261.861 485.193 251.912C484.307 230.431 482.724 185.427 469.135 112.799ZM486.922 267.984C487.116 268.181 487.271 268.114 487.58 267.981C488.818 267.448 491.173 263.351 494.916 256.413C527.873 195.692 553.765 98.4938 527.296 7.86958C518.655 -21.4826 502.877 -36.8295 487.714 -30.2994C479.823 -26.901 473.257 -17.9071 468.867 -4.24439C460.124 22.2242 460.54 63.8074 469.599 112.599C483.227 185.49 484.81 230.495 485.581 252.305C485.905 261.135 486.069 266.67 486.922 267.984Z" fill="#5D5D5D" fill-opacity="0.2"/>
<path d="M329.207 349.921C344.581 378.055 365.604 381.053 382.016 380.712C383.641 380.573 383.991 381.823 383.954 382.68C384.427 388.082 371.255 404.686 349.44 414.081C346.964 415.147 344.488 416.214 341.974 417.016C331.915 420.227 304.875 406.647 293.783 392.925C290.951 389.38 289.281 385.895 289.16 382.864C288.683 375.221 291.927 370.461 295.866 364.841C299.92 358.89 304.515 352.146 305.58 340.476C306.227 333.751 307.614 329.79 310.09 328.724C314.113 326.992 320.588 334.013 329.207 349.921ZM306.432 340.67C305.406 352.603 300.696 359.677 296.486 365.694C292.857 371.182 289.574 375.679 290.088 382.464C290.286 384.902 291.762 388.19 294.4 391.539C305.338 405.327 331.99 418.513 341.894 415.369C344.408 414.566 346.884 413.5 349.359 412.434C370.711 403.239 383.613 387.031 383.296 382.683C383.179 381.893 382.521 381.896 382.172 381.766C365.451 382.24 344.234 379.045 328.627 350.451C315.623 327.182 307.952 323.198 306.432 340.67Z" fill="#5D5D5D" fill-opacity="0.2"/>
<path d="M499.24 36.2079C500.014 35.8747 500.944 36.5953 501.836 38.1727C506.224 46.6536 511.155 79.8457 506.123 103.595C505.432 106.695 504 107.032 502.254 104.14C498.022 96.7131 492.442 69.1259 497.042 41.3588C497.579 38.3247 498.312 36.6077 499.24 36.2079ZM503.025 102.687C503.646 103.541 504.073 104.198 504.382 104.064C504.692 103.931 504.923 103.271 504.845 102.744C509.53 79.9852 504.986 47.1866 500.677 39.2327C500.172 38.0488 499.629 37.7218 499.165 37.9217C498.701 38.1216 498.239 39.4419 497.894 41.5524C493.835 68.5262 499.027 95.7198 503.025 102.687Z" fill="#5D5D5D" fill-opacity="0.2"/>
<path d="M298.808 -180.459C322.526 -185.909 356.839 -151.076 369.549 -118.712C391.588 -62.3364 376.241 -2.75302 361.432 54.9167C347.124 110.409 333.7 162.998 351.393 212.276C366.829 255.238 397.933 268.47 419.439 259.207C431.043 254.21 439.889 242.833 444.663 227.323C450.323 208.909 450.013 184.658 443.814 157.337C422.449 63.3937 404.666 -41.9022 463.599 -100.637C470.323 -107.457 477.321 -112.433 484.128 -115.364C510.895 -126.892 531.789 -108.142 544.63 -90.409C569.264 -56.4532 584.962 3.77445 583.774 58.9413C582.69 105.936 574.098 154.481 557.502 207.876C532.897 287.142 494.584 362.783 440.208 438.894L437.891 442.135C414.874 474.47 391.316 507.599 364.764 531.647C363.179 533.171 361.44 534.76 359.546 536.417C351.469 544.1 341.382 553.77 332.098 557.768C328.385 559.367 325.019 559.976 322.153 559.528C317.779 558.89 314.753 555.147 311.922 551.602C309.711 548.91 307.655 546.152 304.788 544.584C303.006 543.67 299.599 542.895 296.036 542.187C290.267 541.028 284.304 539.672 282.132 537.244C277.905 532.057 278.246 527.706 278.433 523.422C278.66 520.521 278.888 517.62 277.527 514.002L276.439 511.107C268.314 489.661 268.314 489.661 256.701 489.057C254.533 488.869 251.707 488.685 248.378 488.437C238.699 487.56 234.006 481.453 229.39 475.873C225.784 471.54 222.525 467.338 217.103 465.189C216.948 465.255 216.793 465.322 216.639 465.389C211.069 467.788 168.125 481.237 162.254 464.986C160.621 460.645 161.85 454.51 165.554 447.309C170.261 437.994 174.631 435.271 177.416 434.072C178.808 433.472 180.085 433.203 181.207 433C182.33 432.797 183.258 432.397 184.186 431.997C187.59 430.531 190.759 427.485 192.62 405.662C192.999 400.454 193.301 395.839 193.605 392.345C194.892 374.413 194.853 374.149 203.157 363.565C205.243 360.985 207.715 357.679 210.998 353.182C221.503 338.567 222.413 326.964 223.511 312.196C224.157 304.351 224.8 295.385 226.873 284.962C229.138 273.616 232.451 263.781 235.533 254.606C241.118 237.906 246.357 222.196 245.547 200.122C243.975 161.84 227.166 131.801 209.201 105.063C200.509 91.9894 184.657 79.4766 167.72 66.31C139.156 43.5763 106.871 17.9605 101.59 -16.4822C98.6543 -36.2394 99.3632 -52.5209 103.755 -65.0633C108.61 -78.926 117.575 -88.3925 131.19 -94.2563C150.994 -102.785 177.123 -101.986 200.117 -101.238C218.31 -100.665 233.871 -100.079 243.309 -104.144C245.475 -105.077 247.138 -106.073 248.413 -107.463C256.722 -115.806 262.546 -128.685 267.944 -141.1C275.234 -157.413 282.137 -172.999 294.669 -178.396C296.138 -179.589 297.376 -180.123 298.808 -180.459ZM249.228 -106.413C247.798 -104.956 245.981 -103.893 243.814 -102.96C234.376 -98.8955 218.66 -99.4144 200.467 -99.9876C177.474 -100.736 151.5 -101.602 131.85 -93.1391C118.389 -87.3419 109.734 -78.0087 105.111 -64.8061C100.834 -52.5937 100.241 -36.6423 103.058 -17.6754C108.223 15.977 140.314 41.396 168.49 63.7361C185.311 77.2328 201.318 89.6789 210.203 102.949C228.362 129.884 245.365 160.12 247.055 199.192C247.943 221.793 242.589 237.833 236.888 254.863C233.806 264.038 230.494 273.873 228.189 284.956C226.116 295.379 225.433 304.081 224.788 311.927C223.613 327.288 222.742 339.155 211.813 354.232C208.53 358.729 206.058 362.036 203.972 364.616C195.977 375.067 195.977 375.067 194.727 392.142C194.462 395.899 194.121 400.251 193.742 405.459C192.073 426.358 189.063 431.579 184.576 433.511C183.647 433.911 182.525 434.114 181.597 434.514C180.32 434.783 179.237 435.25 177.844 435.849C174.905 437.115 171.154 439.572 166.563 448.556C163.129 455.36 162.092 460.572 163.298 464.257C168.353 478.336 208.668 467.14 216.404 463.808C216.559 463.742 216.713 463.675 216.713 463.675L216.985 464.399L217.177 463.475C222.949 465.754 226.555 470.087 230.162 474.42C234.817 480.263 239.238 485.646 248.607 486.656C251.936 486.904 254.762 487.089 256.93 487.276C269.046 487.944 269.24 488.141 277.637 510.311L278.726 513.205C280.319 517.284 280.015 520.778 279.827 523.942C279.601 527.963 279.297 531.458 283.059 535.724C285.076 538.219 291.155 539.244 296.421 540.34C299.983 541.048 303.39 541.823 305.327 542.67C308.349 544.172 310.598 547.127 312.809 549.818C315.641 553.364 318.433 556.646 322.498 557.417C325.209 557.932 328.421 557.39 332.134 555.79C341.262 551.859 351.349 542.189 359.466 534.77C361.36 533.113 363.06 531.26 364.684 530C391.082 506.018 414.639 472.889 437.386 440.951L439.703 437.71C493.924 361.665 532.122 286.355 556.611 207.419C573.092 154.354 581.683 105.809 582.691 59.4078C583.957 4.76773 568.377 -54.6696 543.936 -88.4286C531.289 -105.965 510.628 -124.255 484.326 -112.927C477.518 -109.995 470.675 -105.086 464.067 -98.5961C405.984 -40.788 423.649 63.7176 444.742 156.937C451.019 184.785 451.408 209.563 445.672 228.57C440.821 244.674 431.511 256.251 419.752 261.315C397.937 270.71 366.291 257.152 350.582 213.466C332.617 163.464 346.926 107.972 360.696 54.3929C375.428 -2.68323 390.505 -61.87 368.932 -117.325C356.455 -149.229 322.685 -183.735 299.314 -178.155C298.038 -177.885 296.8 -177.352 295.562 -176.819C283.494 -171.621 276.706 -156.366 269.572 -140.12C263.476 -127.965 257.807 -115.152 249.228 -106.413Z" fill="#5D5D5D" fill-opacity="0.2"/>
</svg>
