<svg width="44" height="44" viewBox="0 0 44 44" fill="none" xmlns="http://www.w3.org/2000/svg">
<circle cx="22" cy="22" r="22" fill="#D7FFCB"/>
<circle cx="22" cy="22" r="15" fill="#0D968F"/>
<path fill-rule="evenodd" clip-rule="evenodd" d="M21.4678 25.0604C19.4618 25.0604 17.8346 23.4332 17.8346 21.4272C17.8346 19.4212 19.4618 17.794 21.4678 17.794C23.4738 17.794 25.101 19.4212 25.101 21.4272C25.101 23.4332 23.4738 25.0604 21.4678 25.0604ZM26.7497 22.4345C27.305 22.4345 27.757 21.9825 27.757 21.4272C27.757 20.8719 27.305 20.4199 26.7497 20.4199C26.1944 20.4199 25.7424 20.8719 25.7424 21.4272C25.7424 21.9825 26.1944 22.4345 26.7497 22.4345ZM17.1889 21.4272C17.1889 20.8719 16.7369 20.4199 16.1816 20.4199C15.6263 20.4199 15.1743 20.8719 15.1743 21.4272C15.1743 21.9825 15.6263 22.4345 16.1816 22.4345C16.7369 22.4345 17.1889 21.9825 17.1889 21.4272ZM11.8984 17.1612V25.6932C11.8984 26.6058 12.6432 27.3505 13.5601 27.3548H25.0967V25.9385H15.2604C15.2819 25.8352 15.2906 25.7362 15.2906 25.6286C15.2906 24.7031 14.5372 23.9498 13.6117 23.9498C13.5127 23.9498 13.4137 23.9584 13.319 23.9756V18.8788C13.4137 18.896 13.5127 18.9046 13.6117 18.9046C14.5372 18.9046 15.2906 18.1513 15.2906 17.2258C15.2906 17.1182 15.2776 17.0149 15.2604 16.9159H27.5762C27.5418 17.045 27.5246 17.1827 27.5246 17.3248C27.5246 18.2503 28.2779 19.0036 29.2034 19.0036C29.3455 19.0036 29.4832 18.9864 29.6166 18.952V22.3915H31.0329V17.1612C31.0329 16.2486 30.2882 15.5039 29.3756 15.5039H13.5558C12.6432 15.5039 11.8984 16.2486 11.8984 17.1612ZM31.0329 26.3733C31.0329 26.2571 30.9382 26.1624 30.822 26.1624H25.7424C25.6262 26.1624 25.5315 26.2571 25.5315 26.3733V27.1396C25.5315 27.2558 25.6262 27.3505 25.7424 27.3505H30.822C30.9382 27.3505 31.0329 27.2558 31.0329 27.1396V26.3733ZM26.7282 25.6846H31.8077C31.924 25.6846 32.0187 25.5899 32.0187 25.4736V24.7074C32.0187 24.5912 31.924 24.4965 31.8077 24.4965H26.7282C26.612 24.4965 26.5173 24.5912 26.5173 24.7074V25.4736C26.5173 25.5899 26.612 25.6846 26.7282 25.6846ZM33.0002 23.8077V23.0415C33.0002 22.9252 32.9055 22.8305 32.7892 22.8305H27.7097C27.5934 22.8305 27.4987 22.9252 27.4987 23.0415V23.8077C27.4987 23.9239 27.5934 24.0186 27.7097 24.0186H32.7892C32.9055 24.0186 33.0002 23.9239 33.0002 23.8077Z" fill="white"/>
</svg>
