<svg width="44" height="44" viewBox="0 0 44 44" fill="none" xmlns="http://www.w3.org/2000/svg">
<circle cx="22" cy="22" r="22" fill="#1A460D"/>
<circle cx="22" cy="22" r="15" fill="#0D968F"/>
<path d="M22.4141 11C21.1214 11 20.0703 12.0902 20.0703 13.3828C20.0703 14.6754 21.1214 15.7266 22.4141 15.7266C23.7067 15.7266 24.7578 14.6754 24.7578 13.3828C24.7578 12.0902 23.7067 11 22.4141 11Z" fill="white"/>
<path d="M31.8281 21C31.8281 21.7895 31.2626 22.4512 30.5447 22.6724C30.1867 19.9303 27.7024 17.6659 24.2177 17.0541L24.2136 17.0484C22.3036 16.7314 20.3724 16.9248 18.693 17.596C18.2673 16.491 17.203 15.7266 15.9688 15.7266H15.3828V20.0158C15.0052 20.5085 14.7156 21.0343 14.5188 21.5859H13V26.2734H15.1053C15.4836 26.8577 15.9693 27.3881 16.5547 27.8573V31H20.0703V29.523C21.5849 29.8766 23.2455 29.876 24.7578 29.5236V31H28.2734V27.8602C29.6098 26.7891 30.4259 25.3697 30.5839 23.8737C31.9355 23.6141 33 22.4261 33 21H31.8281ZM17.7266 22.7578H16.5547V21.5859H17.7266V22.7578ZM25.1005 20.9737C23.4835 20.235 21.2863 20.2493 19.731 20.9696L19.2377 19.9065C21.0986 19.043 23.6632 19.0299 25.5869 19.9071L25.1005 20.9737Z" fill="white"/>
</svg>
