<svg width="609" height="297" viewBox="0 0 609 297" fill="none" xmlns="http://www.w3.org/2000/svg">
<path d="M86.3884 58.4195C85.5904 60.5933 84.7924 62.7671 84.1541 64.3975C76.0148 83.6901 66.5987 101.081 55.7463 119.83C54.31 122.275 52.8736 124.992 51.2777 127.438C42.3404 142.655 33.2436 158.415 27.6578 177.164C25.5831 184.501 24.9447 189.935 25.7426 193.467C26.2214 195.098 26.8598 196.185 27.8174 196.456C28.2962 196.728 28.6153 196.728 29.0941 196.728C31.0092 196.728 33.7223 195.098 36.595 192.109C42.5 186.131 48.0858 178.523 53.512 171.186C57.9806 165.208 62.6089 158.958 67.2371 153.795C86.3884 132.329 98.9963 117.928 104.901 77.7121C106.178 69.2885 106.816 50.2677 102.986 42.1159C101.709 39.3987 99.9539 38.04 97.8792 38.04C93.4105 38.8552 89.2611 50.2677 86.3884 58.4195ZM98.6771 39.1269C100.433 39.1269 101.869 40.4855 102.986 42.9311C106.657 51.0829 106.018 69.5603 104.742 77.7121C98.8367 117.656 86.3884 131.786 67.2371 153.252C62.4493 158.687 57.8211 164.664 53.512 170.642C48.0858 177.979 42.5 185.316 36.595 191.565C33.084 195.37 29.8921 196.728 28.1366 195.913C27.3386 195.37 26.7002 194.554 26.381 193.196C25.5831 189.935 26.2214 184.5 28.2961 177.436C33.7223 158.958 42.9788 143.198 51.7565 127.981C53.1928 125.264 54.7888 122.819 56.2251 120.373C66.9179 101.624 76.4936 84.2335 84.6328 64.9409C85.2712 63.3106 86.0692 61.1368 86.8672 58.963C89.7399 50.8112 93.7297 39.6704 98.3579 39.3987C98.3579 39.1269 98.5175 39.1269 98.6771 39.1269Z" fill="#5D5D5D" fill-opacity="0.2"/>
<path d="M95.9653 13.3124C88.9432 16.3014 82.8786 32.8767 77.9312 45.9195C76.1756 50.5389 74.5797 54.8865 73.1433 58.1472C65.1636 75.5377 56.2264 91.2978 47.6083 106.515C45.374 110.59 42.5013 114.938 39.469 119.557C30.5317 133.687 19.5197 151.078 16.1683 167.109C13.2956 180.696 15.0511 193.467 16.6471 205.695C17.9238 215.748 19.3602 226.346 18.243 237.487C17.6046 244.28 15.2107 251.073 12.6572 258.138C9.62491 266.561 6.43303 275.257 6.27344 284.767C6.27344 288.028 6.43303 291.017 7.07141 294.277C9.14613 304.331 11.3804 308.951 13.934 308.951C16.4875 308.951 19.3601 304.331 23.5096 293.19C27.4994 282.593 29.0954 270.094 30.5317 258.138C32.1277 246.182 33.564 233.682 37.7135 222.813C45.374 202.162 58.9395 187.217 70.7494 173.631C71.707 172.544 72.8242 171.457 73.7817 170.37C93.5714 148.089 109.212 130.426 116.074 82.8743C117.989 70.3749 117.51 38.3112 109.85 22.0076C106.499 13.8558 101.711 10.8668 95.9653 13.3124ZM109.531 22.5511C116.234 37.2243 117.67 68.2011 115.595 82.3308C108.733 129.339 93.2522 146.73 73.6221 169.012C72.6646 170.098 71.707 171.185 70.5899 172.272C58.6203 185.587 45.0548 200.804 37.2347 221.726C33.0852 232.596 31.4893 245.367 30.053 257.594C28.6166 269.55 27.0207 281.778 23.0308 292.375C20.3177 299.984 16.9662 307.592 14.0935 307.592C11.8592 307.592 9.9441 302.973 7.86938 293.734C7.231 290.745 6.91181 288.028 7.07141 284.767C7.231 275.8 10.4229 267.105 13.2956 258.681C15.8491 251.616 18.4026 244.823 19.041 237.758C20.1581 226.618 18.7218 216.02 17.445 205.695C15.8491 192.923 14.2531 180.968 16.9662 167.653C20.3177 151.893 31.3297 134.502 40.1074 120.644C43.1397 116.025 46.0124 111.406 48.2467 107.33C56.8648 92.113 65.802 76.3529 73.7817 58.9624C75.2181 55.7017 76.814 51.3541 78.5695 46.7347C83.3574 33.6919 89.4219 17.3883 96.1249 14.671C97.4016 14.1276 98.5188 13.8558 99.636 13.8558C103.466 13.8558 106.818 16.8448 109.531 22.5511Z" fill="#5D5D5D" fill-opacity="0.2"/>
<path d="M103.306 -45.6525C99.4754 -54.8912 96.1239 -56.2499 92.7724 -57.3368C90.3785 -58.1519 87.825 -59.2389 84.9523 -62.7713L84.7927 -63.3147C76.6534 -78.8031 49.3629 -129.344 40.1064 -129.344C38.9892 -129.344 38.1913 -128.801 37.5529 -127.442C36.2761 -124.725 36.4357 -119.29 37.7125 -110.595C38.5105 -105.432 46.3306 -98.3674 54.4699 -91.0308C61.3324 -84.7811 68.3545 -78.2597 70.7485 -73.6403C72.8232 -69.2927 75.6959 -63.3148 75.5363 -61.1409C75.5363 -60.5975 75.0575 -60.3258 74.4191 -59.7823C72.9828 -58.6954 70.9081 -56.7933 72.0252 -48.0981C72.8232 -42.1201 74.8979 -36.4138 77.1322 -30.7076C79.0473 -25.2731 80.9625 -20.382 81.6008 -15.4909C83.6756 -2.17632 70.7485 22.279 62.29 38.5826C59.4173 44.0172 57.0234 48.6365 55.587 52.1689C49.3629 66.2987 41.7023 79.0698 34.2014 91.5692C19.6784 116.025 4.67653 141.295 -0.59007 176.076C-8.41018 227.976 -10.0061 274.169 -5.2183 312.754C-2.66479 333.406 6.11288 361.937 14.731 361.937C19.9976 361.937 23.9874 351.068 26.2217 329.601C34.8398 246.997 59.2577 219.552 82.718 192.923C103.625 169.283 123.414 147.001 131.873 89.3954C135.065 67.6573 130.117 33.9633 123.734 15.4859C120.861 7.33409 117.35 2.44302 113.839 -1.9046C110.807 -5.98049 107.934 -9.51294 105.7 -15.4909C104.104 -19.8385 104.423 -24.7296 104.742 -29.8924C104.902 -35.3269 105.221 -41.0332 103.306 -45.6525ZM104.742 -14.6758C107.136 -8.42604 110.009 -4.62186 113.2 -0.545975C116.552 3.80165 120.063 8.42101 122.776 16.3011C129 34.5067 133.948 67.3856 130.756 88.852C122.297 145.915 102.827 167.924 82.0796 191.293C58.3001 218.194 33.7226 245.91 24.7854 329.33C22.5511 349.438 19.04 360.035 14.4118 360.035C7.23003 360.035 -1.70723 334.221 -4.42033 312.211C-9.20815 273.898 -7.61221 228.248 0.2079 176.62C5.4745 142.382 20.3167 117.383 34.6802 92.9279C42.1811 80.4285 50.0012 67.3856 56.2254 53.2558C57.6618 49.7234 60.2152 45.104 62.9283 39.9413C72.1848 22.279 84.6331 -1.63289 82.5584 -16.0344C81.7604 -21.1972 79.8453 -26.36 77.9302 -31.7945C75.8555 -37.229 73.7807 -43.207 72.9828 -48.6415C72.0252 -55.7064 73.4615 -57.065 74.8979 -58.152C75.6959 -58.6954 76.3342 -59.5106 76.4938 -60.8692C76.813 -62.7713 76.0151 -66.032 71.5464 -74.999C68.9929 -80.1618 61.8112 -86.6832 54.9486 -92.9329C47.7669 -99.4543 39.468 -107.063 38.8297 -111.41C37.2337 -121.192 37.7125 -124.997 38.5105 -126.627C38.8296 -127.442 39.468 -127.714 40.1064 -127.714C47.1285 -127.714 67.397 -94.0198 83.9948 -62.2279C84.1544 -61.9561 84.3139 -61.6844 84.3139 -61.6844C87.5058 -57.6085 90.2189 -56.7933 92.6128 -55.7064C95.9643 -54.3478 98.9966 -53.2609 102.508 -44.5656C104.263 -40.4897 103.944 -35.3269 103.625 -30.1641C103.306 -25.0013 102.986 -19.5668 104.742 -14.6758Z" fill="#5D5D5D" fill-opacity="0.2"/>
<path d="M90.2201 83.9619C87.8262 83.9619 85.5919 88.853 83.8363 92.3854C83.5171 93.2006 83.1979 93.7441 82.8787 94.2875C81.2828 97.2765 79.8465 100.537 78.2505 103.798C77.293 105.7 76.3354 107.874 75.3778 109.776L75.2182 110.048C72.0264 116.569 70.7496 120.645 71.2284 122.819C71.388 123.362 71.7072 124.177 72.5051 124.449C72.6647 124.449 72.8243 124.449 72.8243 124.449C79.2081 124.177 84.3151 114.395 86.8686 108.417C89.2625 102.711 91.018 96.733 91.4968 91.842C91.6564 90.755 91.9756 86.6792 91.1776 84.7771C91.3372 84.5054 90.8585 83.9619 90.2201 83.9619ZM91.1776 91.842C90.5393 96.4613 88.9433 102.439 86.5494 107.874C84.1555 113.58 79.2081 123.09 73.1435 123.362V124.177V123.634C72.9839 123.634 72.9839 123.634 72.8243 123.634C72.186 123.634 72.186 123.09 72.186 123.09C72.0264 122.275 72.0264 119.83 76.0162 111.678L76.1758 111.406C77.1334 109.504 78.0909 107.33 79.0485 105.428C80.4848 102.439 82.0808 99.1786 83.6767 95.9178C83.9959 95.3744 84.3151 94.5592 84.6343 93.7441C86.0706 90.4834 88.3049 85.864 90.3797 85.864C90.6989 85.864 91.018 86.1357 91.1776 86.4074C91.4968 87.2226 91.4968 89.9399 91.1776 91.842Z" fill="#5D5D5D" fill-opacity="0.2"/>
<path d="M258.592 359.221C279.818 355.145 302.48 313.3 302.799 277.975C303.278 223.63 284.925 180.425 267.21 138.58C264.178 131.515 261.145 124.178 258.113 116.841L256.357 112.494C248.059 92.1143 238.643 68.7459 235.451 43.747C232.897 22.5524 228.907 -26.9018 233.216 -44.0205C236.408 -56.5199 245.345 -63.5848 254.123 -70.6497C260.188 -75.5408 265.933 -79.8884 269.923 -86.1381L270.083 -86.4098C283.808 -107.604 283.808 -107.604 293.064 -108.148C295.937 -108.42 299.448 -108.42 304.395 -109.235C311.098 -110.322 314.928 -111.952 317.801 -113.039C319.557 -113.854 320.993 -114.398 322.11 -114.398C324.983 -114.398 327.377 -110.865 335.357 -99.4527C358.976 -65.4869 358.498 -6.52231 358.019 50.5402C357.54 122.276 356.902 196.729 404.62 220.097C411.483 223.358 418.186 225.26 424.57 225.26C442.444 225.26 457.765 211.674 468.777 185.86C484.896 148.09 489.205 88.8536 479.47 38.5843C456.967 -77.1711 403.344 -143.201 345.57 -206.241C293.064 -263.575 243.111 -279.336 200.5 -289.661C197.467 -290.476 194.435 -290.748 191.722 -290.748C174.326 -290.748 166.187 -275.803 155.813 -256.782C151.823 -249.446 147.674 -242.109 142.567 -234.229C136.662 -225.534 129.161 -219.556 121.979 -213.578C110.169 -204.067 99.1573 -195.1 94.5291 -175.264C84.7939 -132.875 108.733 -99.9962 129.959 -70.9214C139.694 -57.6069 148.951 -44.8357 154.377 -32.0646C175.922 18.2048 169.379 103.255 149.908 150.807C143.844 165.752 132.193 184.23 119.905 203.522C99.4765 235.858 76.3354 272.269 72.1859 303.246C70.2708 317.647 70.7496 327.701 73.7819 334.222C76.1758 339.385 80.4848 342.103 86.5494 342.103C96.6038 342.103 110.967 335.038 126.129 327.701C144.801 318.462 165.868 308.137 183.742 308.137C192.36 308.137 199.382 310.311 205.447 315.202C212.309 320.636 218.214 328.245 223.96 335.853C233.376 348.352 242.154 360.036 254.602 360.036C255.879 359.765 257.315 359.493 258.592 359.221ZM205.766 313.571C199.702 308.952 192.36 306.506 183.742 306.506C165.708 306.506 144.482 316.832 125.81 326.071C110.648 333.407 96.2846 340.472 86.3898 340.472C80.4848 340.472 76.6546 338.027 74.2607 333.136C71.388 327.158 71.0688 317.375 72.8243 303.517C76.8142 273.084 99.9553 236.673 120.224 204.609C132.512 185.045 144.322 166.567 150.387 151.622C170.017 103.527 176.401 17.9331 154.856 -32.8798C149.429 -45.6509 140.173 -58.422 130.278 -72.0084C109.371 -100.811 85.5918 -133.419 95.1675 -174.721C99.6361 -194.013 110.648 -202.98 122.298 -212.219C129.64 -218.197 137.141 -224.175 143.046 -233.142C148.153 -240.75 152.302 -248.359 156.292 -255.695C166.506 -274.444 174.645 -289.118 191.722 -289.118C194.435 -289.118 197.308 -288.846 200.34 -288.031C242.952 -277.705 292.904 -261.945 345.092 -204.883C402.705 -142.114 456.169 -76.0842 478.512 39.3994C488.088 89.1254 483.939 147.818 467.979 185.316C457.127 210.859 442.125 224.173 424.41 224.173C418.186 224.173 411.483 222.543 404.78 219.01C383.554 208.685 370.308 187.219 363.924 153.524C358.178 123.363 358.498 86.4081 358.817 50.5402C359.296 -6.79404 359.615 -66.3021 335.835 -100.54C324.504 -116.843 324.185 -117.115 317.642 -114.398C314.769 -113.311 310.939 -111.68 304.236 -110.593C299.288 -109.778 295.777 -109.507 293.064 -109.507C283.488 -108.963 283.488 -108.963 269.444 -87.4967L269.285 -87.225C265.295 -81.2471 259.709 -76.6277 253.804 -72.0084C244.867 -64.9435 235.77 -57.6069 232.418 -44.8357C227.95 -27.4453 231.94 22.2807 234.653 43.747C237.685 69.0176 247.261 92.3861 255.559 112.766L257.315 117.113C260.188 124.45 263.38 131.786 266.412 138.851C284.127 180.697 302.321 223.63 301.842 277.432C301.523 312.213 279.179 353.243 258.432 357.319C257.155 357.591 255.719 357.591 254.442 357.591C242.154 357.591 233.535 345.907 224.279 333.679C218.693 326.886 212.788 319.006 205.766 313.571Z" fill="#5D5D5D" fill-opacity="0.2"/>
<path d="M246.14 508.399C242.151 518.724 237.044 531.767 238.799 540.462C239.437 543.995 241.353 546.712 244.066 548.614C244.544 548.886 245.183 549.158 245.821 549.158C252.045 549.158 261.781 532.854 270.399 518.724C275.825 509.757 281.091 501.062 284.124 498.616C298.966 487.204 319.554 481.769 337.588 476.878C344.77 474.976 351.472 473.074 357.697 471.172C371.9 466.553 385.626 464.107 398.393 464.107C440.366 464.107 475.796 489.921 503.246 540.734C506.279 546.44 510.907 549.429 516.652 549.429C534.686 549.429 565.488 519.539 587.352 464.379C600.439 431.228 619.271 363.568 599.641 282.322C591.821 249.715 580.011 234.498 562.775 234.498C549.688 234.498 534.686 242.65 517.291 252.161C495.905 263.845 471.806 277.159 445.793 277.159C425.524 277.159 407.011 269.279 388.977 252.976C333.438 202.435 331.842 110.591 336.63 36.1382C338.545 7.06351 335.513 -15.7615 327.853 -30.163C322.426 -40.2168 315.245 -45.6514 306.786 -45.6514C290.827 -45.6514 270.718 -24.4567 263.536 16.0305C256.674 54.0722 272.793 88.8531 291.465 128.797C312.532 173.632 336.471 224.716 331.842 293.191C329.608 327.157 322.267 359.764 312.372 380.144C304.871 395.632 298.168 397.262 291.306 398.621C285.879 399.708 280.453 400.795 273.91 407.86C268.962 413.294 267.366 422.261 265.77 432.043C264.653 438.565 263.536 445.63 261.142 451.336C259.865 454.325 257.631 455.14 255.078 455.684C251.886 456.499 248.375 457.586 246.46 464.651C245.183 469.542 246.938 475.248 248.534 480.682C249.971 485.302 251.407 490.193 250.928 493.997C250.449 497.529 248.534 502.421 246.14 508.399ZM249.173 480.139C247.577 474.704 245.981 469.542 247.098 465.466C248.853 459.216 252.045 458.401 255.078 457.314C257.631 456.499 260.185 455.955 261.621 452.151C264.175 446.173 265.292 439.38 266.409 432.587C268.005 423.348 269.441 414.381 274.229 409.218C280.613 402.425 286.039 401.338 291.306 400.251C298.487 398.621 305.35 397.262 313.01 381.231C323.065 360.308 330.406 327.701 332.64 293.463C337.269 224.445 313.329 172.817 292.263 127.438C273.75 87.7662 257.791 53.257 264.494 16.0305C271.516 -23.6415 291.146 -44.5645 306.786 -44.5645C314.925 -44.5645 322.107 -39.4017 327.214 -29.6195C334.555 -15.4898 337.588 7.06352 335.673 35.5948C330.885 110.591 332.481 203.25 388.498 254.063C406.692 270.638 425.364 278.518 445.793 278.518C471.966 278.518 496.224 265.203 517.61 253.519C534.846 244.009 549.848 235.857 562.775 235.857C579.852 235.857 590.863 250.259 598.684 282.594C618.154 363.025 599.482 430.141 586.554 463.02C565.807 516.007 534.686 547.527 516.652 547.527C511.066 547.527 506.917 544.81 503.885 539.375C476.115 488.291 440.686 462.205 398.234 462.205C385.306 462.205 371.581 464.651 357.218 469.27C350.994 471.444 344.291 473.074 337.109 474.976C318.915 479.867 298.328 485.302 283.326 496.986C280.134 499.432 275.027 507.855 269.282 517.366C260.823 531.495 251.247 547.527 245.342 547.527C244.864 547.527 244.385 547.527 243.906 547.255C241.353 545.625 239.757 543.451 239.118 540.19C237.522 532.039 242.47 519.539 246.3 509.485C248.694 503.508 250.609 498.345 251.088 494.812C252.205 489.921 250.609 485.03 249.173 480.139Z" fill="#5D5D5D" fill-opacity="0.2"/>
<path d="M268.803 479.867C269.76 480.411 271.675 480.682 273.91 480.682C278.698 480.682 296.732 479.324 324.82 463.564C348.281 450.249 375.731 443.184 402.223 443.184C445.633 443.184 474.519 454.325 511.705 514.92C514.418 519.268 517.929 521.441 522.238 521.441C538.357 521.441 562.775 491.551 577.936 453.238C589.746 423.348 606.823 362.482 589.108 289.387C581.447 258.139 572.031 253.791 562.775 253.791C551.444 253.791 537.24 261.671 520.802 270.638C498.618 282.866 473.562 296.452 445.792 296.452C423.609 296.452 403.34 287.757 383.551 269.823C321.309 213.304 320.511 107.874 325.299 33.6926C326.735 10.5959 324.661 -7.60977 319.394 -17.6636C316.202 -23.6416 311.893 -26.9023 306.786 -26.9023C294.976 -26.9023 280.134 -10.327 274.388 20.9215C269.281 49.4528 283.645 80.1578 300.402 116.026C321.628 161.676 348.121 218.738 343.014 295.093C341.578 316.831 338.066 337.754 332.8 356.775C324.341 387.209 313.329 413.023 299.764 433.674C290.827 447.26 281.889 456.771 275.346 463.564C269.441 469.813 265.77 473.618 266.09 476.607C266.249 478.237 267.207 479.052 268.803 479.867ZM275.665 464.651C282.209 457.857 291.146 448.347 300.083 434.761C313.649 414.109 324.82 388.295 333.279 357.59C338.545 338.298 342.056 317.375 343.493 295.637C348.6 219.01 322.107 161.947 300.722 116.026C284.124 80.4296 269.92 49.7245 274.867 21.7367C280.453 -9.24011 295.136 -25.5437 306.786 -25.5437C311.893 -25.5437 316.043 -22.5547 319.075 -16.5767C324.341 -6.79459 326.257 11.1394 324.82 33.9644C320.032 108.417 320.83 214.119 383.391 270.91C403.181 288.844 423.609 297.539 445.792 297.539C473.721 297.539 498.778 283.681 520.961 271.453C537.399 262.486 551.444 254.606 562.775 254.606C571.712 254.606 581.128 258.954 588.629 289.931C606.184 362.482 589.108 423.076 577.458 452.966C562.775 490.465 538.038 520.898 522.238 520.898C518.089 520.898 514.577 518.724 512.024 514.648C493.99 485.302 477.232 466.553 459.198 455.955C443.718 446.717 426.641 442.913 402.223 442.913C375.731 442.913 348.281 450.249 324.661 463.564C296.572 479.324 278.698 480.682 273.91 480.682C271.675 480.682 269.76 480.411 268.803 480.139C267.366 479.595 266.568 478.78 266.409 477.693C266.409 474.433 270.399 470.357 275.665 464.651Z" fill="#5D5D5D" fill-opacity="0.2"/>
<path d="M306.947 -8.15332C298.329 -8.15332 288.913 6.51989 285.881 19.8345C283.806 28.5297 285.402 43.4747 290.03 60.05C294.339 75.5384 300.244 87.2226 304.553 89.3964C305.192 89.6682 305.83 89.9399 306.468 89.9399C307.266 89.9399 307.905 89.6682 308.543 89.3964C314.129 86.1357 313.969 80.4295 313.65 67.6583C313.491 59.7783 313.171 49.1809 314.129 34.5077C315.406 14.6717 313.65 -0.273245 311.097 -4.89259C310.458 -6.79468 309.501 -8.15332 306.947 -8.15332ZM313.491 34.236C312.533 49.1809 312.693 59.7783 313.012 67.6583C313.331 80.4295 313.331 85.0488 308.384 88.0378C307.266 88.853 305.99 88.853 304.713 88.0378C300.563 85.864 294.978 74.4515 290.669 59.2348C286.04 43.2029 284.604 28.5297 286.519 20.1062C289.551 7.33508 298.648 -7.06641 306.788 -7.06641C309.022 -7.06641 309.98 -5.9795 310.618 -4.62087C313.012 0.270203 314.767 14.6717 313.491 34.236Z" fill="#5D5D5D" fill-opacity="0.2"/>
<path d="M353.551 414.38C354.987 414.38 356.902 414.109 359.137 413.837C360.094 413.565 383.235 409.218 408.132 409.218C417.867 409.218 426.485 410.033 433.827 411.12C470.533 417.913 502.292 447.531 517.454 474.16C520.326 479.051 523.518 481.497 527.349 481.497C535.807 481.497 546.34 468.997 556.076 446.988C573.152 408.402 578.419 334.765 569.801 305.962C567.566 298.353 564.374 294.277 560.704 294.277C560.385 294.277 560.065 294.277 559.746 294.277C553.043 295.364 543.787 299.984 531.977 305.962C509.953 317.102 479.63 332.047 446.913 332.863C418.984 333.678 386.906 314.657 376.053 305.69C372.542 302.701 370.149 301.342 368.553 301.342C365.361 301.342 365.201 306.505 364.882 315.2C364.722 321.993 364.403 331.504 362.488 342.373C358.817 361.937 354.827 376.882 351.795 387.751C348.444 399.707 346.529 407.044 347.965 410.848C348.603 413.293 350.359 414.38 353.551 414.38ZM352.274 388.566C355.306 377.697 359.296 362.752 362.967 342.916C365.042 332.047 365.201 322.537 365.361 315.472C365.52 307.048 365.68 302.157 368.553 302.157C369.989 302.157 372.383 303.516 375.734 306.233C386.427 315.2 417.548 333.406 445.158 333.406C445.636 333.406 446.275 333.406 446.754 333.406C479.63 332.591 509.793 317.374 531.977 306.233C543.787 300.255 553.043 295.636 559.746 294.549C563.736 293.734 566.928 297.538 569.322 305.69C577.78 334.493 572.514 407.587 555.597 445.901C545.861 467.639 535.647 480.138 527.189 480.138C523.518 480.138 520.326 477.693 517.613 473.073C502.292 446.444 470.533 416.554 433.667 409.761C426.326 408.402 417.707 407.859 407.972 407.859C383.076 407.859 359.934 412.207 358.977 412.478C356.743 413.022 354.987 413.022 353.551 413.022C350.678 413.022 349.082 412.207 348.284 410.305C347.007 407.587 348.922 400.251 352.274 388.566Z" fill="#5D5D5D" fill-opacity="0.2"/>
<path d="M317.8 445.358C319.236 445.358 321.151 444.815 323.226 443.456C345.569 430.141 371.423 423.892 402.384 423.892C441.006 423.892 479.149 429.87 522.559 502.692C523.835 504.866 525.431 505.953 527.506 505.953C539.635 505.953 562.138 466.281 568.681 442.369C569.32 440.195 569.958 438.021 570.596 435.576C579.055 405.958 593.259 356.503 578.736 296.724C572.99 272.812 567.564 272.812 562.776 272.812C553.201 272.812 539.795 280.148 524.314 288.572C501.333 301.071 475.478 315.473 445.954 315.473C420.738 315.473 400.15 307.593 379.562 289.931C376.371 287.213 373.338 284.224 370.625 281.507C365.199 276.072 360.89 271.997 358.177 271.997C356.102 271.997 354.985 274.442 354.985 279.877C354.985 280.692 354.985 282.05 355.145 283.953C358.017 335.581 346.367 383.676 320.353 427.152C315.725 434.761 313.81 440.195 314.608 443.456C314.927 444.543 316.044 445.358 317.8 445.358ZM320.513 427.424C337.27 399.436 348.282 369.275 353.229 337.483C357.219 311.94 356.102 292.104 355.623 283.681C355.464 281.779 355.464 280.42 355.464 279.605C355.464 273.355 357.06 272.54 358.177 272.54C360.73 272.54 365.199 276.888 370.466 282.05C373.179 284.768 376.211 287.757 379.403 290.474C400.15 308.408 420.578 316.288 445.954 316.288C475.638 316.288 501.652 301.887 524.474 289.387C539.954 280.964 553.36 273.627 562.776 273.627C567.405 273.627 572.671 273.627 578.257 296.995C592.62 356.503 578.576 405.958 570.118 435.304C569.479 437.75 568.681 439.923 568.203 442.097C561.659 465.737 539.316 505.138 527.347 505.138C525.431 505.138 523.995 504.051 522.878 502.149C502.769 468.455 481.862 446.173 459.04 434.489C438.772 424.163 419.94 423.076 402.384 423.076C371.423 423.076 345.409 429.598 323.066 442.641C321.151 443.728 319.236 444.543 317.8 444.543C316.682 444.543 315.406 444.271 314.927 442.369C314.608 441.01 314.767 436.934 320.513 427.424Z" fill="#5D5D5D" fill-opacity="0.2"/>
<path d="M217.735 167.11C216.618 165.479 215.66 164.664 214.862 164.664C212.628 164.664 211.032 169.555 208.638 176.892C206.244 184.5 202.893 194.826 196.988 205.423L195.232 208.412C188.529 220.368 185.497 225.803 186.295 228.792C186.614 230.15 187.731 230.694 189.646 230.694C191.242 230.694 193.796 230.15 197.945 229.335C199.701 229.063 201.297 228.792 203.052 228.792C216.937 228.792 228.428 242.106 236.886 251.617C241.834 257.323 245.664 261.67 248.536 261.67C249.654 261.67 250.611 260.855 251.409 259.225C260.187 239.932 229.226 185.044 217.735 167.11ZM250.611 258.41C249.973 259.768 249.334 260.312 248.377 260.312C245.823 260.312 241.993 255.964 237.205 250.53C228.747 240.747 217.096 227.433 202.893 227.433C201.137 227.433 199.381 227.705 197.626 227.976C193.636 229.063 191.083 229.335 189.487 229.335C187.891 229.335 187.093 229.063 186.933 228.248C186.454 226.074 190.125 219.553 195.711 209.227L197.466 206.238C203.371 195.641 206.723 185.044 209.276 177.435C211.511 170.642 212.947 166.023 214.703 166.023C215.341 166.023 216.139 166.838 217.096 168.197C231.46 190.206 258.431 241.291 250.611 258.41Z" fill="#5D5D5D" fill-opacity="0.2"/>
<path d="M217.893 189.663C212.307 189.663 205.125 204.608 205.125 211.672C205.125 214.661 206.242 216.292 207.998 216.292C216.297 216.564 224.915 225.53 231.298 231.78C235.129 235.584 237.842 238.302 239.438 238.302C239.917 238.302 240.395 238.03 240.714 237.486C241.034 236.943 241.193 235.856 241.193 234.226C240.555 221.183 226.032 195.097 220.127 189.934C219.329 189.934 218.69 189.663 217.893 189.663ZM239.917 235.041C239.917 236.128 239.917 236.671 239.757 236.671C239.757 236.671 239.597 236.943 239.438 236.943C238.161 236.943 235.288 233.954 231.937 230.693C225.553 224.172 216.616 214.933 208.157 214.933C206.881 214.933 206.402 214.118 206.402 212.216C206.402 205.966 213.105 192.108 218.052 192.108C218.691 192.108 219.169 192.38 219.648 192.652C225.872 197.814 239.438 223.085 239.917 235.041Z" fill="#5D5D5D" fill-opacity="0.2"/>
<path d="M260.186 330.961C271.039 328.787 281.412 316.016 286.36 298.354C290.988 282.322 293.382 254.878 279.178 216.293C273.113 199.717 266.41 182.87 260.027 166.567C241.673 120.102 224.278 76.3537 217.255 32.334C209.116 -17.3919 215.659 -58.4225 237.683 -96.7359C256.835 -129.887 282.051 -148.907 306.947 -148.907C325.62 -148.907 342.377 -137.767 354.027 -117.387C366.795 -95.1056 373.179 -62.2267 372.381 -22.8264C372.221 -13.5877 371.902 -4.07727 371.742 5.97659C370.785 41.5728 369.668 82.0599 373.019 115.754C376.849 154.339 386.106 178.251 401.267 188.848C409.407 194.555 417.067 197.272 424.089 197.272C436.857 197.272 447.709 187.762 455.529 169.828C468.776 139.394 471.967 86.951 463.509 39.6707C445.156 -61.955 401.267 -122.55 336.153 -187.493C286.679 -236.675 244.865 -251.892 207.201 -261.13C204.328 -261.674 201.775 -262.217 199.221 -262.217C183.421 -262.217 175.921 -248.631 166.504 -231.24C162.834 -224.719 159.163 -217.654 154.375 -210.589C148.949 -202.438 144.321 -197.546 140.171 -193.199C133.469 -186.134 127.723 -180.156 121.499 -164.124C108.891 -132.06 125.808 -112.496 143.523 -91.8449C152.939 -80.9758 162.674 -69.5633 167.781 -56.2487C200.498 27.9865 187.252 117.928 164.111 174.175C157.408 190.207 147.832 205.424 137.458 221.456C124.85 241.02 111.923 261.399 104.422 283.953C101.231 293.735 100.273 300.256 101.709 304.06C102.667 306.778 104.901 308.136 108.253 308.136C114.317 308.136 124.052 303.789 135.384 298.898C151.183 291.833 170.814 283.137 188.209 283.137C197.466 283.137 205.286 285.583 211.67 290.474C218.053 295.365 223.32 302.43 228.587 309.223C237.045 320.636 245.184 331.233 256.516 331.233C257.633 331.233 258.909 331.233 260.186 330.961ZM211.829 289.659C205.286 284.496 197.625 282.05 188.209 282.05C170.814 282.05 151.024 290.746 135.224 297.811C124.052 302.702 114.317 307.049 108.253 307.049C105.061 307.049 102.986 305.691 102.029 303.245C100.752 299.713 101.709 293.191 104.742 283.953C112.083 261.399 125.17 241.292 137.618 221.727C147.832 205.695 157.567 190.479 164.27 174.447C177.836 141.568 185.975 104.07 187.571 66.0281C189.326 22.5519 182.783 -18.7505 168.1 -56.7922C162.834 -70.3785 153.099 -81.791 143.683 -92.66C126.127 -113.04 109.529 -132.604 121.818 -163.852C128.042 -179.884 133.788 -185.862 140.331 -192.655C144.481 -197.003 149.268 -201.894 154.695 -210.046C159.323 -217.111 163.153 -223.904 166.824 -230.697C176.24 -247.816 183.741 -261.402 199.221 -261.402C201.615 -261.402 204.328 -261.13 207.041 -260.315C244.706 -251.348 286.36 -236.132 335.834 -186.677C400.789 -121.735 444.677 -61.4115 463.03 39.9424C471.489 86.951 468.297 139.122 455.21 169.556C447.55 187.218 436.697 196.728 424.089 196.728C417.067 196.728 409.566 194.011 401.427 188.305C386.425 177.979 377.328 154.339 373.498 115.754C370.146 82.0599 371.264 41.8445 372.221 5.97659C372.54 -4.07727 372.7 -13.5877 372.86 -22.8264C373.498 -62.4984 367.114 -95.649 354.347 -118.202C342.696 -138.854 325.779 -149.994 306.947 -149.994C281.891 -149.994 256.516 -130.973 237.364 -97.5511C225.714 -77.1717 218.373 -56.2487 215.181 -33.4237C212.308 -13.0442 212.787 8.42212 216.777 32.0623C223.958 76.082 241.354 120.102 259.707 166.567C266.091 182.87 272.794 199.446 278.859 216.293C292.903 254.606 290.509 281.779 286.04 297.539C281.093 314.929 271.039 327.429 260.186 329.603C258.909 329.874 257.792 329.874 256.516 329.874C245.344 329.874 237.364 319.277 228.906 308.136C223.639 301.887 218.213 294.55 211.829 289.659Z" fill="#5D5D5D" fill-opacity="0.2"/>
<path d="M270.559 297.267C274.708 292.104 277.261 284.767 277.9 275.8C279.815 249.171 265.93 210.043 253.322 184.772C237.682 153.252 222.202 119.558 214.701 86.9507C214.381 85.3203 213.743 80.701 213.105 74.9947C210.711 55.7021 206.561 23.3667 200.656 23.3667C200.178 23.3667 199.539 23.6384 199.06 24.1819C196.666 26.6274 195.869 31.5185 196.826 39.1268C197.624 45.3765 199.38 52.4414 200.976 58.6911C202.731 65.2126 204.167 71.1905 204.167 74.4513C204.167 82.8748 201.773 86.4072 199.539 90.2114C197.784 92.9287 196.028 95.9176 195.39 100.809C194.592 107.33 196.188 112.221 197.624 116.841C199.06 121.188 200.497 125.536 200.018 131.514C199.22 142.111 179.43 180.424 162.035 214.119C147.671 242.106 135.223 266.29 135.382 270.909C135.382 271.181 135.542 271.453 135.542 271.725C136.659 273.355 138.893 274.17 142.245 274.17C147.352 274.17 154.534 272.268 162.833 269.822C172.887 267.105 184.378 263.844 194.273 263.844C201.933 263.844 207.838 265.747 211.988 269.551C214.222 271.725 216.775 274.17 219.488 276.887C231.458 288.572 246.141 303.245 258.749 303.245C263.217 303.517 267.367 301.343 270.559 297.267ZM212.147 269.007C207.838 265.203 202.093 263.301 194.273 263.301C184.378 263.301 172.887 266.29 162.833 269.279C154.534 271.453 147.352 273.627 142.245 273.627C139.053 273.627 136.978 272.811 135.861 271.181C135.861 271.181 135.861 271.181 135.861 270.909C135.702 266.562 148.629 241.563 162.354 214.662C179.75 180.696 199.699 142.383 200.497 131.514C200.976 125.536 199.539 120.916 198.103 116.297C196.507 111.406 195.071 107.058 195.869 100.809C196.507 95.9176 198.103 93.4721 199.858 90.4831C202.093 86.6789 204.487 82.8748 204.646 74.1795C204.646 70.6471 203.21 64.9408 201.454 58.1477C199.858 51.898 198.103 44.8331 197.305 38.8551C196.347 31.7902 196.986 27.1709 199.22 24.7253C199.699 24.1819 200.178 23.9101 200.656 23.9101C206.242 23.9101 210.392 57.0608 212.626 74.9947C213.424 80.9727 213.903 85.3203 214.381 86.9507C222.042 119.558 237.523 153.252 253.163 184.772C265.611 209.771 279.496 248.628 277.581 274.985C276.942 283.952 274.548 291.017 270.559 295.908C267.367 299.984 263.377 301.886 258.749 301.886C246.3 301.886 231.618 287.213 219.808 275.529C216.935 273.627 214.381 271.181 212.147 269.007Z" fill="#5D5D5D" fill-opacity="0.2"/>
<path d="M265.135 263.03C266.572 240.748 252.527 205.424 245.505 192.109C233.376 168.741 224.918 148.905 219.332 135.862C213.746 122.819 210.714 115.754 208.799 115.754C207.362 115.754 206.724 118.743 206.245 126.08C202.734 181.512 181.668 211.402 169.219 229.336C163.793 237.216 160.122 242.378 159.963 246.726C159.963 248.085 160.122 249.172 160.761 249.987C161.878 252.161 163.793 252.976 166.506 252.976C169.539 252.976 173.528 251.617 177.997 250.258C183.902 248.356 190.605 246.454 197.308 246.454C206.564 246.454 214.065 250.53 220.289 258.41C228.908 269.823 241.675 282.05 251.729 282.05C255.4 282.05 258.432 280.42 260.986 277.431C263.22 273.899 264.816 269.279 265.135 263.03ZM251.41 281.235C241.515 281.235 228.908 269.008 220.289 257.867C214.065 249.715 206.405 245.639 197.148 245.639C190.286 245.639 183.583 247.813 177.678 249.443C173.209 250.802 169.219 252.161 166.187 252.161C163.634 252.161 161.878 251.345 160.761 249.443C160.282 248.628 160.122 247.813 160.122 246.726C160.282 242.922 163.953 237.487 169.219 229.879C181.827 211.945 202.894 181.783 206.405 126.08C206.884 119.558 207.522 116.569 208.479 116.569C210.235 116.569 213.427 124.177 218.693 136.405C224.279 149.448 232.738 169.556 244.867 192.652C251.889 205.967 265.933 241.02 264.497 263.03C264.178 269.008 262.582 273.627 260.188 276.616C257.954 279.605 254.921 281.235 251.41 281.235Z" fill="#5D5D5D" fill-opacity="0.2"/>
<path d="M401.584 39.3995C399.988 81.7888 407.17 111.135 414.352 124.45C417.703 130.428 421.374 133.689 424.566 133.689C429.194 133.689 432.705 127.439 434.461 116.298C445.313 43.4753 408.287 -33.1514 403.659 -39.6729C402.382 -41.575 401.425 -41.8467 400.786 -40.7598C399.669 -38.8577 399.988 -32.3363 400.627 -20.3803C401.425 -6.25055 402.542 14.6724 401.584 39.3995ZM401.425 -39.6729C401.584 -39.9446 401.584 -39.9446 401.744 -39.9446C401.903 -39.9446 402.382 -39.6729 403.18 -38.586C407.649 -32.3363 444.515 43.7471 433.663 115.755C432.067 126.352 428.875 132.33 424.566 132.33C421.534 132.33 418.023 129.069 414.831 123.363C407.649 110.32 400.627 81.5171 402.223 39.3995C403.18 14.4007 402.063 -6.52227 401.425 -20.652C400.946 -30.7059 400.627 -38.0425 401.425 -39.6729Z" fill="#5D5D5D" fill-opacity="0.2"/>
<path d="M389.139 36.9536C387.224 78.256 392.011 111.678 402.545 130.971C408.13 141.025 414.833 146.731 421.536 146.731C431.272 146.731 438.932 135.319 441.166 117.656C447.869 66.0283 437.496 19.2914 427.601 -10.5985C415.951 -45.6512 401.108 -70.65 393.927 -78.8018C391.373 -81.7908 389.458 -83.6929 388.341 -83.6929C387.862 -83.6929 387.543 -83.4212 387.383 -82.8777C386.426 -80.9756 386.904 -76.0845 387.543 -66.0307C388.979 -48.3685 391.533 -15.2179 389.139 36.9536ZM387.862 -82.3342C388.022 -82.606 388.181 -82.8777 388.5 -82.8777C389.458 -82.8777 391.373 -80.9756 393.767 -78.2583C409.886 -59.781 452.976 23.9108 440.847 117.385C438.613 134.775 431.112 145.916 421.536 145.916C414.833 145.916 408.29 140.481 402.864 130.427C392.49 111.135 387.702 77.9843 389.458 37.2253C391.852 -15.2178 389.298 -48.3685 388.022 -66.0307C387.543 -75.2694 387.064 -80.9756 387.862 -82.3342Z" fill="#5D5D5D" fill-opacity="0.2"/>
<path d="M380.042 39.6706C378.127 91.0269 384.032 131.514 396.32 153.796C402.704 165.208 410.365 171.458 418.664 171.458C434.463 171.458 447.869 149.72 452.019 117.384C458.083 69.5605 452.817 22.5519 436.538 -22.283C419.94 -67.933 396.959 -97.2795 384.67 -110.866C378.446 -117.659 375.733 -120.648 374.775 -118.474C373.977 -116.844 374.456 -111.681 375.573 -101.899C377.807 -80.7042 382.755 -36.4128 380.042 39.6706ZM374.935 -118.202C375.094 -118.474 375.254 -118.474 375.573 -118.474C376.85 -118.474 379.723 -115.485 384.351 -110.322C425.047 -65.2158 464.148 18.2042 451.54 117.113C447.39 149.176 434.304 170.643 418.664 170.643C410.524 170.643 402.864 164.665 396.64 153.252C384.351 131.242 378.765 90.7552 380.521 39.6706C383.234 -36.6845 378.286 -80.9759 375.892 -102.442C374.935 -111.138 374.296 -116.572 374.935 -118.202Z" fill="#5D5D5D" fill-opacity="0.2"/>
<path d="M420.259 101.352C421.057 101.352 421.855 100.266 422.493 98.3635C425.525 88.3096 425.525 54.0721 417.226 33.1492C416.109 30.432 414.673 30.7037 413.396 34.2361C410.364 43.2031 408.928 72.2778 417.386 97.2766C418.344 99.9939 419.301 101.352 420.259 101.352ZM414.354 35.323C414.832 34.2361 415.152 33.4209 415.471 33.4209C415.79 33.4209 416.109 33.9644 416.109 34.5078C423.929 54.6156 424.249 88.3097 421.216 97.8201C420.897 99.1787 420.418 99.7222 419.939 99.7222C419.461 99.7222 418.822 98.6352 418.184 96.7331C410.364 72.2778 411.481 43.7465 414.354 35.323Z" fill="#5D5D5D" fill-opacity="0.2"/>
<path d="M257.156 395.089C280.935 390.469 309.183 342.374 316.844 305.691C330.09 241.835 306.63 190.479 283.967 140.753C262.103 92.929 241.515 47.5507 251.57 -7.60974C260.347 -55.7053 288.596 -81.5193 310.779 -81.5193C322.749 -81.5193 332.963 -74.1827 339.825 -61.1399C347.965 -45.6515 351.156 -22.0113 349.082 7.06345C341.9 107.059 339.825 216.565 405.418 248.9C412.919 252.704 420.42 254.606 427.442 254.606C455.052 254.606 472.607 227.705 482.502 205.152C501.494 161.948 508.037 97.0049 498.94 44.0182C491.12 -1.08832 475.799 -44.5645 452.02 -89.3994C416.75 -155.972 368.712 -213.307 305.034 -264.391L302.321 -266.565C275.349 -288.303 247.74 -310.585 218.534 -322.812C216.778 -323.628 214.863 -324.443 212.788 -325.258C203.851 -329.334 192.68 -334.497 183.104 -334.497C179.274 -334.497 175.922 -333.681 173.209 -332.051C169.06 -329.606 166.666 -324.714 164.431 -320.095C162.676 -316.563 161.08 -313.03 158.526 -310.313C156.931 -308.683 153.739 -306.509 150.387 -304.335C144.961 -300.803 139.375 -296.998 137.62 -293.738C134.268 -286.944 135.226 -282.869 136.024 -278.793C136.662 -276.075 137.3 -273.358 136.502 -269.282L135.864 -266.022C131.076 -241.838 131.076 -241.838 119.905 -236.403C117.83 -235.316 115.117 -233.958 111.925 -232.327C102.669 -227.436 98.9979 -219.556 95.3272 -212.22C92.4545 -206.513 89.901 -201.079 84.9536 -196.731C84.794 -196.731 84.6344 -196.731 84.4748 -196.731C78.7294 -196.731 35.1603 -191.84 31.8088 -173.635C30.8512 -168.743 32.9259 -163.309 37.5542 -157.874C43.4592 -150.81 48.0874 -149.994 50.9601 -149.994C52.3964 -149.994 53.6732 -150.266 54.7903 -150.538C55.9075 -150.81 56.8651 -150.81 57.8226 -150.81C61.3337 -150.81 64.8448 -149.179 69.7922 -128.8C70.9093 -123.909 71.8669 -119.561 72.6649 -116.3C76.4951 -99.4533 76.4951 -99.1815 86.0708 -92.3884C88.4647 -90.758 91.3374 -88.5842 95.1676 -85.5952C107.456 -75.8131 110.01 -64.944 113.202 -51.086C114.957 -43.7494 116.872 -35.3258 120.383 -26.0872C124.214 -16.0333 128.842 -7.8815 133.151 -0.273132C140.971 13.5849 148.312 26.6277 150.706 48.3658C154.696 86.1358 142.727 122.275 129.161 155.698C122.618 172.001 109.052 190.75 94.5292 210.587C70.1114 244.552 42.5016 282.866 42.342 318.462C42.342 338.841 45.3743 354.33 51.4389 364.655C58.1418 376.068 68.1962 381.502 82.2405 381.502C102.669 381.502 127.884 369.818 150.068 359.493C167.623 351.341 182.625 344.276 192.36 344.276C194.595 344.276 196.35 344.548 197.787 345.363C207.043 349.982 214.544 360.036 221.566 369.818C230.982 382.589 239.919 394.817 252.847 394.817C254.442 395.36 255.719 395.36 257.156 395.089ZM198.425 344.004C196.829 343.189 194.914 342.917 192.68 342.917C182.944 342.917 167.783 349.982 150.228 358.134C128.044 368.46 102.988 380.144 82.7193 380.144C68.8346 380.144 59.0994 374.709 52.7156 363.84C46.8106 353.786 43.9379 338.57 43.9379 319.005C44.0975 284.224 71.5477 246.183 95.6464 212.76C110.01 192.653 123.735 173.903 130.438 157.328C144.163 123.634 156.292 87.2227 152.302 48.6376C149.908 26.356 142.407 13.0414 134.428 -1.08835C130.119 -8.69669 125.49 -16.8484 121.66 -26.6306C118.149 -35.8693 116.234 -44.0211 114.478 -51.3577C111.127 -65.7592 108.574 -76.9 95.806 -86.9539C91.9757 -89.9429 89.103 -92.1167 86.7091 -93.747C77.4527 -100.54 77.4527 -100.54 73.782 -116.572C72.9841 -120.104 72.0265 -124.18 70.9093 -129.071C66.2811 -148.636 62.6104 -152.44 57.9822 -152.44C57.0246 -152.44 55.9075 -152.168 54.9499 -152.168C53.6732 -151.896 52.556 -151.896 51.1197 -151.896C48.0874 -151.896 44.0975 -152.712 38.3521 -159.505C34.0431 -164.668 32.2876 -169.287 32.9259 -173.363C35.7986 -189.123 76.4951 -195.101 84.4748 -195.101C84.6344 -195.101 84.794 -195.101 84.794 -195.101L84.9536 -195.916L85.2728 -195.101C90.5394 -199.72 93.4121 -205.427 96.2848 -211.133C99.9554 -218.741 103.467 -225.806 112.404 -230.697C115.596 -232.327 118.309 -233.686 120.383 -234.773C132.034 -240.479 132.193 -240.751 137.141 -265.75L137.779 -269.011C138.737 -273.63 137.939 -276.891 137.3 -279.88C136.502 -283.684 135.705 -286.944 138.737 -292.651C140.333 -295.911 146.078 -299.444 151.026 -302.705C154.377 -304.878 157.569 -307.052 159.324 -308.683C162.038 -311.4 163.793 -315.204 165.549 -318.736C167.783 -323.356 170.017 -327.703 173.847 -330.149C176.401 -331.779 179.593 -332.594 183.423 -332.594C192.839 -332.594 204.011 -327.432 212.948 -323.628C215.023 -322.812 216.938 -321.725 218.693 -321.182C247.74 -308.954 275.349 -286.673 302.001 -265.206L304.715 -263.033C368.233 -211.948 416.111 -154.885 451.222 -88.5842C474.842 -44.0211 490.163 -0.544861 497.823 44.0182C506.92 96.4615 500.377 160.589 481.545 203.522C471.81 225.803 454.414 252.161 427.283 252.161C420.261 252.161 412.919 250.259 405.578 246.726C340.942 214.934 343.017 106.244 350.039 7.06345C352.114 -22.5547 348.922 -46.7383 340.623 -62.7702C333.601 -76.3565 322.908 -83.6931 310.779 -83.6931C288.276 -83.6931 259.549 -57.3357 250.612 -8.42493C240.398 47.5507 262.263 95.3745 283.329 141.568C305.832 190.75 328.973 241.835 316.046 304.604C308.545 340.743 280.775 388.296 257.315 392.643C256.038 392.915 254.762 392.915 253.485 392.915C241.037 392.915 232.259 380.959 223.002 368.188C215.342 358.949 208.001 348.895 198.425 344.004Z" fill="#5D5D5D" fill-opacity="0.2"/>
</svg>
