<svg width="20" height="20" viewBox="0 0 20 20" fill="none" xmlns="http://www.w3.org/2000/svg">
<path d="M9.41406 0C8.12145 0 7.07031 1.0902 7.07031 2.38281C7.07031 3.67543 8.12145 4.72656 9.41406 4.72656C10.7067 4.72656 11.7578 3.67543 11.7578 2.38281C11.7578 1.0902 10.7067 0 9.41406 0Z" fill="white"/>
<path d="M18.8281 10C18.8281 10.7895 18.2626 11.4512 17.5447 11.6724C17.1867 8.93027 14.7024 6.66586 11.2177 6.0541L11.2136 6.0484C9.30363 5.73141 7.37242 5.9248 5.69301 6.59602C5.2673 5.49102 4.20301 4.72656 2.96875 4.72656H2.38281V9.01582C2.00516 9.50848 1.71563 10.0343 1.51879 10.5859H0V15.2734H2.10531C2.48355 15.8577 2.96934 16.3881 3.55469 16.8573V20H7.07031V18.523C8.58492 18.8766 10.2455 18.876 11.7578 18.5236V20H15.2734V16.8602C16.6098 15.7891 17.4259 14.3697 17.5839 12.8737C18.9355 12.6141 20 11.4261 20 10H18.8281ZM4.72656 11.7578H3.55469V10.5859H4.72656V11.7578ZM12.1005 9.97367C10.4835 9.23496 8.28625 9.24926 6.73098 9.96965L6.23773 8.90648C8.09855 8.04305 10.6632 8.02988 12.5869 8.90707L12.1005 9.97367Z" fill="white"/>
</svg>
