<svg width="44" height="44" viewBox="0 0 44 44" fill="none" xmlns="http://www.w3.org/2000/svg">
<circle cx="22" cy="22" r="22" fill="#D7FFCB"/>
<circle cx="22" cy="22" r="15" fill="#0D968F"/>
<path d="M21.5312 13C20.4972 13 19.6562 13.8722 19.6562 14.9062C19.6562 15.9403 20.4972 16.7812 21.5312 16.7812C22.5653 16.7812 23.4062 15.9403 23.4062 14.9062C23.4062 13.8722 22.5653 13 21.5312 13Z" fill="white"/>
<path d="M29.0625 21C29.0625 21.6316 28.6101 22.1609 28.0358 22.3379C27.7493 20.1442 25.7619 18.3327 22.9741 17.8433L22.9709 17.8387C21.4429 17.5851 19.8979 17.7398 18.5544 18.2768C18.2138 17.3928 17.3624 16.7812 16.375 16.7812H15.9062V20.2127C15.6041 20.6068 15.3725 21.0275 15.215 21.4688H14V25.2188H15.6842C15.9868 25.6861 16.3755 26.1105 16.8438 26.4858V29H19.6562V27.8184C20.8679 28.1013 22.1964 28.1008 23.4062 27.8188V29H26.2188V26.4881C27.2878 25.6312 27.9407 24.4958 28.0672 23.299C29.1484 23.0913 30 22.1409 30 21H29.0625ZM17.7812 22.4062H16.8438V21.4688H17.7812V22.4062ZM23.6804 20.9789C22.3868 20.388 20.629 20.3994 19.3848 20.9757L18.9902 20.1252C20.4788 19.4344 22.5305 19.4239 24.0695 20.1257L23.6804 20.9789Z" fill="white"/>
</svg>
