<svg width="68" height="68" viewBox="0 0 68 68" fill="none" xmlns="http://www.w3.org/2000/svg">
<circle cx="34" cy="34" r="34" fill="#FEC077"/>
<circle cx="33.9988" cy="34.0008" r="25.2821" fill="white"/>
<g clip-path="url(#clip0_462_8454)">
<path d="M49.3803 39.5874L38.5197 20.776C36.7457 17.6684 32.2598 17.6684 30.4923 20.776L19.6253 39.5874C17.8514 42.695 20.0592 46.5556 23.639 46.5556H45.3283C48.9081 46.5556 51.1542 42.6567 49.3803 39.5874ZM34.4996 42.3823C33.5552 42.3823 32.7703 41.5975 32.7703 40.6531C32.7703 39.7087 33.5552 38.9238 34.4996 38.9238C35.444 38.9238 36.2289 39.7087 36.1906 40.6977C36.2353 41.5975 35.4057 42.3823 34.4996 42.3823ZM36.0757 31.2027C35.9992 32.5427 35.9162 33.8764 35.8396 35.2164C35.8013 35.6503 35.8013 36.0459 35.8013 36.4735C35.7631 37.1818 35.2079 37.7305 34.4996 37.7305C33.7913 37.7305 33.2425 37.22 33.1979 36.5117C33.083 34.4251 32.9618 32.3768 32.8469 30.2902C32.8086 29.7414 32.7703 29.1863 32.7257 28.6375C32.7257 27.7314 33.2361 26.9848 34.0657 26.7487C34.8952 26.5509 35.7184 26.9465 36.0757 27.7314C36.197 28.0058 36.2353 28.2802 36.2353 28.5992C36.197 29.4734 36.114 30.3412 36.0757 31.2027Z" fill="#FF9E2C"/>
</g>
<defs>
<clipPath id="clip0_462_8454">
<rect width="31" height="31" fill="white" transform="translate(19 17)"/>
</clipPath>
</defs>
</svg>
