<svg width="44" height="44" viewBox="0 0 44 44" fill="none" xmlns="http://www.w3.org/2000/svg">
<circle cx="22" cy="22" r="22" fill="#D7FFCB"/>
<circle cx="22" cy="22" r="15" fill="#0D968F"/>
<g clip-path="url(#clip0_420_10051)">
<path d="M17.023 22.2676H12.373V29.999H17.023V22.2676Z" fill="white"/>
<path d="M23.691 19.6328H19.041V30H23.691V19.6328Z" fill="white"/>
<path d="M30.3375 16.1191H25.6875V30.0006H30.3375V16.1191Z" fill="white"/>
<path d="M21.163 13.9153C21.0816 14.1638 21.2316 14.4338 21.4801 14.4981L22.2473 14.7296L12.3259 18.8267C12.0816 18.9296 11.9659 19.2081 12.0644 19.4524C12.1673 19.6967 12.4459 19.8124 12.6901 19.7138L22.8173 15.5653L22.5044 16.4267C22.4144 16.671 22.543 16.9453 22.7916 17.031C23.0401 17.1167 23.3101 16.9838 23.3916 16.7353L24.0216 14.871C24.1159 14.5924 23.9616 14.2881 23.6787 14.1981L21.7673 13.5981C21.4973 13.5338 21.2487 13.6667 21.163 13.9153Z" fill="white"/>
</g>
<defs>
<clipPath id="clip0_420_10051">
<rect width="21" height="21" fill="white" transform="translate(11 9)"/>
</clipPath>
</defs>
</svg>
