<svg width="44" height="44" viewBox="0 0 44 44" fill="none" xmlns="http://www.w3.org/2000/svg">
<circle cx="22" cy="22" r="22" fill="#D7FFCB"/>
<circle cx="22" cy="22" r="15" fill="#0D968F"/>
<path d="M26.0237 19.5975C26.0237 19.0752 26.4467 18.6523 26.9689 18.6523C27.4912 18.6523 27.9142 19.0752 27.9142 19.5975C27.9142 20.1198 27.4912 20.5428 26.9689 20.5428C26.4467 20.5428 26.0237 20.1198 26.0237 19.5975ZM17.0311 20.5428C17.5533 20.5428 17.9763 20.1198 17.9763 19.5975C17.9763 19.0752 17.5533 18.6523 17.0311 18.6523C16.5088 18.6523 16.0858 19.0752 16.0858 19.5975C16.0821 20.1198 16.5088 20.5428 17.0311 20.5428ZM13 23.6102V15.5849C13 14.7242 13.6988 14.0254 14.5595 14.0254H29.4369C30.2975 14.0254 30.9963 14.7242 30.9963 15.5849V23.6102C30.9963 24.4708 30.2975 25.1696 29.4369 25.1696H14.5595C13.7025 25.1696 13 24.4708 13 23.6102ZM14.3314 21.9919C14.4197 21.9772 14.5153 21.9661 14.6073 21.9661C15.479 21.9661 16.1851 22.6723 16.1851 23.544C16.1851 23.6433 16.1741 23.7389 16.1594 23.8345H27.7082C27.7009 23.772 27.6972 23.7058 27.6972 23.6396C27.6972 22.7679 28.4034 22.0618 29.275 22.0618C29.4111 22.0618 29.5398 22.0802 29.6649 22.1096V17.273C29.5398 17.3061 29.4111 17.3209 29.275 17.3209C28.4034 17.3209 27.6972 16.6147 27.6972 15.743C27.6972 15.6106 27.7156 15.4819 27.745 15.3568H16.1594C16.1778 15.4524 16.1851 15.5481 16.1851 15.6474C16.1851 16.5191 15.479 17.2252 14.6073 17.2252C14.5116 17.2252 14.4197 17.2179 14.3314 17.1995V21.9919ZM30.3343 26.2252H13.6915C13.3237 26.2252 13.0257 26.5231 13.0257 26.8909C13.0257 27.2587 13.3237 27.5567 13.6915 27.5567H30.3343C30.7021 27.5567 31 27.2587 31 26.8909C31 26.5231 30.7021 26.2252 30.3343 26.2252ZM30.3343 28.6417H13.6915C13.3237 28.6417 13.0257 28.9396 13.0257 29.3074C13.0257 29.6752 13.3237 29.9731 13.6915 29.9731H30.3343C30.7021 29.9731 31 29.6752 31 29.3074C31 28.9396 30.7021 28.6417 30.3343 28.6417ZM18.5832 19.5975C18.5832 17.7144 20.1169 16.1807 22 16.1807C23.8831 16.1807 25.4168 17.7144 25.4168 19.5975C25.4168 21.4806 23.8831 23.0144 22 23.0144C20.1169 23.0144 18.5832 21.4806 18.5832 19.5975ZM20.253 19.7115L20.8929 20.3552L21.555 21.0209L22.2207 20.3589L23.747 18.8399L23.085 18.1741L21.5586 19.6931L20.9187 19.0495L20.253 19.7115Z" fill="white"/>
</svg>
