<svg width="44" height="44" viewBox="0 0 44 44" fill="none" xmlns="http://www.w3.org/2000/svg">
<circle cx="22" cy="22" r="22" fill="#D7FFCB"/>
<circle cx="22" cy="22" r="15" fill="#0D968F"/>
<path d="M19.75 17.5C19.75 18.7426 18.7426 19.75 17.5 19.75C16.2574 19.75 15.25 18.7426 15.25 17.5C15.25 16.2574 16.2574 15.25 17.5 15.25C18.7426 15.25 19.75 16.2574 19.75 17.5Z" stroke="white" stroke-width="2" stroke-linecap="round" stroke-linejoin="round"/>
<path d="M28.75 26.5C28.75 27.7427 27.7427 28.75 26.5 28.75C25.2573 28.75 24.25 27.7427 24.25 26.5C24.25 25.2573 25.2573 24.25 26.5 24.25C27.7427 24.25 28.75 25.2573 28.75 26.5Z" stroke="white" stroke-width="2" stroke-linecap="round" stroke-linejoin="round"/>
<path d="M16 28L28 16" stroke="white" stroke-width="2" stroke-linecap="round" stroke-linejoin="round"/>
</svg>
