<svg width="18" height="16" viewBox="0 0 18 16" fill="none" xmlns="http://www.w3.org/2000/svg">
<path d="M13.9091 10.2417C13.8809 9.3737 13.509 8.55248 12.8753 7.95867C12.2416 7.36486 11.398 7.04711 10.53 7.07532C9.66202 7.10353 8.84079 7.47539 8.24699 8.10909C7.65318 8.74279 7.33543 9.58643 7.36364 10.4544H1.63636C1.20237 10.4544 0.786158 10.282 0.47928 9.97513C0.172402 9.66825 0 9.25204 0 8.81805V2.27259C0 1.37259 0.736364 0.63623 1.63636 0.63623H13.0909C13.5249 0.63623 13.9411 0.808632 14.248 1.11551C14.5549 1.42239 14.7273 1.8386 14.7273 2.27259V8.81805C14.7284 9.10639 14.6533 9.38992 14.5097 9.63992C14.366 9.88992 14.1588 10.0975 13.9091 10.2417ZM7.36364 7.99987C8.01462 7.99987 8.63895 7.74126 9.09926 7.28095C9.55958 6.82063 9.81818 6.19631 9.81818 5.54532C9.81818 4.89434 9.55958 4.27001 9.09926 3.8097C8.63895 3.34938 8.01462 3.09078 7.36364 3.09078C6.71265 3.09078 6.08833 3.34938 5.62801 3.8097C5.16769 4.27001 4.90909 4.89434 4.90909 5.54532C4.90909 6.19631 5.16769 6.82063 5.62801 7.28095C6.08833 7.74126 6.71265 7.99987 7.36364 7.99987Z" fill="white"/>
<path d="M4.90882 5.54541H16.3634C16.7974 5.54541 17.2136 5.71781 17.5205 6.02469C17.8273 6.33157 17.9997 6.74778 17.9997 7.18177V13.7272C17.9997 14.1612 17.8273 14.5774 17.5205 14.8843C17.2136 15.1912 16.7974 15.3636 16.3634 15.3636H4.90882C4.47483 15.3636 4.05862 15.1912 3.75174 14.8843C3.44486 14.5774 3.27246 14.1612 3.27246 13.7272V7.18177C3.27246 6.28177 4.00882 5.54541 4.90882 5.54541ZM10.6361 12.909C11.2871 12.909 11.9114 12.6504 12.3717 12.1901C12.832 11.7298 13.0906 11.1055 13.0906 10.4545C13.0906 9.80351 12.832 9.17919 12.3717 8.71887C11.9114 8.25856 11.2871 7.99996 10.6361 7.99996C9.98511 7.99996 9.36079 8.25856 8.90047 8.71887C8.44015 9.17919 8.18155 9.80351 8.18155 10.4545C8.18155 11.1055 8.44015 11.7298 8.90047 12.1901C9.36079 12.6504 9.98511 12.909 10.6361 12.909Z" fill="white"/>
</svg>
