<svg width="44" height="44" viewBox="0 0 44 44" fill="none" xmlns="http://www.w3.org/2000/svg">
<circle cx="22" cy="22" r="22" fill="#1A460D"/>
<circle cx="22" cy="22" r="15" fill="#0D968F"/>
<path d="M26.9091 24.2417C26.8809 23.3737 26.509 22.5525 25.8753 21.9587C25.2416 21.3649 24.398 21.0471 23.53 21.0753C22.662 21.1035 21.8408 21.4754 21.247 22.1091C20.6532 22.7428 20.3354 23.5864 20.3636 24.4544H14.6364C14.2024 24.4544 13.7862 24.282 13.4793 23.9751C13.1724 23.6683 13 23.252 13 22.818V16.2726C13 15.3726 13.7364 14.6362 14.6364 14.6362H26.0909C26.5249 14.6362 26.9411 14.8086 27.248 15.1155C27.5549 15.4224 27.7273 15.8386 27.7273 16.2726V22.818C27.7284 23.1064 27.6533 23.3899 27.5097 23.6399C27.366 23.8899 27.1588 24.0975 26.9091 24.2417ZM20.3636 21.9999C21.0146 21.9999 21.6389 21.7413 22.0993 21.2809C22.5596 20.8206 22.8182 20.1963 22.8182 19.5453C22.8182 18.8943 22.5596 18.27 22.0993 17.8097C21.6389 17.3494 21.0146 17.0908 20.3636 17.0908C19.7127 17.0908 19.0883 17.3494 18.628 17.8097C18.1677 18.27 17.9091 18.8943 17.9091 19.5453C17.9091 20.1963 18.1677 20.8206 18.628 21.2809C19.0883 21.7413 19.7127 21.9999 20.3636 21.9999Z" fill="white"/>
<path d="M17.9093 19.5454H29.3639C29.7978 19.5454 30.2141 19.7178 30.5209 20.0247C30.8278 20.3316 31.0002 20.7478 31.0002 21.1818V27.7272C31.0002 28.1612 30.8278 28.5774 30.5209 28.8843C30.2141 29.1912 29.7978 29.3636 29.3639 29.3636H17.9093C17.4753 29.3636 17.0591 29.1912 16.7522 28.8843C16.4454 28.5774 16.2729 28.1612 16.2729 27.7272V21.1818C16.2729 20.2818 17.0093 19.5454 17.9093 19.5454ZM23.6366 26.909C24.2876 26.909 24.9119 26.6504 25.3722 26.1901C25.8325 25.7298 26.0911 25.1055 26.0911 24.4545C26.0911 23.8035 25.8325 23.1792 25.3722 22.7189C24.9119 22.2586 24.2876 22 23.6366 22C22.9856 22 22.3613 22.2586 21.901 22.7189C21.4406 23.1792 21.182 23.8035 21.182 24.4545C21.182 25.1055 21.4406 25.7298 21.901 26.1901C22.3613 26.6504 22.9856 26.909 23.6366 26.909Z" fill="white"/>
</svg>
