<svg width="44" height="44" viewBox="0 0 44 44" fill="none" xmlns="http://www.w3.org/2000/svg">
<circle cx="22" cy="22" r="22" fill="#D7FFCB"/>
<circle cx="22" cy="22" r="15" fill="#0D968F"/>
<g clip-path="url(#clip0_420_10065)">
<path d="M25.4492 24.4929C25.4492 24.8644 25.147 25.1667 24.7754 25.1667C24.4039 25.1667 24.1016 24.8645 24.1016 24.4929C24.1016 24.1213 24.4038 23.819 24.7754 23.819C25.147 23.8191 25.4492 24.1213 25.4492 24.4929ZM19.2089 20.8228C18.8373 20.8228 18.5351 21.125 18.5351 21.4966C18.5351 21.8682 18.8373 22.1705 19.2089 22.1705C19.5804 22.1705 19.8826 21.8682 19.8826 21.4966C19.8826 21.125 19.5803 20.8228 19.2089 20.8228ZM29.9725 20.6656C29.9725 20.9614 29.7327 21.2011 29.437 21.2011C29.4366 21.2011 29.4361 21.2011 29.4356 21.2011H28.484V28.4646C28.484 28.7603 28.2442 29 27.9485 29H16.0519C15.7561 29 15.5164 28.7603 15.5164 28.4646V21.2011H14.5648C14.3462 21.2011 14.1495 21.0682 14.0679 20.8653C13.9864 20.6625 14.0364 20.4304 14.1942 20.2791L21.6296 13.149C21.8367 12.9503 22.1636 12.9503 22.3708 13.149L29.7834 20.2572C29.8991 20.3554 29.9725 20.502 29.9725 20.6656ZM19.2089 23.2413C20.1709 23.2413 20.9535 22.4586 20.9535 21.4966C20.9535 20.5345 20.1708 19.7519 19.2089 19.7519C18.2468 19.7519 17.4642 20.5346 17.4642 21.4966C17.4642 22.4587 18.2468 23.2413 19.2089 23.2413ZM20.316 26.0282L24.4943 20.5866C24.6744 20.352 24.6302 20.0159 24.3957 19.8358C24.1611 19.6557 23.825 19.6998 23.6448 19.9344L19.4665 25.376C19.2865 25.6105 19.3306 25.9467 19.5651 26.1268C19.6624 26.2015 19.777 26.2376 19.8909 26.2376C20.0515 26.2376 20.2105 26.1656 20.316 26.0282ZM26.5201 24.4929C26.5201 23.5308 25.7375 22.7481 24.7754 22.7481C23.8134 22.7481 23.0307 23.5308 23.0307 24.4929C23.0307 25.4549 23.8133 26.2376 24.7754 26.2376C25.7375 26.2376 26.5201 25.4549 26.5201 24.4929Z" fill="white"/>
</g>
<defs>
<clipPath id="clip0_420_10065">
<rect width="16" height="16" fill="white" transform="translate(14 13)"/>
</clipPath>
</defs>
</svg>
