<svg width="160" height="739" viewBox="0 0 160 739" fill="none" xmlns="http://www.w3.org/2000/svg">
<path d="M-88.1284 507.191C-74.3949 514.739 -53.1961 501.687 -46.8426 481.946C-37.0754 451.569 -40.8044 418.731 -44.3787 386.955C-45.0076 381.571 -45.5891 376.034 -46.1706 370.497L-46.4898 367.235C-48.029 351.911 -49.7325 334.387 -47.3331 318.831C-45.2051 305.713 -39.0322 276.018 -33.4043 268.378C-29.2671 262.82 -22.5522 262.987 -15.9352 263.08C-11.3617 263.138 -7.07883 263.355 -3.54146 261.686L-3.39619 261.607C8.71932 256.038 8.71933 256.038 14.4932 260.025C16.3031 261.204 18.4573 262.832 21.6348 264.668C25.9368 267.164 28.571 268.022 30.523 268.743C31.7422 269.098 32.7182 269.458 33.4036 269.976C35.1661 271.308 36.0191 274.407 38.9255 284.534C47.4964 314.612 36.9239 347.59 26.6831 379.497C13.8844 419.666 0.514115 461.29 25.7177 496.577C29.3598 501.596 33.1407 505.775 37.0574 508.736C48.0241 517.025 59.7925 516.48 71.0486 507.052C87.5223 493.261 100.492 461.906 103.282 429.088C109.654 353.476 88.2643 291.43 63.8075 229.143C41.5873 172.512 13.6865 140.472 -10.6574 114.897C-12.3757 113.032 -14.1888 111.473 -15.8533 110.215C-26.5263 102.148 -34.1253 106.788 -43.8056 112.687C-47.5324 114.967 -51.3572 117.174 -55.8642 119.242C-61.0029 121.4 -66.647 121.287 -72.0954 121.323C-80.9991 121.201 -89.3185 121.143 -95.6159 130.165C-108.978 149.518 -100.022 179.132 -92.0673 205.346C-88.4154 217.357 -84.9624 228.841 -83.8595 238.548C-79.4036 276.844 -98.2441 321.697 -118.479 339.441C-124.805 345.044 -135.174 350.045 -146.077 355.208C-164.247 363.941 -184.792 373.711 -192.738 389.228C-196.423 396.449 -197.882 402.332 -197.159 407.41C-196.59 411.427 -194.42 414.955 -190.699 417.768C-184.53 422.43 -174.486 425.114 -163.905 428.014C-150.838 431.471 -136.113 435.427 -125.146 443.716C-119.859 447.713 -115.93 452.193 -113.061 457.76C-109.798 464.002 -107.502 471.024 -105.303 477.973C-101.705 489.377 -98.3559 500.026 -90.7184 505.799C-89.8877 506.238 -88.9591 506.751 -88.1284 507.191ZM-112.581 456.99C-115.497 451.576 -119.575 446.795 -124.862 442.798C-135.927 434.435 -150.75 430.405 -163.817 426.948C-174.398 424.048 -184.442 421.365 -190.513 416.776C-194.135 414.037 -196.059 410.884 -196.675 407.02C-197.396 402.322 -195.886 396.666 -192.394 389.677C-184.641 374.392 -164.095 364.623 -146.071 355.968C-135.121 350.652 -124.654 345.725 -118.328 340.122C-97.8998 322.146 -79.0625 276.913 -83.4236 238.311C-84.5266 228.604 -87.9795 217.12 -91.682 204.882C-99.4882 178.969 -108.394 149.582 -95.319 130.767C-89.2142 121.977 -80.8948 122.035 -72.1364 122.236C-66.5901 122.274 -60.9459 122.387 -55.7599 120.076C-51.3003 118.161 -47.4281 115.801 -43.7013 113.521C-34.1663 107.701 -26.6147 103.214 -16.1375 111.133C-14.473 112.391 -12.7578 113.876 -11.0395 115.741C13.3044 141.316 41.2051 173.355 63.2769 229.686C87.6832 291.746 108.975 353.718 102.553 429.102C99.7593 461.541 86.9822 492.664 70.6538 506.376C59.5429 515.725 48.0177 516.265 37.1489 508.05C33.3302 505.163 29.5018 501.137 26.0051 496.039C14.7821 480.382 10.397 462.152 12.3538 440.22C14.0866 420.574 20.7244 399.914 27.1726 379.867C37.4609 347.807 48.0301 314.449 39.4088 284.144C35.2987 269.709 35.1502 269.408 30.6619 267.904C28.7099 267.184 26.0757 266.325 21.7737 263.829C18.5962 261.993 16.3947 260.518 14.7301 259.26C8.76032 255.125 8.76033 255.125 -3.59839 260.699L-3.74368 260.778C-7.23368 262.293 -11.466 262.304 -15.8942 262.167C-22.6091 262 -29.4693 261.912 -33.7518 267.549C-39.525 275.268 -45.7452 305.116 -47.8227 318.461C-50.3674 334.096 -48.5659 351.694 -47.0268 367.018L-46.7076 370.28C-46.224 375.743 -45.5445 381.354 -44.9157 386.738C-41.3414 418.514 -37.6629 451.125 -47.3353 481.196C-53.5942 500.631 -74.455 513.372 -87.8947 506.046C-88.7254 505.607 -89.6067 504.94 -90.39 504.348C-97.9296 498.649 -101.18 488.074 -104.728 476.897C-106.971 470.481 -109.22 463.306 -112.581 456.99Z" fill="#5D5D5D" fill-opacity="0.2"/>
<path d="M-121.77 585.412C-126.018 589.376 -131.425 594.351 -131.864 600.061C-132.088 602.346 -131.387 604.764 -130.054 607.094C-129.807 607.469 -129.463 607.918 -129.071 608.214C-125.253 611.1 -116.438 606.435 -108.687 602.476C-103.795 599.943 -99.0476 597.49 -96.7609 597.519C-85.6652 597.976 -72.0865 604.464 -60.1693 610.073C-55.4315 612.333 -50.9874 614.37 -46.837 616.186C-37.3172 620.172 -28.47 625.16 -20.6366 631.081C5.11554 650.546 22.3533 681.511 30.3373 722.851C31.203 727.47 33.5216 731.299 37.0466 733.964C48.1112 742.327 72.2196 739.782 95.2498 718.863C109.058 706.267 132.406 676.904 134.525 622.055C135.412 600.069 130.818 586.024 120.243 578.031C112.214 571.962 101.589 569.595 89.258 566.883C74.1003 563.544 56.9938 559.865 41.0333 547.801C28.5979 538.402 18.6131 525.38 10.3905 507.837C-14.8743 453.624 0.156645 401.171 16.0728 361.471C22.3161 345.988 24.4345 331.731 22.2449 320.069C20.6683 311.892 17.2094 305.502 12.0198 301.579C2.22807 294.178 -13.8041 296.786 -25.2681 316.252C-36.1099 334.489 -32.2833 361.547 -27.79 392.697C-22.6805 427.711 -16.898 467.576 -31.6741 503.984C-38.9658 522.072 -49.1541 537.027 -58.7775 543.913C-66.0795 549.155 -70.4762 546.965 -74.9235 544.547C-78.4422 542.643 -81.9608 540.739 -87.207 541.682C-91.1897 542.448 -93.732 546.756 -96.4164 551.524C-98.2386 554.678 -100.156 558.138 -102.619 560.24C-103.923 561.331 -105.436 560.754 -107.098 559.876C-109.198 558.855 -111.542 557.838 -113.948 560.928C-115.584 563.09 -115.502 567.117 -115.47 570.917C-115.394 574.184 -115.366 577.604 -116.322 579.524C-117.232 581.291 -119.26 583.157 -121.77 585.412ZM-114.984 570.907C-115.016 567.107 -115.095 563.46 -113.699 561.683C-111.532 558.978 -109.432 560 -107.382 560.794C-105.673 561.519 -104.012 562.397 -102.467 560.921C-99.8587 558.74 -97.9891 555.433 -96.1195 552.126C-93.5298 547.664 -91.0855 543.282 -87.248 542.595C-82.1471 541.731 -78.6284 543.635 -75.2077 545.465C-70.5172 547.878 -66.07 550.295 -58.5753 544.821C-48.7592 537.703 -38.571 522.748 -31.2319 504.507C-16.361 467.793 -22.0488 427.622 -27.0636 392.302C-31.5063 361.379 -35.2824 334.548 -24.6806 316.696C-13.4566 297.615 2.23444 294.938 11.8303 302.191C16.8241 305.966 20.3304 312.203 21.7585 320.079C23.7996 331.439 21.7286 345.544 15.58 360.721C-0.430864 400.727 -15.6039 453.639 9.90733 508.227C18.1805 525.997 28.2631 539.093 40.7965 548.566C56.8549 560.704 74.0593 564.457 89.217 567.796C101.45 570.434 112.075 572.801 120.006 578.796C130.483 586.715 134.729 599.931 133.891 621.764C131.816 676.08 108.66 705.211 94.9971 717.728C73.0312 737.941 48.4428 741.256 37.3782 732.893C33.9511 730.302 31.8789 726.848 30.9658 722.382C22.8333 680.741 5.64293 649.623 -20.403 629.936C-28.3343 623.941 -37.1814 618.953 -46.7992 614.893C-50.9969 613.23 -55.3937 611.04 -60.1315 608.78C-72.1466 603.097 -85.7253 596.609 -96.9663 596.231C-99.3509 596.128 -103.953 598.502 -109.136 601.193C-116.788 605.226 -125.458 609.812 -129.081 607.074C-129.375 606.852 -129.668 606.63 -129.915 606.255C-131.197 604.152 -131.797 602.188 -131.621 600.056C-131.179 594.726 -125.965 589.983 -121.862 586.098C-119.351 583.843 -117.276 581.824 -116.367 580.057C-114.829 577.821 -114.955 574.327 -114.984 570.907Z" fill="#5D5D5D" fill-opacity="0.2"/>
<path d="M-22.9173 573.661C-22.6204 574.263 -22.1782 574.786 -21.7865 575.082C-20.024 576.415 -17.5541 575.072 -15.2296 573.808C-13.922 573.097 -12.7598 572.465 -11.8849 572.372C-10.8142 572.426 -9.93609 572.712 -9.05483 573.378C-7.48816 574.562 -6.59417 576.748 -5.40643 579.156C-4.96103 580.059 -4.61357 580.888 -4.07025 581.865C-2.93306 584.047 -1.65377 585.769 -0.185009 586.879C1.28375 587.989 2.79667 588.566 4.4549 589.064C6.11312 589.563 7.86927 590.135 9.7297 591.541L9.92554 591.689C13.6464 594.501 16.1261 600.152 18.4574 605.501C20.7887 610.85 23.2685 616.501 26.9893 619.313C28.7518 620.645 30.6059 621.291 32.7947 621.247C34.4971 621.212 36.0005 620.649 37.2607 620.091C39.4431 619.286 41.2371 618.566 43.4892 620.268C44.1746 620.786 44.8127 621.457 45.5013 622.355C51.0574 629.387 51.0044 640.486 51.0462 651.279C51.0402 656.372 51.0342 661.465 51.6567 666.089C52.8039 675.263 55.928 682.345 60.3343 685.675L60.5301 685.823C64.9838 689.001 70.3784 688.358 75.7917 684.143C83.04 678.294 100.451 654.449 101.717 637.092C102.111 631.915 101.005 627.681 98.5952 624.538C97.7581 623.339 96.9242 622.52 96.043 621.854C93.2034 619.707 90.4334 620.068 87.275 620.513C86.5454 620.528 85.7684 620.696 85.0388 620.711C78.6714 621.373 73.3934 618.516 67.8217 615.438C65.6707 614.189 63.3744 613.02 61.0308 612.004C58.346 610.919 55.8129 610.514 53.3777 610.184C50.115 609.795 46.9975 609.326 44.1579 607.18C42.1996 605.7 40.576 603.528 39.0913 600.518C36.0241 594.424 32.5178 588.187 27.6219 584.486C26.0553 583.302 24.2959 582.35 22.5398 581.777C21.6617 581.491 20.8816 581.279 20.1014 581.067C16.9303 579.992 13.9549 579.064 11.3112 577.066C9.15699 575.438 7.33757 573.119 5.70761 570.187L5.01584 568.909C2.10023 563.496 -0.818572 557.703 -4.73525 554.742C-6.88943 553.114 -9.0846 552.399 -11.564 552.601C-14.675 552.893 -20.7515 559.25 -22.5957 565.597C-24.0294 568.667 -23.9092 571.401 -22.9173 573.661ZM-11.9935 553.598C-9.61199 553.322 -7.41682 554.037 -5.36056 555.591C-1.5418 558.478 1.32644 564.044 4.24205 569.457L4.93383 570.735C6.51642 573.82 8.43376 576.213 10.6859 577.915C13.4275 579.987 16.5008 580.989 19.6719 582.064C20.4521 582.276 21.3302 582.562 22.1103 582.774C23.8664 583.347 25.5279 584.225 27.0945 585.409C31.8925 589.035 35.3009 595.199 38.4155 601.14C39.9981 604.224 41.7196 606.47 43.6779 607.95C46.6154 610.17 49.7329 610.639 53.1409 610.949C55.5761 611.279 58.1565 611.53 60.696 612.695C63.0396 613.711 65.3359 614.88 67.4869 616.129C73.0586 619.207 78.4346 622.138 84.9473 621.397C85.7242 621.229 86.4538 621.214 87.1834 621.199C90.3419 620.754 92.9665 620.472 95.7082 622.545C96.5894 623.211 97.3254 623.956 98.1625 625.155C100.475 628.224 101.432 632.157 101.034 636.954C99.8162 654.158 82.6452 677.618 75.3969 683.467C70.1288 687.603 64.8795 688.167 60.6217 685.137L60.4258 684.989C56.2154 681.807 53.2397 675.026 52.0452 666.005C51.5206 661.455 51.4793 656.515 51.5326 651.269C51.5382 640.323 51.5407 628.997 45.836 621.664C45.1474 620.766 44.4114 620.021 43.726 619.503C41.376 617.727 39.4368 618.526 37.1564 619.257C35.7983 619.741 34.4402 620.225 32.8357 620.334C30.7448 620.452 28.8908 619.806 27.2262 618.548C23.7011 615.884 21.3225 610.687 18.9406 605.111C16.5114 599.688 13.9338 593.963 10.115 591.077L9.91916 590.929C8.05874 589.523 6.20469 588.877 4.54647 588.378C2.88824 587.88 1.47321 587.377 0.00445636 586.267C-1.4643 585.157 -2.5951 583.736 -3.63437 581.628C-4.07977 580.725 -4.52519 579.822 -4.87267 578.993C-6.01304 576.432 -7.00493 574.172 -8.66952 572.914C-9.55078 572.248 -10.5268 571.888 -11.7428 571.913C-12.7156 571.932 -13.8779 572.564 -15.3307 573.354C-17.51 574.539 -19.8345 575.803 -21.4012 574.618C-21.7929 574.322 -22.0392 573.947 -22.3362 573.345C-23.1796 571.386 -23.2966 569.032 -22.444 566.278C-20.6504 559.704 -14.6181 553.88 -11.9935 553.598Z" fill="#5D5D5D" fill-opacity="0.2"/>
<path d="M-102.892 579.857C-102.4 580.607 -101.272 581.648 -99.9011 582.685C-96.9636 584.905 -85.6622 592.503 -65.6815 596.655C-48.9667 600.038 -30.8934 608.79 -14.6391 621.076C11.9943 641.207 27.7752 660.876 40.027 712.239C40.9337 715.945 42.709 718.797 45.3527 720.795C55.2424 728.27 75.434 722.765 91.4149 708.223C103.871 696.871 124.959 670.519 126.832 621.148C127.579 600.001 122.56 593.186 116.88 588.894C109.928 583.639 99.84 581.489 88.1914 578.914C72.4494 575.512 54.7081 571.542 37.6705 558.664C24.06 548.376 13.1403 534.081 4.12482 514.806C-24.2105 454.118 -6.32158 394.386 9.54717 354.839C14.4546 342.5 16.3553 331.287 14.8766 323.184C13.9604 318.338 11.885 314.504 8.75167 312.135C1.5058 306.659 -10.4899 309.108 -19.4621 324.038C-27.569 337.735 -24.109 361.684 -20.0802 389.651C-15.0149 425.197 -8.70774 469.612 -25.1513 510.236C-29.8219 521.809 -35.6233 531.961 -42.1703 540.229C-52.665 553.442 -63.9212 562.87 -75.8441 568.206C-83.6958 571.711 -90.837 572.922 -96.0358 573.712C-100.748 574.492 -103.663 574.932 -103.989 576.763C-104.175 577.755 -103.729 578.658 -102.892 579.857ZM-96.0294 574.472C-90.8306 573.682 -83.6894 572.471 -75.8377 568.966C-63.9148 563.63 -52.5608 554.276 -42.0187 540.91C-35.4243 532.49 -29.6229 522.337 -24.9522 510.764C-8.46136 469.987 -14.7685 425.572 -19.8843 389.799C-23.8626 362.059 -27.2247 338.184 -19.3105 324.719C-10.4835 309.868 1.36689 307.498 8.51483 312.9C11.6482 315.269 13.673 318.876 14.4913 323.648C16.0174 331.598 14.0661 342.584 9.20605 354.77C-6.71008 394.47 -24.6463 454.355 3.83742 515.344C12.8529 534.619 23.8705 548.988 37.481 559.276C54.6165 572.228 72.4052 576.045 88.1472 579.447C99.7958 582.022 109.786 584.098 116.738 589.353C122.222 593.497 127.241 600.312 126.443 621.232C124.567 670.223 103.527 696.422 91.1686 707.848C75.6235 722.153 55.1413 727.816 45.4475 720.489C42.9016 718.565 41.1264 715.713 40.2702 712.234C34.3212 687.347 27.3083 669.019 18.091 654.689C10.2035 642.308 0.389541 632.247 -14.5918 620.923C-30.846 608.637 -48.9667 600.038 -65.7794 596.581C-85.7601 592.429 -96.9636 584.905 -99.9011 582.685C-101.272 581.648 -102.4 580.607 -102.94 580.01C-103.726 579.038 -104.074 578.209 -103.982 577.523C-103.414 575.687 -100.255 575.242 -96.0294 574.472Z" fill="#5D5D5D" fill-opacity="0.2"/>
<path d="M5.58078 322.766C0.293256 318.769 -8.04167 322.665 -12.2231 328.755C-15.0118 332.689 -16.6378 341.844 -16.6876 353.323C-16.7438 364.042 -15.1576 373.359 -12.8928 376.581C-12.5485 377.03 -12.2042 377.479 -11.8125 377.775C-11.3229 378.145 -10.8839 378.289 -10.4449 378.432C-6.44937 379.186 -5.55258 375.899 -3.52215 368.56C-2.24642 364.049 -0.594935 357.935 2.5504 350.117C6.79154 339.54 8.31965 330.311 7.55822 326.526C7.49812 325.159 7.14745 323.95 5.58078 322.766ZM2.2061 349.668C-0.986594 357.639 -2.736 363.679 -3.91381 368.264C-5.94424 375.603 -6.74949 378.204 -10.306 377.593C-11.1335 377.533 -11.9168 376.941 -12.558 375.89C-14.7249 372.742 -16.1626 363.726 -16.1538 353.16C-16.1988 341.987 -14.5222 333.059 -11.8788 329.204C-7.79212 323.42 0.299615 319.529 5.29338 323.304C6.66422 324.34 7.06227 325.396 7.2171 326.457C7.83324 330.321 6.39988 339.244 2.2061 349.668Z" fill="#5D5D5D" fill-opacity="0.2"/>
<path d="M55.3782 634.163C56.2659 635.589 56.6639 636.645 57.2578 637.849C57.4568 638.377 57.7537 638.98 58.0507 639.582C61.0232 645.982 63.3608 652.091 64.7635 656.927C65.5659 659.799 66.4062 661.379 67.2874 662.045C68.6583 663.081 70.01 661.837 71.1185 660.598C75.4106 656.102 77.8076 651.872 81.4394 644.044C81.8689 643.047 82.2952 641.67 82.1371 640.229C81.878 638.334 80.4566 637.071 78.1162 636.435C71.0948 634.526 66.5054 632.567 60.7442 630.101C59.7682 629.741 58.6943 629.307 57.6204 628.872C56.5465 628.438 55.4316 628.917 54.9074 630.22C54.6674 630.605 54.2916 632.209 55.3782 634.163ZM57.4815 629.711C58.5554 630.146 59.6293 630.58 60.6053 630.94C66.3665 633.406 70.9559 635.365 78.0752 637.348C78.9532 637.634 79.686 637.999 80.1756 638.369C80.959 638.961 81.3538 639.637 81.4581 640.471C81.6129 641.532 81.234 642.756 80.8992 643.447C77.3149 651.122 75.0631 655.273 70.7711 659.769C69.5172 661.087 68.4529 661.793 67.5716 661.127C66.7883 660.535 66.046 659.03 65.2941 656.384C63.9388 651.395 61.5538 645.439 58.5307 638.812C58.2337 638.21 58.0347 637.682 57.7378 637.08C57.1913 635.722 56.648 634.745 55.8077 633.166C55.1665 632.115 55.0117 631.054 55.3464 630.363C55.7791 629.746 56.6034 629.425 57.4815 629.711Z" fill="#5D5D5D" fill-opacity="0.2"/>
<path d="M-39.4827 582.285C-38.6014 582.951 -37.3791 583.686 -35.9609 584.569C-35.326 584.861 -20.3702 593.144 -5.09509 604.69C0.87785 609.205 6.02329 613.66 10.338 617.677C31.6748 638.524 45.9972 669.929 50.6573 691.954C51.5673 696.04 53.0993 698.897 55.4493 700.673C60.6389 704.596 69.2803 702.443 79.09 694.565C96.2933 680.759 112.361 641.739 112.094 621.525C112.05 616.205 110.802 612.43 108.55 610.728C108.354 610.58 108.158 610.432 107.962 610.284C103.66 607.787 97.176 606.095 88.8881 603.984C73.4335 600.044 52.2241 594.396 32.009 579.683C14.7314 567.19 -1.63427 541.604 -6.72951 531.522C-8.36265 528.211 -9.59456 526.336 -10.5737 525.596C-12.5321 524.116 -13.53 526.949 -15.2416 531.697C-16.5237 535.447 -18.3773 540.654 -21.447 545.886C-27.1096 555.199 -32.1627 561.764 -35.9178 566.477C-40.0582 571.655 -42.5121 574.898 -42.294 577.706C-42.3287 579.379 -41.441 580.805 -39.4827 582.285ZM-35.7662 567.158C-32.011 562.445 -26.9579 555.88 -21.248 546.414C-18.0804 541.256 -16.3246 535.975 -14.9952 532.072C-13.4289 527.403 -12.4783 524.723 -10.7158 526.055C-9.83458 526.721 -8.60266 528.596 -7.02008 531.68C-2.02275 541.688 13.8975 566.371 30.8371 579.175C31.1309 579.397 31.5225 579.693 31.8163 579.915C52.1293 594.702 73.2882 600.123 88.8407 604.137C97.1287 606.248 103.613 607.94 107.915 610.437C110.505 611.828 111.8 615.45 111.848 621.15C112.017 641.29 96.0437 680.004 78.9857 693.731C69.2234 701.456 60.7778 703.757 55.5882 699.834C53.3361 698.132 51.8041 695.275 50.9447 691.416C46.1867 669.317 31.9116 637.759 10.4769 616.838C6.20956 612.668 1.01676 608.366 -4.95618 603.851C-20.2312 592.305 -35.1871 584.022 -35.8219 583.73C-37.2875 583 -38.3646 582.186 -39.2459 581.52C-41.0084 580.188 -41.8454 578.989 -42.0035 577.548C-42.3131 575.426 -39.8592 572.183 -35.7662 567.158Z" fill="#5D5D5D" fill-opacity="0.2"/>
<path d="M-66.8165 583.148C-65.9353 583.814 -64.6655 584.396 -63.1558 584.593C-47.1264 587.458 -30.1744 595.929 -11.1785 610.287C12.5175 628.198 34.8776 649.253 48.8166 710.387C49.221 712.203 50.0107 713.555 51.2836 714.517C58.7253 720.142 79.4472 708.24 87.6302 697.811C88.4008 696.883 89.1714 695.955 89.9894 694.874C100.342 682.12 117.677 660.862 119.188 620.468C119.831 604.34 116.502 601.824 113.564 599.603C107.689 595.162 98.1854 593.076 87.219 590.64C70.9401 587.02 52.5671 583.139 34.4524 569.447C18.9815 557.753 7.72384 543.769 -1.82859 524.277C-3.31326 521.267 -4.65265 518.178 -5.84357 515.39C-8.22541 509.813 -10.1586 505.52 -11.8232 504.262C-13.0962 503.3 -14.2079 504.159 -15.1552 507.218C-15.2973 507.677 -15.5342 508.442 -15.7678 509.587C-23.0051 539.989 -38.537 561.666 -62.0762 574.082C-66.2421 576.219 -68.3645 578.391 -68.4433 580.597C-68.4369 581.357 -67.8936 582.334 -66.8165 583.148ZM-62.0257 574.309C-46.8656 566.321 -34.8516 554.445 -26.2742 538.839C-19.3737 526.308 -16.6013 514.621 -15.4267 509.656C-15.1931 508.511 -14.9562 507.746 -14.8141 507.287C-13.7247 503.769 -12.6034 504.05 -11.918 504.568C-10.3513 505.752 -8.3675 510.272 -6.03621 515.621C-4.84529 518.41 -3.50592 521.499 -2.02125 524.509C7.58174 544.228 18.7415 558.138 34.3103 569.906C52.5229 583.672 70.9938 587.627 87.1748 591.173C98.1412 593.609 107.645 595.696 113.422 600.062C116.262 602.208 119.493 604.651 118.847 620.399C117.286 660.566 100.048 681.898 89.743 694.499C88.925 695.58 88.0565 696.434 87.3838 697.436C79.2482 707.712 58.6716 719.535 51.3278 713.984C50.1528 713.096 49.461 711.818 49.1072 710.229C42.6431 681.932 33.7001 659.691 21.7348 642.528C11.0993 627.315 -0.265491 617.97 -11.0364 609.828C-30.0323 595.47 -47.1296 587.078 -63.1116 584.06C-64.4761 583.784 -65.7932 583.355 -66.6744 582.689C-67.3598 582.171 -68.0958 581.426 -68.058 580.133C-68.017 579.22 -67.2086 576.999 -62.0257 574.309Z" fill="#5D5D5D" fill-opacity="0.2"/>
<path d="M-52.7198 244.904C-51.8386 245.571 -50.6827 244.179 -48.7184 240.566C-41.439 226.811 -26.9173 212.299 -10.8756 210.831C5.31146 209.284 14.7302 212.816 19.806 214.764C22.2949 215.702 23.612 216.131 24.19 215.435C24.3826 215.203 24.5248 214.744 24.471 214.137C24.3476 211.023 12.8934 185.184 -9.06867 165.186L-10.0005 164.293C-11.962 162.433 -13.6771 160.947 -15.3417 159.689C-21.3147 155.175 -26.8199 154.223 -42.5297 160.473C-45.0027 161.436 -47.4284 162.246 -49.854 163.055C-57.2289 165.411 -63.6815 167.519 -65.3298 174.014C-66.6497 179.058 -64.9848 186.169 -60.3254 196.487C-55.17 207.936 -54.6037 223.279 -54.2272 233.381C-53.9772 239.989 -53.7969 244.09 -52.7198 244.904ZM-60.1327 196.255C-64.6436 186.238 -66.2612 178.974 -65.134 174.162C-63.533 167.82 -57.2257 165.791 -49.9488 163.361C-47.5231 162.552 -45.0975 161.742 -42.6245 160.779C-27.0126 154.455 -21.4094 155.481 -15.6323 159.847C-13.9677 161.105 -12.2526 162.591 -10.291 164.451L-9.35923 165.344C12.0153 184.898 23.9086 210.88 23.9341 213.92C23.9878 214.527 23.7951 214.759 23.7478 214.912C23.3151 215.529 21.9474 214.873 19.7523 214.157C14.6765 212.209 5.25773 208.677 -11.0272 210.15C-27.1669 211.544 -41.7359 226.209 -49.0627 240.117C-50.8343 243.498 -51.9903 244.89 -52.6757 244.371C-53.6548 243.631 -53.791 238.997 -54.0819 233.302C-54.2152 223.195 -54.8795 207.778 -60.1327 196.255Z" fill="#5D5D5D" fill-opacity="0.2"/>
<path d="M-59.0069 272.626C-58.1257 273.292 -57.0645 272.206 -55.5834 268.983C-46.5009 249.794 -31.7809 224.104 -8.4463 222.107C-1.25137 221.504 6.44271 222.411 14.9297 225.05C16.5879 225.548 18.7735 225.123 20.8612 224.624C23.5806 224.036 26.3 223.449 28.2584 224.929C28.4542 225.077 28.7479 225.299 28.8964 225.6C29.8788 226.72 30.3779 228.23 30.8297 229.893C31.3794 231.63 31.929 233.367 33.0061 234.182C33.3978 234.478 33.9347 234.695 34.5191 234.759C35.4445 234.892 36.2657 234.191 36.9415 233.569C37.9553 232.636 38.9218 231.856 40.539 233.267C42.1562 234.679 42.4217 237.334 42.7377 240.216C42.9495 242.264 43.2086 244.159 43.9036 245.817C44.3995 246.947 45.483 248.521 46.658 249.409C47.4413 250.001 48.1235 250.139 48.6068 249.749C49.09 249.359 49.4721 248.515 49.6079 247.296C50.0592 243.107 46.2055 236.04 43.5394 231.382C42.7497 230.03 42.1559 228.826 41.7105 227.923C38.0462 220.244 34.3376 213.099 30.9798 207.162C17.3431 182.129 3.70683 162.948 -10.523 148.416C-12.0928 146.852 -13.6121 145.515 -14.8851 144.553C-22.3268 138.928 -29.7649 139.536 -46.4316 147.706C-50.5501 149.691 -54.577 150.989 -58.3608 152.283C-66.9959 155.196 -73.8843 157.541 -76.1074 165.112C-77.8568 171.153 -76.517 180.095 -71.8827 193.227C-64.3611 214.205 -62.695 238.875 -61.5853 255.195C-60.9688 264.912 -60.4757 271.515 -59.0069 272.626ZM-71.6933 192.615C-76.277 179.71 -77.6641 170.921 -75.9621 165.033C-73.7864 157.615 -67.0432 155.349 -58.4082 152.436C-54.5265 151.216 -50.4522 149.765 -46.381 147.933C-29.7617 139.916 -22.4215 139.234 -15.0777 144.785C-13.7069 145.821 -12.2855 147.084 -10.7156 148.648C3.51418 163.18 17.0526 182.287 30.7366 207.167C33.9965 213.03 37.8029 220.249 41.3693 227.853C41.8147 228.757 42.4086 229.961 43.1983 231.313C45.7664 235.897 49.6202 242.963 49.1656 246.773C49.0773 247.839 48.7425 248.53 48.4046 248.841C47.9213 249.231 47.1886 248.866 46.7969 248.57C45.8177 247.83 44.7343 246.256 44.2383 245.126C43.5939 243.695 43.3822 241.647 43.123 239.752C42.807 236.87 42.491 233.988 40.7758 232.502C39.0101 230.79 37.949 231.876 36.9352 232.809C36.2593 233.431 35.5834 234.053 34.658 233.92C34.0737 233.856 33.6346 233.713 33.243 233.417C32.1659 232.602 31.6667 231.092 31.215 229.429C30.7158 227.919 30.1662 226.182 29.0859 224.988C28.89 224.84 28.6437 224.465 28.4478 224.317C26.3916 222.763 23.5269 223.429 20.8075 224.017C18.6219 224.442 16.6321 225.015 14.9738 224.517C6.4869 221.878 -1.20718 220.971 -8.40213 221.574C-31.882 223.65 -46.7472 249.419 -55.8298 268.608C-57.1688 271.372 -58.132 272.532 -58.8175 272.014C-60.0904 271.051 -60.6341 264.221 -61.298 254.657C-62.455 238.49 -64.1211 213.82 -71.6933 192.615Z" fill="#5D5D5D" fill-opacity="0.2"/>
<path d="M-82.2233 492.019C-75.186 495.828 -66.5951 493.448 -60.4808 485.797C-54.8466 478.917 -48.5937 464.575 -50.5822 436.262C-51.4137 424.117 -52.5894 411.523 -53.6641 399.383C-56.8247 364.709 -59.8716 332.01 -56.5065 303.968C-52.832 272.195 -41.665 252.127 -21.4737 240.769C-3.94482 230.985 14.8418 231.969 30.1168 243.514C41.5731 252.174 49.9124 266.218 53.5078 283.095C57.457 301.562 55.6423 323.035 48.2845 344.849C46.5761 349.977 44.7224 355.184 42.8719 360.77C36.0793 380.369 28.3361 402.647 24.5189 423.173C20.1427 446.674 21.6536 464.43 29.1084 477.428C33.1075 484.416 37.3338 489.498 41.6422 492.755C49.4755 498.676 57.7918 498.354 65.7159 491.882C79.1482 480.89 90.2484 452.842 93.3007 422.298C99.7555 356.567 83.3912 302.096 54.7618 235.333C32.981 184.697 9.97925 156.739 -11.5187 134.07C-13.1865 132.432 -14.6584 130.942 -16.2251 129.758C-25.9189 122.431 -32.8893 126.602 -41.6979 132.027C-45.0868 133.997 -48.5705 136.272 -52.7395 138.03C-57.4897 140.103 -61.1819 140.711 -64.4857 141.234C-69.8297 142.104 -74.3968 142.805 -81.0102 148.946C-94.335 161.152 -87.3663 180.013 -80.0974 199.856C-76.2149 210.342 -72.2314 221.283 -71.4191 231.148C-66.0299 293.749 -89.8355 338.247 -113.839 359.186C-120.746 365.104 -129.273 369.231 -138.433 373.447C-149.578 378.616 -161.062 384.096 -169.596 393.316C-173.259 397.343 -174.984 400.571 -174.766 403.379C-174.652 405.353 -173.518 407.155 -171.462 408.709C-167.741 411.521 -161.01 413.588 -153.205 416.089C-142.28 419.438 -128.72 423.646 -118.047 431.713C-112.368 436.005 -107.996 441.009 -104.932 446.723C-101.868 452.438 -99.8686 458.858 -97.8215 465.125C-94.6213 475.474 -91.4749 485.215 -84.5228 490.47C-83.8374 490.988 -83.054 491.58 -82.2233 492.019ZM-104.692 446.338C-107.807 440.397 -112.081 435.467 -117.858 431.101C-128.531 423.034 -142.188 418.752 -153.114 415.403C-160.82 412.976 -167.551 410.909 -171.272 408.097C-173.23 406.617 -174.266 404.889 -174.428 403.068C-174.595 400.487 -172.871 397.26 -169.4 393.464C-160.964 384.17 -149.43 378.917 -138.382 373.674C-129.321 369.384 -120.695 365.331 -113.788 359.413C-99.7336 347.191 -88.2032 329.853 -80.5926 309.173C-71.9367 285.508 -68.7515 259.218 -71.1285 230.99C-71.9914 220.898 -75.9749 209.957 -79.8573 199.471C-87.0757 179.855 -93.8486 161.142 -80.8618 149.247C-74.2483 143.106 -69.6813 142.405 -64.4825 141.614C-61.1788 141.091 -57.3886 140.557 -52.6384 138.484C-48.5673 136.652 -45.0331 134.604 -41.5968 132.481C-32.8356 127.209 -25.8651 123.038 -16.3672 130.217C-14.8984 131.327 -13.2812 132.738 -11.7587 134.455C9.7866 156.971 32.6904 184.855 54.4239 235.644C82.9553 302.333 99.367 356.651 92.9595 422.229C89.9546 452.62 78.9018 480.515 65.5675 491.581C57.7886 497.974 49.4723 498.296 41.7369 492.449C37.4285 489.192 33.3001 484.184 29.3011 477.196C21.8968 464.425 20.4365 446.896 24.8126 423.395C28.6299 402.869 36.3256 380.744 43.1656 360.992C45.114 355.48 46.8698 350.199 48.5782 345.071C55.8855 323.03 57.7476 301.404 53.8457 282.784C50.2977 265.754 41.8605 251.636 30.3063 242.902C14.9333 231.283 -3.9512 230.225 -21.5274 240.162C-32.2279 246.233 -40.3794 254.61 -46.3165 265.981C-51.6316 276.123 -55.0798 288.432 -56.7529 303.593C-60.0201 331.709 -57.0206 364.561 -53.8599 399.235C-52.7853 411.375 -51.5621 423.816 -50.7781 436.114C-48.8401 464.2 -55.0456 478.389 -60.5346 485.19C-66.6015 492.688 -74.9492 495.063 -81.9865 491.254C-82.8172 490.815 -83.5026 490.297 -84.2859 489.705C-91.1401 484.524 -94.1887 474.857 -97.4362 464.661C-99.578 458.7 -101.628 452.053 -104.692 446.338Z" fill="#5D5D5D" fill-opacity="0.2"/>
<path d="M55.3567 393.429C46.9882 416.556 46.2789 436.41 48.3641 447.238C49.3783 452.158 51.062 455.696 53.0204 457.176C55.86 459.323 59.1036 457.432 62.1227 451.973C81.4755 416.003 72.1163 355.688 70.4135 349.87C69.9617 348.207 69.4216 347.61 68.8404 347.925C67.8234 348.478 66.8825 352.298 65.19 359.326C63.2165 367.652 60.2546 379.951 55.3567 393.429ZM69.0426 348.834C69.1879 348.755 69.1879 348.755 69.2858 348.829C69.3837 348.903 69.6301 349.278 69.9302 350.26C71.5825 355.851 80.9385 415.786 61.7279 451.297C58.9014 456.524 55.901 458.41 53.2572 456.411C51.3968 455.005 49.811 451.541 48.8474 446.848C46.7147 436.173 47.4273 416.699 55.7484 393.725C60.6937 380.094 63.6555 367.795 65.7269 359.543C67.1858 353.66 68.2689 349.381 69.0426 348.834Z" fill="#5D5D5D" fill-opacity="0.2"/>
<path d="M48.1454 386.279C39.7706 408.647 36.8819 429.685 39.9814 445.433C41.6559 453.684 44.7737 460.005 48.8862 463.114C54.8591 467.628 61.5486 464.755 65.9983 455.847C79.1106 429.886 80.8931 398.76 80.0327 377.342C78.9951 352.203 74.2466 331.244 71.2613 323.324C70.2157 320.457 69.3722 318.497 68.6868 317.979C68.3931 317.757 68.1499 317.762 67.9572 317.994C67.0381 318.621 66.4793 321.597 65.1184 327.554C62.9207 338.165 58.7086 358.014 48.1454 386.279ZM68.1562 318.522C68.3015 318.443 68.4468 318.364 68.6426 318.512C69.2301 318.956 70.0736 320.916 71.0686 323.556C77.7373 341.434 89.5858 408.54 65.8498 455.546C61.4475 464.301 54.9033 467.095 49.0283 462.655C44.9158 459.546 41.8485 453.452 40.2719 445.275C37.2704 429.601 40.1117 408.716 48.2938 386.58C58.9045 358.162 63.1166 338.313 65.4121 327.776C66.7288 322.352 67.4298 318.917 68.1562 318.522Z" fill="#5D5D5D" fill-opacity="0.2"/>
<path d="M42.0904 383.591C31.963 411.619 28.5282 437.154 32.1837 455.398C34.111 464.784 37.7215 471.856 42.8132 475.704C52.507 483.031 64.5214 477.009 72.704 460.727C84.7614 436.612 89.7247 407.701 87.5527 374.908C85.3271 341.507 76.3426 314.326 71.1714 300.978C68.5368 294.266 67.3932 291.325 66.4268 292.105C65.653 292.653 65.0468 295.782 64.027 301.808C61.7032 314.778 57.0178 342.01 42.0904 383.591ZM66.4774 292.332C66.6226 292.253 66.7206 292.327 66.9164 292.475C67.6997 293.067 68.9412 296.082 70.8808 301.136C87.9867 345.406 97.4347 410.508 72.4576 460.352C64.3224 476.481 52.5512 482.498 42.9553 475.245C37.9616 471.471 34.3036 464.552 32.4743 455.24C28.7714 437.149 32.402 411.762 42.3841 383.813C57.3589 342.079 62.0443 314.847 64.3176 301.65C65.2458 296.31 65.8015 292.954 66.4774 292.332Z" fill="#5D5D5D" fill-opacity="0.2"/>
<path d="M-32.2045 208.302C-19.6726 194.364 -5.3962 197.036 5.53231 200.766C6.60622 201.2 6.94098 200.509 6.98516 199.976C7.73666 196.768 0.281864 183.77 -13.5244 173.334C-15.0911 172.15 -16.6578 170.966 -18.2718 169.935C-24.728 165.81 -43.8744 168.33 -52.3861 174.357C-54.5622 175.922 -55.9581 177.699 -56.2833 179.53C-57.2179 184.11 -55.4363 187.722 -53.2599 192.01C-51.0329 196.525 -48.5089 201.643 -48.739 209.021C-48.8493 213.28 -48.2427 216.004 -46.676 217.188C-44.1302 219.112 -39.2411 216.2 -32.2045 208.302ZM-48.1547 209.085C-47.8772 201.554 -50.4517 196.209 -52.7766 191.62C-54.7573 187.48 -56.5862 184.021 -55.6958 179.974C-55.3674 178.523 -54.1168 176.825 -52.086 175.339C-43.6722 169.238 -24.8164 166.876 -18.4581 170.927C-16.8441 171.958 -15.2774 173.142 -13.7107 174.326C-0.198167 184.54 7.10817 197.237 6.54613 199.833C6.40403 200.292 5.96499 200.149 5.72178 200.154C-5.40257 196.276 -19.8243 193.683 -32.5488 207.853C-43.1068 219.319 -48.5488 220.115 -48.1547 209.085Z" fill="#5D5D5D" fill-opacity="0.2"/>
<path d="M56.0131 436.971C56.5027 437.341 57.1817 437.099 57.905 436.325C61.518 432.07 67.4863 412.793 66.0419 397.163C65.8301 395.115 64.9015 394.602 63.5024 395.999C60.0788 399.642 54.1293 415.346 54.9611 433.344C55.075 435.318 55.4256 436.527 56.0131 436.971ZM63.9004 397.055C64.3836 396.665 64.7216 396.354 64.9174 396.502C65.1132 396.65 65.2143 397.104 65.1196 397.41C66.4124 412.358 60.7347 431.478 57.2164 435.426C56.7837 436.043 56.3952 436.127 56.1015 435.905C55.8077 435.683 55.6055 434.775 55.5454 433.408C55.0106 416.012 60.6695 400.466 63.9004 397.055Z" fill="#5D5D5D" fill-opacity="0.2"/>
<path d="M-95.2621 526.72C-79.8672 535.147 -54.1519 521.166 -43.0573 504.065C-23.7989 474.254 -29.2403 434.458 -34.4764 395.95C-39.5544 358.883 -44.2754 323.786 -28.4911 297.39C-14.7216 274.381 7.10957 272.946 20.72 283.234C28.0638 288.784 33.0516 297.652 34.9884 308.178C37.2823 320.674 35.1196 335.464 28.7784 350.873C6.94104 403.845 -13.4208 464.54 21.1864 513.165C25.1254 518.785 29.3959 523.335 33.7042 526.591C50.6439 539.395 66.1041 532.39 76.1064 524.28C95.2899 508.761 110.625 475.229 114.281 441.177C117.346 412.153 115.524 380.569 108.75 344.297C98.7156 290.456 79.237 235.897 49.0732 177.603L47.7875 175.121C35.0289 150.374 21.9734 125.024 6.18605 104.595C5.25107 103.322 4.21816 101.975 3.08733 100.554C-1.68552 94.1142 -7.63973 86.0265 -13.5148 81.5858C-15.8648 79.8096 -18.0631 78.7143 -20.0119 78.3741C-22.9841 77.8268 -25.3054 79.4705 -27.4815 81.0353C-29.1744 82.2101 -30.7693 83.4589 -32.8097 83.8047C-34.073 83.9826 -36.4103 83.7263 -38.8455 83.396C-42.7905 82.8686 -46.8807 82.4201 -48.5262 83.442C-51.7666 85.7126 -51.8896 88.4516 -52.1106 91.1166C-52.1926 92.9426 -52.2746 94.7686 -53.4747 96.6935L-54.4347 98.2334C-61.5879 109.63 -61.5879 109.63 -69.3895 107.509C-70.8519 107.159 -72.7533 106.665 -74.9958 106.103C-81.5276 104.564 -85.1534 107.299 -88.6844 109.728C-91.4416 111.608 -93.9556 113.484 -97.7489 113.638C-97.8468 113.564 -97.9448 113.49 -98.0427 113.416C-101.568 110.751 -129.152 93.3 -134.382 101.997C-135.822 104.306 -135.496 108.328 -133.604 113.535C-131.212 120.251 -128.515 122.856 -126.752 124.188C-125.871 124.855 -125.04 125.294 -124.308 125.659C-123.575 126.024 -122.987 126.468 -122.4 126.912C-120.246 128.54 -118.376 131.086 -118.893 144.855C-119.06 148.127 -119.23 151.019 -119.309 153.225C-119.896 164.487 -119.943 164.64 -115.253 172.906C-114.068 174.934 -112.684 177.49 -110.855 180.949C-105.021 192.156 -105.349 199.46 -105.806 208.743C-106.008 213.688 -106.302 219.319 -105.758 226.149C-105.16 233.586 -103.742 240.323 -102.424 246.605C-100.042 258.034 -97.8117 268.782 -100.132 282.132C-104.268 305.249 -117.912 320.046 -132.061 332.574C-138.918 338.719 -150.509 342.985 -162.877 347.418C-183.78 355.219 -207.398 363.988 -213.701 383.956C-217.253 395.431 -218.093 405.558 -216.172 414.184C-214.049 423.718 -208.828 431.441 -200.211 437.954C-187.677 447.427 -170.17 452.542 -154.759 457.016C-142.567 460.567 -132.132 463.546 -126.159 468.061C-124.788 469.097 -123.758 470.064 -123.019 471.189C-118.145 478.083 -115.296 487.222 -112.692 495.987C-109.142 507.544 -105.79 518.574 -97.8585 524.568C-96.9741 525.615 -96.1907 526.207 -95.2621 526.72ZM-122.391 470.721C-123.228 469.521 -124.355 468.48 -125.726 467.444C-131.699 462.929 -142.233 459.876 -154.425 456.325C-169.835 451.851 -187.245 446.81 -199.68 437.411C-208.199 430.972 -213.225 423.397 -215.247 414.317C-217.117 405.918 -216.227 396.018 -212.817 385.002C-206.656 365.493 -183.182 356.803 -162.571 349.161C-150.253 344.5 -138.564 340.308 -131.562 334.084C-117.268 321.477 -103.479 306.601 -99.2005 283.025C-96.7851 269.369 -99.0662 258.394 -101.499 246.738C-102.816 240.456 -104.235 233.719 -104.88 226.435C-105.424 219.605 -105.178 214.127 -104.976 209.182C-104.522 199.519 -104.146 192.062 -110.227 180.481C-112.056 177.021 -113.439 174.465 -114.624 172.437C-119.119 164.319 -119.119 164.319 -118.576 153.59C-118.45 151.231 -118.327 148.492 -118.16 145.22C-117.589 132.059 -119.178 128.214 -122.018 126.068C-122.605 125.624 -123.338 125.259 -123.926 124.815C-124.756 124.376 -125.442 123.858 -126.323 123.191C-128.183 121.785 -130.489 119.476 -132.83 112.987C-134.574 108.082 -134.846 104.666 -133.743 102.668C-129.234 95.126 -103.223 110.633 -98.3269 114.334C-98.229 114.408 -98.131 114.482 -98.131 114.482L-97.891 114.097L-97.8373 114.704C-93.8008 114.545 -91.0436 112.664 -88.2864 110.784C-84.708 108.202 -81.3223 105.852 -74.9863 107.243C-72.7437 107.805 -70.8423 108.299 -69.3799 108.649C-61.2373 110.839 -61.092 110.76 -53.6988 98.9785L-52.7387 97.4386C-51.346 95.2817 -51.2671 93.0757 -51.1378 91.0967C-50.9642 88.5847 -50.8854 86.3787 -48.0303 84.572C-46.4827 83.4762 -42.3419 84.1517 -38.738 84.6101C-36.3028 84.9403 -33.9656 85.1966 -32.6043 85.0927C-30.466 84.821 -28.7258 83.4932 -27.0329 82.3183C-24.8568 80.7536 -22.7281 79.3418 -19.9518 79.7411C-18.1009 80.0073 -16.0005 81.0286 -13.6505 82.8048C-7.87339 87.1715 -1.91916 95.2592 2.90105 101.546C4.03187 102.967 5.01741 104.467 5.99975 105.587C21.6891 125.942 34.7447 151.292 47.3548 175.738L48.6405 178.22C78.7065 236.44 98.1345 290.772 108.119 344.386C114.842 380.43 116.663 412.015 113.595 440.659C110.035 474.405 94.8414 507.478 75.8031 522.918C65.9461 530.949 50.6785 537.722 34.0326 525.14C29.7243 521.884 25.5516 517.408 21.6632 512.015C-12.4512 464.14 7.76858 403.904 29.3659 351.317C35.8019 335.602 38.0592 320.506 35.7622 307.63C33.8222 296.724 28.5407 287.634 21.099 282.01C7.29267 271.574 -14.927 273.093 -28.9365 296.487C-44.9608 323.267 -39.8828 360.334 -35.0101 396.113C-29.7773 434.241 -24.4844 473.735 -43.3575 503.082C-54.2594 519.952 -79.5862 533.849 -94.7379 525.417C-95.5686 524.978 -96.3519 524.386 -97.1353 523.794C-104.773 518.021 -108.074 507.218 -111.527 495.735C-114.617 486.98 -117.368 477.915 -122.391 470.721Z" fill="#5D5D5D" fill-opacity="0.2"/>
</svg>
