<svg width="156" height="39" viewBox="0 0 156 39" fill="none" xmlns="http://www.w3.org/2000/svg">
<g clip-path="url(#clip0_4094_7287)">
<rect width="39" height="39" rx="10.0531" fill="#0D0D12"/>
<rect width="39" height="39" fill="url(#paint0_linear_4094_7287)" fill-opacity="0.16"/>
<g filter="url(#filter0_b_4094_7287)">
<path d="M10.6101 9.57831C10.6101 9.38219 10.7691 9.22321 10.9652 9.22321H23.0321C25.5017 9.22321 27.5038 11.2252 27.5038 13.6949V13.6949C27.5038 13.891 27.3448 14.05 27.1486 14.05H15.0818C12.6121 14.05 10.6101 12.0479 10.6101 9.57831V9.57831Z" fill="white"/>
<path d="M23.0321 8.85807H10.9652C10.5674 8.85807 10.245 9.18053 10.245 9.57831C10.245 12.2496 12.4105 14.4151 15.0818 14.4151H27.1486C27.5464 14.4151 27.8689 14.0926 27.8689 13.6949C27.8689 11.0236 25.7034 8.85807 23.0321 8.85807Z" stroke="white" stroke-opacity="0.06" stroke-width="0.730268"/>
</g>
<g filter="url(#filter1_b_4094_7287)">
<path d="M10.6101 20.9867C10.6101 21.1828 10.7691 21.3418 10.9652 21.3418H23.0321C25.5017 21.3418 27.5038 19.3398 27.5038 16.8701V16.8701C27.5038 16.674 27.3448 16.515 27.1486 16.515H15.0818C12.6121 16.515 10.6101 18.5171 10.6101 20.9867V20.9867Z" fill="white"/>
<path d="M23.0321 21.7069H10.9652C10.5674 21.7069 10.245 21.3845 10.245 20.9867C10.245 18.3154 12.4105 16.1499 15.0818 16.1499H27.1486C27.5464 16.1499 27.8689 16.4724 27.8689 16.8701C27.8689 19.5414 25.7034 21.7069 23.0321 21.7069Z" stroke="white" stroke-opacity="0.06" stroke-width="0.730268"/>
</g>
<g filter="url(#filter2_b_4094_7287)">
<path d="M17.8501 24.1619C17.8501 23.9658 18.0091 23.8068 18.2052 23.8068H23.032C25.5016 23.8068 27.5036 25.8089 27.5036 28.2785V28.2785C27.5036 28.4746 27.3446 28.6336 27.1485 28.6336H22.3218C19.8521 28.6336 17.8501 26.6316 17.8501 24.1619V24.1619Z" fill="white"/>
<path d="M23.032 23.4417H18.2052C17.8074 23.4417 17.485 23.7642 17.485 24.1619C17.485 26.8332 19.6505 28.9987 22.3218 28.9987H27.1485C27.5463 28.9987 27.8687 28.6763 27.8687 28.2785C27.8687 25.6072 25.7032 23.4417 23.032 23.4417Z" stroke="white" stroke-opacity="0.06" stroke-width="0.730268"/>
</g>
</g>
<rect x="0.5625" y="0.5625" width="37.875" height="37.875" rx="9.49064" stroke="white" stroke-opacity="0.02" stroke-width="1.125"/>
<path d="M96.2222 15.8677H98.6719C98.7633 16.6904 99.4762 17.2571 100.738 17.2571C101.816 17.2571 102.474 16.9097 102.474 16.2516C102.474 15.4838 101.835 15.4289 100.317 15.2279C98.1234 14.9719 96.4233 14.4783 96.4233 12.5405C96.4233 10.6758 98.0503 9.45098 100.463 9.46926C102.986 9.46926 104.723 10.5844 104.851 12.5039H102.383C102.31 11.7544 101.597 11.2974 100.555 11.2974C99.5494 11.2974 98.8912 11.663 98.8912 12.2663C98.8912 12.9793 99.6956 13.0524 101.048 13.2169C103.206 13.4363 104.997 13.9299 104.997 16.0505C104.997 17.9152 103.242 19.1035 100.719 19.1035C98.1051 19.1035 96.3319 17.8786 96.2222 15.8677Z" fill="#191C1F"/>
<path d="M90.5706 19.1035C87.4445 19.1035 85.5615 17.2205 85.5615 14.3138C85.5615 11.3888 87.4811 9.48755 90.3878 9.48755C93.2031 9.48755 95.1043 11.2425 95.1409 14.003C95.1409 14.2772 95.1226 14.588 95.0678 14.8805H88.2489V15.0085C88.3037 16.343 89.1629 17.1474 90.4609 17.1474C91.5029 17.1474 92.2342 16.6904 92.4536 15.8129H94.9947C94.7022 17.641 93.0751 19.1035 90.5706 19.1035ZM88.3037 13.1986H92.545C92.3621 12.0469 91.5761 11.4071 90.4061 11.4071C89.2909 11.4071 88.45 12.0835 88.3037 13.1986Z" fill="#191C1F"/>
<path d="M82.6685 8.59178C81.8276 8.59178 81.1694 7.97021 81.1694 7.14756C81.1694 6.30662 81.8276 5.68506 82.6685 5.68506C83.5094 5.68506 84.1676 6.30662 84.1676 7.14756C84.1676 7.97021 83.5094 8.59178 82.6685 8.59178ZM81.3705 18.9938V9.59725H83.9665V18.9938H81.3705Z" fill="#191C1F"/>
<path d="M75.4051 9.48752C77.928 9.48752 79.7561 11.2974 79.7561 14.2772C79.7561 17.1839 77.928 19.1035 75.3869 19.1035C74.0341 19.1035 73.1017 18.5185 72.4984 17.7141L72.2425 18.9938H69.9939V6.1969H72.5716V10.7855C73.1931 10.036 74.1072 9.48752 75.4051 9.48752ZM74.8201 17.0011C76.2278 17.0011 77.1419 15.9042 77.1419 14.2955C77.1419 12.6867 76.2278 11.5899 74.8201 11.5899C73.4125 11.5899 72.535 12.6867 72.535 14.2772C72.535 15.886 73.4125 17.0011 74.8201 17.0011Z" fill="#191C1F"/>
<path d="M65.4413 14.2955V9.59723H68.019V18.9938H65.7338L65.4962 17.8604C64.8929 18.5916 64.0703 19.1035 62.7357 19.1035C60.7979 19.1035 59.0063 18.1346 59.0063 14.8074V9.59723H61.584V14.46C61.584 16.1419 62.1324 16.9646 63.4121 16.9646C64.6918 16.9646 65.4413 16.0322 65.4413 14.2955Z" fill="#191C1F"/>
<path d="M47.5312 18.9938V6.1969H52.7414C55.5567 6.1969 57.4397 7.86049 57.4397 10.4564C57.4397 12.1017 56.5805 13.418 55.2459 14.0578L57.7688 18.9938H54.7341L52.5769 14.6977H50.2734V18.9938H47.5312ZM52.522 8.48206H50.2734V12.4125H52.522C53.82 12.4125 54.6427 11.6447 54.6427 10.4564C54.6427 9.24987 53.82 8.48206 52.522 8.48206Z" fill="#191C1F"/>
<path d="M154.377 33.1951L152.116 30.5419H151.195V33.1951H150.444V27.2232H151.195V29.8509H152.15L154.309 27.2232H155.205L152.739 30.2092L155.29 33.1951H154.377Z" fill="#697582"/>
<path d="M147.168 27.2232H147.902V33.1951H147.203L143.637 28.4176V33.1951H142.903V27.2232H143.602L147.168 32.0007V27.2232Z" fill="#697582"/>
<path d="M140.285 33.1951L139.645 31.5742H136.778L136.138 33.1951H135.362L137.793 27.2232H138.63L141.061 33.1951H140.285ZM137.051 30.8917H139.372L138.211 27.9655L137.051 30.8917Z" fill="#697582"/>
<path d="M134.018 31.5827C134.018 32.5638 133.293 33.1951 132.124 33.1951H129.428V27.2232H131.92C133.071 27.2232 133.796 27.8375 133.796 28.7674C133.796 29.4158 133.438 29.885 132.798 30.1153C133.575 30.2945 134.018 30.8234 134.018 31.5827ZM131.92 27.9057H130.179V29.7997H131.92C132.645 29.7997 133.029 29.4584 133.029 28.8527C133.029 28.247 132.645 27.9057 131.92 27.9057ZM133.233 31.4974C133.233 30.8575 132.85 30.4822 132.124 30.4822H130.179V32.5126H132.124C132.85 32.5126 133.233 32.1372 133.233 31.4974Z" fill="#697582"/>
<path d="M120.987 32.5041H124.408V33.1951H120.237V27.2232H124.323V27.9143H120.987V29.8423H124.152V30.5248H120.987V32.5041Z" fill="#697582"/>
<path d="M112.646 30.2092C112.62 28.4859 113.942 27.0782 115.657 27.1038C116.783 27.1038 117.756 27.6413 118.259 28.6395L117.636 28.9978C117.218 28.2044 116.579 27.8034 115.708 27.8034C114.352 27.8034 113.431 28.8101 113.431 30.2092C113.431 31.6083 114.352 32.615 115.708 32.615C116.561 32.615 117.235 32.2311 117.653 31.4206L118.259 31.779C117.756 32.7771 116.783 33.3146 115.657 33.3146C113.925 33.3402 112.62 31.9325 112.646 30.2092Z" fill="#697582"/>
<path d="M109.711 27.2232H110.445V33.1951H109.746L106.179 28.4176V33.1951H105.446V27.2232H106.145L109.711 32.0007V27.2232Z" fill="#697582"/>
<path d="M102.827 33.1951L102.187 31.5742H99.321L98.6811 33.1951H97.9048L100.336 27.2232H101.172L103.604 33.1951H102.827ZM99.594 30.8917H101.914L100.754 27.9655L99.594 30.8917Z" fill="#697582"/>
<path d="M95.3289 27.2232H96.0625V33.1951H95.363L91.7969 28.4176V33.1951H91.0632V27.2232H91.7628L95.3289 32.0007V27.2232Z" fill="#697582"/>
<path d="M87.7549 33.1951V27.2232H88.5056V33.1951H87.7549Z" fill="#697582"/>
<path d="M85.5906 27.9143H82.272V29.8679H85.42V30.5675H82.272V33.1951H81.5212V27.2232H85.5906V27.9143Z" fill="#697582"/>
<path d="M73.214 30.2092C73.1884 28.5029 74.5022 27.0782 76.2682 27.1038C78.0341 27.0782 79.348 28.5029 79.3224 30.2092C79.348 31.9155 78.0341 33.3402 76.2682 33.3146C74.5022 33.3402 73.1884 31.9155 73.214 30.2092ZM78.5375 30.2092C78.5375 28.8357 77.6076 27.8034 76.2682 27.8034C74.9288 27.8034 73.9989 28.8357 73.9989 30.2092C73.9989 31.5827 74.9288 32.615 76.2682 32.615C77.6076 32.615 78.5375 31.5827 78.5375 30.2092Z" fill="#697582"/>
<path d="M70.5663 33.1951L68.5871 30.8234H67.6145V33.1951H66.8638V27.2232H69.3378C70.5919 27.2232 71.3341 27.9143 71.3341 29.0404C71.3341 30.1068 70.6516 30.7637 69.4829 30.8234L71.4706 33.1951H70.5663ZM67.6145 27.9143V30.1495H69.2781C70.1739 30.1495 70.5493 29.7997 70.5493 29.0404C70.5493 28.2811 70.1654 27.9143 69.2781 27.9143H67.6145Z" fill="#697582"/>
<path d="M59.2731 30.2092C59.2475 28.4859 60.5698 27.0782 62.2846 27.1038C63.4107 27.1038 64.3833 27.6413 64.8866 28.6395L64.2639 28.9978C63.8458 28.2044 63.206 27.8034 62.3358 27.8034C60.9793 27.8034 60.058 28.8101 60.058 30.2092C60.058 31.6083 60.9793 32.615 62.3358 32.615C63.1889 32.615 63.8629 32.2311 64.2809 31.4206L64.8866 31.779C64.3833 32.7771 63.4107 33.3146 62.2846 33.3146C60.5528 33.3402 59.2475 31.9325 59.2731 30.2092Z" fill="#697582"/>
<path d="M56.3059 33.1951V27.2232H57.0567V33.1951H56.3059Z" fill="#697582"/>
<path d="M52.9571 27.2232H53.7505V33.1951H53.0254V28.375L50.9523 31.6424H50.3295L48.2564 28.375V33.1951H47.5312V27.2232H48.3247L50.6452 30.8661L52.9571 27.2232Z" fill="#697582"/>
<defs>
<filter id="filter0_b_4094_7287" x="8.60221" y="7.21525" width="20.9096" height="8.84266" filterUnits="userSpaceOnUse" color-interpolation-filters="sRGB">
<feFlood flood-opacity="0" result="BackgroundImageFix"/>
<feGaussianBlur in="BackgroundImageFix" stdDeviation="0.638835"/>
<feComposite in2="SourceAlpha" operator="in" result="effect1_backgroundBlur_4094_7287"/>
<feBlend mode="normal" in="SourceGraphic" in2="effect1_backgroundBlur_4094_7287" result="shape"/>
</filter>
<filter id="filter1_b_4094_7287" x="8.60221" y="14.5071" width="20.9096" height="8.84263" filterUnits="userSpaceOnUse" color-interpolation-filters="sRGB">
<feFlood flood-opacity="0" result="BackgroundImageFix"/>
<feGaussianBlur in="BackgroundImageFix" stdDeviation="0.638835"/>
<feComposite in2="SourceAlpha" operator="in" result="effect1_backgroundBlur_4094_7287"/>
<feBlend mode="normal" in="SourceGraphic" in2="effect1_backgroundBlur_4094_7287" result="shape"/>
</filter>
<filter id="filter2_b_4094_7287" x="15.8422" y="21.7989" width="13.6694" height="8.84263" filterUnits="userSpaceOnUse" color-interpolation-filters="sRGB">
<feFlood flood-opacity="0" result="BackgroundImageFix"/>
<feGaussianBlur in="BackgroundImageFix" stdDeviation="0.638835"/>
<feComposite in2="SourceAlpha" operator="in" result="effect1_backgroundBlur_4094_7287"/>
<feBlend mode="normal" in="SourceGraphic" in2="effect1_backgroundBlur_4094_7287" result="shape"/>
</filter>
<linearGradient id="paint0_linear_4094_7287" x1="19.5" y1="-44.1797" x2="19.5" y2="39" gradientUnits="userSpaceOnUse">
<stop stop-color="white"/>
<stop offset="1" stop-color="white" stop-opacity="0"/>
</linearGradient>
<clipPath id="clip0_4094_7287">
<rect width="39" height="39" rx="10.0531" fill="white"/>
</clipPath>
</defs>
</svg>
