<svg width="219" height="252" viewBox="0 0 219 252" fill="none" xmlns="http://www.w3.org/2000/svg">
<g opacity="0.5">
<mask id="path-1-outside-1_4095_7319" maskUnits="userSpaceOnUse" x="-0.504883" y="0" width="220" height="252" fill="black">
<rect fill="white" x="-0.504883" width="220" height="252"/>
<path fill-rule="evenodd" clip-rule="evenodd" d="M0.495117 5.58254C0.495117 3.05167 2.54679 1 5.07766 1H160.799C192.67 1 218.505 26.8359 218.505 58.7061C218.505 61.237 216.454 63.2886 213.923 63.2886H58.2012C26.331 63.2886 0.495117 37.4528 0.495117 5.58254ZM0.495117 152.806C0.495117 155.337 2.54679 157.388 5.07766 157.388H160.799C192.67 157.388 218.505 131.552 218.505 99.6821C218.505 97.1512 216.454 95.0996 213.923 95.0996H58.2012C26.331 95.0996 0.495117 120.935 0.495117 152.806ZM98.5107 189.199C95.9798 189.199 93.9282 191.251 93.9282 193.782C93.9282 225.652 119.764 251.488 151.634 251.488H213.923C216.454 251.488 218.505 249.436 218.505 246.905C218.505 215.035 192.67 189.199 160.799 189.199H98.5107Z"/>
</mask>
<path fill-rule="evenodd" clip-rule="evenodd" d="M0.495117 5.58254C0.495117 3.05167 2.54679 1 5.07766 1H160.799C192.67 1 218.505 26.8359 218.505 58.7061C218.505 61.237 216.454 63.2886 213.923 63.2886H58.2012C26.331 63.2886 0.495117 37.4528 0.495117 5.58254ZM0.495117 152.806C0.495117 155.337 2.54679 157.388 5.07766 157.388H160.799C192.67 157.388 218.505 131.552 218.505 99.6821C218.505 97.1512 216.454 95.0996 213.923 95.0996H58.2012C26.331 95.0996 0.495117 120.935 0.495117 152.806ZM98.5107 189.199C95.9798 189.199 93.9282 191.251 93.9282 193.782C93.9282 225.652 119.764 251.488 151.634 251.488H213.923C216.454 251.488 218.505 249.436 218.505 246.905C218.505 215.035 192.67 189.199 160.799 189.199H98.5107Z" fill="white" fill-opacity="0.05"/>
<path d="M5.07766 0.601444C2.32668 0.601444 0.0965609 2.83156 0.0965609 5.58254H0.893674C0.893674 3.27179 2.76691 1.39856 5.07766 1.39856V0.601444ZM160.799 0.601444H5.07766V1.39856H160.799V0.601444ZM218.904 58.7061C218.904 26.6158 192.89 0.601444 160.799 0.601444V1.39856C192.449 1.39856 218.107 27.056 218.107 58.7061H218.904ZM213.923 63.6872C216.674 63.6872 218.904 61.4571 218.904 58.7061H218.107C218.107 61.0169 216.234 62.8901 213.923 62.8901V63.6872ZM58.2012 63.6872H213.923V62.8901H58.2012V63.6872ZM0.0965609 5.58254C0.0965609 37.6729 26.1109 63.6872 58.2012 63.6872V62.8901C26.5512 62.8901 0.893674 37.2326 0.893674 5.58254H0.0965609ZM5.07766 156.99C2.76691 156.99 0.893674 155.116 0.893674 152.806H0.0965609C0.0965609 155.557 2.32668 157.787 5.07766 157.787V156.99ZM160.799 156.99H5.07766V157.787H160.799V156.99ZM218.107 99.6821C218.107 131.332 192.449 156.99 160.799 156.99V157.787C192.89 157.787 218.904 131.772 218.904 99.6821H218.107ZM213.923 95.4981C216.234 95.4981 218.107 97.3714 218.107 99.6821H218.904C218.904 96.9311 216.674 94.701 213.923 94.701V95.4981ZM58.2012 95.4981H213.923V94.701H58.2012V95.4981ZM0.893674 152.806C0.893674 121.156 26.5512 95.4981 58.2012 95.4981V94.701C26.1109 94.701 0.0965609 120.715 0.0965609 152.806H0.893674ZM94.3267 193.782C94.3267 191.471 96.2 189.598 98.5107 189.598V188.801C95.7597 188.801 93.5296 191.031 93.5296 193.782H94.3267ZM151.634 251.089C119.984 251.089 94.3267 225.432 94.3267 193.782H93.5296C93.5296 225.872 119.544 251.886 151.634 251.886V251.089ZM213.923 251.089H151.634V251.886H213.923V251.089ZM218.107 246.905C218.107 249.216 216.234 251.089 213.923 251.089V251.886C216.674 251.886 218.904 249.656 218.904 246.905H218.107ZM160.799 189.598C192.449 189.598 218.107 215.255 218.107 246.905H218.904C218.904 214.815 192.89 188.801 160.799 188.801V189.598ZM98.5107 189.598H160.799V188.801H98.5107V189.598Z" fill="url(#paint0_linear_4095_7319)" mask="url(#path-1-outside-1_4095_7319)"/>
</g>
<defs>
<linearGradient id="paint0_linear_4095_7319" x1="-59.0891" y1="-111.194" x2="229.266" y2="264.047" gradientUnits="userSpaceOnUse">
<stop stop-color="white" stop-opacity="0.33"/>
<stop offset="1" stop-color="white" stop-opacity="0"/>
</linearGradient>
</defs>
</svg>
