<svg width="220" height="252" viewBox="0 0 220 252" fill="none" xmlns="http://www.w3.org/2000/svg">
<g opacity="0.2">
<mask id="path-1-outside-1_4095_7319" maskUnits="userSpaceOnUse" x="0" y="0" width="220" height="252" fill="black">
<rect fill="white" width="220" height="252"/>
<path fill-rule="evenodd" clip-rule="evenodd" d="M1 5.58254C1 3.05167 3.05168 1 5.58254 1H161.304C193.174 1 219.01 26.8359 219.01 58.7061C219.01 61.237 216.959 63.2886 214.428 63.2886H58.7061C26.8359 63.2886 1 37.4528 1 5.58254ZM1 152.806C1 155.337 3.05168 157.388 5.58254 157.388H161.304C193.174 157.388 219.01 131.552 219.01 99.6821C219.01 97.1512 216.959 95.0996 214.428 95.0996H58.7061C26.8359 95.0996 1 120.935 1 152.806ZM99.0156 189.199C96.4847 189.199 94.433 191.251 94.433 193.782C94.433 225.652 120.269 251.488 152.139 251.488H214.428C216.959 251.488 219.01 249.436 219.01 246.905C219.01 215.035 193.174 189.199 161.304 189.199H99.0156Z"/>
</mask>
<path fill-rule="evenodd" clip-rule="evenodd" d="M1 5.58254C1 3.05167 3.05168 1 5.58254 1H161.304C193.174 1 219.01 26.8359 219.01 58.7061C219.01 61.237 216.959 63.2886 214.428 63.2886H58.7061C26.8359 63.2886 1 37.4528 1 5.58254ZM1 152.806C1 155.337 3.05168 157.388 5.58254 157.388H161.304C193.174 157.388 219.01 131.552 219.01 99.6821C219.01 97.1512 216.959 95.0996 214.428 95.0996H58.7061C26.8359 95.0996 1 120.935 1 152.806ZM99.0156 189.199C96.4847 189.199 94.433 191.251 94.433 193.782C94.433 225.652 120.269 251.488 152.139 251.488H214.428C216.959 251.488 219.01 249.436 219.01 246.905C219.01 215.035 193.174 189.199 161.304 189.199H99.0156Z" fill="#818898"/>
<path d="M5.58254 0.601444C2.83156 0.601444 0.601444 2.83156 0.601444 5.58254H1.39856C1.39856 3.27179 3.27179 1.39856 5.58254 1.39856V0.601444ZM161.304 0.601444H5.58254V1.39856H161.304V0.601444ZM219.409 58.7061C219.409 26.6158 193.395 0.601444 161.304 0.601444V1.39856C192.954 1.39856 218.612 27.056 218.612 58.7061H219.409ZM214.428 63.6872C217.179 63.6872 219.409 61.4571 219.409 58.7061H218.612C218.612 61.0169 216.739 62.8901 214.428 62.8901V63.6872ZM58.7061 63.6872H214.428V62.8901H58.7061V63.6872ZM0.601444 5.58254C0.601444 37.6729 26.6158 63.6872 58.7061 63.6872V62.8901C27.056 62.8901 1.39856 37.2326 1.39856 5.58254H0.601444ZM5.58254 156.99C3.27179 156.99 1.39856 155.116 1.39856 152.806H0.601444C0.601444 155.557 2.83156 157.787 5.58254 157.787V156.99ZM161.304 156.99H5.58254V157.787H161.304V156.99ZM218.612 99.6821C218.612 131.332 192.954 156.99 161.304 156.99V157.787C193.395 157.787 219.409 131.772 219.409 99.6821H218.612ZM214.428 95.4981C216.739 95.4981 218.612 97.3714 218.612 99.6821H219.409C219.409 96.9311 217.179 94.701 214.428 94.701V95.4981ZM58.7061 95.4981H214.428V94.701H58.7061V95.4981ZM1.39856 152.806C1.39856 121.156 27.056 95.4981 58.7061 95.4981V94.701C26.6158 94.701 0.601444 120.715 0.601444 152.806H1.39856ZM94.8316 193.782C94.8316 191.471 96.7048 189.598 99.0156 189.598V188.801C96.2646 188.801 94.0345 191.031 94.0345 193.782H94.8316ZM152.139 251.089C120.489 251.089 94.8316 225.432 94.8316 193.782H94.0345C94.0345 225.872 120.049 251.886 152.139 251.886V251.089ZM214.428 251.089H152.139V251.886H214.428V251.089ZM218.612 246.905C218.612 249.216 216.739 251.089 214.428 251.089V251.886C217.179 251.886 219.409 249.656 219.409 246.905H218.612ZM161.304 189.598C192.954 189.598 218.612 215.255 218.612 246.905H219.409C219.409 214.815 193.395 188.801 161.304 188.801V189.598ZM99.0156 189.598H161.304V188.801H99.0156V189.598Z" fill="url(#paint0_linear_4095_7319)" mask="url(#path-1-outside-1_4095_7319)"/>
</g>
<defs>
<linearGradient id="paint0_linear_4095_7319" x1="-58.5842" y1="-111.194" x2="229.771" y2="264.047" gradientUnits="userSpaceOnUse">
<stop stop-color="white" stop-opacity="0.33"/>
<stop offset="1" stop-color="white" stop-opacity="0"/>
</linearGradient>
</defs>
</svg>
